<svg width="2676" height="2715" viewBox="0 0 2676 2715" fill="none" xmlns="http://www.w3.org/2000/svg">
<path d="M1291.94 2099.16C1715.53 2099.16 2058.92 1755.78 2058.92 1332.19C2058.92 908.598 1715.53 565.211 1291.94 565.211C868.352 565.211 524.965 908.598 524.965 1332.19C524.965 1755.78 868.352 2099.16 1291.94 2099.16Z" fill="#F0CC69"/>
<path d="M1291.94 2081.22C1705.62 2081.22 2040.98 1745.87 2040.98 1332.19C2040.98 918.507 1705.62 583.152 1291.94 583.152C878.261 583.152 542.906 918.507 542.906 1332.19C542.906 1745.87 878.261 2081.22 1291.94 2081.22Z" fill="#2F333F"/>
<path d="M1585.36 611.244C1585.36 611.244 1654.41 657.277 1660.15 691.827C1665.89 726.377 1663.02 720.585 1663.02 720.585C1663.02 720.585 2228.7 1088.85 1886.32 1773.65C1866.17 1819.69 1952.5 1779.39 1952.5 1779.39C1952.5 1779.39 2468.65 873.088 1585.36 611.244Z" fill="#2F333F"/>
<path d="M1097.51 628.724C1091.05 630.364 1107.45 609.501 1077.51 617.498C1061.32 621.855 1052.09 617.908 1039.89 615.498C1032.66 614.063 1026.05 614.319 1023.13 614.319C999.135 614.319 998.007 611.654 968.173 616.37C913.528 624.982 410.344 919.121 534.038 1451.37C577.2 1500.27 577.2 1419.74 577.2 1419.74C577.2 1419.74 1678.51 482.936 1097.51 628.724Z" fill="#2F333F"/>
<path d="M1582.49 834.334C1574.34 782.868 1526 747.702 1474.48 755.904C1423.02 764.055 1387.9 812.394 1396.05 863.912C1404.2 915.379 1452.54 950.545 1504.06 942.343C1555.53 934.141 1590.69 885.801 1582.49 834.334Z" fill="#F0CC69"/>
<path d="M1558.25 814.906C1550.92 768.566 1507.39 736.937 1461.05 744.319C1414.71 751.649 1383.08 795.171 1390.47 841.511C1397.8 887.852 1441.32 919.48 1487.66 912.098C1533.95 904.717 1565.58 861.196 1558.25 814.906Z" fill="#2F333F"/>
<path d="M1831.68 1212.59C1831.68 1212.59 1830.34 1264.47 1880.58 1321.94C1912.51 1358.43 1989.36 1385.4 2000.84 1452.86C2002.89 1464.96 2028.06 1357.31 1995.66 1311.89C1959.73 1261.5 1876.58 1263.14 1831.68 1212.59Z" fill="#F0CC69"/>
<path d="M2020.42 1305.79C2020.42 1305.79 2023.75 1203.37 1971.21 1166.51C1917.13 1128.58 1818.45 1143.49 1794.25 1116.17C1787.49 1108.53 1828.91 1195.01 1870.48 1215.41C1922.05 1240.79 1990.54 1237.92 2020.42 1305.79Z" fill="#F0CC69"/>
<path d="M2020.16 1203.93C2020.16 1203.93 2016.52 1096.08 1966.95 1068.7C1917.33 1041.33 1853.31 1057.53 1800.1 1030.21C1769.65 1014.57 1763.6 1000.94 1763.6 1000.94C1763.6 1000.94 1778.88 1076.44 1830.29 1102.13C1853.31 1113.61 1928.66 1110.69 1966.95 1127.65C1999.71 1142.21 2010.07 1166.56 2020.16 1203.93Z" fill="#F0CC69"/>
<path d="M1680.35 1939.38C1680.35 1939.38 1926.25 1785.49 1869.1 1708.91C1766.11 1576.86 1756.32 1451.37 1756.32 1451.37C1756.32 1451.37 1710.9 1615.51 1747.71 1668.87C1784.46 1722.29 1830.96 1726.59 1833.16 1752.02C1837.67 1804.15 1758.47 1875.2 1680.35 1939.38Z" fill="#F0CC69"/>
<path d="M1754.01 901.846C1754.01 901.846 1762.52 992.784 1807.22 1004.01C1848.23 1014.31 1940.71 1008.88 1973.52 1041.69C1977.57 1045.74 1980.44 1055.78 1981.87 1055.78C1990.28 1055.78 1948.19 952.185 1870.53 937.832C1781.9 921.377 1772.72 929.169 1754.01 901.846Z" fill="#F0CC69"/>
<path d="M1713.72 806.91C1713.72 806.91 1753.3 877.856 1784.82 892.875C1832.65 915.687 1900.06 890.261 1941.02 953.62C1956.86 978.072 1930.97 900.411 1874.84 852.943C1825.93 811.575 1765.6 838.231 1713.72 806.91Z" fill="#F0CC69"/>
<path d="M1657.59 654.406C1657.59 654.406 1691.06 688.239 1703.62 713.408C1716.54 739.295 1719.21 765.541 1732.38 775.281C1785.08 814.189 1857.56 782.458 1886.32 845.766C1891.29 856.684 1884.89 783.893 1831.68 724.942C1790.46 679.165 1703.62 688.546 1657.59 654.406Z" fill="#F0CC69"/>
<path d="M1838.49 1849.93C1873.71 1811.79 1896.32 1768.58 1917.13 1755.56C1956.91 1730.7 2030.16 1737.51 2081.99 1659.6C2081.99 1659.6 2049.02 1771.65 1959.68 1799.49C1943.48 1804.51 1903.24 1800.26 1885.24 1822.35C1879.09 1829.89 1865.35 1839.68 1858.18 1847.11C1847.46 1858.23 1831.16 1857.88 1838.49 1849.93Z" fill="#F0CC69"/>
<path d="M1989.61 1599.82C1989.61 1599.82 2010.01 1515.4 2046.31 1492.59C2111.87 1451.42 2131.2 1416 2139.5 1383.76C2145.14 1361.77 2136.22 1466.03 2125.35 1494.17C2099.88 1560.56 1989.61 1599.82 1989.61 1599.82Z" fill="#F0CC69"/>
<path d="M2048.92 1326.24C2048.92 1326.24 2135.25 1280.21 2116.54 1139.24C2106.49 1186.71 2086.34 1208.29 2086.34 1208.29C2086.34 1208.29 2035.95 1247.09 2048.92 1326.24Z" fill="#F0CC69"/>
<path d="M1996.79 1022.67C1996.79 1022.67 2063.33 950.75 1970.44 812.087C1977.1 850.226 1966.95 886.365 1966.95 886.365C1966.95 886.365 1944.4 921.736 1996.79 1022.67Z" fill="#F0CC69"/>
<path d="M1873.4 752.213C1873.4 752.213 1942.81 747.907 1953.99 815.522C1963.78 874.78 1940.4 887.698 1944.71 905.229C1949.06 922.761 1900.06 856.018 1899.29 831.361C1898.52 806.705 1894.98 766.618 1873.4 752.213Z" fill="#F0CC69"/>
<path d="M2025.91 1111.15C2025.91 1111.15 1996.22 1046.71 2017.29 1022.67C2037.44 999.653 2044.62 945.009 2036 917.635C2026.83 888.775 2110.79 1034.2 2025.91 1111.15Z" fill="#F0CC69"/>
<path d="M2043.18 1234.18C2043.18 1234.18 2029.19 1150.41 2036.67 1134.42C2044.15 1118.43 2089.21 1083.11 2076.24 1003.29C2072.6 980.892 2139.91 1087.16 2095.67 1152.21C2070.09 1189.73 2049.49 1200.45 2043.18 1234.18Z" fill="#F0CC69"/>
<path d="M1928.05 1727.77C1928.05 1727.77 1946.3 1660.67 1975.52 1641.3C1992.48 1630.07 2083.68 1605.31 2125.92 1525.09C2143.6 1491.46 2098.39 1651.24 2027.34 1685.74C1980.54 1708.45 1956.5 1699.84 1928.05 1727.77Z" fill="#F0CC69"/>
<path d="M2055.28 1355.82C2077.48 1331.21 2119 1318.09 2131.66 1234.18C2147.6 1320.35 2122.33 1365.1 2122.33 1365.1C2122.33 1365.1 2075.22 1452.86 2041.49 1455.98C2028.78 1457.16 2038.72 1374.17 2055.28 1355.82Z" fill="#F0CC69"/>
<path d="M1891.55 1722.55C1891.55 1722.55 1938.15 1652.78 1923.79 1569.32C1912.98 1506.63 1787.13 1457.11 1805.84 1360.74C1819.47 1290.36 1736.07 1494.53 1859.05 1632.63C1894.42 1668.62 1891.55 1722.55 1891.55 1722.55Z" fill="#F0CC69"/>
<path d="M1945.37 1622.58C1945.37 1622.58 2005.91 1510.01 1987.77 1468.65C1965.31 1417.44 1833.42 1354.69 1838.03 1301.17C1841.36 1262.37 1817.32 1374.27 1850.39 1425.48C1881.76 1474.03 1966.9 1485.92 1945.37 1622.58Z" fill="#F0CC69"/>
<path d="M559.72 1677.95C409.318 1429.48 448.585 1169.12 579.917 989.144C586.53 980.122 609.085 953.774 614.057 954.799C622.926 956.645 630.615 968.332 627.744 973.356C622.464 982.532 617.236 991.912 612.161 1001.5C564.897 1090.9 498.36 1209.16 523.991 1327.68C534.089 1374.38 540.087 1418.56 549.16 1421.18C549.16 1421.18 566.999 1386.68 573.253 1365.71C599.038 1279.29 604.42 1217.98 666.293 1143.54C781.529 1004.93 779.838 1022.11 694.743 1172.1C660.398 1232.69 632.358 1305.33 621.439 1389.86C619.184 1407.29 605.497 1444.19 604.779 1462.6C603.549 1494.33 639.124 1511.24 639.124 1543.39C639.124 1553.43 640.56 1625.4 676.545 1704.5C697.306 1750.23 719.503 1797.44 748.722 1840.55C752.31 1845.83 775.275 1892.68 763.536 1884.48C730.37 1861.57 618.568 1769.5 559.72 1677.95Z" fill="#F0CC69"/>
<path d="M646.404 1727.11C613.852 1671.95 595.501 1529.34 690.489 1363.51C708.84 1331.47 701.1 1318.86 679.211 1346.08C564.334 1488.84 571.049 1629.56 571.049 1629.56" fill="#F0CC69"/>
<path d="M789.321 1883.15C773.481 1868.74 755.488 1841.37 751.9 1825.58C750.055 1817.43 748.671 1802.1 749.286 1793.44C751.9 1756.53 766.715 1740.03 780.658 1703.32C801.163 1649.55 811.312 1661.75 816.233 1641.65C833.867 1569.53 714.479 1683.23 714.479 1683.23C714.479 1683.23 683.312 1713.83 664.858 1758.48C664.858 1758.48 679.621 1791.9 708.738 1819.89C773.276 1881.92 873.031 1959.22 789.321 1883.15Z" fill="#F0CC69"/>
<path d="M771.38 1724.39C771.38 1724.39 825.256 1633.2 892.614 1554.77C914.554 1529.24 906.198 1512.68 908.402 1500.99C910.606 1489.3 911.58 1471.82 923.165 1460.03C934.751 1448.29 952.487 1437.99 952.487 1437.99L970.839 1428.61C964.329 1421.64 925.37 1440.5 925.37 1440.5C925.37 1440.5 896.151 1459.06 891.64 1475.46C887.129 1491.82 884.412 1509.91 882.72 1517.5C881.028 1525.08 853.04 1567.43 836.687 1582.81C820.283 1598.13 783.324 1628.07 783.324 1628.07L769.791 1683.94L771.38 1724.39Z" fill="#F0CC69"/>
<path d="M770.713 1654.73C770.713 1654.73 772.712 1587.47 761.281 1562.4C749.798 1537.34 713.146 1533.75 713.146 1533.75C713.146 1533.75 740.11 1518.63 755.642 1531.44C771.123 1544.31 754.463 1483.2 783.939 1469.16C783.939 1469.16 767.279 1527.85 773.43 1541.95C779.633 1556.05 791.577 1633.61 791.577 1633.61" fill="#F0CC69"/>
<path d="M664.96 1439.17C664.96 1439.17 729.14 1366.58 752.156 1363.66C775.173 1360.79 840.173 1376.84 840.173 1376.84C840.173 1376.84 913.99 1398.06 935.776 1379.19C957.562 1360.33 908.812 1389.75 872.57 1370.12C836.277 1350.49 778.505 1345.16 778.505 1345.16C778.505 1345.16 750.106 1327.21 708.892 1362.84" fill="#F0CC69"/>
<path d="M715.197 1122.01C725.398 1116.38 750.926 1072.85 750.875 1050.2C750.875 1050.45 758.103 987.709 784.144 959.669C819.155 921.94 873.851 877.702 896.612 886.826C919.372 895.951 875.953 849.559 766.151 958.9C723.04 1001.86 715.094 1076.7 715.094 1076.7L654.913 1157.95" fill="#F0CC69"/>
<path d="M505.28 1277.29C505.28 1277.29 526.041 1217.98 545.88 1193.01C565.718 1168.05 592.271 1145.13 609.957 1126.94C627.642 1108.69 656.297 1065.78 659.578 1057.94C662.859 1050.09 682.543 994.117 682.543 994.117C682.543 994.117 693.154 916.25 704.022 873.806C714.889 831.361 765.279 801.681 765.279 801.681L803.572 788.968C803.572 788.968 892.357 759.851 899.072 766.31C905.788 772.769 953.871 814.65 953.871 814.65L912.349 757.083L958.895 695.364L960.791 680.344C960.791 680.344 927.779 732.272 898.919 744.165C870.058 756.058 823.359 759.595 823.359 759.595L770.047 769.95C770.047 769.95 736.778 781.996 708.02 807.166C679.262 832.335 668.395 874.78 668.395 874.78L664.345 932.552L638.099 1004.22L598.577 1080.7C598.577 1080.7 554.799 1134.98 541.471 1144.21C528.194 1153.44 505.28 1277.29 505.28 1277.29Z" fill="#F0CC69"/>
<path d="M715.299 1214.95C715.299 1214.95 786.348 1178.76 797.42 1163.95C808.442 1149.08 842.121 1097.51 842.121 1097.51L836.072 1122.83L817.976 1155.49L851.399 1151.85L887.538 1148.93L866.829 1159.23L819.924 1168.41C819.924 1168.41 769.995 1218.18 736.111 1223.56" fill="#F0CC69"/>
<path d="M588.427 1371.56C588.427 1371.56 572.689 1328.7 571.459 1268.67C571.459 1268.67 580.225 1287.54 591.246 1318.3C606.676 1361.36 608.367 1327.52 608.367 1327.52" fill="#F0CC69"/>
<path d="M783.426 776.255C783.426 776.255 814.337 739.449 819.412 726.224C824.487 712.998 836.021 706.744 836.021 706.744L833.099 722.328L814.337 765.234" fill="#F0CC69"/>
<path d="M523.478 1094.79C523.478 1094.79 536.089 1008.32 538.703 997.193C541.368 986.069 562.591 957.67 562.591 957.67C562.591 957.67 609.905 924.555 613.186 928.041C616.416 931.527 578.431 955.978 566.641 971.254C554.85 986.53 552.902 1010.01 552.902 1010.01L555.619 1029.18L523.478 1094.79Z" fill="#F0CC69"/>
<path d="M813.158 1164.77C813.158 1164.77 853.654 1189.12 873.031 1173.69C892.408 1158.21 913.733 1133.45 913.733 1133.45C913.733 1133.45 841.352 1121.96 813.158 1164.77Z" fill="#F0CC69"/>
<path d="M930.752 765.387C930.752 765.387 956.383 804.961 980.629 799.528C1004.88 794.094 1034.92 781.125 1034.92 781.125C1034.92 781.125 974.939 739.244 930.752 765.387Z" fill="#F0CC69"/>
<path d="M890.511 732.067C890.511 732.067 934.699 715.305 934.442 690.545C934.135 665.786 927.625 633.799 927.625 633.799C927.625 633.799 874.005 683.574 890.511 732.067Z" fill="#F0CC69"/>
<path d="M806.033 1019.18C806.033 1019.18 853.142 1015.19 859.703 991.349C866.265 967.461 868.879 934.961 868.879 934.961C868.879 934.961 803.623 968.025 806.033 1019.18Z" fill="#F0CC69"/>
<path d="M959.868 1283.44C959.868 1283.44 967.558 1329.93 991.958 1334.55C1016.36 1339.16 1049.11 1339.21 1049.11 1339.21C1049.11 1339.21 1010.87 1277.03 959.868 1283.44Z" fill="#F0CC69"/>
<path d="M927.42 1463.31C927.42 1463.31 966.071 1490.43 986.525 1476.34C1006.98 1462.24 1029.94 1439.02 1029.94 1439.02C1029.94 1439.02 958.587 1422.56 927.42 1463.31Z" fill="#F0CC69"/>
<path d="M1006.98 1138.26C1006.98 1138.26 1051.73 1123.04 1052.29 1098.28C1052.86 1073.52 1047.47 1041.33 1047.47 1041.33C1047.47 1041.33 992.215 1089.26 1006.98 1138.26Z" fill="#F0CC69"/>
<path d="M572.946 944.957C572.946 944.957 614.365 922.197 610.623 897.745C606.881 873.293 595.962 842.536 595.962 842.536C595.962 842.536 549.878 899.18 572.946 944.957Z" fill="#F0CC69"/>
<path d="M863.343 997.961C863.343 997.961 910.042 1005.45 922.191 983.864C934.34 962.283 944.798 931.373 944.798 931.373C944.798 931.373 873.39 947.725 863.343 997.961Z" fill="#F0CC69"/>
<path d="M698.075 1192.86C698.075 1192.86 744.775 1200.34 756.924 1178.76C769.073 1157.18 779.53 1126.27 779.53 1126.27C779.53 1126.27 708.123 1142.67 698.075 1192.86Z" fill="#F0CC69"/>
<path d="M875.031 1377.76C875.031 1377.76 902.046 1416.41 926.088 1410.16C950.129 1403.9 979.707 1389.86 979.707 1389.86C979.707 1389.86 918.296 1350.08 875.031 1377.76Z" fill="#F0CC69"/>
<path d="M765.792 1623.35C765.792 1623.35 750.516 1578.76 725.654 1578.19C700.792 1577.63 668.497 1582.96 668.497 1582.96C668.497 1582.96 716.53 1638.07 765.792 1623.35Z" fill="#F0CC69"/>
<path d="M841.915 1042.66C841.915 1042.66 866.675 1016.57 902.045 1020.16C937.416 1023.75 938.646 1039.79 963.2 1042.71C969.659 1043.48 896.201 1091.82 852.065 1066.04C830.894 1053.68 887.743 1040.97 910.914 1042.97C897.944 1032.56 841.915 1042.66 841.915 1042.66Z" fill="#F0CC69"/>
<path d="M824.23 706.231C824.23 706.231 810.338 673.116 828.023 642.359C845.709 611.602 860.933 617.036 873.595 595.916C876.927 590.38 891.383 676.807 849.758 706.539C829.818 720.79 841.3 663.889 852.526 643.641C837.712 651.176 824.23 706.231 824.23 706.231Z" fill="#F0CC69"/>
<path d="M963.816 672.963C963.816 672.963 974.735 641.539 1004.83 634.875C1034.92 628.211 1041.58 642.872 1062.55 638.617C1068.08 637.49 1025.38 703.566 980.322 691.981C958.69 686.444 1000.52 658.456 1020.05 653.74C1005.85 647.588 963.816 672.963 963.816 672.963Z" fill="#F0CC69"/>
<path d="M641.944 1297.59C641.944 1297.59 651.735 1265.8 681.569 1258.06C711.403 1250.32 718.58 1264.73 739.392 1259.81C744.877 1258.52 704.534 1325.98 659.065 1315.99C637.279 1311.17 678.083 1281.75 697.46 1276.41C683.056 1270.78 641.944 1297.59 641.944 1297.59Z" fill="#F0CC69"/>
<path d="M831.817 880.111C831.817 880.111 814.644 851.558 828.844 824.338C843.043 797.067 858.576 801.424 868.828 782.714C871.545 777.793 894.869 852.788 856.987 879.752C838.84 892.67 844.171 842.792 853.142 824.851C839.301 831.72 831.817 880.111 831.817 880.111Z" fill="#F0CC69"/>
<path d="M957.972 806.397C957.972 806.397 993.958 808.498 1013.95 837.82C1033.94 867.142 1022.36 878.368 1035.89 898.975C1039.43 904.409 955.05 879.444 946.489 829.157C942.388 805.064 988.678 840.281 1002.01 859.196C1001.75 842.639 957.972 806.397 957.972 806.397Z" fill="#F0CC69"/>
<path d="M852.732 893.747C852.732 893.747 888.358 924.76 910.145 912.867C931.931 900.975 957.254 880.265 957.254 880.265C957.254 880.265 887.948 856.479 852.732 893.747Z" fill="#F0CC69"/>
<path d="M969.967 1241.92C969.967 1241.92 996.469 1217.62 1031.53 1223.62C1066.6 1229.66 1066.7 1245.76 1090.94 1250.37C1097.3 1251.6 1020.66 1294.72 978.425 1265.96C958.177 1252.17 1015.79 1243.45 1038.71 1247.04C1026.56 1235.71 969.967 1241.92 969.967 1241.92Z" fill="#F0CC69"/>
<path d="M955.921 1176.56C955.921 1176.56 983.141 1138.06 968.993 1117.71C954.845 1097.36 931.521 1074.5 931.521 1074.5C931.521 1074.5 915.015 1145.54 955.921 1176.56Z" fill="#F0CC69"/>
<path d="M561.924 1276.36C561.924 1276.36 540.036 1251.25 549.263 1221.92C558.49 1192.65 574.535 1194.24 581.404 1173.99C583.198 1168.66 619.286 1238.48 586.684 1271.6C571.049 1287.49 567.614 1237.4 573.304 1218.18C560.899 1227.46 561.924 1276.36 561.924 1276.36Z" fill="#F0CC69"/>
<path d="M950.385 750.983C950.385 750.983 957.1 714.638 983.961 704.642C1010.77 694.646 1022.97 700.234 1051.01 699.978C1051.01 699.978 1042.14 732.888 1017.43 739.552C989.805 746.985 976.836 730.991 950.385 750.983Z" fill="#F0CC69"/>
<path d="M968.532 1186.66C968.532 1186.66 982.731 1152.52 1011.03 1148.31C1039.32 1144.11 1050.09 1152.05 1077.57 1157.64C1077.57 1157.64 1062.03 1187.99 1036.5 1189.37C1007.9 1190.96 998.571 1172.61 968.532 1186.66Z" fill="#F0CC69"/>
<path d="M844.735 1502.38C844.735 1502.38 808.237 1509.09 798.19 1535.8C788.142 1562.51 793.781 1574.65 793.525 1602.54C793.525 1602.54 826.589 1593.67 833.253 1569.12C840.737 1541.64 824.641 1528.78 844.735 1502.38Z" fill="#F0CC69"/>
<path d="M771.892 1505.25C771.892 1505.25 750.875 1474.8 762.716 1448.86C774.558 1422.92 787.168 1418.26 806.801 1398.37C806.801 1398.37 823.872 1427.89 811.159 1449.99C796.959 1474.64 776.403 1472.44 771.892 1505.25Z" fill="#F0CC69"/>
<path d="M829.1 1126.53C829.1 1126.53 828.588 1085.88 807.417 1079.57C786.246 1073.26 757.026 1070.14 757.026 1070.14C757.026 1070.14 782.709 1127.24 829.1 1126.53Z" fill="#F0CC69"/>
<path d="M688.284 1021.44C688.284 1021.44 728.935 1017.39 733.395 995.808C737.854 974.278 738.418 945.008 738.418 945.008C738.418 945.008 683.568 975.457 688.284 1021.44Z" fill="#F0CC69"/>
<path d="M733.087 921.838C733.087 921.838 709.61 897.232 716.632 871.96C723.655 846.688 734.42 840.691 749.337 819.827C749.337 819.827 769.124 844.176 760.717 866.014C751.388 890.517 732.472 891.44 733.087 921.838Z" fill="#F0CC69"/>
<path d="M738.367 923.632C738.367 923.632 777.531 940.292 792.858 924.093C808.185 907.895 824.076 883.135 824.076 883.135C824.076 883.135 758.103 882.008 738.367 923.632Z" fill="#F0CC69"/>
<path d="M741.238 1516.22C741.238 1516.22 718.939 1500.94 696.486 1511.24C674.034 1521.5 676.956 1534.36 661.475 1541.8C657.425 1543.74 716.837 1566.2 739.905 1536.67C750.977 1522.52 710.686 1524.52 695.922 1530.98C702.074 1520.06 741.238 1516.22 741.238 1516.22Z" fill="#F0CC69"/>
<path d="M847.657 1399.75C847.657 1399.75 890.204 1420.31 887.744 1444.91C885.283 1469.52 876.005 1500.84 876.005 1500.84C876.005 1500.84 826.998 1446.65 847.657 1399.75Z" fill="#F0CC69"/>
<path d="M807.16 712.639C807.16 712.639 782.196 692.852 754.976 703.104C727.705 713.357 730.063 728.684 711.25 736.168C706.329 738.167 774.302 769.437 803.931 736.578C818.13 720.841 770.559 719.918 752.669 726.275C760.768 713.972 807.16 712.639 807.16 712.639Z" fill="#F0CC69"/>
<path d="M543.932 967.563C543.932 967.563 518.608 958.131 514.149 933.936C509.689 909.74 521.94 904.717 519.224 887.851C518.506 883.392 571.049 919.019 560.028 954.799C554.748 971.972 533.269 937.934 530.142 922.197C524.657 933.372 543.932 967.563 543.932 967.563Z" fill="#F0CC69"/>
<path d="M757.026 1326.5C757.026 1326.5 770.611 1292.1 798.856 1287.38C827.101 1282.67 838.02 1290.46 865.547 1295.54C865.547 1295.54 850.528 1326.14 825.051 1327.98C796.498 1330.09 786.861 1311.89 757.026 1326.5Z" fill="#F0CC69"/>
<path d="M854.885 1344.03C854.885 1344.03 863.804 1315.22 890.819 1308.2C917.834 1301.17 924.344 1314.25 943.26 1309.79C948.232 1308.61 911.683 1369.76 870.468 1360.69C850.733 1356.33 887.692 1329.68 905.275 1324.81C892.101 1319.73 854.885 1344.03 854.885 1344.03Z" fill="#F0CC69"/>
<path d="M717.607 1018.98L762.461 1023.18L755.233 1059.89L700.024 1060.86L717.607 1018.98Z" fill="#2F333F"/>
<path d="M626.156 1090.64C626.156 1090.64 655.939 1071.27 676.444 1060.55C696.999 1049.89 744.621 1052.91 744.621 1052.91L797.165 1049.12L857.038 1040.61L853.809 1034.92C853.809 1034.92 842.788 1035.74 815.516 1036.15C788.245 1036.56 739.598 1030.36 739.598 1030.36C739.598 1030.36 706.432 1023.95 691.771 1028.82C677.11 1033.69 640.971 1048.86 640.971 1048.86" fill="#F0CC69"/>
<path d="M891.948 1261.24C891.948 1261.24 910.71 1258.17 930.343 1252.83C949.976 1247.5 993.497 1248.07 977.196 1249.81C947.772 1253.04 925.678 1268.88 925.678 1268.88L912.863 1277.54" fill="#F0CC69"/>
<path d="M621.798 1265.39L683.415 1232.07C683.415 1232.07 781.068 1248.99 799.215 1258.27C817.362 1267.55 901.482 1270.72 901.482 1270.72L954.897 1311.02C954.897 1311.02 933.623 1269.7 890.461 1257.91C847.35 1246.12 774.353 1228.54 774.353 1228.54C774.353 1228.54 676.853 1184.4 642.559 1218.03" fill="#F0CC69"/>
<path d="M646.404 981.558L695.769 962.437L710.993 913.329L660.091 928.348L646.404 981.558Z" fill="#2F333F"/>
<path d="M1669.09 1120.32C1652.64 1095.72 1645.26 1062.81 1622.7 1065.99C1592.36 1065.99 1594.61 1098.54 1540.63 1095.77C1516.8 1127.76 1482.19 1120.37 1482.19 1153.44C1532.48 1137.91 1548.73 1140.88 1553.55 1132.52C1553.55 1127.14 1477.38 1140.83 1570.36 1120.32C1622.7 1099.61 1579.59 1120.32 1570.36 1153.44C1578.67 1175.74 1601.43 1194.14 1629.16 1206.7C1630.44 1205.42 1633.98 1204.65 1627.11 1197.32C1576.57 1165.64 1618.96 1146.98 1605.12 1144.36C1591.07 1138.98 1610.86 1112.53 1618.45 1110.17C1657.46 1097.97 1638.8 1133.34 1656.74 1140.88C1733.68 1136.83 1711.85 1197.63 1770.64 1180.09C1708.1 1180.04 1743.42 1110.69 1669.09 1120.32Z" fill="#F0CC69"/>
<path d="M1169.7 1181.89C1150.58 1195.88 1125.88 1176.35 1108.86 1210.18C1108.86 1227 1185.95 1214.8 1214.05 1181.89C1334.25 1093.31 1254.54 1186.14 1245.47 1190.6C1210.51 1227.05 1176.11 1267.14 1258.44 1218.34C1309.44 1180.71 1245.47 1255.29 1233.83 1276.57C1279.3 1271.03 1275.46 1271.75 1345.89 1286.72C1354.3 1258.68 1245.47 1260.63 1315.39 1218.28C1315.39 1181.84 1352.55 1176.3 1294.88 1181.84C1292.78 1158.97 1301.75 1136.11 1324.1 1130.83C1338.71 1127.4 1324.1 1170.2 1373.67 1170.2C1373.67 1099.77 1252.75 1088.64 1338.71 1075.52C1416.02 1091.62 1366.09 1107.87 1415.66 1107.87C1458 1181.48 1485.17 1135.29 1474.1 1181.84C1490.55 1202.75 1500.34 1232.69 1519.41 1232.69C1522.13 1220.28 1513.52 1226.95 1513.52 1200.7C1538.84 1226.95 1523.87 1226.95 1614.09 1226.95C1614.09 1200.7 1538.84 1232.69 1500.39 1140.98C1467.69 1130.83 1454 1116.22 1442.16 1079.78C1435.5 1059.27 1373.73 1066.45 1345.99 1027.44C1286.07 1027.44 1247.06 1138.21 1210.66 1140.98C1198 1142.67 1187.9 1168.56 1169.7 1181.89Z" fill="#F0CC69"/>
<path d="M572.843 1010.83C572.843 1010.83 557.977 1017.18 582.942 987.811C607.906 958.439 605.958 957.977 621.08 949.314C636.203 940.702 697.46 928.194 697.46 928.194C697.46 928.194 724.219 920.146 742.929 905.639C773.071 882.264 778.044 856.992 778.044 856.992L790.449 808.293L790.91 844.228C790.91 844.228 780.299 881.597 770.201 899.693C755.54 925.99 723.706 940.702 723.706 940.702C723.706 940.702 700.433 950.493 681.672 957.567C669.318 962.232 644.866 968.127 617.543 995.347C593.143 1019.64 541.317 1105.92 541.317 1105.92L572.843 1010.83Z" fill="#F0CC69"/>
<path d="M729.448 1498.99C729.448 1498.99 706.636 1484.54 707.354 1459.93C708.071 1435.33 721.092 1432.97 721.912 1415.9C722.117 1411.39 766.1 1457.11 747.85 1489.82C739.085 1505.5 725.193 1467.77 725.398 1451.73C717.709 1461.57 729.448 1498.99 729.448 1498.99Z" fill="#F0CC69"/>
<path d="M574.996 1142.21C574.996 1142.21 587.043 1140.11 612.828 1106.23C638.612 1072.34 668.293 1023.54 670.497 986.838C640.458 1076.55 574.996 1142.21 574.996 1142.21Z" fill="#2F333F"/>
<path d="M685.773 898.36C685.773 898.36 690.13 811.625 782.965 788.199C677.366 807.165 685.773 898.36 685.773 898.36Z" fill="#2F333F"/>
<path d="M669.266 1185.27L737.291 1071.57C737.342 1071.57 698.127 1169.69 669.266 1185.27Z" fill="#2F333F"/>
<path d="M549.16 1104.69C549.16 1104.69 594.578 980.481 638.715 962.796C682.851 945.059 585.351 947.007 549.16 1104.69Z" fill="#2F333F"/>
<path d="M748.415 1254.58C752.516 1250.84 830.536 1218.34 830.536 1218.34L874.724 1251.09L801.625 1274.83L748.415 1254.58Z" fill="#2F333F"/>
<path d="M989.652 1103.25C989.652 1103.25 981.758 1157.74 962.381 1174.51C943.004 1191.27 854.322 1221.26 854.322 1221.26L787.887 1242.58C787.887 1242.58 758.975 1248.43 731.448 1285.08C703.92 1321.73 613.341 1416.67 581.558 1512.94C563.976 1566.15 605.241 1666.67 605.241 1666.67C605.241 1666.67 652.658 1481.36 682.903 1425.89C700.793 1393.09 758.309 1297.84 758.309 1297.84C758.309 1297.84 789.886 1264.32 805.931 1263.19C821.976 1262.06 899.432 1229.05 923.064 1217.1C946.644 1205.16 978.17 1177.94 978.17 1177.94C978.17 1177.94 1001.7 1115.86 989.652 1103.25Z" fill="#F0CC69"/>
<path d="M823.206 1247.45C823.206 1247.45 919.475 1209.01 934.495 1200.7C949.514 1192.4 889.077 1234.64 823.206 1247.45Z" fill="#2F333F"/>
<path d="M1553.27 1800C1523.95 1800 1478.38 1805.54 1478.38 1805.54C1478.38 1805.54 1523.95 1811.07 1553.27 1811.07C1582.39 1811.07 1627.71 1805.54 1627.71 1805.54C1627.71 1805.54 1582.44 1800 1553.27 1800Z" fill="#F0CC69"/>
<path d="M1475.92 1741.05C1398 1741.05 1276.97 1746.59 1276.97 1746.59C1276.97 1746.59 1398.05 1752.12 1475.92 1752.12C1553.33 1752.12 1673.64 1746.59 1673.64 1746.59C1673.64 1746.59 1553.38 1741.05 1475.92 1741.05Z" fill="#F0CC69"/>
<path d="M1315.37 1696.81C1240.73 1696.81 1124.73 1702.35 1124.73 1702.35C1124.73 1702.35 1240.68 1707.88 1315.37 1707.88C1389.54 1707.88 1504.78 1702.35 1504.78 1702.35C1504.78 1702.35 1389.54 1696.86 1315.37 1696.81Z" fill="#F0CC69"/>
<path d="M1623.25 1667.34C1597.1 1667.34 1556.5 1672.87 1556.5 1672.87C1556.5 1672.87 1597.1 1678.41 1623.25 1678.41C1649.24 1678.41 1689.58 1672.87 1689.58 1672.87C1689.58 1672.87 1649.18 1667.39 1623.25 1667.34Z" fill="#F0CC69"/>
<path d="M1230.79 1645.24C1152.87 1645.24 1031.84 1650.78 1031.84 1650.78C1031.84 1650.78 1152.92 1656.31 1230.79 1656.31C1308.19 1656.31 1428.5 1650.78 1428.5 1650.78C1428.5 1650.78 1308.19 1645.24 1230.79 1645.24Z" fill="#F0CC69"/>
<path d="M1501.86 1593.67C1438.14 1593.67 1339.15 1599.21 1339.15 1599.21C1339.15 1599.21 1438.14 1604.75 1501.86 1604.75C1565.17 1604.75 1663.54 1599.21 1663.54 1599.21C1663.54 1599.21 1565.17 1593.67 1501.86 1593.67Z" fill="#F0CC69"/>
<path d="M1191.21 1593.67C1156.97 1593.67 1103.81 1599.21 1103.81 1599.21C1103.81 1599.21 1157.02 1604.75 1191.21 1604.75C1225.2 1604.75 1278.05 1599.21 1278.05 1599.21C1278.05 1599.21 1225.2 1593.67 1191.21 1593.67Z" fill="#F0CC69"/>
<path d="M1566.29 1542.1C1517.7 1542.1 1442.24 1547.64 1442.24 1547.64C1442.24 1547.64 1517.75 1553.18 1566.29 1553.18C1614.58 1553.18 1689.58 1547.64 1689.58 1547.64C1689.58 1547.64 1614.53 1542.1 1566.29 1542.1Z" fill="#F0CC69"/>
<path d="M1299.53 1542.1C1263.08 1542.1 1206.49 1547.64 1206.49 1547.64C1206.49 1547.64 1263.08 1553.18 1299.53 1553.18C1335.72 1553.18 1391.95 1547.64 1391.95 1547.64C1391.95 1547.64 1335.72 1542.1 1299.53 1542.1Z" fill="#F0CC69"/>
<path d="M1506.93 1490.53C1445.21 1490.53 1349.3 1496.07 1349.3 1496.07C1349.3 1496.07 1445.21 1501.61 1506.93 1501.61C1568.24 1501.61 1663.54 1496.07 1663.54 1496.07C1663.54 1496.07 1568.24 1490.53 1506.93 1490.53Z" fill="#F0CC69"/>
<path d="M1625.6 1448.5C1595.41 1448.5 1548.51 1451.99 1548.51 1451.99C1548.51 1451.99 1595.41 1455.47 1625.6 1455.47C1655.59 1455.47 1702.19 1451.99 1702.19 1451.99C1702.19 1451.99 1655.59 1448.5 1625.6 1448.5Z" fill="#F0CC69"/>
<path d="M836.79 1731.21C836.79 1810.1 870.52 1936.72 1036.92 2007.66C1116.52 2038.01 1202.95 2054.62 1293.22 2054.62C1522.98 2054.62 1727.61 1946.97 1859.41 1779.39C1859.41 1779.39 1856.79 1751.1 1849.57 1742.13C1836.6 1726.13 1814.14 1727.41 1819.63 1732.08C1839.21 1748.74 1831.37 1766.01 1825.93 1774.68C1819.89 1784.37 1813.94 1790.83 1803.12 1799.13C1628.63 1933.44 970.122 1872.79 970.122 1652.73C970.122 1523.34 1164.15 1427.38 1358.43 1427.38C1455.36 1427.38 1622.37 1413.08 1678.2 1392.78C1782.26 1354.85 1735.05 1297.33 1674.51 1278.82C1646.11 1270.11 1616.22 1268.93 1579.62 1268.93C1518.06 1268.93 1498.99 1265.14 1488.79 1263.14C1487.2 1262.83 1485.81 1262.57 1484.53 1262.37C1447.06 1256.27 1484.53 1275.03 1544.1 1275.03H1546.46C1785.39 1275.03 1765.8 1417.28 1358.48 1417.28C951.155 1417.23 836.79 1618.48 836.79 1731.21Z" fill="#F0CC69"/>
<path d="M1261.65 1970.7C865.291 1944.71 868.265 1704.4 868.265 1704.4C868.265 1704.4 822.642 1982.65 1261.03 2008.33C1524.41 2023.76 1707.57 1898.12 1708.96 1894.78C1714.9 1891.3 1544.61 1989.26 1261.65 1970.7Z" fill="#2F333F"/>
<path d="M944.542 1660.83C944.542 1466.24 1282.61 1426.3 1282.61 1426.3C1282.61 1426.3 908.761 1460.19 908.761 1668C908.761 1807.64 1113.86 1850.85 1113.86 1850.85C1113.86 1850.85 944.542 1802.46 944.542 1660.83Z" fill="#2F333F"/>
<path d="M1697.58 1297.02C1697.58 1297.02 1730.18 1313.94 1730.18 1334.55C1730.18 1367.25 1672.61 1384.06 1672.61 1384.06C1672.61 1384.06 1719.57 1365.76 1719.57 1333.06C1719.62 1311.48 1697.58 1297.02 1697.58 1297.02Z" fill="#2F333F"/>
<path d="M1142.16 741.243C1142.72 775.435 1143.23 775.947 1177.68 776.511C1143.23 777.075 1142.72 777.588 1142.16 811.779C1141.54 777.588 1141.08 777.075 1106.63 776.511C1141.08 775.947 1141.54 775.486 1142.16 741.243Z" fill="#F0CC69"/>
<path d="M1116.27 898.77C1116.83 932.962 1117.35 933.474 1151.79 934.038C1117.35 934.602 1116.83 935.115 1116.27 969.306C1115.65 935.115 1115.19 934.602 1080.74 934.038C1115.19 933.423 1115.65 932.962 1116.27 898.77Z" fill="#F0CC69"/>
<path d="M1272.51 836.692C1273.08 870.884 1273.59 871.396 1308.04 871.96C1273.59 872.524 1273.08 873.037 1272.51 907.228C1271.9 873.037 1271.44 872.524 1236.99 871.96C1271.44 871.396 1271.9 870.935 1272.51 836.692Z" fill="#F0CC69"/>
<path d="M2021.84 2428.97L2066.26 2391.69M2066.26 2391.69L1954.44 2258.42M2066.26 2391.69L2110.69 2354.41M1954.44 2258.42L1842.61 2125.15M1954.44 2258.42L2176.55 2072.04M1842.61 2125.15L1798.19 2162.43M1842.61 2125.15L1887.03 2087.87M2176.55 2072.04L2064.73 1938.77M2176.55 2072.04L2288.38 2205.31M2064.73 1938.77L2020.3 1976.05M2064.73 1938.77L2109.15 1901.5M2288.38 2205.31L2243.96 2242.59M2288.38 2205.31L2332.8 2168.04" stroke="#F0CC69" stroke-width="17"/>
<path d="M1610.98 2567.64L1666.78 2551.83M1722.57 2536.02L1666.78 2551.83M1409.2 2323.44L1393.39 2267.64L1571.94 2217.06M1766.29 2222.28L1750.48 2166.48L1571.94 2217.06M1571.94 2217.06L1666.78 2551.83" stroke="#F0CC69" stroke-width="17"/>
<path d="M1069.05 2237.85L1126.91 2241.67M1126.91 2241.67L1109.71 2502.78M1126.91 2241.67L1264.08 2250.7C1384.15 2258.61 1378.18 2413.46 1231.4 2446.79M1109.71 2502.78L1104.04 2588.86M1109.71 2502.78C1109.71 2502.78 1161.81 2462.6 1231.4 2446.79M1104.04 2588.86L1046.17 2585.04M1104.04 2588.86L1179.26 2593.81M1231.4 2446.79C1277.17 2483.45 1294.84 2551.32 1329.71 2603.72L1387.58 2607.54" stroke="#F0CC69" stroke-width="17"/>
<path d="M934.616 2470.76C910.486 2530.14 822.436 2521.69 751.038 2492.68C686.062 2466.27 682.035 2344.06 806.207 2328.02C881.483 2318.3 968.026 2356.44 988.85 2337.32M934.616 2470.76C955.795 2418.65 967.67 2389.43 988.85 2337.32M934.616 2470.76C900.95 2553.6 899.619 2553.06 946.04 2571.93M988.85 2337.32L1024.22 2250.29C1033.06 2228.52 864.35 2151.02 805.398 2161.36L787.821 2204.61" stroke="#F0CC69" stroke-width="17"/>
<path d="M280.445 2163.54C280.445 2163.54 299.856 2188.7 317.546 2208.95M317.546 2208.95C427.091 2327.62 552.177 2411.46 552.177 2411.46L590.014 2367.52M317.546 2208.95L413.7 2097.27M508.766 1899.76C508.766 1899.76 528.8 1925.72 544.57 1945.27M544.57 1945.27C628.403 2049.23 761.953 2137.44 761.953 2137.44L724.115 2181.38M544.57 1945.27C493.462 2004.63 413.7 2097.27 413.7 2097.27M413.7 2097.27C506.796 2197.59 585.982 2250.77 585.982 2250.77" stroke="#F0CC69" stroke-width="17"/>
<path d="M2173.23 842.536L2194.39 887.841M2194.39 887.841L2319.94 829.214M2194.39 887.841L2221.89 946.737M2445.06 715.611L2466.21 760.916M2466.21 760.916L2550.12 940.616L2504.82 961.77M2466.21 760.916L2319.94 829.214M2319.94 829.214L2382.7 963.609" stroke="#F0CC69" stroke-width="17"/>
<circle cx="2201.33" cy="608.755" r="151.851" stroke="#F0CC69" stroke-width="17"/>
<path d="M1581.36 384.887L1563.64 426.284C1651.42 506.008 1765.96 569.585 1805.72 476.653C1845.49 383.721 1604.11 331.709 1641.85 243.516C1679.59 155.323 1802.01 224.523 1884.86 291.714C1884.86 291.714 1875.5 313.583 1866.54 334.533" stroke="#F0CC69" stroke-width="17"/>
<path d="M1122.85 430.227C1122.85 313.152 1122.85 130.227 1122.85 130.227M1122.85 430.227H1162.85M1122.85 430.227H1072.85M1122.85 130.227H1072.85M1122.85 130.227H1135.09C1135.09 130.227 1246.07 273.806 1281.38 348.831C1316.68 273.806 1428.16 130.227 1428.16 130.227H1439.9M1439.9 430.227C1439.9 308.692 1439.9 130.227 1439.9 130.227M1439.9 430.227H1489.9M1439.9 430.227H1399.9M1439.9 130.227H1489.9" stroke="#F0CC69" stroke-width="17"/>
<path d="M747.503 575.895C747.503 575.895 769.97 559.505 787.618 548.601M787.618 548.601C878.668 492.344 1014.32 443.226 1014.32 443.226L993.25 397.885M787.618 548.601L729.212 422.944M620.495 302.253C620.495 302.253 644.845 287.084 661.168 276.553M661.168 276.553C754.214 216.519 887.875 171.178 887.875 171.178L908.95 216.519M661.168 276.553L729.212 422.944M729.212 422.944C803.384 364.487 904.277 332.306 904.277 332.306" stroke="#F0CC69" stroke-width="17"/>
<circle cx="514.312" cy="539.329" r="153.287" transform="rotate(-45 514.312 539.329)" stroke="#F0CC69" stroke-width="17"/>
<path d="M125.484 857.197L145.422 811.343M145.422 811.343L201.47 682.438C234.006 607.609 410.275 684.252 377.74 759.081L321.691 887.986M145.422 811.343L321.691 887.986M321.691 887.986L420.54 930.966M420.54 930.966L400.603 976.819M420.54 930.966L446.459 871.357" stroke="#F0CC69" stroke-width="17"/>
</svg>
