<svg width="2445" height="2552" viewBox="0 0 2445 2552" fill="none" xmlns="http://www.w3.org/2000/svg">
<g clip-path="url(#clip0_316_3129)">
<path d="M1565.35 1834.38C1565.35 1834.38 1811.25 1680.49 1754.1 1603.91C1651.11 1471.86 1641.32 1346.37 1641.32 1346.37C1641.32 1346.37 1595.9 1510.51 1632.71 1563.87C1669.46 1617.29 1715.96 1621.59 1718.16 1647.02C1722.67 1699.15 1643.47 1770.2 1565.35 1834.38Z" fill="#F0CC69"/>
<path d="M1776.55 1617.55C1776.55 1617.55 1823.15 1547.78 1808.79 1464.32C1797.98 1401.63 1672.13 1352.11 1690.84 1255.74C1704.48 1185.36 1621.07 1389.53 1744.05 1527.63C1779.42 1563.62 1776.55 1617.55 1776.55 1617.55Z" fill="#F0CC69"/>
<path d="M1830.37 1517.58C1830.37 1517.58 1890.91 1405.01 1872.77 1363.65C1850.32 1312.44 1718.42 1249.69 1723.03 1196.17C1726.36 1157.37 1702.32 1269.27 1735.39 1320.48C1766.76 1369.03 1851.9 1380.92 1830.37 1517.58Z" fill="#F0CC69"/>
<path d="M1716.68 1107.59C1716.68 1107.59 1715.34 1159.47 1765.58 1216.94C1797.52 1253.43 1874.36 1280.4 1885.84 1347.86C1887.89 1359.96 1913.06 1252.31 1880.66 1206.89C1844.73 1156.5 1761.58 1158.14 1716.68 1107.59Z" fill="#F0CC69"/>
<path d="M1905.42 1200.79C1905.42 1200.79 1908.75 1098.37 1856.21 1061.51C1802.13 1023.58 1703.45 1038.49 1679.26 1011.17C1672.49 1003.53 1713.91 1090.01 1755.48 1110.41C1807.05 1135.79 1875.54 1132.92 1905.42 1200.79Z" fill="#F0CC69"/>
<path d="M1905.17 1098.93C1905.17 1098.93 1901.53 991.077 1851.96 963.703C1802.33 936.329 1738.31 952.528 1685.1 925.205C1654.65 909.571 1648.6 895.935 1648.6 895.935C1648.6 895.935 1663.88 971.443 1715.29 997.126C1738.31 1008.61 1813.66 1005.69 1851.96 1022.65C1884.71 1037.21 1895.07 1061.56 1905.17 1098.93Z" fill="#F0CC69"/>
<path d="M1639.02 796.846C1639.02 796.846 1647.52 887.784 1692.22 899.011C1733.23 909.314 1825.71 903.88 1858.52 936.688C1862.57 940.738 1865.44 950.785 1866.87 950.785C1875.28 950.785 1833.19 847.185 1755.53 832.832C1666.9 816.377 1657.73 824.169 1639.02 796.846Z" fill="#F0CC69"/>
<path d="M1598.72 701.91C1598.72 701.91 1638.3 772.856 1669.82 787.875C1717.65 810.687 1785.06 785.261 1826.02 848.62C1841.86 873.072 1815.97 795.411 1759.84 747.943C1710.93 706.575 1650.6 733.231 1598.72 701.91Z" fill="#F0CC69"/>
<path d="M1723.49 1744.93C1758.71 1706.79 1781.32 1663.58 1802.13 1650.56C1841.91 1625.7 1915.16 1632.51 1966.99 1554.6C1966.99 1554.6 1934.03 1666.65 1844.68 1694.49C1828.48 1699.51 1788.24 1695.26 1770.24 1717.35C1764.09 1724.89 1750.35 1734.68 1743.18 1742.11C1732.46 1753.23 1716.16 1752.88 1723.49 1744.93Z" fill="#F0CC69"/>
<path d="M1813.05 1622.77C1813.05 1622.77 1831.3 1555.67 1860.52 1536.3C1877.48 1525.07 1968.68 1500.31 2010.92 1420.09C2028.6 1386.46 1983.39 1546.24 1912.34 1580.74C1865.54 1603.45 1841.5 1594.84 1813.05 1622.77Z" fill="#F0CC69"/>
<path d="M1874.61 1494.82C1874.61 1494.82 1895.02 1410.4 1931.31 1387.59C1996.87 1346.42 2016.2 1311 2024.5 1278.76C2030.14 1256.77 2021.22 1361.03 2010.35 1389.17C1984.88 1455.56 1874.61 1494.82 1874.61 1494.82Z" fill="#F0CC69"/>
<path d="M1940.28 1250.82C1962.48 1226.21 2004 1213.09 2016.66 1129.18C2032.6 1215.35 2007.33 1260.1 2007.33 1260.1C2007.33 1260.1 1960.22 1347.86 1926.49 1350.98C1913.78 1352.16 1923.72 1269.17 1940.28 1250.82Z" fill="#F0CC69"/>
<path d="M1933.92 1221.24C1933.92 1221.24 2020.25 1175.21 2001.54 1034.24C1991.49 1081.71 1971.34 1103.29 1971.34 1103.29C1971.34 1103.29 1920.95 1142.09 1933.92 1221.24Z" fill="#F0CC69"/>
<path d="M1928.18 1129.18C1928.18 1129.18 1914.19 1045.41 1921.67 1029.42C1929.16 1013.43 1974.21 978.108 1961.25 898.293C1957.61 875.892 2024.91 982.157 1980.67 1047.21C1955.09 1084.73 1934.49 1095.45 1928.18 1129.18Z" fill="#F0CC69"/>
<path d="M1910.91 1006.15C1910.91 1006.15 1881.23 941.712 1902.29 917.67C1922.44 894.653 1929.62 840.009 1921.01 812.635C1911.83 783.775 1995.8 929.204 1910.91 1006.15Z" fill="#F0CC69"/>
<path d="M1881.79 917.67C1881.79 917.67 1948.33 845.75 1855.44 707.087C1862.11 745.226 1851.96 781.365 1851.96 781.365C1851.96 781.365 1829.4 816.736 1881.79 917.67Z" fill="#F0CC69"/>
<path d="M1758.4 647.213C1758.4 647.213 1827.81 642.907 1838.99 710.522C1848.78 769.78 1825.4 782.698 1829.71 800.229C1834.07 817.761 1785.06 751.018 1784.29 726.361C1783.52 701.705 1779.98 661.618 1758.4 647.213Z" fill="#F0CC69"/>
<path d="M1542.59 549.406C1542.59 549.406 1576.07 583.239 1588.63 608.408C1601.54 634.295 1604.21 660.541 1617.38 670.281C1670.08 709.189 1742.56 677.458 1771.32 740.766C1776.29 751.684 1769.89 678.893 1716.68 619.942C1675.46 574.165 1588.63 583.546 1542.59 549.406Z" fill="#F0CC69"/>
<path d="M444.721 1572.95C294.32 1324.48 333.586 1064.12 464.918 884.144C471.531 875.122 494.086 848.774 499.059 849.799C507.927 851.645 515.616 863.332 512.745 868.356C507.465 877.532 502.237 886.912 497.162 896.498C449.899 985.899 383.361 1104.16 408.992 1222.68C419.09 1269.38 425.088 1313.56 434.161 1316.18C434.161 1316.18 452 1281.68 458.254 1260.71C484.039 1174.29 489.421 1112.98 551.294 1038.54C666.53 899.933 664.839 917.106 579.744 1067.1C545.399 1127.69 517.359 1200.33 506.44 1284.86C504.185 1302.29 490.498 1339.19 489.78 1357.6C488.55 1389.33 524.125 1406.24 524.125 1438.39C524.125 1448.43 525.561 1520.4 561.546 1599.5C582.307 1645.23 604.504 1692.44 633.723 1735.55C637.311 1740.83 660.276 1787.68 648.537 1779.48C615.371 1756.57 503.57 1664.5 444.721 1572.95Z" fill="#F0CC69"/>
<path d="M674.322 1778.15C658.482 1763.74 640.49 1736.37 636.901 1720.58C635.056 1712.43 633.672 1697.1 634.287 1688.44C636.901 1651.53 651.716 1635.03 665.659 1598.32C686.164 1544.55 696.313 1556.75 701.235 1536.65C718.869 1464.53 599.48 1578.23 599.48 1578.23C599.48 1578.23 568.313 1608.83 549.859 1653.48C549.859 1653.48 564.622 1686.9 593.739 1714.89C658.277 1776.92 758.032 1854.22 674.322 1778.15Z" fill="#F0CC69"/>
<path d="M656.381 1619.39C656.381 1619.39 710.257 1528.2 777.615 1449.77C799.555 1424.24 791.199 1407.68 793.403 1395.99C795.608 1384.3 796.581 1366.82 808.167 1355.03C819.752 1343.29 837.488 1332.99 837.488 1332.99L855.84 1323.61C849.33 1316.64 810.371 1335.5 810.371 1335.5C810.371 1335.5 781.152 1354.06 776.641 1370.46C772.13 1386.82 769.413 1404.91 767.721 1412.5C766.03 1420.08 738.041 1462.43 721.688 1477.81C705.284 1493.13 668.325 1523.07 668.325 1523.07L654.792 1578.94L656.381 1619.39Z" fill="#F0CC69"/>
<path d="M655.714 1549.73C655.714 1549.73 657.713 1482.47 646.282 1457.4C634.799 1432.34 598.147 1428.75 598.147 1428.75C598.147 1428.75 625.111 1413.63 640.643 1426.44C656.124 1439.31 639.464 1378.2 668.94 1364.16C668.94 1364.16 652.28 1422.85 658.431 1436.95C664.634 1451.05 676.578 1528.61 676.578 1528.61" fill="#F0CC69"/>
<path d="M640.876 945.197C640.927 967.855 615.399 1011.38 605.198 1017.01L544.914 1052.95L605.095 971.699C605.095 971.699 605.097 971.679 605.102 971.638C606.619 968.668 607.977 966.094 609.194 963.786C616.354 950.207 618.64 945.873 619.921 924.742C619.928 924.622 619.93 924.442 619.933 924.201C619.967 921.104 620.111 907.981 632.997 884.888C639.276 873.794 646.905 863.114 656.152 853.9C765.954 744.559 809.373 790.951 786.613 781.826C763.853 772.702 709.156 816.94 674.145 854.669C649.066 881.672 641.436 940.862 640.906 944.972C640.886 945.13 640.876 945.206 640.876 945.197Z" fill="#F0CC69"/>
<path d="M473.428 1266.56C473.428 1266.56 457.69 1223.7 456.46 1163.67C456.46 1163.67 465.226 1182.54 476.247 1213.3C491.677 1256.36 493.368 1222.52 493.368 1222.52" fill="#F0CC69"/>
<path d="M506.8 1160.39L568.416 1127.07C568.416 1127.07 666.069 1143.99 684.216 1153.27C702.363 1162.55 786.483 1165.72 786.483 1165.72L839.898 1206.02C839.898 1206.02 818.624 1164.7 775.462 1152.91C732.351 1141.12 659.354 1123.54 659.354 1123.54C659.354 1123.54 561.855 1079.4 527.561 1113.03" fill="#F0CC69"/>
<path d="M600.3 1109.95C600.3 1109.95 671.349 1073.76 682.421 1058.95C693.443 1044.08 727.122 992.511 727.122 992.511L721.073 1017.83L702.977 1050.49L736.4 1046.85L772.539 1043.93L751.83 1054.23L704.925 1063.41C704.925 1063.41 654.997 1113.18 621.113 1118.56" fill="#F0CC69"/>
<path d="M776.949 1156.24C776.949 1156.24 795.711 1153.17 815.344 1147.83C834.977 1142.5 878.498 1143.07 862.197 1144.81C832.773 1148.04 810.679 1163.88 810.679 1163.88L797.864 1172.54" fill="#F0CC69"/>
<path d="M764.05 1149.81L739.908 1137.74L683.515 1156.59L708.172 1164.18C708.172 1164.18 728.201 1159.03 746.611 1150.91C753.127 1148.04 764.05 1149.81 764.05 1149.81Z" fill="#2F333F"/>
<path d="M711.92 1127.77L690.006 1124.87C682.305 1125.98 658.09 1124.87 640.126 1137.74C635.367 1141.15 619.393 1136.71 619.393 1136.71L652.201 1159.08L711.92 1127.77Z" fill="#2F333F"/>
<path d="M874.653 998.252C874.653 998.252 866.759 1052.74 847.382 1069.51C828.005 1086.27 739.323 1116.26 739.323 1116.26L672.888 1137.58C672.888 1137.58 643.976 1143.43 616.449 1180.08C588.921 1216.73 498.342 1311.67 466.56 1407.94C448.977 1461.15 490.243 1561.67 490.243 1561.67C490.243 1561.67 537.659 1376.36 567.904 1320.89C585.794 1288.09 643.31 1192.84 643.31 1192.84C643.31 1192.84 674.887 1159.32 690.932 1158.19C706.977 1157.06 784.433 1124.05 808.065 1112.1C831.645 1100.16 863.171 1072.94 863.171 1072.94C863.171 1072.94 886.7 1010.86 874.653 998.252Z" fill="#F0CC69"/>
<path d="M549.962 1334.17C549.962 1334.17 614.141 1261.58 637.158 1258.66C660.174 1255.79 725.174 1271.84 725.174 1271.84C725.174 1271.84 798.991 1293.06 820.777 1274.19C842.563 1255.33 793.813 1284.75 757.571 1265.12C721.278 1245.49 663.506 1240.16 663.506 1240.16C663.506 1240.16 635.107 1222.21 593.893 1257.84" fill="#F0CC69"/>
<path d="M600.442 962.324C630.767 953.875 646.796 960.803 646.796 960.803L654.993 941.443L604.541 939.904L600.442 962.324Z" fill="#2F333F"/>
<path d="M615.534 907.866C626.368 917.955 648.813 915.117 648.813 915.117L649.862 931.866L608.645 926.735L615.534 907.866Z" fill="#2F333F"/>
<path d="M390.282 1172.29C390.282 1172.29 411.043 1112.98 430.881 1088.01C450.719 1063.05 477.273 1040.13 494.958 1021.94C512.643 1003.69 541.298 960.781 544.579 952.938C547.86 945.095 567.544 889.117 567.544 889.117C567.544 889.117 578.155 811.25 589.023 768.806C599.89 726.361 650.281 696.681 650.281 696.681L688.573 683.968C688.573 683.968 777.358 654.851 784.073 661.31C790.789 667.769 838.872 709.65 838.872 709.65L797.35 652.083L843.896 590.364L845.792 575.344C845.792 575.344 812.78 627.272 783.92 639.165C755.059 651.058 708.36 654.595 708.36 654.595L655.048 664.95C655.048 664.95 621.779 676.996 593.021 702.166C564.263 727.335 553.396 769.78 553.396 769.78L549.346 827.552L523.1 899.215L483.578 975.698C483.578 975.698 439.8 1029.98 426.472 1039.21C413.195 1048.44 390.282 1172.29 390.282 1172.29Z" fill="#F0CC69"/>
<path d="M668.427 671.255C668.427 671.255 699.338 634.449 704.413 621.224C709.488 607.998 721.022 601.744 721.022 601.744L718.1 617.328L699.338 660.234" fill="#F0CC69"/>
<path d="M511.157 985.643C511.157 985.643 540.94 966.266 561.445 955.552C582.001 944.89 629.623 947.914 629.623 947.914L682.166 944.121L742.039 935.611L738.81 929.921C738.81 929.921 727.789 930.742 700.517 931.152C673.246 931.562 624.599 925.359 624.599 925.359C624.599 925.359 591.433 918.951 576.772 923.821C562.111 928.691 525.972 943.865 525.972 943.865" fill="#F0CC69"/>
<path d="M521.954 910.295C521.954 910.295 543.77 781.958 561.769 746.91V853.211L521.954 910.295Z" fill="#F0CC69"/>
<path d="M578.419 845.261L527.93 864.241L523.082 899.227C529.183 880.398 571.994 867.079 571.994 867.079L578.419 845.261Z" fill="#2F333F"/>
<path d="M581.437 827.005L528.477 841.49L535.273 819.92C547.061 814.253 558.936 812.488 566.814 810.771C574.629 809.068 583.526 801.498 583.526 801.498L581.437 827.005Z" fill="#2F333F"/>
<path d="M457.844 905.828C457.844 905.828 442.978 912.184 467.943 882.811C492.907 853.439 490.959 852.977 506.082 844.314C521.204 835.702 582.461 823.194 582.461 823.194C582.461 823.194 609.22 815.146 627.93 800.639C658.072 777.264 663.045 751.992 663.045 751.992L675.45 703.293L675.911 739.228C675.911 739.228 665.3 776.597 655.202 794.693C640.541 820.99 608.707 835.702 608.707 835.702C608.707 835.702 585.435 845.493 566.673 852.567C554.319 857.232 529.867 863.127 502.544 890.347C478.144 914.645 426.318 1000.92 426.318 1000.92L457.844 905.828Z" fill="#F0CC69"/>
<path d="M408.479 989.795C408.479 989.795 421.09 903.316 423.704 892.193C426.37 881.069 447.592 852.67 447.592 852.67C447.592 852.67 494.906 819.555 498.187 823.041C501.417 826.527 463.432 850.978 451.642 866.254C439.851 881.53 437.903 905.008 437.903 905.008L440.62 924.18L408.479 989.795Z" fill="#F0CC69"/>
<path d="M650.793 1518.35C650.793 1518.35 635.517 1473.76 610.655 1473.19C585.793 1472.63 553.499 1477.96 553.499 1477.96C553.499 1477.96 601.531 1533.07 650.793 1518.35Z" fill="#F0CC69"/>
<path d="M730.323 1397.11C730.323 1397.11 693.825 1403.82 683.778 1430.53C673.731 1457.24 679.369 1469.39 679.113 1497.27C679.113 1497.27 712.177 1488.41 718.841 1463.85C726.325 1436.37 710.229 1423.51 730.323 1397.11Z" fill="#F0CC69"/>
<path d="M626.239 1411.22C626.239 1411.22 603.94 1395.94 581.487 1406.24C559.035 1416.5 561.957 1429.36 546.476 1436.8C542.426 1438.74 601.838 1461.2 624.906 1431.67C635.978 1417.52 595.687 1419.52 580.923 1425.98C587.075 1415.06 626.239 1411.22 626.239 1411.22Z" fill="#F0CC69"/>
<path d="M614.449 1393.99C614.449 1393.99 591.637 1379.54 592.355 1354.93C593.073 1330.33 606.093 1327.97 606.913 1310.9C607.118 1306.39 651.101 1352.11 632.852 1384.82C624.086 1400.5 610.194 1362.77 610.399 1346.73C602.71 1356.57 614.449 1393.99 614.449 1393.99Z" fill="#F0CC69"/>
<path d="M656.893 1400.25C656.893 1400.25 635.876 1369.8 647.718 1343.86C659.559 1317.92 672.169 1313.26 691.803 1293.37C691.803 1293.37 708.873 1322.89 696.16 1344.99C681.96 1369.64 661.404 1367.44 656.893 1400.25Z" fill="#F0CC69"/>
<path d="M732.658 1294.75C732.658 1294.75 775.205 1315.31 772.745 1339.91C770.284 1364.52 761.006 1395.84 761.006 1395.84C761.006 1395.84 712 1341.65 732.658 1294.75Z" fill="#F0CC69"/>
<path d="M812.421 1358.31C812.421 1358.31 851.072 1385.43 871.526 1371.34C891.979 1357.24 914.945 1334.02 914.945 1334.02C914.945 1334.02 843.588 1317.56 812.421 1358.31Z" fill="#F0CC69"/>
<path d="M642.028 1221.5C642.028 1221.5 655.612 1187.1 683.857 1182.38C712.102 1177.67 723.021 1185.46 750.548 1190.54C750.548 1190.54 735.529 1221.14 710.052 1222.98C681.499 1225.09 671.862 1206.89 642.028 1221.5Z" fill="#F0CC69"/>
<path d="M739.886 1239.03C739.886 1239.03 748.805 1210.22 775.82 1203.2C802.835 1196.17 809.345 1209.25 828.261 1204.79C833.233 1203.61 796.684 1264.76 755.469 1255.69C735.734 1251.33 772.693 1224.68 790.276 1219.81C777.102 1214.73 739.886 1239.03 739.886 1239.03Z" fill="#F0CC69"/>
<path d="M760.032 1272.76C760.032 1272.76 787.047 1311.41 811.089 1305.16C835.13 1298.9 864.708 1284.86 864.708 1284.86C864.708 1284.86 803.297 1245.08 760.032 1272.76Z" fill="#F0CC69"/>
<path d="M526.945 1192.59C526.945 1192.59 536.736 1160.8 566.57 1153.06C596.405 1145.32 603.581 1159.73 624.393 1154.81C629.878 1153.52 589.536 1220.98 544.066 1210.99C522.28 1206.17 563.084 1176.75 582.461 1171.41C568.057 1165.78 526.945 1192.59 526.945 1192.59Z" fill="#F0CC69"/>
<path d="M446.925 1171.36C446.925 1171.36 425.037 1146.25 434.264 1116.92C443.491 1087.65 459.536 1089.24 466.405 1068.99C468.199 1063.66 504.287 1133.48 471.685 1166.6C456.05 1182.49 452.615 1132.4 458.305 1113.18C445.9 1122.46 446.925 1171.36 446.925 1171.36Z" fill="#F0CC69"/>
<path d="M583.076 1087.86C583.076 1087.86 629.776 1095.34 641.925 1073.76C654.074 1052.18 664.531 1021.27 664.531 1021.27C664.531 1021.27 593.124 1037.67 583.076 1087.86Z" fill="#F0CC69"/>
<path d="M698.159 1059.77C698.159 1059.77 738.655 1084.12 758.032 1068.69C777.409 1053.21 798.734 1028.45 798.734 1028.45C798.734 1028.45 726.353 1016.96 698.159 1059.77Z" fill="#F0CC69"/>
<path d="M714.101 1021.53C714.101 1021.53 713.589 980.875 692.418 974.57C671.247 968.265 642.028 965.138 642.028 965.138C642.028 965.138 667.71 1022.24 714.101 1021.53Z" fill="#F0CC69"/>
<path d="M844.87 1178.44C844.87 1178.44 852.559 1224.93 876.959 1229.55C901.36 1234.16 934.116 1234.21 934.116 1234.21C934.116 1234.21 895.875 1172.03 844.87 1178.44Z" fill="#F0CC69"/>
<path d="M854.968 1136.92C854.968 1136.92 881.47 1112.62 916.533 1118.62C951.596 1124.66 951.699 1140.76 975.946 1145.37C982.302 1146.6 905.666 1189.72 863.426 1160.96C843.178 1147.17 900.796 1138.45 923.71 1142.04C911.561 1130.71 854.968 1136.92 854.968 1136.92Z" fill="#F0CC69"/>
<path d="M853.533 1081.66C853.533 1081.66 867.732 1047.52 896.029 1043.31C924.325 1039.11 935.09 1047.05 962.566 1052.64C962.566 1052.64 947.034 1082.99 921.506 1084.37C892.902 1085.96 883.572 1067.61 853.533 1081.66Z" fill="#F0CC69"/>
<path d="M840.922 1071.56C840.922 1071.56 868.142 1033.06 853.994 1012.71C839.846 992.358 816.522 969.495 816.522 969.495C816.522 969.495 800.016 1040.54 840.922 1071.56Z" fill="#F0CC69"/>
<path d="M891.979 1033.26C891.979 1033.26 936.73 1018.04 937.294 993.28C937.858 968.521 932.476 936.329 932.476 936.329C932.476 936.329 877.216 984.259 891.979 1033.26Z" fill="#F0CC69"/>
<path d="M726.917 937.661C726.917 937.661 751.676 911.569 787.046 915.158C822.417 918.746 823.647 934.791 848.202 937.713C854.66 938.482 781.203 986.821 737.066 961.037C715.895 948.683 772.744 935.97 795.915 937.969C782.945 927.563 726.917 937.661 726.917 937.661Z" fill="#F0CC69"/>
<path d="M691.034 914.184C691.034 914.184 738.143 910.185 744.705 886.349C751.266 862.461 753.88 829.961 753.88 829.961C753.88 829.961 688.624 863.025 691.034 914.184Z" fill="#F0CC69"/>
<path d="M748.344 892.961C748.344 892.961 795.043 900.446 807.192 878.864C819.341 857.283 829.799 826.373 829.799 826.373C829.799 826.373 758.391 842.725 748.344 892.961Z" fill="#F0CC69"/>
<path d="M573.285 916.439C573.285 916.439 613.936 912.39 618.396 890.808C622.855 869.278 623.419 840.008 623.419 840.008C623.419 840.008 568.569 870.457 573.285 916.439Z" fill="#F0CC69"/>
<path d="M428.933 862.563C428.933 862.563 403.61 853.131 399.15 828.936C394.69 804.74 406.942 799.717 404.225 782.851C403.507 778.392 456.05 814.019 445.029 849.799C439.749 866.972 418.27 832.934 415.143 817.197C409.658 828.372 428.933 862.563 428.933 862.563Z" fill="#F0CC69"/>
<path d="M457.947 839.957C457.947 839.957 499.366 817.197 495.624 792.745C491.882 768.293 480.963 737.536 480.963 737.536C480.963 737.536 434.879 794.18 457.947 839.957Z" fill="#F0CC69"/>
<path d="M623.368 818.632C623.368 818.632 662.532 835.292 677.859 819.093C693.186 802.895 709.077 778.135 709.077 778.135C709.077 778.135 643.104 777.008 623.368 818.632Z" fill="#F0CC69"/>
<path d="M618.088 816.838C618.088 816.838 594.611 792.232 601.634 766.96C608.656 741.688 619.421 735.691 634.338 714.827C634.338 714.827 654.125 739.176 645.718 761.014C636.389 785.517 617.473 786.44 618.088 816.838Z" fill="#F0CC69"/>
<path d="M742.733 788.747C742.733 788.747 778.359 819.76 800.146 807.867C821.932 795.975 847.255 775.265 847.255 775.265C847.255 775.265 777.949 751.479 742.733 788.747Z" fill="#F0CC69"/>
<path d="M721.815 775.111C721.815 775.111 704.642 746.558 718.842 719.338C733.041 692.067 748.574 696.424 758.826 677.714C761.543 672.793 784.867 747.788 746.984 774.752C728.838 787.67 734.169 737.792 743.14 719.851C729.299 726.72 721.815 775.111 721.815 775.111Z" fill="#F0CC69"/>
<path d="M692.161 607.639C692.161 607.639 667.197 587.852 639.977 598.104C612.706 608.357 615.064 623.684 596.251 631.168C591.33 633.167 659.303 664.437 688.932 631.578C703.131 615.841 655.561 614.918 637.67 621.275C645.77 608.972 692.161 607.639 692.161 607.639Z" fill="#F0CC69"/>
<path d="M709.231 601.231C709.231 601.231 695.339 568.116 713.024 537.359C730.71 506.602 745.934 512.036 758.596 490.916C761.928 485.38 776.384 571.807 734.759 601.539C714.819 615.79 726.301 558.889 737.528 538.641C722.713 546.176 709.231 601.231 709.231 601.231Z" fill="#F0CC69"/>
<path d="M775.512 627.067C775.512 627.067 819.7 610.305 819.443 585.545C819.136 560.786 812.626 528.799 812.626 528.799C812.626 528.799 759.006 578.574 775.512 627.067Z" fill="#F0CC69"/>
<path d="M842.973 701.397C842.973 701.397 878.959 703.498 898.951 732.82C918.943 762.142 907.358 773.368 920.891 793.975C924.428 799.409 840.051 774.444 831.49 724.157C827.39 700.064 873.679 735.281 887.007 754.196C886.751 737.639 842.973 701.397 842.973 701.397Z" fill="#F0CC69"/>
<path d="M815.753 660.387C815.753 660.387 841.384 699.961 865.63 694.528C889.877 689.094 919.917 676.125 919.917 676.125C919.917 676.125 859.94 634.244 815.753 660.387Z" fill="#F0CC69"/>
<path d="M835.386 645.983C835.386 645.983 842.101 609.638 868.962 599.642C895.772 589.646 907.972 595.234 936.012 594.978C936.012 594.978 927.144 627.888 902.436 634.552C874.806 641.985 861.837 625.991 835.386 645.983Z" fill="#F0CC69"/>
<path d="M848.817 567.963C848.817 567.963 859.736 536.539 889.826 529.875C919.917 523.211 926.581 537.872 947.547 533.617C953.083 532.49 910.382 598.566 865.323 586.981C843.691 581.444 885.52 553.456 905.051 548.74C890.852 542.588 848.817 567.963 848.817 567.963Z" fill="#F0CC69"/>
<path d="M708.207 1142.45C708.207 1142.45 804.476 1104.01 819.496 1095.7C834.516 1087.4 774.078 1129.64 708.207 1142.45Z" fill="#2F333F"/>
<path d="M554.267 1080.27L622.292 966.573C622.343 966.573 583.128 1064.69 554.267 1080.27Z" fill="#2F333F"/>
<path d="M459.997 1037.21C459.997 1037.21 472.044 1035.11 497.829 1001.23C523.613 967.342 553.294 918.541 555.498 881.838C525.459 971.546 459.997 1037.21 459.997 1037.21Z" fill="#2F333F"/>
<path d="M434.161 999.688C434.161 999.688 479.579 875.481 523.716 857.796C567.852 840.059 470.352 842.007 434.161 999.688Z" fill="#2F333F"/>
<path d="M570.774 793.36C570.774 793.36 575.131 706.625 667.966 683.199C562.367 702.166 570.774 793.36 570.774 793.36Z" fill="#2F333F"/>
<path d="M1438.28 1695C1408.95 1695 1363.38 1700.54 1363.38 1700.54C1363.38 1700.54 1408.95 1706.07 1438.28 1706.07C1467.39 1706.07 1512.71 1700.54 1512.71 1700.54C1512.71 1700.54 1467.44 1695 1438.28 1695Z" fill="#F0CC69"/>
<path d="M1360.92 1636.05C1283 1636.05 1161.98 1641.59 1161.98 1641.59C1161.98 1641.59 1283.06 1647.12 1360.92 1647.12C1438.33 1647.12 1558.64 1641.59 1558.64 1641.59C1558.64 1641.59 1438.38 1636.05 1360.92 1636.05Z" fill="#F0CC69"/>
<path d="M1200.37 1591.81C1125.73 1591.81 1009.73 1597.35 1009.73 1597.35C1009.73 1597.35 1125.68 1602.88 1200.37 1602.88C1274.55 1602.88 1389.78 1597.35 1389.78 1597.35C1389.78 1597.35 1274.55 1591.86 1200.37 1591.81Z" fill="#F0CC69"/>
<path d="M1508.25 1562.34C1482.1 1562.34 1441.5 1567.87 1441.5 1567.87C1441.5 1567.87 1482.1 1573.41 1508.25 1573.41C1534.24 1573.41 1574.58 1567.87 1574.58 1567.87C1574.58 1567.87 1534.19 1562.39 1508.25 1562.34Z" fill="#F0CC69"/>
<path d="M1115.79 1540.24C1037.87 1540.24 916.842 1545.78 916.842 1545.78C916.842 1545.78 1037.92 1551.31 1115.79 1551.31C1193.19 1551.31 1313.5 1545.78 1313.5 1545.78C1313.5 1545.78 1193.19 1540.24 1115.79 1540.24Z" fill="#F0CC69"/>
<path d="M1076.21 1488.67C1041.97 1488.67 988.813 1494.21 988.813 1494.21C988.813 1494.21 1042.02 1499.75 1076.21 1499.75C1110.2 1499.75 1163.05 1494.21 1163.05 1494.21C1163.05 1494.21 1110.2 1488.67 1076.21 1488.67Z" fill="#F0CC69"/>
<path d="M1386.86 1488.67C1323.14 1488.67 1224.16 1494.21 1224.16 1494.21C1224.16 1494.21 1323.14 1499.75 1386.86 1499.75C1450.17 1499.75 1548.54 1494.21 1548.54 1494.21C1548.54 1494.21 1450.17 1488.67 1386.86 1488.67Z" fill="#F0CC69"/>
<path d="M1184.53 1437.1C1148.08 1437.1 1091.49 1442.64 1091.49 1442.64C1091.49 1442.64 1148.08 1448.18 1184.53 1448.18C1220.72 1448.18 1276.96 1442.64 1276.96 1442.64C1276.96 1442.64 1220.72 1437.1 1184.53 1437.1Z" fill="#F0CC69"/>
<path d="M1451.3 1437.1C1402.7 1437.1 1327.24 1442.64 1327.24 1442.64C1327.24 1442.64 1402.75 1448.18 1451.3 1448.18C1499.58 1448.18 1574.58 1442.64 1574.58 1442.64C1574.58 1442.64 1499.53 1437.1 1451.3 1437.1Z" fill="#F0CC69"/>
<path d="M1391.93 1385.53C1330.22 1385.53 1234.3 1391.07 1234.3 1391.07C1234.3 1391.07 1330.22 1396.61 1391.93 1396.61C1453.24 1396.61 1548.54 1391.07 1548.54 1391.07C1548.54 1391.07 1453.24 1385.53 1391.93 1385.53Z" fill="#F0CC69"/>
<path d="M1510.61 1343.5C1480.41 1343.5 1433.51 1346.99 1433.51 1346.99C1433.51 1346.99 1480.41 1350.47 1510.61 1350.47C1540.59 1350.47 1587.19 1346.99 1587.19 1346.99C1587.19 1346.99 1540.59 1343.5 1510.61 1343.5Z" fill="#F0CC69"/>
<path d="M1554.1 1015.32C1537.64 990.717 1530.26 957.807 1507.7 960.985C1477.36 960.985 1479.61 993.536 1425.63 990.768C1401.8 1022.76 1365.21 1017.47 1365.21 1050.53L1373.45 1070.98C1402.51 1078.32 1419.24 1096.06 1423.91 1087.96C1420.56 1083.95 1356.79 1041.41 1455.37 1011.72C1507.7 991.007 1464.59 1015.32 1455.37 1048.44C1463.67 1070.74 1486.43 1089.14 1514.16 1101.7C1515.44 1100.42 1518.98 1099.65 1512.11 1092.32C1461.57 1060.64 1503.96 1041.98 1490.12 1039.36C1476.08 1033.98 1495.86 1007.53 1503.45 1005.17C1542.46 992.973 1523.8 1028.34 1541.74 1035.88C1618.69 1031.83 1596.85 1092.63 1655.64 1075.09C1593.11 1075.04 1628.42 1005.69 1554.1 1015.32Z" fill="#F0CC69"/>
<path d="M1054.7 1076.89C1035.58 1090.88 1010.88 1071.35 993.857 1105.18C993.857 1122 1070.95 1109.8 1099.05 1076.89C1219.25 988.308 1139.54 1081.14 1130.47 1085.6C1095.51 1122.05 1061.11 1162.14 1143.44 1113.33C1194.44 1075.71 1130.47 1150.29 1118.83 1171.57C1164.3 1166.03 1160.46 1166.75 1230.89 1181.72C1239.3 1153.68 1130.47 1155.63 1200.39 1113.28C1200.39 1076.84 1237.56 1071.3 1179.89 1076.84C1177.78 1053.97 1186.75 1031.11 1209.11 1025.83C1223.71 1022.4 1209.1 1065.2 1258.67 1065.2C1258.67 994.767 1137.75 983.643 1223.71 970.52C1301.02 986.616 1251.09 1002.87 1300.66 1002.87C1343 1076.48 1370.17 1030.29 1359.1 1076.84C1375.55 1097.75 1385.34 1127.69 1404.41 1127.69C1407.13 1115.28 1398.52 1121.95 1398.52 1095.7C1423.84 1121.95 1408.87 1121.95 1499.09 1121.95C1499.09 1095.7 1423.84 1127.69 1385.39 1035.98C1352.69 1025.83 1339 1011.22 1327.16 974.775C1320.5 954.27 1258.73 961.447 1230.99 922.437C1171.07 922.437 1132.06 1033.21 1095.66 1035.98C1083 1037.67 1072.9 1063.56 1054.7 1076.89Z" fill="#F0CC69"/>
<path d="M721.791 1626.21C721.791 1705.1 755.521 1831.72 921.917 1902.66C1001.53 1933.01 1087.95 1949.62 1178.22 1949.62C1407.98 1949.62 1612.62 1841.97 1744.41 1674.39C1744.41 1674.39 1741.8 1646.1 1734.57 1637.13C1721.6 1621.13 1699.15 1622.41 1704.63 1627.08C1724.21 1643.74 1716.37 1661.01 1710.94 1669.68C1704.89 1679.37 1698.94 1685.82 1688.12 1694.13C1513.63 1828.43 855.123 1767.79 855.123 1547.73C855.123 1418.34 1049.15 1322.38 1243.43 1322.38C1340.37 1322.38 1507.38 1308.08 1563.2 1287.78C1667.26 1249.84 1620.05 1192.33 1559.51 1173.82C1531.11 1165.11 1501.22 1163.93 1464.62 1163.93C1403.06 1163.93 1383.99 1160.14 1373.79 1158.14C1372.2 1157.83 1370.81 1157.57 1369.53 1157.37C1332.06 1151.27 1369.53 1170.03 1429.1 1170.03H1431.46C1670.39 1170.03 1650.81 1312.28 1243.48 1312.28C836.156 1312.23 721.791 1513.48 721.791 1626.21Z" fill="#F0CC69"/>
<path d="M1146.65 1865.7C750.293 1839.71 753.266 1599.4 753.266 1599.4C753.266 1599.4 707.643 1877.65 1146.03 1903.33C1409.41 1918.76 1592.57 1793.12 1593.96 1789.78C1599.9 1786.3 1429.61 1884.26 1146.65 1865.7Z" fill="#2F333F"/>
<path d="M829.543 1555.83C829.543 1361.24 1167.61 1321.3 1167.61 1321.3C1167.61 1321.3 793.762 1355.19 793.762 1563C793.762 1702.64 998.86 1745.85 998.86 1745.85C998.86 1745.85 829.543 1697.46 829.543 1555.83Z" fill="#2F333F"/>
<path d="M1582.58 1192.02C1582.58 1192.02 1615.18 1208.94 1615.18 1229.54C1615.18 1262.25 1557.61 1279.06 1557.61 1279.06C1557.61 1279.06 1604.57 1260.76 1604.57 1228.06C1604.62 1206.48 1582.58 1192.02 1582.58 1192.02Z" fill="#2F333F"/>
<path d="M1001.27 793.77C1001.83 827.962 1002.35 828.474 1036.79 829.038C1002.35 829.602 1001.83 830.114 1001.27 864.306C1000.65 830.114 1000.19 829.602 965.746 829.038C1000.19 828.423 1000.65 827.962 1001.27 793.77Z" fill="#F0CC69"/>
<path d="M1157.51 731.692C1158.08 765.884 1158.59 766.396 1193.04 766.96C1158.59 767.524 1158.08 768.037 1157.51 802.228C1156.9 768.037 1156.44 767.524 1121.99 766.96C1156.44 766.396 1156.9 765.935 1157.51 731.692Z" fill="#F0CC69"/>
<path d="M1027.16 636.243C1027.72 670.435 1028.23 670.947 1062.68 671.511C1028.23 672.075 1027.72 672.588 1027.16 706.779C1026.54 672.588 1026.08 672.075 991.633 671.511C1026.08 670.947 1026.54 670.486 1027.16 636.243Z" fill="#F0CC69"/>
<path d="M1414.84 658.872C1429.53 671.529 1439.98 689.257 1443.25 709.906C1450.58 756.196 1418.95 799.717 1372.66 807.098C1332.73 813.459 1294.89 790.855 1280.5 754.832C1280.65 756.19 1280.84 757.55 1281.05 758.912C1289.21 810.379 1337.55 845.545 1389.06 837.343C1440.53 829.141 1475.7 780.801 1467.49 729.334C1462.44 697.439 1441.96 671.803 1414.84 658.872Z" fill="#F0CC69"/>
<path d="M419.199 1346.55C476.532 1713.45 793.955 1994.16 1176.94 1994.16C1426.55 1994.16 1648.31 1874.93 1788.37 1690.31C1779.51 1691.4 1772.2 1690.45 1769.45 1685.49C1632.44 1862.36 1417.99 1976.22 1176.94 1976.22C809.229 1976.22 503.402 1711.25 439.977 1361.83C434.507 1360.69 427.692 1356.13 419.199 1346.55Z" fill="#F0CC69"/>
<path d="M1176.94 460.211C1294.96 460.211 1406.76 486.868 1506.64 534.491C1519.12 545.58 1531.8 558.681 1539.15 571.395C1431.8 511.978 1308.32 478.152 1176.94 478.152C1096.4 478.152 1018.83 490.863 946.13 514.389C940.902 514.121 936.234 513.043 931.358 511.917C929.261 511.433 927.125 510.94 924.889 510.498C918.502 509.23 912.596 509.283 909.291 509.312C908.856 509.316 908.466 509.319 908.126 509.319C907.514 509.319 906.916 509.318 906.333 509.314C990.485 477.576 1081.69 460.211 1176.94 460.211Z" fill="#F0CC69"/>
<path d="M1778.65 1906.12L2050.52 2213.14M2006.42 2250.5C2048.78 2216.96 2092.82 2174.01 2092.82 2174.01M1734.3 1943.2C1777.12 1910.63 1820.7 1866.71 1820.7 1866.71M2025.86 1659.2L2340.17 1922.62M2376.31 1877.52C2343.94 1920.77 2302.2 1965.96 2302.2 1965.96M1987.79 1703.2C2025.11 1664.46 2060.88 1615.22 2060.88 1615.22M1916.85 2068.62C2082.47 1936.45 2183.98 1792.57 2183.98 1792.57" stroke="#F0CC69" stroke-width="17"/>
<path d="M1618.22 2467.65C1667.94 2450.64 1725.75 2424.14 1725.75 2424.14M1517.39 2066.97L1670.7 2447.82M1353.07 2192.99L1339.65 2118.63C1538.74 2084.66 1682.43 1980.21 1682.43 1980.21L1724.43 2043.11" stroke="#F0CC69" stroke-width="17"/>
<path d="M967.191 2108.1C967.191 2108.1 989.001 2113.6 1025.13 2119.91M1025.13 2119.91L974.089 2418.9M1025.13 2119.91C1096.66 2133.87 1188.22 2132.92 1188.22 2132.92C1308.29 2140.83 1295.62 2309.86 1148.37 2350.35M974.089 2418.9L956.031 2524.06M974.089 2418.9C974.089 2418.9 1051.77 2370.46 1148.37 2350.35M956.031 2524.06C956.031 2524.06 921.608 2518.18 899.223 2513.05M956.031 2524.06C956.031 2524.06 1001.77 2531.7 1029.73 2534.45M1148.37 2350.35C1193.77 2392.6 1211.11 2480.42 1245.43 2541.15C1245.43 2541.15 1272.21 2539.73 1302.39 2537.06" stroke="#F0CC69" stroke-width="17"/>
<path d="M816.287 2375.47C795.206 2447 655.224 2431.12 581.622 2401.21C480.272 2360.02 502.106 2213.92 662.907 2215.73C745.937 2216.67 845.834 2230.95 874.186 2191.75M816.287 2375.47L874.186 2191.75M816.287 2375.47C787.022 2474.77 783.712 2482.16 813.186 2491.37M874.186 2191.75L901.508 2105.19C911.845 2079.75 738.199 1997.58 677.232 2012.88L654.895 2047.93" stroke="#F0CC69" stroke-width="17"/>
<path d="M79.7031 1995.79L387.236 1728.16M415.15 2221.07L371.059 2269.78C371.059 2269.78 181.707 2155.7 37.8199 1943.28M225.723 1868.72C303.965 1975.88 415.15 2062.16 415.15 2062.16M592.921 2001.68L632.111 1949.68C632.111 1949.68 440.348 1825.58 354.826 1674.27" stroke="#F0CC69" stroke-width="17"/>
<path d="M2046.29 772.187C2046.29 772.187 2060.47 799.254 2068.33 817.011M2068.33 817.011L2199.92 756.492M2068.33 817.011C2079.67 840.838 2092.95 875.453 2092.95 875.453M2319.62 629.287C2319.62 629.287 2335.79 660.073 2348.59 688.191M2348.59 688.191C2394.82 784.883 2425.36 904.079 2425.36 904.079L2377.99 916.298M2348.59 688.191L2199.92 756.492M2199.92 756.492C2199.92 756.492 2236.79 837.15 2254.9 901.743" stroke="#F0CC69" stroke-width="17"/>
<circle cx="2074.24" cy="531.543" r="154.267" transform="rotate(-45 2074.24 531.543)" stroke="#F0CC69" stroke-width="17"/>
<path d="M1457.43 279.804L1444.18 325.761C1499.81 395.489 1641.44 466.788 1684.01 367.303C1726.58 267.818 1462.28 218.644 1502.69 124.232C1550.49 12.509 1752.76 126.607 1775.43 212.409L1749.92 256.107" stroke="#F0CC69" stroke-width="17"/>
<path d="M957.841 345.909C975.718 341.249 993.152 337.543 1007.84 334.746M1007.84 334.746C1031.36 330.269 1047.84 328.121 1047.84 328.121M1007.84 334.746V22.4699M1284.89 324.846C1284.89 324.846 1302.55 326.902 1324.89 330.423M1324.89 330.423C1340.75 332.922 1358.96 336.159 1374.89 339.922M1324.89 330.423V19.3481M957.841 30.5197C977.247 26.8547 996.073 24.0806 1007.84 22.4699M1007.84 22.4699C1015.42 21.4332 1020.07 20.8785 1020.07 20.8785C1020.07 20.8785 1131.17 168.907 1166.48 243.932C1201.79 168.907 1313.15 18.0312 1313.15 18.0312C1313.15 18.0312 1317.79 18.52 1324.89 19.3481M1374.89 26.299C1358.72 23.4613 1337.76 20.8481 1324.89 19.3481" stroke="#F0CC69" stroke-width="17"/>
<path d="M646.206 491.449C646.206 491.449 668.602 474.851 686.249 463.947M686.249 463.947C796.973 391.905 897.391 363.49 897.391 363.49L875.374 296.059M686.249 463.947L610.397 346.638M465.161 241.997C465.161 241.997 492.859 221.978 518.831 205.141M518.831 205.141C657.168 113.833 801.653 70.2052 801.653 70.2052L817.328 118.256M518.831 205.141L610.397 346.638M610.397 346.638C701.688 287.321 786.723 255.031 786.723 255.031" stroke="#F0CC69" stroke-width="17"/>
<circle cx="403.826" cy="496.218" r="154.267" transform="rotate(-45 403.826 496.218)" stroke="#F0CC69" stroke-width="17"/>
<path d="M10.3001 890.598C19.7294 856.789 30.7164 826.039 30.7164 826.039M30.7164 826.039C30.7164 826.039 65.3491 709.952 115.693 656.359C174.805 593.432 300.047 662.045 271.792 737.516C256.682 810.264 205.911 887.043 205.911 887.043M30.7164 826.039L205.911 887.043M205.911 887.043L321.881 927.442M321.881 927.442C314.298 948.741 306.595 975.467 306.595 975.467M321.881 927.442C330.909 900.276 345.264 867.235 345.264 867.235" stroke="#F0CC69" stroke-width="17"/>
</g>
<defs>
<clipPath id="clip0_316_3129">
<rect width="2445" height="2552" fill="white"/>
</clipPath>
</defs>
</svg>
