<svg width="2738" height="2793" viewBox="0 0 2738 2793" fill="none" xmlns="http://www.w3.org/2000/svg">
<path d="M1342.94 2133.16C1766.53 2133.16 2109.92 1789.78 2109.92 1366.19C2109.92 942.598 1766.53 599.211 1342.94 599.211C919.352 599.211 575.965 942.598 575.965 1366.19C575.965 1789.78 919.352 2133.16 1342.94 2133.16Z" fill="#F0CC69"/>
<path d="M1342.94 2115.22C1756.62 2115.22 2091.98 1779.87 2091.98 1366.19C2091.98 952.507 1756.62 617.152 1342.94 617.152C929.261 617.152 593.906 952.507 593.906 1366.19C593.906 1779.87 929.261 2115.22 1342.94 2115.22Z" fill="#2F333F"/>
<path d="M1636.36 645.244C1636.36 645.244 1705.41 691.277 1711.15 725.827C1716.89 760.377 1714.02 754.585 1714.02 754.585C1714.02 754.585 2279.7 1122.85 1937.32 1807.65C1917.17 1853.69 2003.5 1813.39 2003.5 1813.39C2003.5 1813.39 2519.65 907.088 1636.36 645.244Z" fill="#2F333F"/>
<path d="M1148.51 662.724C1142.05 664.364 1158.45 643.501 1128.51 651.498C1112.32 655.855 1103.09 651.908 1090.89 649.498C1083.66 648.063 1077.05 648.319 1074.13 648.319C1050.13 648.319 1049.01 645.654 1019.17 650.37C964.528 658.982 461.344 953.121 585.038 1485.37C628.2 1534.27 628.2 1453.74 628.2 1453.74C628.2 1453.74 1729.51 516.936 1148.51 662.724Z" fill="#2F333F"/>
<path d="M1633.49 868.334C1625.34 816.868 1577 781.702 1525.48 789.904C1474.02 798.055 1438.9 846.394 1447.05 897.912C1455.2 949.379 1503.54 984.545 1555.06 976.343C1606.53 968.141 1641.69 919.801 1633.49 868.334Z" fill="#F0CC69"/>
<path d="M1609.25 848.906C1601.92 802.566 1558.39 770.937 1512.05 778.319C1465.71 785.649 1434.08 829.171 1441.47 875.511C1448.8 921.852 1492.32 953.48 1538.66 946.098C1584.95 938.717 1616.58 895.196 1609.25 848.906Z" fill="#2F333F"/>
<path d="M1882.68 1246.59C1882.68 1246.59 1881.34 1298.47 1931.58 1355.94C1963.51 1392.43 2040.36 1419.4 2051.84 1486.86C2053.89 1498.96 2079.06 1391.31 2046.66 1345.89C2010.73 1295.5 1927.58 1297.14 1882.68 1246.59Z" fill="#F0CC69"/>
<path d="M2071.42 1339.79C2071.42 1339.79 2074.75 1237.37 2022.21 1200.51C1968.13 1162.58 1869.45 1177.49 1845.25 1150.17C1838.49 1142.53 1879.91 1229.01 1921.48 1249.41C1973.05 1274.79 2041.54 1271.92 2071.42 1339.79Z" fill="#F0CC69"/>
<path d="M2071.16 1237.93C2071.16 1237.93 2067.52 1130.08 2017.95 1102.7C1968.33 1075.33 1904.31 1091.53 1851.1 1064.21C1820.65 1048.57 1814.6 1034.94 1814.6 1034.94C1814.6 1034.94 1829.88 1110.44 1881.29 1136.13C1904.31 1147.61 1979.66 1144.69 2017.95 1161.65C2050.71 1176.21 2061.07 1200.56 2071.16 1237.93Z" fill="#F0CC69"/>
<path d="M1731.35 1973.38C1731.35 1973.38 1977.25 1819.49 1920.1 1742.91C1817.11 1610.86 1807.32 1485.37 1807.32 1485.37C1807.32 1485.37 1761.9 1649.51 1798.71 1702.87C1835.46 1756.29 1881.96 1760.59 1884.16 1786.02C1888.67 1838.15 1809.47 1909.2 1731.35 1973.38Z" fill="#F0CC69"/>
<path d="M1805.01 935.846C1805.01 935.846 1813.52 1026.78 1858.22 1038.01C1899.23 1048.31 1991.71 1042.88 2024.52 1075.69C2028.57 1079.74 2031.44 1089.78 2032.87 1089.78C2041.28 1089.78 1999.19 986.185 1921.53 971.832C1832.9 955.377 1823.72 963.169 1805.01 935.846Z" fill="#F0CC69"/>
<path d="M1764.72 840.91C1764.72 840.91 1804.3 911.856 1835.82 926.875C1883.65 949.687 1951.06 924.261 1992.02 987.62C2007.86 1012.07 1981.97 934.411 1925.84 886.943C1876.93 845.575 1816.6 872.231 1764.72 840.91Z" fill="#F0CC69"/>
<path d="M1708.59 688.406C1708.59 688.406 1742.06 722.239 1754.62 747.408C1767.54 773.295 1770.21 799.541 1783.38 809.281C1836.08 848.189 1908.56 816.458 1937.32 879.766C1942.29 890.684 1935.89 817.893 1882.68 758.942C1841.46 713.165 1754.62 722.546 1708.59 688.406Z" fill="#F0CC69"/>
<path d="M1889.49 1883.93C1924.71 1845.79 1947.32 1802.58 1968.13 1789.56C2007.91 1764.7 2081.16 1771.51 2132.99 1693.6C2132.99 1693.6 2100.02 1805.65 2010.68 1833.49C1994.48 1838.51 1954.24 1834.26 1936.24 1856.35C1930.09 1863.89 1916.35 1873.68 1909.18 1881.11C1898.46 1892.23 1882.16 1891.88 1889.49 1883.93Z" fill="#F0CC69"/>
<path d="M2040.61 1633.82C2040.61 1633.82 2061.01 1549.4 2097.31 1526.59C2162.87 1485.42 2182.2 1450 2190.5 1417.76C2196.14 1395.77 2187.22 1500.03 2176.35 1528.17C2150.88 1594.56 2040.61 1633.82 2040.61 1633.82Z" fill="#F0CC69"/>
<path d="M2099.92 1360.24C2099.92 1360.24 2186.25 1314.21 2167.54 1173.24C2157.49 1220.71 2137.34 1242.29 2137.34 1242.29C2137.34 1242.29 2086.95 1281.09 2099.92 1360.24Z" fill="#F0CC69"/>
<path d="M2047.79 1056.67C2047.79 1056.67 2114.33 984.75 2021.44 846.087C2028.1 884.226 2017.95 920.365 2017.95 920.365C2017.95 920.365 1995.4 955.736 2047.79 1056.67Z" fill="#F0CC69"/>
<path d="M1924.4 786.213C1924.4 786.213 1993.81 781.907 2004.99 849.522C2014.78 908.78 1991.4 921.698 1995.71 939.229C2000.06 956.761 1951.06 890.018 1950.29 865.361C1949.52 840.705 1945.98 800.618 1924.4 786.213Z" fill="#F0CC69"/>
<path d="M2076.91 1145.15C2076.91 1145.15 2047.22 1080.71 2068.29 1056.67C2088.44 1033.65 2095.62 979.009 2087 951.635C2077.83 922.775 2161.79 1068.2 2076.91 1145.15Z" fill="#F0CC69"/>
<path d="M2094.18 1268.18C2094.18 1268.18 2080.19 1184.41 2087.67 1168.42C2095.15 1152.43 2140.21 1117.11 2127.24 1037.29C2123.6 1014.89 2190.91 1121.16 2146.67 1186.21C2121.09 1223.73 2100.49 1234.45 2094.18 1268.18Z" fill="#F0CC69"/>
<path d="M1979.05 1761.77C1979.05 1761.77 1997.3 1694.67 2026.52 1675.3C2043.48 1664.07 2134.68 1639.31 2176.92 1559.09C2194.6 1525.46 2149.39 1685.24 2078.34 1719.74C2031.54 1742.45 2007.5 1733.84 1979.05 1761.77Z" fill="#F0CC69"/>
<path d="M2106.28 1389.82C2128.48 1365.21 2170 1352.09 2182.66 1268.18C2198.6 1354.35 2173.33 1399.1 2173.33 1399.1C2173.33 1399.1 2126.22 1486.86 2092.49 1489.98C2079.78 1491.16 2089.72 1408.17 2106.28 1389.82Z" fill="#F0CC69"/>
<path d="M1942.55 1756.55C1942.55 1756.55 1989.15 1686.78 1974.79 1603.32C1963.98 1540.63 1838.13 1491.11 1856.84 1394.74C1870.47 1324.36 1787.07 1528.53 1910.05 1666.63C1945.42 1702.62 1942.55 1756.55 1942.55 1756.55Z" fill="#F0CC69"/>
<path d="M1996.37 1656.58C1996.37 1656.58 2056.91 1544.01 2038.77 1502.65C2016.31 1451.44 1884.42 1388.69 1889.03 1335.17C1892.36 1296.37 1868.32 1408.27 1901.39 1459.48C1932.76 1508.03 2017.9 1519.92 1996.37 1656.58Z" fill="#F0CC69"/>
<path d="M610.72 1711.95C460.318 1463.48 499.585 1203.12 630.917 1023.14C637.53 1014.12 660.085 987.774 665.057 988.799C673.926 990.645 681.615 1002.33 678.744 1007.36C673.464 1016.53 668.236 1025.91 663.161 1035.5C615.897 1124.9 549.36 1243.16 574.991 1361.68C585.089 1408.38 591.087 1452.56 600.16 1455.18C600.16 1455.18 617.999 1420.68 624.253 1399.71C650.038 1313.29 655.42 1251.98 717.293 1177.54C832.529 1038.93 830.838 1056.11 745.743 1206.1C711.398 1266.69 683.358 1339.33 672.439 1423.86C670.184 1441.29 656.497 1478.19 655.779 1496.6C654.549 1528.33 690.124 1545.24 690.124 1577.39C690.124 1587.43 691.56 1659.4 727.545 1738.5C748.306 1784.23 770.503 1831.44 799.722 1874.55C803.31 1879.83 826.275 1926.68 814.536 1918.48C781.37 1895.57 669.568 1803.5 610.72 1711.95Z" fill="#F0CC69"/>
<path d="M697.404 1761.11C664.852 1705.95 646.501 1563.34 741.489 1397.51C759.84 1365.47 752.1 1352.86 730.211 1380.08C615.334 1522.84 622.049 1663.56 622.049 1663.56" fill="#F0CC69"/>
<path d="M840.321 1917.15C824.481 1902.74 806.488 1875.37 802.9 1859.58C801.055 1851.43 799.671 1836.1 800.286 1827.44C802.9 1790.53 817.715 1774.03 831.658 1737.32C852.163 1683.55 862.312 1695.75 867.233 1675.65C884.867 1603.53 765.479 1717.23 765.479 1717.23C765.479 1717.23 734.312 1747.83 715.858 1792.48C715.858 1792.48 730.621 1825.9 759.738 1853.89C824.276 1915.92 924.031 1993.22 840.321 1917.15Z" fill="#F0CC69"/>
<path d="M822.38 1758.39C822.38 1758.39 876.256 1667.2 943.614 1588.77C965.554 1563.24 957.198 1546.68 959.402 1534.99C961.606 1523.3 962.58 1505.82 974.165 1494.03C985.751 1482.29 1003.49 1471.99 1003.49 1471.99L1021.84 1462.61C1015.33 1455.64 976.37 1474.5 976.37 1474.5C976.37 1474.5 947.151 1493.06 942.64 1509.46C938.129 1525.82 935.412 1543.91 933.72 1551.5C932.028 1559.08 904.04 1601.43 887.687 1616.81C871.283 1632.13 834.324 1662.07 834.324 1662.07L820.791 1717.94L822.38 1758.39Z" fill="#F0CC69"/>
<path d="M821.713 1688.73C821.713 1688.73 823.712 1621.47 812.281 1596.4C800.798 1571.34 764.146 1567.75 764.146 1567.75C764.146 1567.75 791.11 1552.63 806.642 1565.44C822.123 1578.31 805.463 1517.2 834.939 1503.16C834.939 1503.16 818.279 1561.85 824.43 1575.95C830.633 1590.05 842.577 1667.61 842.577 1667.61" fill="#F0CC69"/>
<path d="M715.96 1473.17C715.96 1473.17 780.14 1400.58 803.156 1397.66C826.173 1394.79 891.173 1410.84 891.173 1410.84C891.173 1410.84 964.99 1432.06 986.776 1413.19C1008.56 1394.33 959.812 1423.75 923.57 1404.12C887.277 1384.49 829.505 1379.16 829.505 1379.16C829.505 1379.16 801.106 1361.21 759.892 1396.84" fill="#F0CC69"/>
<path d="M766.197 1156.01C776.398 1150.38 801.926 1106.85 801.875 1084.2C801.875 1084.45 809.103 1021.71 835.144 993.669C870.155 955.94 924.851 911.702 947.612 920.826C970.372 929.951 926.953 883.559 817.151 992.9C774.04 1035.86 766.094 1110.7 766.094 1110.7L705.913 1191.95" fill="#F0CC69"/>
<path d="M556.28 1311.29C556.28 1311.29 577.041 1251.98 596.88 1227.01C616.718 1202.05 643.271 1179.13 660.957 1160.94C678.642 1142.69 707.297 1099.78 710.578 1091.94C713.859 1084.09 733.543 1028.12 733.543 1028.12C733.543 1028.12 744.154 950.25 755.022 907.806C765.889 865.361 816.28 835.681 816.28 835.681L854.572 822.968C854.572 822.968 943.357 793.851 950.072 800.31C956.788 806.769 1004.87 848.65 1004.87 848.65L963.349 791.083L1009.89 729.364L1011.79 714.344C1011.79 714.344 978.779 766.272 949.919 778.165C921.058 790.058 874.359 793.595 874.359 793.595L821.047 803.95C821.047 803.95 787.778 815.996 759.02 841.166C730.262 866.335 719.395 908.78 719.395 908.78L715.345 966.552L689.099 1038.22L649.577 1114.7C649.577 1114.7 605.799 1168.98 592.471 1178.21C579.194 1187.44 556.28 1311.29 556.28 1311.29Z" fill="#F0CC69"/>
<path d="M766.299 1248.95C766.299 1248.95 837.348 1212.76 848.42 1197.95C859.442 1183.08 893.121 1131.51 893.121 1131.51L887.072 1156.83L868.976 1189.49L902.399 1185.85L938.538 1182.93L917.829 1193.23L870.924 1202.41C870.924 1202.41 820.995 1252.18 787.111 1257.56" fill="#F0CC69"/>
<path d="M639.427 1405.56C639.427 1405.56 623.689 1362.7 622.459 1302.67C622.459 1302.67 631.225 1321.54 642.246 1352.3C657.676 1395.36 659.367 1361.52 659.367 1361.52" fill="#F0CC69"/>
<path d="M834.426 810.255C834.426 810.255 865.337 773.449 870.412 760.224C875.487 746.998 887.021 740.744 887.021 740.744L884.099 756.328L865.337 799.234" fill="#F0CC69"/>
<path d="M574.478 1128.79C574.478 1128.79 587.089 1042.32 589.703 1031.19C592.368 1020.07 613.591 991.67 613.591 991.67C613.591 991.67 660.905 958.555 664.186 962.041C667.416 965.527 629.431 989.978 617.641 1005.25C605.85 1020.53 603.902 1044.01 603.902 1044.01L606.619 1063.18L574.478 1128.79Z" fill="#F0CC69"/>
<path d="M864.158 1198.77C864.158 1198.77 904.654 1223.12 924.031 1207.69C943.408 1192.21 964.733 1167.45 964.733 1167.45C964.733 1167.45 892.352 1155.96 864.158 1198.77Z" fill="#F0CC69"/>
<path d="M981.752 799.387C981.752 799.387 1007.38 838.961 1031.63 833.528C1055.88 828.094 1085.92 815.125 1085.92 815.125C1085.92 815.125 1025.94 773.244 981.752 799.387Z" fill="#F0CC69"/>
<path d="M941.511 766.067C941.511 766.067 985.699 749.305 985.442 724.545C985.135 699.786 978.625 667.799 978.625 667.799C978.625 667.799 925.005 717.574 941.511 766.067Z" fill="#F0CC69"/>
<path d="M857.033 1053.18C857.033 1053.18 904.142 1049.19 910.703 1025.35C917.265 1001.46 919.879 968.961 919.879 968.961C919.879 968.961 854.623 1002.02 857.033 1053.18Z" fill="#F0CC69"/>
<path d="M1010.87 1317.44C1010.87 1317.44 1018.56 1363.93 1042.96 1368.55C1067.36 1373.16 1100.11 1373.21 1100.11 1373.21C1100.11 1373.21 1061.87 1311.03 1010.87 1317.44Z" fill="#F0CC69"/>
<path d="M978.42 1497.31C978.42 1497.31 1017.07 1524.43 1037.52 1510.34C1057.98 1496.24 1080.94 1473.02 1080.94 1473.02C1080.94 1473.02 1009.59 1456.56 978.42 1497.31Z" fill="#F0CC69"/>
<path d="M1057.98 1172.26C1057.98 1172.26 1102.73 1157.04 1103.29 1132.28C1103.86 1107.52 1098.47 1075.33 1098.47 1075.33C1098.47 1075.33 1043.21 1123.26 1057.98 1172.26Z" fill="#F0CC69"/>
<path d="M623.946 978.957C623.946 978.957 665.365 956.197 661.623 931.745C657.881 907.293 646.962 876.536 646.962 876.536C646.962 876.536 600.878 933.18 623.946 978.957Z" fill="#F0CC69"/>
<path d="M914.343 1031.96C914.343 1031.96 961.042 1039.45 973.191 1017.86C985.34 996.283 995.798 965.373 995.798 965.373C995.798 965.373 924.39 981.725 914.343 1031.96Z" fill="#F0CC69"/>
<path d="M749.075 1226.86C749.075 1226.86 795.775 1234.34 807.924 1212.76C820.073 1191.18 830.53 1160.27 830.53 1160.27C830.53 1160.27 759.123 1176.67 749.075 1226.86Z" fill="#F0CC69"/>
<path d="M926.031 1411.76C926.031 1411.76 953.046 1450.41 977.088 1444.16C1001.13 1437.9 1030.71 1423.86 1030.71 1423.86C1030.71 1423.86 969.296 1384.08 926.031 1411.76Z" fill="#F0CC69"/>
<path d="M816.792 1657.35C816.792 1657.35 801.516 1612.76 776.654 1612.19C751.792 1611.63 719.497 1616.96 719.497 1616.96C719.497 1616.96 767.53 1672.07 816.792 1657.35Z" fill="#F0CC69"/>
<path d="M892.915 1076.66C892.915 1076.66 917.675 1050.57 953.045 1054.16C988.416 1057.75 989.646 1073.79 1014.2 1076.71C1020.66 1077.48 947.201 1125.82 903.065 1100.04C881.894 1087.68 938.743 1074.97 961.914 1076.97C948.944 1066.56 892.915 1076.66 892.915 1076.66Z" fill="#F0CC69"/>
<path d="M875.23 740.231C875.23 740.231 861.338 707.116 879.023 676.359C896.709 645.602 911.933 651.036 924.595 629.916C927.927 624.38 942.383 710.807 900.758 740.539C880.818 754.79 892.3 697.889 903.526 677.641C888.712 685.176 875.23 740.231 875.23 740.231Z" fill="#F0CC69"/>
<path d="M1014.82 706.963C1014.82 706.963 1025.73 675.539 1055.83 668.875C1085.92 662.211 1092.58 676.872 1113.55 672.617C1119.08 671.49 1076.38 737.566 1031.32 725.981C1009.69 720.444 1051.52 692.456 1071.05 687.74C1056.85 681.588 1014.82 706.963 1014.82 706.963Z" fill="#F0CC69"/>
<path d="M692.944 1331.59C692.944 1331.59 702.735 1299.8 732.569 1292.06C762.403 1284.32 769.58 1298.73 790.392 1293.81C795.877 1292.52 755.534 1359.98 710.065 1349.99C688.279 1345.17 729.083 1315.75 748.46 1310.41C734.056 1304.78 692.944 1331.59 692.944 1331.59Z" fill="#F0CC69"/>
<path d="M882.817 914.111C882.817 914.111 865.644 885.558 879.844 858.338C894.043 831.067 909.576 835.424 919.828 816.714C922.545 811.793 945.869 886.788 907.987 913.752C889.84 926.67 895.171 876.792 904.142 858.851C890.301 865.72 882.817 914.111 882.817 914.111Z" fill="#F0CC69"/>
<path d="M1008.97 840.397C1008.97 840.397 1044.96 842.498 1064.95 871.82C1084.94 901.142 1073.36 912.368 1086.89 932.975C1090.43 938.409 1006.05 913.444 997.489 863.157C993.388 839.064 1039.68 874.281 1053.01 893.196C1052.75 876.639 1008.97 840.397 1008.97 840.397Z" fill="#F0CC69"/>
<path d="M903.732 927.747C903.732 927.747 939.358 958.76 961.145 946.867C982.931 934.975 1008.25 914.265 1008.25 914.265C1008.25 914.265 938.948 890.479 903.732 927.747Z" fill="#F0CC69"/>
<path d="M1020.97 1275.92C1020.97 1275.92 1047.47 1251.62 1082.53 1257.62C1117.6 1263.66 1117.7 1279.76 1141.94 1284.37C1148.3 1285.6 1071.66 1328.72 1029.43 1299.96C1009.18 1286.17 1066.79 1277.45 1089.71 1281.04C1077.56 1269.71 1020.97 1275.92 1020.97 1275.92Z" fill="#F0CC69"/>
<path d="M1006.92 1210.56C1006.92 1210.56 1034.14 1172.06 1019.99 1151.71C1005.84 1131.36 982.521 1108.5 982.521 1108.5C982.521 1108.5 966.015 1179.54 1006.92 1210.56Z" fill="#F0CC69"/>
<path d="M612.924 1310.36C612.924 1310.36 591.036 1285.25 600.263 1255.92C609.49 1226.65 625.535 1228.24 632.404 1207.99C634.198 1202.66 670.286 1272.48 637.684 1305.6C622.049 1321.49 618.614 1271.4 624.304 1252.18C611.899 1261.46 612.924 1310.36 612.924 1310.36Z" fill="#F0CC69"/>
<path d="M1001.38 784.983C1001.38 784.983 1008.1 748.638 1034.96 738.642C1061.77 728.646 1073.97 734.234 1102.01 733.978C1102.01 733.978 1093.14 766.888 1068.43 773.552C1040.8 780.985 1027.84 764.991 1001.38 784.983Z" fill="#F0CC69"/>
<path d="M1019.53 1220.66C1019.53 1220.66 1033.73 1186.52 1062.03 1182.31C1090.32 1178.11 1101.09 1186.05 1128.57 1191.64C1128.57 1191.64 1113.03 1221.99 1087.5 1223.37C1058.9 1224.96 1049.57 1206.61 1019.53 1220.66Z" fill="#F0CC69"/>
<path d="M895.735 1536.38C895.735 1536.38 859.237 1543.09 849.19 1569.8C839.142 1596.51 844.781 1608.65 844.525 1636.54C844.525 1636.54 877.589 1627.67 884.253 1603.12C891.737 1575.64 875.641 1562.78 895.735 1536.38Z" fill="#F0CC69"/>
<path d="M822.892 1539.25C822.892 1539.25 801.875 1508.8 813.716 1482.86C825.558 1456.92 838.168 1452.26 857.801 1432.37C857.801 1432.37 874.872 1461.89 862.159 1483.99C847.959 1508.64 827.403 1506.44 822.892 1539.25Z" fill="#F0CC69"/>
<path d="M880.1 1160.53C880.1 1160.53 879.588 1119.88 858.417 1113.57C837.246 1107.26 808.026 1104.14 808.026 1104.14C808.026 1104.14 833.709 1161.24 880.1 1160.53Z" fill="#F0CC69"/>
<path d="M739.284 1055.44C739.284 1055.44 779.935 1051.39 784.395 1029.81C788.854 1008.28 789.418 979.008 789.418 979.008C789.418 979.008 734.568 1009.46 739.284 1055.44Z" fill="#F0CC69"/>
<path d="M784.087 955.838C784.087 955.838 760.61 931.232 767.632 905.96C774.655 880.688 785.42 874.691 800.337 853.827C800.337 853.827 820.124 878.176 811.717 900.014C802.388 924.517 783.472 925.44 784.087 955.838Z" fill="#F0CC69"/>
<path d="M789.367 957.632C789.367 957.632 828.531 974.292 843.858 958.093C859.185 941.895 875.076 917.135 875.076 917.135C875.076 917.135 809.103 916.008 789.367 957.632Z" fill="#F0CC69"/>
<path d="M792.238 1550.22C792.238 1550.22 769.939 1534.94 747.486 1545.24C725.034 1555.5 727.956 1568.36 712.475 1575.8C708.425 1577.74 767.837 1600.2 790.905 1570.67C801.977 1556.52 761.686 1558.52 746.922 1564.98C753.074 1554.06 792.238 1550.22 792.238 1550.22Z" fill="#F0CC69"/>
<path d="M898.657 1433.75C898.657 1433.75 941.204 1454.31 938.744 1478.91C936.283 1503.52 927.005 1534.84 927.005 1534.84C927.005 1534.84 877.998 1480.65 898.657 1433.75Z" fill="#F0CC69"/>
<path d="M858.16 746.639C858.16 746.639 833.196 726.852 805.976 737.104C778.705 747.357 781.063 762.684 762.25 770.168C757.329 772.167 825.302 803.437 854.931 770.578C869.13 754.841 821.559 753.918 803.669 760.275C811.768 747.972 858.16 746.639 858.16 746.639Z" fill="#F0CC69"/>
<path d="M594.932 1001.56C594.932 1001.56 569.608 992.131 565.149 967.936C560.689 943.74 572.94 938.717 570.224 921.851C569.506 917.392 622.049 953.019 611.028 988.799C605.748 1005.97 584.269 971.934 581.142 956.197C575.657 967.372 594.932 1001.56 594.932 1001.56Z" fill="#F0CC69"/>
<path d="M808.026 1360.5C808.026 1360.5 821.611 1326.1 849.856 1321.38C878.101 1316.67 889.02 1324.46 916.547 1329.54C916.547 1329.54 901.528 1360.14 876.051 1361.98C847.498 1364.09 837.861 1345.89 808.026 1360.5Z" fill="#F0CC69"/>
<path d="M905.885 1378.03C905.885 1378.03 914.804 1349.22 941.819 1342.2C968.834 1335.17 975.344 1348.25 994.26 1343.79C999.232 1342.61 962.683 1403.76 921.468 1394.69C901.733 1390.33 938.692 1363.68 956.275 1358.81C943.101 1353.73 905.885 1378.03 905.885 1378.03Z" fill="#F0CC69"/>
<path d="M768.607 1052.98L813.461 1057.18L806.233 1093.89L751.024 1094.86L768.607 1052.98Z" fill="#2F333F"/>
<path d="M677.156 1124.64C677.156 1124.64 706.939 1105.27 727.444 1094.55C747.999 1083.89 795.621 1086.91 795.621 1086.91L848.165 1083.12L908.038 1074.61L904.809 1068.92C904.809 1068.92 893.788 1069.74 866.516 1070.15C839.245 1070.56 790.598 1064.36 790.598 1064.36C790.598 1064.36 757.432 1057.95 742.771 1062.82C728.11 1067.69 691.971 1082.86 691.971 1082.86" fill="#F0CC69"/>
<path d="M942.948 1295.24C942.948 1295.24 961.71 1292.17 981.343 1286.83C1000.98 1281.5 1044.5 1282.07 1028.2 1283.81C998.772 1287.04 976.678 1302.88 976.678 1302.88L963.863 1311.54" fill="#F0CC69"/>
<path d="M672.798 1299.39L734.415 1266.07C734.415 1266.07 832.068 1282.99 850.215 1292.27C868.362 1301.55 952.482 1304.72 952.482 1304.72L1005.9 1345.02C1005.9 1345.02 984.623 1303.7 941.461 1291.91C898.35 1280.12 825.353 1262.54 825.353 1262.54C825.353 1262.54 727.853 1218.4 693.559 1252.03" fill="#F0CC69"/>
<path d="M697.404 1015.56L746.769 996.437L761.993 947.329L711.091 962.348L697.404 1015.56Z" fill="#2F333F"/>
<path d="M1720.09 1154.32C1703.64 1129.72 1696.26 1096.81 1673.7 1099.99C1643.36 1099.99 1645.61 1132.54 1591.63 1129.77C1567.8 1161.76 1533.19 1154.37 1533.19 1187.44C1583.48 1171.91 1599.73 1174.88 1604.55 1166.52C1604.55 1161.14 1528.38 1174.83 1621.36 1154.32C1673.7 1133.61 1630.59 1154.32 1621.36 1187.44C1629.67 1209.74 1652.43 1228.14 1680.16 1240.7C1681.44 1239.42 1684.98 1238.65 1678.11 1231.32C1627.57 1199.64 1669.96 1180.98 1656.12 1178.36C1642.07 1172.98 1661.86 1146.53 1669.45 1144.17C1708.46 1131.97 1689.8 1167.34 1707.74 1174.88C1784.68 1170.83 1762.85 1231.63 1821.64 1214.09C1759.1 1214.04 1794.42 1144.69 1720.09 1154.32Z" fill="#F0CC69"/>
<path d="M1220.7 1215.89C1201.58 1229.88 1176.88 1210.35 1159.86 1244.18C1159.86 1261 1236.95 1248.8 1265.05 1215.89C1385.25 1127.31 1305.54 1220.14 1296.47 1224.6C1261.51 1261.05 1227.11 1301.14 1309.44 1252.34C1360.44 1214.71 1296.47 1289.29 1284.83 1310.57C1330.3 1305.03 1326.46 1305.75 1396.89 1320.72C1405.3 1292.68 1296.47 1294.63 1366.39 1252.28C1366.39 1215.84 1403.55 1210.3 1345.88 1215.84C1343.78 1192.97 1352.75 1170.11 1375.1 1164.83C1389.71 1161.4 1375.1 1204.2 1424.67 1204.2C1424.67 1133.77 1303.75 1122.64 1389.71 1109.52C1467.02 1125.62 1417.09 1141.87 1466.66 1141.87C1509 1215.48 1536.17 1169.29 1525.1 1215.84C1541.55 1236.75 1551.34 1266.69 1570.41 1266.69C1573.13 1254.28 1564.52 1260.95 1564.52 1234.7C1589.84 1260.95 1574.87 1260.95 1665.09 1260.95C1665.09 1234.7 1589.84 1266.69 1551.39 1174.98C1518.69 1164.83 1505 1150.22 1493.16 1113.78C1486.5 1093.27 1424.73 1100.45 1396.99 1061.44C1337.07 1061.44 1298.06 1172.21 1261.66 1174.98C1249 1176.67 1238.9 1202.56 1220.7 1215.89Z" fill="#F0CC69"/>
<path d="M623.843 1044.83C623.843 1044.83 608.977 1051.18 633.942 1021.81C658.906 992.439 656.958 991.977 672.08 983.314C687.203 974.702 748.46 962.194 748.46 962.194C748.46 962.194 775.219 954.146 793.929 939.639C824.071 916.264 829.044 890.992 829.044 890.992L841.449 842.293L841.91 878.228C841.91 878.228 831.299 915.597 821.201 933.693C806.54 959.99 774.706 974.702 774.706 974.702C774.706 974.702 751.433 984.493 732.672 991.567C720.318 996.232 695.866 1002.13 668.543 1029.35C644.143 1053.64 592.317 1139.92 592.317 1139.92L623.843 1044.83Z" fill="#F0CC69"/>
<path d="M780.448 1532.99C780.448 1532.99 757.636 1518.54 758.354 1493.93C759.071 1469.33 772.092 1466.97 772.912 1449.9C773.117 1445.39 817.1 1491.11 798.85 1523.82C790.085 1539.5 776.193 1501.77 776.398 1485.73C768.709 1495.57 780.448 1532.99 780.448 1532.99Z" fill="#F0CC69"/>
<path d="M625.996 1176.21C625.996 1176.21 638.043 1174.11 663.828 1140.23C689.612 1106.34 719.293 1057.54 721.497 1020.84C691.458 1110.55 625.996 1176.21 625.996 1176.21Z" fill="#2F333F"/>
<path d="M736.773 932.36C736.773 932.36 741.13 845.625 833.965 822.199C728.366 841.165 736.773 932.36 736.773 932.36Z" fill="#2F333F"/>
<path d="M720.266 1219.27L788.291 1105.57C788.342 1105.57 749.127 1203.69 720.266 1219.27Z" fill="#2F333F"/>
<path d="M600.16 1138.69C600.16 1138.69 645.578 1014.48 689.715 996.796C733.851 979.059 636.351 981.007 600.16 1138.69Z" fill="#2F333F"/>
<path d="M799.415 1288.58C803.516 1284.84 881.536 1252.34 881.536 1252.34L925.724 1285.09L852.625 1308.83L799.415 1288.58Z" fill="#2F333F"/>
<path d="M1040.65 1137.25C1040.65 1137.25 1032.76 1191.74 1013.38 1208.51C994.004 1225.27 905.322 1255.26 905.322 1255.26L838.887 1276.58C838.887 1276.58 809.975 1282.43 782.448 1319.08C754.92 1355.73 664.341 1450.67 632.558 1546.94C614.976 1600.15 656.241 1700.67 656.241 1700.67C656.241 1700.67 703.658 1515.36 733.903 1459.89C751.793 1427.09 809.309 1331.84 809.309 1331.84C809.309 1331.84 840.886 1298.32 856.931 1297.19C872.976 1296.06 950.432 1263.05 974.064 1251.1C997.644 1239.16 1029.17 1211.94 1029.17 1211.94C1029.17 1211.94 1052.7 1149.86 1040.65 1137.25Z" fill="#F0CC69"/>
<path d="M874.206 1281.45C874.206 1281.45 970.475 1243.01 985.495 1234.7C1000.51 1226.4 940.077 1268.64 874.206 1281.45Z" fill="#2F333F"/>
<path d="M1604.27 1834C1574.95 1834 1529.38 1839.54 1529.38 1839.54C1529.38 1839.54 1574.95 1845.07 1604.27 1845.07C1633.39 1845.07 1678.71 1839.54 1678.71 1839.54C1678.71 1839.54 1633.44 1834 1604.27 1834Z" fill="#F0CC69"/>
<path d="M1526.92 1775.05C1449 1775.05 1327.97 1780.59 1327.97 1780.59C1327.97 1780.59 1449.05 1786.12 1526.92 1786.12C1604.33 1786.12 1724.64 1780.59 1724.64 1780.59C1724.64 1780.59 1604.38 1775.05 1526.92 1775.05Z" fill="#F0CC69"/>
<path d="M1366.37 1730.81C1291.73 1730.81 1175.73 1736.35 1175.73 1736.35C1175.73 1736.35 1291.68 1741.88 1366.37 1741.88C1440.54 1741.88 1555.78 1736.35 1555.78 1736.35C1555.78 1736.35 1440.54 1730.86 1366.37 1730.81Z" fill="#F0CC69"/>
<path d="M1674.25 1701.34C1648.1 1701.34 1607.5 1706.87 1607.5 1706.87C1607.5 1706.87 1648.1 1712.41 1674.25 1712.41C1700.24 1712.41 1740.58 1706.87 1740.58 1706.87C1740.58 1706.87 1700.18 1701.39 1674.25 1701.34Z" fill="#F0CC69"/>
<path d="M1281.79 1679.24C1203.87 1679.24 1082.84 1684.78 1082.84 1684.78C1082.84 1684.78 1203.92 1690.31 1281.79 1690.31C1359.19 1690.31 1479.5 1684.78 1479.5 1684.78C1479.5 1684.78 1359.19 1679.24 1281.79 1679.24Z" fill="#F0CC69"/>
<path d="M1552.86 1627.67C1489.14 1627.67 1390.15 1633.21 1390.15 1633.21C1390.15 1633.21 1489.14 1638.75 1552.86 1638.75C1616.17 1638.75 1714.54 1633.21 1714.54 1633.21C1714.54 1633.21 1616.17 1627.67 1552.86 1627.67Z" fill="#F0CC69"/>
<path d="M1242.21 1627.67C1207.97 1627.67 1154.81 1633.21 1154.81 1633.21C1154.81 1633.21 1208.02 1638.75 1242.21 1638.75C1276.2 1638.75 1329.05 1633.21 1329.05 1633.21C1329.05 1633.21 1276.2 1627.67 1242.21 1627.67Z" fill="#F0CC69"/>
<path d="M1617.29 1576.1C1568.7 1576.1 1493.24 1581.64 1493.24 1581.64C1493.24 1581.64 1568.75 1587.18 1617.29 1587.18C1665.58 1587.18 1740.58 1581.64 1740.58 1581.64C1740.58 1581.64 1665.53 1576.1 1617.29 1576.1Z" fill="#F0CC69"/>
<path d="M1350.53 1576.1C1314.08 1576.1 1257.49 1581.64 1257.49 1581.64C1257.49 1581.64 1314.08 1587.18 1350.53 1587.18C1386.72 1587.18 1442.95 1581.64 1442.95 1581.64C1442.95 1581.64 1386.72 1576.1 1350.53 1576.1Z" fill="#F0CC69"/>
<path d="M1557.93 1524.53C1496.21 1524.53 1400.3 1530.07 1400.3 1530.07C1400.3 1530.07 1496.21 1535.61 1557.93 1535.61C1619.24 1535.61 1714.54 1530.07 1714.54 1530.07C1714.54 1530.07 1619.24 1524.53 1557.93 1524.53Z" fill="#F0CC69"/>
<path d="M1676.6 1482.5C1646.41 1482.5 1599.51 1485.99 1599.51 1485.99C1599.51 1485.99 1646.41 1489.47 1676.6 1489.47C1706.59 1489.47 1753.19 1485.99 1753.19 1485.99C1753.19 1485.99 1706.59 1482.5 1676.6 1482.5Z" fill="#F0CC69"/>
<path d="M887.79 1765.21C887.79 1844.1 921.52 1970.72 1087.92 2041.66C1167.52 2072.01 1253.95 2088.62 1344.22 2088.62C1573.98 2088.62 1778.61 1980.97 1910.41 1813.39C1910.41 1813.39 1907.79 1785.1 1900.57 1776.13C1887.6 1760.13 1865.14 1761.41 1870.63 1766.08C1890.21 1782.74 1882.37 1800.01 1876.93 1808.68C1870.89 1818.37 1864.94 1824.83 1854.12 1833.13C1679.63 1967.44 1021.12 1906.79 1021.12 1686.73C1021.12 1557.34 1215.15 1461.38 1409.43 1461.38C1506.36 1461.38 1673.37 1447.08 1729.2 1426.78C1833.26 1388.85 1786.05 1331.33 1725.51 1312.82C1697.11 1304.11 1667.22 1302.93 1630.62 1302.93C1569.06 1302.93 1549.99 1299.14 1539.79 1297.14C1538.2 1296.83 1536.81 1296.57 1535.53 1296.37C1498.06 1290.27 1535.53 1309.03 1595.1 1309.03H1597.46C1836.39 1309.03 1816.8 1451.28 1409.48 1451.28C1002.15 1451.23 887.79 1652.48 887.79 1765.21Z" fill="#F0CC69"/>
<path d="M1312.65 2004.7C916.291 1978.71 919.265 1738.4 919.265 1738.4C919.265 1738.4 873.642 2016.65 1312.03 2042.33C1575.41 2057.76 1758.57 1932.12 1759.96 1928.78C1765.9 1925.3 1595.61 2023.26 1312.65 2004.7Z" fill="#2F333F"/>
<path d="M995.542 1694.83C995.542 1500.24 1333.61 1460.3 1333.61 1460.3C1333.61 1460.3 959.761 1494.19 959.761 1702C959.761 1841.64 1164.86 1884.85 1164.86 1884.85C1164.86 1884.85 995.542 1836.46 995.542 1694.83Z" fill="#2F333F"/>
<path d="M1748.58 1331.02C1748.58 1331.02 1781.18 1347.94 1781.18 1368.55C1781.18 1401.25 1723.61 1418.06 1723.61 1418.06C1723.61 1418.06 1770.57 1399.76 1770.57 1367.06C1770.62 1345.48 1748.58 1331.02 1748.58 1331.02Z" fill="#2F333F"/>
<path d="M1193.16 775.243C1193.72 809.435 1194.23 809.947 1228.68 810.511C1194.23 811.075 1193.72 811.588 1193.16 845.779C1192.54 811.588 1192.08 811.075 1157.63 810.511C1192.08 809.947 1192.54 809.486 1193.16 775.243Z" fill="#F0CC69"/>
<path d="M1167.27 932.77C1167.83 966.962 1168.35 967.474 1202.79 968.038C1168.35 968.602 1167.83 969.115 1167.27 1003.31C1166.65 969.115 1166.19 968.602 1131.74 968.038C1166.19 967.423 1166.65 966.962 1167.27 932.77Z" fill="#F0CC69"/>
<path d="M1323.51 870.692C1324.08 904.884 1324.59 905.396 1359.04 905.96C1324.59 906.524 1324.08 907.037 1323.51 941.228C1322.9 907.037 1322.44 906.524 1287.99 905.96C1322.44 905.396 1322.9 904.935 1323.51 870.692Z" fill="#F0CC69"/>
<path d="M2072.84 2462.96L2117.26 2425.68M2117.26 2425.68L2005.43 2292.41M2117.26 2425.68L2161.68 2388.41M2005.43 2292.41L1893.61 2159.14M2005.43 2292.41L2227.55 2106.03M1893.61 2159.14L1849.18 2196.42M1893.61 2159.14L1938.03 2121.87M2227.55 2106.03L2115.72 1972.76M2227.55 2106.03L2339.38 2239.3M2115.72 1972.76L2071.3 2010.04M2115.72 1972.76L2160.15 1935.49M2339.38 2239.3L2294.95 2276.58M2339.38 2239.3L2383.8 2202.03" stroke="#F0CC69" stroke-width="17"/>
<path d="M1661.98 2601.63L1717.77 2585.82M1773.57 2570.02L1717.77 2585.82M1460.2 2357.43L1444.39 2301.63L1622.94 2251.05M1817.29 2256.27L1801.48 2200.47L1622.94 2251.05M1622.94 2251.05L1717.77 2585.82" stroke="#F0CC69" stroke-width="17"/>
<path d="M1120.04 2271.85L1177.91 2275.66M1177.91 2275.66L1160.71 2536.77M1177.91 2275.66L1315.08 2284.69C1435.15 2292.61 1429.18 2447.45 1282.4 2480.79M1160.71 2536.77L1155.04 2622.85M1160.71 2536.77C1160.71 2536.77 1212.81 2496.59 1282.4 2480.79M1155.04 2622.85L1097.17 2619.04M1155.04 2622.85L1230.26 2627.8M1282.4 2480.79C1328.17 2517.44 1345.84 2585.31 1380.71 2637.72L1438.58 2641.53" stroke="#F0CC69" stroke-width="17"/>
<path d="M985.613 2504.76C961.484 2564.13 873.434 2555.69 802.036 2526.67C737.06 2500.26 733.033 2378.05 857.205 2362.01C932.481 2352.29 1019.02 2390.44 1039.85 2371.31M985.613 2504.76C1006.79 2452.64 1018.67 2423.42 1039.85 2371.31M985.613 2504.76C951.948 2587.59 950.617 2587.05 997.038 2605.92M1039.85 2371.31L1075.22 2284.28C1084.06 2262.51 915.348 2185.01 856.396 2195.35L838.819 2238.6" stroke="#F0CC69" stroke-width="17"/>
<path d="M331.443 2197.53C331.443 2197.53 350.854 2222.69 368.544 2242.94M368.544 2242.94C478.089 2361.61 603.175 2445.46 603.175 2445.46L641.012 2401.51M368.544 2242.94L464.698 2131.26M559.764 1933.75C559.764 1933.75 579.797 1959.71 595.568 1979.27M595.568 1979.27C679.401 2083.22 812.95 2171.43 812.95 2171.43L775.113 2215.38M595.568 1979.27C544.46 2038.62 464.698 2131.26 464.698 2131.26M464.698 2131.26C557.794 2231.58 636.98 2284.77 636.98 2284.77" stroke="#F0CC69" stroke-width="17"/>
<path d="M2212.3 911.18C2212.3 911.18 2226.48 938.247 2234.34 956.004M2234.34 956.004L2365.93 895.484M2234.34 956.004C2245.68 979.83 2258.96 1014.45 2258.96 1014.45M2485.63 768.279C2485.63 768.279 2501.8 799.066 2514.6 827.184M2514.6 827.184C2560.83 923.875 2591.37 1043.07 2591.37 1043.07L2544 1055.29M2514.6 827.184L2365.93 895.484M2365.93 895.484C2365.93 895.484 2402.8 976.143 2420.91 1040.74" stroke="#F0CC69" stroke-width="17"/>
<circle cx="2240.25" cy="670.536" r="154.267" transform="rotate(-45 2240.25 670.536)" stroke="#F0CC69" stroke-width="17"/>
<path d="M1623.44 418.796L1610.19 464.753C1665.82 534.481 1807.44 605.78 1850.01 506.295C1892.59 406.811 1628.29 357.636 1668.69 263.225C1716.5 151.501 1918.77 265.6 1941.44 351.401L1915.93 395.099" stroke="#F0CC69" stroke-width="17"/>
<path d="M1123.85 484.901C1141.73 480.242 1159.16 476.536 1173.85 473.739M1173.85 473.739C1197.37 469.261 1213.85 467.113 1213.85 467.113M1173.85 473.739V161.462M1450.9 463.839C1450.9 463.839 1468.56 465.895 1490.9 469.416M1490.9 469.416C1506.75 471.915 1524.97 475.152 1540.9 478.915M1490.9 469.416V158.34M1123.85 169.512C1143.26 165.847 1162.08 163.073 1173.85 161.462M1173.85 161.462C1181.42 160.426 1186.08 159.871 1186.08 159.871C1186.08 159.871 1297.18 307.9 1332.49 382.924C1367.8 307.899 1479.16 157.024 1479.16 157.024C1479.16 157.024 1483.79 157.512 1490.9 158.34M1540.9 165.291C1524.73 162.454 1503.76 159.84 1490.9 158.34" stroke="#F0CC69" stroke-width="17"/>
<path d="M812.214 630.442C812.214 630.442 834.61 613.844 852.257 602.94M852.257 602.94C962.981 530.897 1063.4 502.482 1063.4 502.482L1041.38 435.051M852.257 602.94L776.405 485.63M631.169 380.99C631.169 380.99 658.867 360.971 684.839 344.133M684.839 344.133C823.176 252.825 967.661 209.198 967.661 209.198L983.336 257.248M684.839 344.133L776.405 485.63M776.405 485.63C867.696 426.314 952.731 394.024 952.731 394.024" stroke="#F0CC69" stroke-width="17"/>
<circle cx="569.834" cy="635.21" r="154.267" transform="rotate(-45 569.834 635.21)" stroke="#F0CC69" stroke-width="17"/>
<path d="M176.308 1029.59C185.737 995.781 196.724 965.032 196.724 965.032M196.724 965.032C196.724 965.032 231.357 848.944 281.702 795.351C340.813 732.424 466.055 801.038 437.8 876.509C422.69 949.257 371.919 1026.04 371.919 1026.04M196.724 965.032L371.919 1026.04M371.919 1026.04L487.889 1066.43M487.889 1066.43C480.306 1087.73 472.603 1114.46 472.603 1114.46M487.889 1066.43C496.917 1039.27 511.273 1006.23 511.273 1006.23" stroke="#F0CC69" stroke-width="17"/>
</svg>
