<svg width="2723" height="2869" viewBox="0 0 2723 2869" fill="none" xmlns="http://www.w3.org/2000/svg">
<g clip-path="url(#clip0_219_152)">
<path d="M1307.94 2153.16C1731.53 2153.16 2074.92 1809.78 2074.92 1386.19C2074.92 962.598 1731.53 619.211 1307.94 619.211C884.354 619.211 540.967 962.598 540.967 1386.19C540.967 1809.78 884.354 2153.16 1307.94 2153.16Z" fill="#F0CC69"/>
<path d="M1307.94 2135.22C1721.62 2135.22 2056.98 1799.87 2056.98 1386.19C2056.98 972.507 1721.62 637.152 1307.94 637.152C894.263 637.152 558.908 972.507 558.908 1386.19C558.908 1799.87 894.263 2135.22 1307.94 2135.22Z" fill="#2F333F"/>
<path d="M1601.36 665.244C1601.36 665.244 1670.41 711.277 1676.16 745.827C1681.9 780.377 1679.03 774.585 1679.03 774.585C1679.03 774.585 2244.7 1142.85 1902.32 1827.65C1882.18 1873.69 1968.5 1833.39 1968.5 1833.39C1968.5 1833.39 2484.65 927.088 1601.36 665.244Z" fill="#2F333F"/>
<path d="M1113.51 682.724C1107.05 684.364 1123.45 663.501 1093.52 671.498C1077.32 675.855 1068.09 671.908 1055.89 669.498C1048.66 668.063 1042.05 668.319 1039.13 668.319C1015.14 668.319 1014.01 665.654 984.175 670.37C929.53 678.982 426.346 973.121 550.04 1505.37C593.202 1554.27 593.202 1473.74 593.202 1473.74C593.202 1473.74 1694.51 536.936 1113.51 682.724Z" fill="#2F333F"/>
<path d="M1598.49 888.334C1590.34 836.868 1542 801.702 1490.49 809.904C1439.02 818.055 1403.9 866.394 1412.06 917.912C1420.21 969.379 1468.55 1004.54 1520.06 996.343C1571.53 988.141 1606.7 939.801 1598.49 888.334Z" fill="#F0CC69"/>
<path d="M1574.25 868.906C1566.92 822.566 1523.4 790.937 1477.06 798.319C1430.71 805.649 1399.09 849.171 1406.47 895.511C1413.8 941.852 1457.32 973.48 1503.66 966.098C1549.95 958.717 1581.58 915.196 1574.25 868.906Z" fill="#2F333F"/>
<path d="M1847.68 1266.59C1847.68 1266.59 1846.34 1318.47 1896.58 1375.94C1928.52 1412.43 2005.36 1439.4 2016.84 1506.86C2018.89 1518.96 2044.06 1411.31 2011.66 1365.89C1975.73 1315.5 1892.58 1317.14 1847.68 1266.59Z" fill="#F0CC69"/>
<path d="M2036.42 1359.79C2036.42 1359.79 2039.75 1257.37 1987.21 1220.51C1933.13 1182.58 1834.45 1197.49 1810.26 1170.17C1803.49 1162.53 1844.91 1249.01 1886.48 1269.41C1938.05 1294.79 2006.54 1291.92 2036.42 1359.79Z" fill="#F0CC69"/>
<path d="M2036.17 1257.93C2036.17 1257.93 2032.53 1150.08 1982.96 1122.7C1933.34 1095.33 1869.31 1111.53 1816.1 1084.21C1785.65 1068.57 1779.6 1054.94 1779.6 1054.94C1779.6 1054.94 1794.88 1130.44 1846.29 1156.13C1869.31 1167.61 1944.66 1164.69 1982.96 1181.65C2015.71 1196.21 2026.07 1220.56 2036.17 1257.93Z" fill="#F0CC69"/>
<path d="M1696.35 1993.38C1696.35 1993.38 1942.25 1839.49 1885.1 1762.91C1782.11 1630.86 1772.32 1505.37 1772.32 1505.37C1772.32 1505.37 1726.9 1669.51 1763.71 1722.87C1800.46 1776.29 1846.96 1780.59 1849.16 1806.02C1853.67 1858.15 1774.48 1929.2 1696.35 1993.38Z" fill="#F0CC69"/>
<path d="M1770.02 955.846C1770.02 955.846 1778.53 1046.78 1823.23 1058.01C1864.23 1068.31 1956.71 1062.88 1989.52 1095.69C1993.57 1099.74 1996.44 1109.78 1997.87 1109.78C2006.28 1109.78 1964.19 1006.19 1886.53 991.832C1797.9 975.377 1788.73 983.169 1770.02 955.846Z" fill="#F0CC69"/>
<path d="M1729.72 860.91C1729.72 860.91 1769.3 931.856 1800.82 946.875C1848.65 969.687 1916.06 944.261 1957.02 1007.62C1972.86 1032.07 1946.97 954.411 1890.84 906.943C1841.94 865.575 1781.6 892.231 1729.72 860.91Z" fill="#F0CC69"/>
<path d="M1673.59 708.406C1673.59 708.406 1707.07 742.239 1719.63 767.408C1732.54 793.295 1735.21 819.541 1748.38 829.281C1801.08 868.189 1873.56 836.458 1902.32 899.766C1907.29 910.684 1900.89 837.893 1847.68 778.942C1806.46 733.165 1719.63 742.546 1673.59 708.406Z" fill="#F0CC69"/>
<path d="M1854.49 1903.93C1889.71 1865.79 1912.32 1822.58 1933.13 1809.56C1972.91 1784.7 2046.16 1791.51 2097.99 1713.6C2097.99 1713.6 2065.03 1825.65 1975.68 1853.49C1959.48 1858.51 1919.24 1854.26 1901.25 1876.35C1895.09 1883.89 1881.36 1893.68 1874.18 1901.11C1863.47 1912.23 1847.16 1911.88 1854.49 1903.93Z" fill="#F0CC69"/>
<path d="M2005.61 1653.82C2005.61 1653.82 2026.02 1569.4 2062.31 1546.59C2127.87 1505.42 2147.2 1470 2155.5 1437.76C2161.14 1415.77 2152.22 1520.03 2141.35 1548.17C2115.88 1614.56 2005.61 1653.82 2005.61 1653.82Z" fill="#F0CC69"/>
<path d="M2064.92 1380.24C2064.92 1380.24 2151.25 1334.21 2132.54 1193.24C2122.49 1240.71 2102.35 1262.29 2102.35 1262.29C2102.35 1262.29 2051.96 1301.09 2064.92 1380.24Z" fill="#F0CC69"/>
<path d="M2012.79 1076.67C2012.79 1076.67 2079.33 1004.75 1986.44 866.087C1993.11 904.226 1982.96 940.365 1982.96 940.365C1982.96 940.365 1960.4 975.736 2012.79 1076.67Z" fill="#F0CC69"/>
<path d="M1889.4 806.213C1889.4 806.213 1958.81 801.907 1969.99 869.522C1979.78 928.78 1956.4 941.698 1960.71 959.229C1965.07 976.761 1916.06 910.018 1915.29 885.361C1914.52 860.705 1910.99 820.618 1889.4 806.213Z" fill="#F0CC69"/>
<path d="M2041.91 1165.15C2041.91 1165.15 2012.23 1100.71 2033.3 1076.67C2053.44 1053.65 2060.62 999.009 2052.01 971.635C2042.83 942.775 2126.8 1088.2 2041.91 1165.15Z" fill="#F0CC69"/>
<path d="M2059.18 1288.18C2059.18 1288.18 2045.19 1204.41 2052.67 1188.42C2060.16 1172.43 2105.22 1137.11 2092.25 1057.29C2088.61 1034.89 2155.91 1141.16 2111.67 1206.21C2086.09 1243.73 2065.49 1254.45 2059.18 1288.18Z" fill="#F0CC69"/>
<path d="M1944.05 1781.77C1944.05 1781.77 1962.3 1714.67 1991.52 1695.3C2008.48 1684.07 2099.68 1659.31 2141.92 1579.09C2159.6 1545.46 2114.39 1705.24 2043.34 1739.74C1996.54 1762.45 1972.5 1753.84 1944.05 1781.77Z" fill="#F0CC69"/>
<path d="M2071.28 1409.82C2093.48 1385.21 2135 1372.09 2147.66 1288.18C2163.6 1374.35 2138.33 1419.1 2138.33 1419.1C2138.33 1419.1 2091.22 1506.86 2057.49 1509.98C2044.78 1511.16 2054.72 1428.17 2071.28 1409.82Z" fill="#F0CC69"/>
<path d="M1907.55 1776.55C1907.55 1776.55 1954.15 1706.78 1939.79 1623.32C1928.98 1560.63 1803.13 1511.11 1821.84 1414.74C1835.48 1344.36 1752.07 1548.53 1875.05 1686.63C1910.42 1722.62 1907.55 1776.55 1907.55 1776.55Z" fill="#F0CC69"/>
<path d="M1961.38 1676.58C1961.38 1676.58 2021.92 1564.01 2003.77 1522.65C1981.32 1471.44 1849.42 1408.69 1854.03 1355.17C1857.37 1316.37 1833.32 1428.27 1866.39 1479.48C1897.76 1528.03 1982.91 1539.92 1961.38 1676.58Z" fill="#F0CC69"/>
<path d="M575.722 1731.95C425.32 1483.48 464.587 1223.12 595.919 1043.14C602.532 1034.12 625.087 1007.77 630.059 1008.8C638.928 1010.64 646.617 1022.33 643.746 1027.36C638.466 1036.53 633.238 1045.91 628.163 1055.5C580.899 1144.9 514.362 1263.16 539.993 1381.68C550.091 1428.38 556.089 1472.56 565.162 1475.18C565.162 1475.18 583.001 1440.68 589.255 1419.71C615.04 1333.29 620.422 1271.98 682.295 1197.54C797.531 1058.93 795.839 1076.11 710.745 1226.1C676.4 1286.69 648.36 1359.33 637.441 1443.86C635.185 1461.29 621.499 1498.19 620.781 1516.6C619.551 1548.33 655.126 1565.24 655.126 1597.39C655.126 1607.43 656.562 1679.4 692.547 1758.5C713.308 1804.23 735.505 1851.44 764.724 1894.55C768.312 1899.83 791.277 1946.68 779.538 1938.48C746.372 1915.57 634.57 1823.5 575.722 1731.95Z" fill="#F0CC69"/>
<path d="M662.406 1781.11C629.854 1725.95 611.503 1583.34 706.491 1417.51C724.842 1385.47 717.102 1372.86 695.213 1400.08C580.336 1542.84 587.051 1683.56 587.051 1683.56" fill="#F0CC69"/>
<path d="M805.323 1937.15C789.483 1922.74 771.49 1895.37 767.902 1879.58C766.057 1871.43 764.673 1856.1 765.288 1847.44C767.902 1810.53 782.717 1794.03 796.66 1757.32C817.165 1703.55 827.314 1715.75 832.235 1695.65C849.869 1623.53 730.481 1737.23 730.481 1737.23C730.481 1737.23 699.314 1767.83 680.86 1812.48C680.86 1812.48 695.623 1845.9 724.74 1873.89C789.278 1935.92 889.033 2013.22 805.323 1937.15Z" fill="#F0CC69"/>
<path d="M787.382 1778.39C787.382 1778.39 841.258 1687.2 908.616 1608.77C930.556 1583.24 922.2 1566.68 924.404 1554.99C926.608 1543.3 927.582 1525.82 939.167 1514.03C950.753 1502.29 968.489 1491.99 968.489 1491.99L986.841 1482.61C980.331 1475.64 941.372 1494.5 941.372 1494.5C941.372 1494.5 912.153 1513.06 907.642 1529.46C903.131 1545.82 900.414 1563.91 898.722 1571.5C897.03 1579.08 869.042 1621.43 852.689 1636.81C836.285 1652.13 799.326 1682.07 799.326 1682.07L785.793 1737.94L787.382 1778.39Z" fill="#F0CC69"/>
<path d="M786.715 1708.73C786.715 1708.73 788.714 1641.47 777.283 1616.4C765.8 1591.34 729.148 1587.75 729.148 1587.75C729.148 1587.75 756.112 1572.63 771.644 1585.44C787.125 1598.31 770.465 1537.2 799.941 1523.16C799.941 1523.16 783.281 1581.85 789.432 1595.95C795.635 1610.05 807.579 1687.61 807.579 1687.61" fill="#F0CC69"/>
<path d="M680.962 1493.17C680.962 1493.17 745.142 1420.58 768.158 1417.66C791.175 1414.79 856.175 1430.84 856.175 1430.84C856.175 1430.84 929.991 1452.06 951.778 1433.19C973.564 1414.33 924.814 1443.75 888.572 1424.12C852.279 1404.49 794.507 1399.16 794.507 1399.16C794.507 1399.16 766.108 1381.21 724.894 1416.84" fill="#F0CC69"/>
<path d="M736.199 1176.01C746.4 1170.38 771.928 1126.85 771.877 1104.2C771.877 1104.45 779.105 1041.71 805.146 1013.67C840.157 975.94 894.853 931.702 917.614 940.826C940.374 949.951 896.955 903.559 787.153 1012.9C744.042 1055.86 736.096 1130.7 736.096 1130.7L675.915 1211.95" fill="#F0CC69"/>
<path d="M521.282 1331.29C521.282 1331.29 542.043 1271.98 561.882 1247.01C581.72 1222.05 608.273 1199.13 625.959 1180.94C643.644 1162.69 672.299 1119.78 675.58 1111.94C678.861 1104.09 698.545 1048.12 698.545 1048.12C698.545 1048.12 709.156 970.25 720.024 927.806C730.891 885.361 781.281 855.681 781.281 855.681L819.574 842.968C819.574 842.968 908.359 813.851 915.074 820.31C921.79 826.769 969.873 868.65 969.873 868.65L928.351 811.083L974.897 749.364L976.793 734.344C976.793 734.344 943.781 786.272 914.921 798.165C886.06 810.058 839.361 813.595 839.361 813.595L786.049 823.95C786.049 823.95 752.78 835.996 724.022 861.166C695.264 886.335 684.397 928.78 684.397 928.78L680.347 986.552L654.101 1058.22L614.579 1134.7C614.579 1134.7 570.801 1188.98 557.473 1198.21C544.196 1207.44 521.282 1331.29 521.282 1331.29Z" fill="#F0CC69"/>
<path d="M731.301 1268.95C731.301 1268.95 802.35 1232.76 813.422 1217.95C824.444 1203.08 858.122 1151.51 858.122 1151.51L852.074 1176.83L833.978 1209.49L867.401 1205.85L903.54 1202.93L882.831 1213.23L835.926 1222.41C835.926 1222.41 785.997 1272.18 752.113 1277.56" fill="#F0CC69"/>
<path d="M604.428 1425.56C604.428 1425.56 588.691 1382.7 587.461 1322.67C587.461 1322.67 596.227 1341.54 607.248 1372.3C622.678 1415.36 624.369 1381.52 624.369 1381.52" fill="#F0CC69"/>
<path d="M799.428 830.255C799.428 830.255 830.339 793.449 835.414 780.224C840.489 766.998 852.023 760.744 852.023 760.744L849.101 776.328L830.339 819.234" fill="#F0CC69"/>
<path d="M539.48 1148.79C539.48 1148.79 552.09 1062.32 554.705 1051.19C557.37 1040.07 578.593 1011.67 578.593 1011.67C578.593 1011.67 625.907 978.555 629.188 982.041C632.417 985.527 594.433 1009.98 582.642 1025.25C570.852 1040.53 568.904 1064.01 568.904 1064.01L571.621 1083.18L539.48 1148.79Z" fill="#F0CC69"/>
<path d="M829.16 1218.77C829.16 1218.77 869.656 1243.12 889.033 1227.69C908.41 1212.21 929.735 1187.45 929.735 1187.45C929.735 1187.45 857.354 1175.96 829.16 1218.77Z" fill="#F0CC69"/>
<path d="M946.754 819.387C946.754 819.387 972.385 858.961 996.631 853.528C1020.88 848.094 1050.92 835.125 1050.92 835.125C1050.92 835.125 990.941 793.244 946.754 819.387Z" fill="#F0CC69"/>
<path d="M906.513 786.067C906.513 786.067 950.701 769.305 950.444 744.545C950.137 719.786 943.627 687.799 943.627 687.799C943.627 687.799 890.007 737.574 906.513 786.067Z" fill="#F0CC69"/>
<path d="M822.034 1073.18C822.034 1073.18 869.144 1069.19 875.705 1045.35C882.267 1021.46 884.881 988.961 884.881 988.961C884.881 988.961 819.625 1022.02 822.034 1073.18Z" fill="#F0CC69"/>
<path d="M975.87 1337.44C975.87 1337.44 983.56 1383.93 1007.96 1388.55C1032.36 1393.16 1065.12 1393.21 1065.12 1393.21C1065.12 1393.21 1026.88 1331.03 975.87 1337.44Z" fill="#F0CC69"/>
<path d="M943.422 1517.31C943.422 1517.31 982.073 1544.43 1002.53 1530.34C1022.98 1516.24 1045.95 1493.02 1045.95 1493.02C1045.95 1493.02 974.589 1476.56 943.422 1517.31Z" fill="#F0CC69"/>
<path d="M1022.98 1192.26C1022.98 1192.26 1067.73 1177.04 1068.3 1152.28C1068.86 1127.52 1063.48 1095.33 1063.48 1095.33C1063.48 1095.33 1008.22 1143.26 1022.98 1192.26Z" fill="#F0CC69"/>
<path d="M588.948 998.957C588.948 998.957 630.367 976.197 626.625 951.745C622.883 927.293 611.964 896.536 611.964 896.536C611.964 896.536 565.88 953.18 588.948 998.957Z" fill="#F0CC69"/>
<path d="M879.345 1051.96C879.345 1051.96 926.044 1059.45 938.193 1037.86C950.342 1016.28 960.799 985.373 960.799 985.373C960.799 985.373 889.392 1001.72 879.345 1051.96Z" fill="#F0CC69"/>
<path d="M714.077 1246.86C714.077 1246.86 760.777 1254.34 772.926 1232.76C785.075 1211.18 795.532 1180.27 795.532 1180.27C795.532 1180.27 724.125 1196.67 714.077 1246.86Z" fill="#F0CC69"/>
<path d="M891.033 1431.76C891.033 1431.76 918.048 1470.41 942.089 1464.16C966.131 1457.9 995.709 1443.86 995.709 1443.86C995.709 1443.86 934.298 1404.08 891.033 1431.76Z" fill="#F0CC69"/>
<path d="M781.794 1677.35C781.794 1677.35 766.518 1632.76 741.656 1632.19C716.794 1631.63 684.499 1636.96 684.499 1636.96C684.499 1636.96 732.532 1692.07 781.794 1677.35Z" fill="#F0CC69"/>
<path d="M857.917 1096.66C857.917 1096.66 882.677 1070.57 918.047 1074.16C953.418 1077.75 954.648 1093.79 979.202 1096.71C985.661 1097.48 912.203 1145.82 868.067 1120.04C846.896 1107.68 903.745 1094.97 926.915 1096.97C913.946 1086.56 857.917 1096.66 857.917 1096.66Z" fill="#F0CC69"/>
<path d="M840.232 760.231C840.232 760.231 826.34 727.116 844.025 696.359C861.711 665.602 876.935 671.036 889.597 649.916C892.929 644.38 907.385 730.807 865.76 760.539C845.82 774.79 857.302 717.889 868.528 697.641C853.714 705.176 840.232 760.231 840.232 760.231Z" fill="#F0CC69"/>
<path d="M979.818 726.963C979.818 726.963 990.737 695.539 1020.83 688.875C1050.92 682.211 1057.58 696.872 1078.55 692.617C1084.08 691.49 1041.38 757.566 996.324 745.981C974.692 740.444 1016.52 712.456 1036.05 707.74C1021.85 701.588 979.818 726.963 979.818 726.963Z" fill="#F0CC69"/>
<path d="M657.946 1351.59C657.946 1351.59 667.737 1319.8 697.571 1312.06C727.405 1304.32 734.582 1318.73 755.394 1313.81C760.879 1312.52 720.536 1379.98 675.067 1369.99C653.281 1365.17 694.085 1335.75 713.462 1330.41C699.058 1324.78 657.946 1351.59 657.946 1351.59Z" fill="#F0CC69"/>
<path d="M973.974 860.397C973.974 860.397 1009.96 862.498 1029.95 891.82C1049.94 921.142 1038.36 932.368 1051.89 952.975C1055.43 958.409 971.052 933.444 962.491 883.157C958.39 859.064 1004.68 894.281 1018.01 913.196C1017.75 896.639 973.974 860.397 973.974 860.397Z" fill="#F0CC69"/>
<path d="M852.816 934.111C852.816 934.111 835.643 905.558 849.843 878.338C864.042 851.067 879.574 855.424 889.827 836.714C892.544 831.793 915.868 906.788 877.985 933.752C859.839 946.67 865.17 896.792 874.141 878.851C860.3 885.72 852.816 934.111 852.816 934.111Z" fill="#F0CC69"/>
<path d="M873.734 947.747C873.734 947.747 909.36 978.76 931.147 966.867C952.933 954.975 978.256 934.265 978.256 934.265C978.256 934.265 908.95 910.479 873.734 947.747Z" fill="#F0CC69"/>
<path d="M985.969 1295.92C985.969 1295.92 1012.47 1271.62 1047.53 1277.62C1082.6 1283.66 1082.7 1299.76 1106.95 1304.37C1113.3 1305.6 1036.67 1348.72 994.427 1319.96C974.179 1306.17 1031.8 1297.45 1054.71 1301.04C1042.56 1289.71 985.969 1295.92 985.969 1295.92Z" fill="#F0CC69"/>
<path d="M971.923 1230.56C971.923 1230.56 999.143 1192.06 984.995 1171.71C970.847 1151.36 947.523 1128.5 947.523 1128.5C947.523 1128.5 931.017 1199.54 971.923 1230.56Z" fill="#F0CC69"/>
<path d="M577.926 1330.36C577.926 1330.36 556.037 1305.25 565.265 1275.92C574.492 1246.65 590.537 1248.24 597.406 1227.99C599.2 1222.66 635.288 1292.48 602.686 1325.6C587.051 1341.49 583.616 1291.4 589.306 1272.18C576.901 1281.46 577.926 1330.36 577.926 1330.36Z" fill="#F0CC69"/>
<path d="M966.387 804.983C966.387 804.983 973.102 768.638 999.963 758.642C1026.77 748.646 1038.97 754.234 1067.01 753.978C1067.01 753.978 1058.14 786.888 1033.44 793.552C1005.81 800.985 992.838 784.991 966.387 804.983Z" fill="#F0CC69"/>
<path d="M984.534 1240.66C984.534 1240.66 998.733 1206.52 1027.03 1202.31C1055.33 1198.11 1066.09 1206.05 1093.57 1211.64C1093.57 1211.64 1078.03 1241.99 1052.51 1243.37C1023.9 1244.96 1014.57 1226.61 984.534 1240.66Z" fill="#F0CC69"/>
<path d="M860.737 1556.38C860.737 1556.38 824.239 1563.09 814.192 1589.8C804.144 1616.51 809.783 1628.65 809.527 1656.54C809.527 1656.54 842.591 1647.67 849.255 1623.12C856.739 1595.64 840.643 1582.78 860.737 1556.38Z" fill="#F0CC69"/>
<path d="M787.894 1559.25C787.894 1559.25 766.877 1528.8 778.718 1502.86C790.56 1476.92 803.17 1472.26 822.803 1452.37C822.803 1452.37 839.874 1481.89 827.161 1503.99C812.961 1528.64 792.405 1526.44 787.894 1559.25Z" fill="#F0CC69"/>
<path d="M845.102 1180.53C845.102 1180.53 844.59 1139.88 823.419 1133.57C802.248 1127.26 773.028 1124.14 773.028 1124.14C773.028 1124.14 798.711 1181.24 845.102 1180.53Z" fill="#F0CC69"/>
<path d="M704.286 1075.44C704.286 1075.44 744.937 1071.39 749.397 1049.81C753.856 1028.28 754.42 999.008 754.42 999.008C754.42 999.008 699.57 1029.46 704.286 1075.44Z" fill="#F0CC69"/>
<path d="M749.089 975.838C749.089 975.838 725.612 951.232 732.634 925.96C739.657 900.688 750.422 894.691 765.339 873.827C765.339 873.827 785.126 898.176 776.719 920.014C767.39 944.517 748.474 945.44 749.089 975.838Z" fill="#F0CC69"/>
<path d="M754.369 977.632C754.369 977.632 793.533 994.292 808.86 978.093C824.187 961.895 840.078 937.135 840.078 937.135C840.078 937.135 774.105 936.008 754.369 977.632Z" fill="#F0CC69"/>
<path d="M757.24 1570.22C757.24 1570.22 734.941 1554.94 712.488 1565.24C690.036 1575.5 692.957 1588.36 677.476 1595.8C673.427 1597.74 732.839 1620.2 755.907 1590.67C766.979 1576.52 726.688 1578.52 711.924 1584.98C718.076 1574.06 757.24 1570.22 757.24 1570.22Z" fill="#F0CC69"/>
<path d="M863.659 1453.75C863.659 1453.75 906.206 1474.31 903.746 1498.91C901.285 1523.52 892.007 1554.84 892.007 1554.84C892.007 1554.84 843 1500.65 863.659 1453.75Z" fill="#F0CC69"/>
<path d="M823.162 766.639C823.162 766.639 798.198 746.852 770.978 757.104C743.707 767.357 746.065 782.684 727.252 790.168C722.331 792.167 790.304 823.437 819.933 790.578C834.132 774.841 786.561 773.918 768.671 780.275C776.77 767.972 823.162 766.639 823.162 766.639Z" fill="#F0CC69"/>
<path d="M559.934 1021.56C559.934 1021.56 534.61 1012.13 530.151 987.936C525.691 963.74 537.942 958.717 535.226 941.851C534.508 937.392 587.051 973.019 576.03 1008.8C570.75 1025.97 549.271 991.934 546.144 976.197C540.659 987.372 559.934 1021.56 559.934 1021.56Z" fill="#F0CC69"/>
<path d="M773.028 1380.5C773.028 1380.5 786.613 1346.1 814.858 1341.38C843.103 1336.67 854.022 1344.46 881.549 1349.54C881.549 1349.54 866.53 1380.14 841.053 1381.98C812.5 1384.09 802.863 1365.89 773.028 1380.5Z" fill="#F0CC69"/>
<path d="M870.887 1398.03C870.887 1398.03 879.806 1369.22 906.821 1362.2C933.836 1355.17 940.346 1368.25 959.262 1363.79C964.234 1362.61 927.685 1423.76 886.47 1414.69C866.735 1410.33 903.694 1383.68 921.277 1378.81C908.103 1373.73 870.887 1398.03 870.887 1398.03Z" fill="#F0CC69"/>
<path d="M733.609 1072.98L778.463 1077.18L771.235 1113.89L716.026 1114.86L733.609 1072.98Z" fill="#2F333F"/>
<path d="M642.158 1144.64C642.158 1144.64 671.941 1125.27 692.446 1114.55C713.001 1103.89 760.623 1106.91 760.623 1106.91L813.167 1103.12L873.04 1094.61L869.811 1088.92C869.811 1088.92 858.789 1089.74 831.518 1090.15C804.247 1090.56 755.6 1084.36 755.6 1084.36C755.6 1084.36 722.434 1077.95 707.773 1082.82C693.112 1087.69 656.972 1102.86 656.972 1102.86" fill="#F0CC69"/>
<path d="M907.95 1315.24C907.95 1315.24 926.712 1312.17 946.345 1306.83C965.978 1301.5 1009.5 1302.07 993.198 1303.81C963.774 1307.04 941.68 1322.88 941.68 1322.88L928.865 1331.54" fill="#F0CC69"/>
<path d="M637.8 1319.39L699.417 1286.07C699.417 1286.07 797.07 1302.99 815.217 1312.27C833.364 1321.55 917.484 1324.72 917.484 1324.72L970.899 1365.02C970.899 1365.02 949.625 1323.7 906.463 1311.91C863.352 1300.12 790.355 1282.54 790.355 1282.54C790.355 1282.54 692.855 1238.4 658.561 1272.03" fill="#F0CC69"/>
<path d="M662.406 1035.56L711.771 1016.44L726.995 967.329L676.093 982.348L662.406 1035.56Z" fill="#2F333F"/>
<path d="M1685.1 1174.32C1668.64 1149.72 1661.26 1116.81 1638.7 1119.99C1608.36 1119.99 1610.61 1152.54 1556.63 1149.77C1532.8 1181.76 1496.21 1176.47 1496.21 1209.53L1504.45 1229.98C1533.51 1237.32 1550.24 1255.06 1554.91 1246.96C1551.56 1242.95 1487.79 1200.41 1586.37 1170.72C1638.7 1150.01 1595.59 1174.32 1586.37 1207.44C1594.67 1229.74 1617.43 1248.14 1645.16 1260.7C1646.44 1259.42 1649.98 1258.65 1643.11 1251.32C1592.57 1219.64 1634.96 1200.98 1621.12 1198.36C1607.08 1192.98 1626.86 1166.53 1634.45 1164.17C1673.46 1151.97 1654.8 1187.34 1672.74 1194.88C1749.69 1190.83 1727.85 1251.63 1786.65 1234.09C1724.11 1234.04 1759.43 1164.69 1685.1 1174.32Z" fill="#F0CC69"/>
<path d="M1185.71 1235.89C1166.59 1249.88 1141.88 1230.35 1124.86 1264.18C1124.86 1281 1201.96 1268.8 1230.05 1235.89C1350.26 1147.31 1270.54 1240.14 1261.47 1244.6C1226.51 1281.05 1192.11 1321.14 1274.44 1272.34C1325.45 1234.71 1261.47 1309.29 1249.83 1330.57C1295.3 1325.03 1291.46 1325.75 1361.89 1340.72C1370.3 1312.68 1261.47 1314.63 1331.39 1272.28C1331.39 1235.84 1368.56 1230.3 1310.89 1235.84C1308.78 1212.97 1317.76 1190.11 1340.11 1184.83C1354.72 1181.4 1340.11 1224.2 1389.68 1224.2C1389.68 1153.77 1268.75 1142.64 1354.72 1129.52C1432.02 1145.62 1382.09 1161.87 1431.66 1161.87C1474 1235.48 1501.17 1189.29 1490.1 1235.84C1506.55 1256.75 1516.34 1286.69 1535.41 1286.69C1538.13 1274.28 1529.52 1280.95 1529.52 1254.7C1554.84 1280.95 1539.87 1280.95 1630.09 1280.95C1630.09 1254.7 1554.84 1286.69 1516.39 1194.98C1483.69 1184.83 1470 1170.22 1458.16 1133.78C1451.5 1113.27 1389.73 1120.45 1361.99 1081.44C1302.07 1081.44 1263.06 1192.21 1226.66 1194.98C1214 1196.67 1203.9 1222.56 1185.71 1235.89Z" fill="#F0CC69"/>
<path d="M588.845 1064.83C588.845 1064.83 573.979 1071.18 598.944 1041.81C623.908 1012.44 621.96 1011.98 637.082 1003.31C652.205 994.702 713.462 982.194 713.462 982.194C713.462 982.194 740.221 974.146 758.931 959.639C789.073 936.264 794.046 910.992 794.046 910.992L806.451 862.293L806.912 898.228C806.912 898.228 796.301 935.597 786.202 953.693C771.542 979.99 739.708 994.702 739.708 994.702C739.708 994.702 716.435 1004.49 697.674 1011.57C685.32 1016.23 660.868 1022.13 633.545 1049.35C609.145 1073.64 557.319 1159.92 557.319 1159.92L588.845 1064.83Z" fill="#F0CC69"/>
<path d="M745.449 1552.99C745.449 1552.99 722.638 1538.54 723.356 1513.93C724.073 1489.33 737.094 1486.97 737.914 1469.9C738.119 1465.39 782.102 1511.11 763.852 1543.82C755.087 1559.5 741.195 1521.77 741.4 1505.73C733.71 1515.57 745.449 1552.99 745.449 1552.99Z" fill="#F0CC69"/>
<path d="M590.998 1196.21C590.998 1196.21 603.045 1194.11 628.829 1160.23C654.614 1126.34 684.295 1077.54 686.499 1040.84C656.459 1130.55 590.998 1196.21 590.998 1196.21Z" fill="#2F333F"/>
<path d="M701.774 952.36C701.774 952.36 706.132 865.625 798.967 842.199C693.368 861.165 701.774 952.36 701.774 952.36Z" fill="#2F333F"/>
<path d="M685.268 1239.27L753.292 1125.57C753.344 1125.57 714.129 1223.69 685.268 1239.27Z" fill="#2F333F"/>
<path d="M565.162 1158.69C565.162 1158.69 610.58 1034.48 654.716 1016.8C698.853 999.059 601.353 1001.01 565.162 1158.69Z" fill="#2F333F"/>
<path d="M764.417 1308.58C768.518 1304.84 846.538 1272.34 846.538 1272.34L890.726 1305.09L817.626 1328.83L764.417 1308.58Z" fill="#2F333F"/>
<path d="M1005.65 1157.25C1005.65 1157.25 997.76 1211.74 978.383 1228.51C959.006 1245.27 870.324 1275.26 870.324 1275.26L803.889 1296.58C803.889 1296.58 774.977 1302.43 747.449 1339.08C719.922 1375.73 629.343 1470.67 597.56 1566.94C579.978 1620.15 621.243 1720.67 621.243 1720.67C621.243 1720.67 668.66 1535.36 698.905 1479.89C716.795 1447.09 774.311 1351.84 774.311 1351.84C774.311 1351.84 805.888 1318.32 821.933 1317.19C837.978 1316.06 915.434 1283.05 939.066 1271.1C962.646 1259.16 994.172 1231.94 994.172 1231.94C994.172 1231.94 1017.7 1169.86 1005.65 1157.25Z" fill="#F0CC69"/>
<path d="M839.208 1301.45C839.208 1301.45 935.477 1263.01 950.497 1254.7C965.516 1246.4 905.079 1288.64 839.208 1301.45Z" fill="#2F333F"/>
<path d="M1569.28 1854C1539.95 1854 1494.38 1859.54 1494.38 1859.54C1494.38 1859.54 1539.95 1865.07 1569.28 1865.07C1598.39 1865.07 1643.71 1859.54 1643.71 1859.54C1643.71 1859.54 1598.44 1854 1569.28 1854Z" fill="#F0CC69"/>
<path d="M1491.92 1795.05C1414 1795.05 1292.98 1800.59 1292.98 1800.59C1292.98 1800.59 1414.06 1806.12 1491.92 1806.12C1569.33 1806.12 1689.64 1800.59 1689.64 1800.59C1689.64 1800.59 1569.38 1795.05 1491.92 1795.05Z" fill="#F0CC69"/>
<path d="M1331.37 1750.81C1256.73 1750.81 1140.73 1756.35 1140.73 1756.35C1140.73 1756.35 1256.68 1761.88 1331.37 1761.88C1405.55 1761.88 1520.78 1756.35 1520.78 1756.35C1520.78 1756.35 1405.55 1750.86 1331.37 1750.81Z" fill="#F0CC69"/>
<path d="M1639.25 1721.34C1613.1 1721.34 1572.51 1726.87 1572.51 1726.87C1572.51 1726.87 1613.1 1732.41 1639.25 1732.41C1665.24 1732.41 1705.58 1726.87 1705.58 1726.87C1705.58 1726.87 1665.19 1721.39 1639.25 1721.34Z" fill="#F0CC69"/>
<path d="M1246.79 1699.24C1168.87 1699.24 1047.84 1704.78 1047.84 1704.78C1047.84 1704.78 1168.92 1710.31 1246.79 1710.31C1324.19 1710.31 1444.51 1704.78 1444.51 1704.78C1444.51 1704.78 1324.19 1699.24 1246.79 1699.24Z" fill="#F0CC69"/>
<path d="M1517.86 1647.67C1454.14 1647.67 1355.16 1653.21 1355.16 1653.21C1355.16 1653.21 1454.14 1658.75 1517.86 1658.75C1581.17 1658.75 1679.54 1653.21 1679.54 1653.21C1679.54 1653.21 1581.17 1647.67 1517.86 1647.67Z" fill="#F0CC69"/>
<path d="M1207.22 1647.67C1172.97 1647.67 1119.81 1653.21 1119.81 1653.21C1119.81 1653.21 1173.02 1658.75 1207.22 1658.75C1241.2 1658.75 1294.05 1653.21 1294.05 1653.21C1294.05 1653.21 1241.2 1647.67 1207.22 1647.67Z" fill="#F0CC69"/>
<path d="M1582.3 1596.1C1533.7 1596.1 1458.24 1601.64 1458.24 1601.64C1458.24 1601.64 1533.75 1607.18 1582.3 1607.18C1630.59 1607.18 1705.58 1601.64 1705.58 1601.64C1705.58 1601.64 1630.53 1596.1 1582.3 1596.1Z" fill="#F0CC69"/>
<path d="M1315.53 1596.1C1279.08 1596.1 1222.49 1601.64 1222.49 1601.64C1222.49 1601.64 1279.08 1607.18 1315.53 1607.18C1351.72 1607.18 1407.96 1601.64 1407.96 1601.64C1407.96 1601.64 1351.72 1596.1 1315.53 1596.1Z" fill="#F0CC69"/>
<path d="M1522.94 1544.53C1461.22 1544.53 1365.31 1550.07 1365.31 1550.07C1365.31 1550.07 1461.22 1555.61 1522.94 1555.61C1584.24 1555.61 1679.54 1550.07 1679.54 1550.07C1679.54 1550.07 1584.24 1544.53 1522.94 1544.53Z" fill="#F0CC69"/>
<path d="M1641.61 1502.5C1611.41 1502.5 1564.51 1505.99 1564.51 1505.99C1564.51 1505.99 1611.41 1509.47 1641.61 1509.47C1671.59 1509.47 1718.19 1505.99 1718.19 1505.99C1718.19 1505.99 1671.59 1502.5 1641.61 1502.5Z" fill="#F0CC69"/>
<path d="M852.792 1785.21C852.792 1864.1 886.522 1990.72 1052.92 2061.66C1132.53 2092.01 1218.95 2108.62 1309.23 2108.62C1538.98 2108.62 1743.62 2000.97 1875.41 1833.39C1875.41 1833.39 1872.8 1805.1 1865.57 1796.13C1852.6 1780.13 1830.15 1781.41 1835.63 1786.08C1855.21 1802.74 1847.37 1820.01 1841.94 1828.68C1835.89 1838.37 1829.94 1844.83 1819.13 1853.13C1644.63 1987.44 986.124 1926.79 986.124 1706.73C986.124 1577.34 1180.15 1481.38 1374.43 1481.38C1471.37 1481.38 1638.38 1467.08 1694.2 1446.78C1798.26 1408.85 1751.05 1351.33 1690.51 1332.82C1662.11 1324.11 1632.23 1322.93 1595.62 1322.93C1534.06 1322.93 1514.99 1319.14 1504.79 1317.14C1503.2 1316.83 1501.82 1316.57 1500.53 1316.37C1463.06 1310.27 1500.53 1329.03 1560.1 1329.03H1562.46C1801.39 1329.03 1781.81 1471.28 1374.48 1471.28C967.157 1471.23 852.792 1672.48 852.792 1785.21Z" fill="#F0CC69"/>
<path d="M1277.65 2024.7C881.293 1998.71 884.267 1758.4 884.267 1758.4C884.267 1758.4 838.644 2036.65 1277.03 2062.33C1540.42 2077.76 1723.57 1952.12 1724.96 1948.78C1730.9 1945.3 1560.61 2043.26 1277.65 2024.7Z" fill="#2F333F"/>
<path d="M960.544 1714.83C960.544 1520.24 1298.61 1480.3 1298.61 1480.3C1298.61 1480.3 924.763 1514.19 924.763 1722C924.763 1861.64 1129.86 1904.85 1129.86 1904.85C1129.86 1904.85 960.544 1856.46 960.544 1714.83Z" fill="#2F333F"/>
<path d="M1713.58 1351.02C1713.58 1351.02 1746.18 1367.94 1746.18 1388.55C1746.18 1421.25 1688.61 1438.06 1688.61 1438.06C1688.61 1438.06 1735.57 1419.76 1735.57 1387.06C1735.62 1365.48 1713.58 1351.02 1713.58 1351.02Z" fill="#2F333F"/>
<path d="M1158.16 795.243C1158.72 829.435 1159.23 829.947 1193.68 830.511C1159.23 831.075 1158.72 831.588 1158.16 865.779C1157.54 831.588 1157.08 831.075 1122.63 830.511C1157.08 829.947 1157.54 829.486 1158.16 795.243Z" fill="#F0CC69"/>
<path d="M1132.27 952.77C1132.83 986.962 1133.35 987.474 1167.8 988.038C1133.35 988.602 1132.83 989.115 1132.27 1023.31C1131.66 989.115 1131.19 988.602 1096.75 988.038C1131.19 987.423 1131.66 986.962 1132.27 952.77Z" fill="#F0CC69"/>
<path d="M1288.52 890.692C1289.08 924.884 1289.59 925.396 1324.04 925.96C1289.59 926.524 1289.08 927.037 1288.52 961.228C1287.9 927.037 1287.44 926.524 1252.99 925.96C1287.44 925.396 1287.9 924.935 1288.52 890.692Z" fill="#F0CC69"/>
<path d="M810.851 1291.14L821.006 1283.87C813.305 1284.98 789.091 1283.87 771.127 1296.74C766.367 1300.15 750.394 1295.71 750.394 1295.71L772.432 1308.83L810.851 1291.14Z" fill="#2F333F"/>
<path d="M895.051 1308.81L878.462 1302.32L832.581 1320.65L839.172 1323.18C839.172 1323.18 859.201 1318.03 877.612 1309.91C884.128 1307.04 895.051 1308.81 895.051 1308.81Z" fill="#2F333F"/>
<path d="M736.09 1130.73C748.436 1107.15 747.362 1107.12 747.362 1107.12L724.631 1116.84L736.09 1130.73Z" fill="#2F333F"/>
<path d="M731.443 1121.32C761.768 1112.88 777.797 1119.8 777.797 1119.8L782.533 1108.11H736.238L731.443 1121.32Z" fill="#2F333F"/>
<path d="M746.535 1066.87C757.369 1076.95 779.814 1074.12 779.814 1074.12V1082.05L745.024 1080.5L746.535 1066.87Z" fill="#2F333F"/>
<path d="M766.032 1040.34C750.853 1066.98 751.436 1078.98 751.436 1078.98L740.651 1076.58L758.147 1041.71L766.032 1040.34Z" fill="#2F333F"/>
<path d="M702.994 1012.84L664.068 1027.41L654.082 1058.23C660.184 1039.4 702.994 1026.08 702.994 1026.08V1012.84Z" fill="#2F333F"/>
<path d="M670.148 987.361C670.148 987.361 675.366 940.993 692.77 905.91L709.205 976.696L670.148 987.361Z" fill="#F0CC69"/>
<path d="M710.244 980.493L667.082 991.318L666.273 978.92C678.061 973.253 689.936 971.488 697.814 969.771C705.629 968.068 714.526 960.497 714.526 960.497L710.244 980.493Z" fill="#2F333F"/>
<path d="M2181.52 2372.14L1909.65 2065.12" stroke="#F0CC69" stroke-width="17"/>
<path d="M2137.42 2409.5C2179.78 2375.96 2223.82 2333.01 2223.82 2333.01" stroke="#F0CC69" stroke-width="17"/>
<path d="M1865.3 2102.2C1908.12 2069.63 1951.7 2025.71 1951.7 2025.71" stroke="#F0CC69" stroke-width="17"/>
<path d="M2471.17 2081.62L2156.86 1818.2" stroke="#F0CC69" stroke-width="17"/>
<path d="M2507.31 2036.52C2474.94 2079.77 2433.2 2124.96 2433.2 2124.96" stroke="#F0CC69" stroke-width="17"/>
<path d="M2118.79 1862.2C2156.11 1823.46 2191.88 1774.22 2191.88 1774.22" stroke="#F0CC69" stroke-width="17"/>
<path d="M2047.85 2227.62C2213.47 2095.45 2314.98 1951.57 2314.98 1951.57" stroke="#F0CC69" stroke-width="17"/>
<path d="M1749.22 2626.65C1798.94 2609.64 1856.75 2583.14 1856.75 2583.14" stroke="#F0CC69" stroke-width="17"/>
<path d="M1648.39 2225.97L1801.7 2606.82" stroke="#F0CC69" stroke-width="17"/>
<path d="M1484.07 2351.99L1470.65 2277.63C1669.74 2243.66 1813.43 2139.21 1813.43 2139.21L1855.43 2202.11" stroke="#F0CC69" stroke-width="17"/>
<path d="M1098.19 2267.1C1098.19 2267.1 1120 2272.6 1156.13 2278.91M1156.13 2278.91L1105.09 2577.9M1156.13 2278.91C1227.66 2292.87 1319.22 2291.92 1319.22 2291.92C1439.29 2299.83 1426.62 2468.86 1279.37 2509.35M1105.09 2577.9L1087.03 2683.06M1105.09 2577.9C1105.09 2577.9 1182.77 2529.46 1279.37 2509.35M1087.03 2683.06C1087.03 2683.06 1052.61 2677.18 1030.22 2672.05M1087.03 2683.06C1087.03 2683.06 1132.77 2690.7 1160.73 2693.45M1279.37 2509.35C1324.77 2551.6 1342.11 2639.42 1376.43 2700.15C1376.43 2700.15 1403.21 2698.73 1433.39 2696.06" stroke="#F0CC69" stroke-width="17"/>
<path d="M947.287 2534.47C926.206 2606 786.224 2590.12 712.622 2560.21C611.272 2519.02 633.105 2372.92 793.907 2374.73C876.937 2375.67 976.833 2389.95 1005.19 2350.75M947.287 2534.47L1005.19 2350.75M947.287 2534.47C918.022 2633.77 914.711 2641.16 944.186 2650.37M1005.19 2350.75L1032.51 2264.19C1042.85 2238.75 869.199 2156.58 808.232 2171.88L785.895 2206.93" stroke="#F0CC69" stroke-width="17"/>
<path d="M210.703 2154.79L518.235 1887.16M546.149 2380.07L502.059 2428.78C502.059 2428.78 312.707 2314.7 168.82 2102.28M356.722 2027.72C434.965 2134.88 546.149 2221.16 546.149 2221.16M723.921 2160.68L763.111 2108.68C763.111 2108.68 571.347 1984.58 485.826 1833.27" stroke="#F0CC69" stroke-width="17"/>
<path d="M2177.29 931.187C2177.29 931.187 2191.47 958.254 2199.33 976.011M2199.33 976.011L2330.92 915.492M2199.33 976.011C2210.67 999.838 2223.95 1034.45 2223.95 1034.45M2450.62 788.287C2450.62 788.287 2466.79 819.073 2479.59 847.191M2479.59 847.191C2525.82 943.883 2556.36 1063.08 2556.36 1063.08L2508.99 1075.3M2479.59 847.191L2330.92 915.492M2330.92 915.492C2330.92 915.492 2367.79 996.15 2385.9 1060.74" stroke="#F0CC69" stroke-width="17"/>
<circle cx="2205.24" cy="690.543" r="154.267" transform="rotate(-45 2205.24 690.543)" stroke="#F0CC69" stroke-width="17"/>
<path d="M1588.43 438.804L1575.18 484.761C1630.81 554.489 1772.44 625.788 1815.01 526.303C1857.58 426.818 1593.28 377.644 1633.68 283.232C1681.49 171.509 1883.76 285.607 1906.43 371.409L1880.92 415.107" stroke="#F0CC69" stroke-width="17"/>
<path d="M1088.84 504.909C1106.72 500.249 1124.15 496.543 1138.84 493.746M1138.84 493.746C1162.36 489.269 1178.84 487.121 1178.84 487.121M1138.84 493.746V181.47M1415.89 483.846C1415.89 483.846 1433.55 485.902 1455.89 489.423M1455.89 489.423C1471.74 491.922 1489.96 495.159 1505.89 498.922M1455.89 489.423V178.348M1088.84 189.52C1108.25 185.855 1127.07 183.081 1138.84 181.47M1138.84 181.47C1146.42 180.433 1151.07 179.878 1151.07 179.878C1151.07 179.878 1262.17 327.907 1297.48 402.932C1332.79 327.907 1444.15 177.031 1444.15 177.031C1444.15 177.031 1448.79 177.52 1455.89 178.348M1505.89 185.299C1489.72 182.461 1468.76 179.848 1455.89 178.348" stroke="#F0CC69" stroke-width="17"/>
<path d="M777.205 650.449C777.205 650.449 799.602 633.851 817.249 622.947M817.249 622.947C927.973 550.905 1028.39 522.49 1028.39 522.49L1006.37 455.059M817.249 622.947L741.397 505.638M596.16 400.997C596.16 400.997 623.859 380.978 649.83 364.141M649.83 364.141C788.168 272.833 932.653 229.205 932.653 229.205L948.328 277.256M649.83 364.141L741.397 505.638M741.397 505.638C832.688 446.321 917.723 414.031 917.723 414.031" stroke="#F0CC69" stroke-width="17"/>
<circle cx="534.826" cy="655.218" r="154.267" transform="rotate(-45 534.826 655.218)" stroke="#F0CC69" stroke-width="17"/>
<path d="M141.3 1049.6C150.729 1015.79 161.716 985.039 161.716 985.039M161.716 985.039C161.716 985.039 196.349 868.952 246.693 815.359C305.805 752.432 431.046 821.045 402.791 896.516C387.682 969.264 336.911 1046.04 336.911 1046.04M161.716 985.039L336.911 1046.04M336.911 1046.04L452.88 1086.44M452.88 1086.44C445.298 1107.74 437.594 1134.47 437.594 1134.47M452.88 1086.44C461.908 1059.28 476.264 1026.24 476.264 1026.24" stroke="#F0CC69" stroke-width="17"/>
</g>
<defs>
<clipPath id="clip0_219_152">
<rect width="2723" height="2869" fill="white"/>
</clipPath>
</defs>
</svg>
