<svg width="2675" height="2819" viewBox="0 0 2675 2819" fill="none" xmlns="http://www.w3.org/2000/svg">
<g clip-path="url(#clip0_219_152)">
<path d="M1283.94 2128.16C1707.53 2128.16 2050.92 1784.78 2050.92 1361.19C2050.92 937.598 1707.53 594.211 1283.94 594.211C860.352 594.211 516.965 937.598 516.965 1361.19C516.965 1784.78 860.352 2128.16 1283.94 2128.16Z" fill="#F0CC69"/>
<path d="M1283.94 2110.22C1697.62 2110.22 2032.98 1774.87 2032.98 1361.19C2032.98 947.507 1697.62 612.152 1283.94 612.152C870.261 612.152 534.906 947.507 534.906 1361.19C534.906 1774.87 870.261 2110.22 1283.94 2110.22Z" fill="#2F333F"/>
<path d="M1577.36 640.244C1577.36 640.244 1646.41 686.277 1652.15 720.827C1657.89 755.377 1655.02 749.585 1655.02 749.585C1655.02 749.585 2220.7 1117.85 1878.32 1802.65C1858.17 1848.69 1944.5 1808.39 1944.5 1808.39C1944.5 1808.39 2460.65 902.088 1577.36 640.244Z" fill="#2F333F"/>
<path d="M1089.51 657.724C1083.05 659.364 1099.45 638.501 1069.51 646.498C1053.32 650.855 1044.09 646.908 1031.89 644.498C1024.66 643.063 1018.05 643.319 1015.13 643.319C991.135 643.319 990.007 640.654 960.173 645.37C905.528 653.982 402.344 948.121 526.038 1480.37C569.2 1529.27 569.2 1448.74 569.2 1448.74C569.2 1448.74 1670.51 511.936 1089.51 657.724Z" fill="#2F333F"/>
<path d="M1574.49 863.334C1566.34 811.868 1518 776.702 1466.48 784.904C1415.02 793.055 1379.9 841.394 1388.05 892.912C1396.2 944.379 1444.54 979.545 1496.06 971.343C1547.53 963.141 1582.69 914.801 1574.49 863.334Z" fill="#F0CC69"/>
<path d="M1550.25 843.906C1542.92 797.566 1499.39 765.937 1453.05 773.319C1406.71 780.649 1375.08 824.171 1382.47 870.511C1389.8 916.852 1433.32 948.48 1479.66 941.098C1525.95 933.717 1557.58 890.196 1550.25 843.906Z" fill="#2F333F"/>
<path d="M1823.68 1241.59C1823.68 1241.59 1822.34 1293.47 1872.58 1350.94C1904.51 1387.43 1981.36 1414.4 1992.84 1481.86C1994.89 1493.96 2020.06 1386.31 1987.66 1340.89C1951.73 1290.5 1868.58 1292.14 1823.68 1241.59Z" fill="#F0CC69"/>
<path d="M2012.42 1334.79C2012.42 1334.79 2015.75 1232.37 1963.21 1195.51C1909.13 1157.58 1810.45 1172.49 1786.25 1145.17C1779.49 1137.53 1820.91 1224.01 1862.48 1244.41C1914.05 1269.79 1982.54 1266.92 2012.42 1334.79Z" fill="#F0CC69"/>
<path d="M2012.16 1232.93C2012.16 1232.93 2008.52 1125.08 1958.95 1097.7C1909.33 1070.33 1845.31 1086.53 1792.1 1059.21C1761.65 1043.57 1755.6 1029.94 1755.6 1029.94C1755.6 1029.94 1770.88 1105.44 1822.29 1131.13C1845.31 1142.61 1920.66 1139.69 1958.95 1156.65C1991.71 1171.21 2002.07 1195.56 2012.16 1232.93Z" fill="#F0CC69"/>
<path d="M1672.35 1968.38C1672.35 1968.38 1918.25 1814.49 1861.1 1737.91C1758.11 1605.86 1748.32 1480.37 1748.32 1480.37C1748.32 1480.37 1702.9 1644.51 1739.71 1697.87C1776.46 1751.29 1822.96 1755.59 1825.16 1781.02C1829.67 1833.15 1750.47 1904.2 1672.35 1968.38Z" fill="#F0CC69"/>
<path d="M1746.01 930.846C1746.01 930.846 1754.52 1021.78 1799.22 1033.01C1840.23 1043.31 1932.71 1037.88 1965.52 1070.69C1969.57 1074.74 1972.44 1084.78 1973.87 1084.78C1982.28 1084.78 1940.19 981.185 1862.53 966.832C1773.9 950.377 1764.72 958.169 1746.01 930.846Z" fill="#F0CC69"/>
<path d="M1705.72 835.91C1705.72 835.91 1745.3 906.856 1776.82 921.875C1824.65 944.687 1892.06 919.261 1933.02 982.62C1948.86 1007.07 1922.97 929.411 1866.84 881.943C1817.93 840.575 1757.6 867.231 1705.72 835.91Z" fill="#F0CC69"/>
<path d="M1649.59 683.406C1649.59 683.406 1683.06 717.239 1695.62 742.408C1708.54 768.295 1711.21 794.541 1724.38 804.281C1777.08 843.189 1849.56 811.458 1878.32 874.766C1883.29 885.684 1876.89 812.893 1823.68 753.942C1782.46 708.165 1695.62 717.546 1649.59 683.406Z" fill="#F0CC69"/>
<path d="M1830.49 1878.93C1865.71 1840.79 1888.32 1797.58 1909.13 1784.56C1948.91 1759.7 2022.16 1766.51 2073.99 1688.6C2073.99 1688.6 2041.02 1800.65 1951.68 1828.49C1935.48 1833.51 1895.24 1829.26 1877.24 1851.35C1871.09 1858.89 1857.35 1868.68 1850.18 1876.11C1839.46 1887.23 1823.16 1886.88 1830.49 1878.93Z" fill="#F0CC69"/>
<path d="M1981.61 1628.82C1981.61 1628.82 2002.01 1544.4 2038.31 1521.59C2103.87 1480.42 2123.2 1445 2131.5 1412.76C2137.14 1390.77 2128.22 1495.03 2117.35 1523.17C2091.88 1589.56 1981.61 1628.82 1981.61 1628.82Z" fill="#F0CC69"/>
<path d="M2040.92 1355.24C2040.92 1355.24 2127.25 1309.21 2108.54 1168.24C2098.49 1215.71 2078.34 1237.29 2078.34 1237.29C2078.34 1237.29 2027.95 1276.09 2040.92 1355.24Z" fill="#F0CC69"/>
<path d="M1988.79 1051.67C1988.79 1051.67 2055.33 979.75 1962.44 841.087C1969.1 879.226 1958.95 915.365 1958.95 915.365C1958.95 915.365 1936.4 950.736 1988.79 1051.67Z" fill="#F0CC69"/>
<path d="M1865.4 781.213C1865.4 781.213 1934.81 776.907 1945.99 844.522C1955.78 903.78 1932.4 916.698 1936.71 934.229C1941.06 951.761 1892.06 885.018 1891.29 860.361C1890.52 835.705 1886.98 795.618 1865.4 781.213Z" fill="#F0CC69"/>
<path d="M2017.91 1140.15C2017.91 1140.15 1988.22 1075.71 2009.29 1051.67C2029.44 1028.65 2036.62 974.009 2028 946.635C2018.83 917.775 2102.79 1063.2 2017.91 1140.15Z" fill="#F0CC69"/>
<path d="M2035.18 1263.18C2035.18 1263.18 2021.19 1179.41 2028.67 1163.42C2036.15 1147.43 2081.21 1112.11 2068.24 1032.29C2064.6 1009.89 2131.91 1116.16 2087.67 1181.21C2062.09 1218.73 2041.49 1229.45 2035.18 1263.18Z" fill="#F0CC69"/>
<path d="M1920.05 1756.77C1920.05 1756.77 1938.3 1689.67 1967.52 1670.3C1984.48 1659.07 2075.68 1634.31 2117.92 1554.09C2135.6 1520.46 2090.39 1680.24 2019.34 1714.74C1972.54 1737.45 1948.5 1728.84 1920.05 1756.77Z" fill="#F0CC69"/>
<path d="M2047.28 1384.82C2069.48 1360.21 2111 1347.09 2123.66 1263.18C2139.6 1349.35 2114.33 1394.1 2114.33 1394.1C2114.33 1394.1 2067.22 1481.86 2033.49 1484.98C2020.78 1486.16 2030.72 1403.17 2047.28 1384.82Z" fill="#F0CC69"/>
<path d="M1883.55 1751.55C1883.55 1751.55 1930.15 1681.78 1915.79 1598.32C1904.98 1535.63 1779.13 1486.11 1797.84 1389.74C1811.47 1319.36 1728.07 1523.53 1851.05 1661.63C1886.42 1697.62 1883.55 1751.55 1883.55 1751.55Z" fill="#F0CC69"/>
<path d="M1937.37 1651.58C1937.37 1651.58 1997.91 1539.01 1979.77 1497.65C1957.31 1446.44 1825.42 1383.69 1830.03 1330.17C1833.36 1291.37 1809.32 1403.27 1842.39 1454.48C1873.76 1503.03 1958.9 1514.92 1937.37 1651.58Z" fill="#F0CC69"/>
<path d="M551.72 1706.95C401.318 1458.48 440.585 1198.12 571.917 1018.14C578.53 1009.12 601.085 982.774 606.057 983.799C614.926 985.645 622.615 997.332 619.744 1002.36C614.464 1011.53 609.236 1020.91 604.161 1030.5C556.897 1119.9 490.36 1238.16 515.991 1356.68C526.089 1403.38 532.087 1447.56 541.16 1450.18C541.16 1450.18 558.999 1415.68 565.253 1394.71C591.038 1308.29 596.42 1246.98 658.293 1172.54C773.529 1033.93 771.838 1051.11 686.743 1201.1C652.398 1261.69 624.358 1334.33 613.439 1418.86C611.184 1436.29 597.497 1473.19 596.779 1491.6C595.549 1523.33 631.124 1540.24 631.124 1572.39C631.124 1582.43 632.56 1654.4 668.545 1733.5C689.306 1779.23 711.503 1826.44 740.722 1869.55C744.31 1874.83 767.275 1921.68 755.536 1913.48C722.37 1890.57 610.568 1798.5 551.72 1706.95Z" fill="#F0CC69"/>
<path d="M638.404 1756.11C605.852 1700.95 587.501 1558.34 682.489 1392.51C700.84 1360.47 693.1 1347.86 671.211 1375.08C556.334 1517.84 563.049 1658.56 563.049 1658.56" fill="#F0CC69"/>
<path d="M781.321 1912.15C765.481 1897.74 747.488 1870.37 743.9 1854.58C742.055 1846.43 740.671 1831.1 741.286 1822.44C743.9 1785.53 758.715 1769.03 772.658 1732.32C793.163 1678.55 803.312 1690.75 808.233 1670.65C825.867 1598.53 706.479 1712.23 706.479 1712.23C706.479 1712.23 675.312 1742.83 656.858 1787.48C656.858 1787.48 671.621 1820.9 700.738 1848.89C765.276 1910.92 865.031 1988.22 781.321 1912.15Z" fill="#F0CC69"/>
<path d="M763.38 1753.39C763.38 1753.39 817.256 1662.2 884.614 1583.77C906.554 1558.24 898.198 1541.68 900.402 1529.99C902.606 1518.3 903.58 1500.82 915.165 1489.03C926.751 1477.29 944.487 1466.99 944.487 1466.99L962.839 1457.61C956.329 1450.64 917.37 1469.5 917.37 1469.5C917.37 1469.5 888.151 1488.06 883.64 1504.46C879.129 1520.82 876.412 1538.91 874.72 1546.5C873.028 1554.08 845.04 1596.43 828.687 1611.81C812.283 1627.13 775.324 1657.07 775.324 1657.07L761.791 1712.94L763.38 1753.39Z" fill="#F0CC69"/>
<path d="M762.713 1683.73C762.713 1683.73 764.712 1616.47 753.281 1591.4C741.798 1566.34 705.146 1562.75 705.146 1562.75C705.146 1562.75 732.11 1547.63 747.642 1560.44C763.123 1573.31 746.463 1512.2 775.939 1498.16C775.939 1498.16 759.279 1556.85 765.43 1570.95C771.633 1585.05 783.577 1662.61 783.577 1662.61" fill="#F0CC69"/>
<path d="M656.96 1468.17C656.96 1468.17 721.14 1395.58 744.156 1392.66C767.173 1389.79 832.173 1405.84 832.173 1405.84C832.173 1405.84 905.99 1427.06 927.776 1408.19C949.562 1389.33 900.812 1418.75 864.57 1399.12C828.277 1379.49 770.505 1374.16 770.505 1374.16C770.505 1374.16 742.106 1356.21 700.892 1391.84" fill="#F0CC69"/>
<path d="M707.197 1151.01C717.398 1145.38 742.926 1101.85 742.875 1079.2C742.875 1079.45 750.103 1016.71 776.144 988.669C811.155 950.94 865.851 906.702 888.612 915.826C911.372 924.951 867.953 878.559 758.151 987.9C715.04 1030.86 707.094 1105.7 707.094 1105.7L646.913 1186.95" fill="#F0CC69"/>
<path d="M497.28 1306.29C497.28 1306.29 518.041 1246.98 537.88 1222.01C557.718 1197.05 584.271 1174.13 601.957 1155.94C619.642 1137.69 648.297 1094.78 651.578 1086.94C654.859 1079.09 674.543 1023.12 674.543 1023.12C674.543 1023.12 685.154 945.25 696.022 902.806C706.889 860.361 757.28 830.681 757.28 830.681L795.572 817.968C795.572 817.968 884.357 788.851 891.072 795.31C897.788 801.769 945.871 843.65 945.871 843.65L904.349 786.083L950.895 724.364L952.791 709.344C952.791 709.344 919.779 761.272 890.919 773.165C862.058 785.058 815.359 788.595 815.359 788.595L762.047 798.95C762.047 798.95 728.778 810.996 700.02 836.166C671.262 861.335 660.395 903.78 660.395 903.78L656.345 961.552L630.099 1033.22L590.577 1109.7C590.577 1109.7 546.799 1163.98 533.471 1173.21C520.194 1182.44 497.28 1306.29 497.28 1306.29Z" fill="#F0CC69"/>
<path d="M707.299 1243.95C707.299 1243.95 778.348 1207.76 789.42 1192.95C800.442 1178.08 834.121 1126.51 834.121 1126.51L828.072 1151.83L809.976 1184.49L843.399 1180.85L879.538 1177.93L858.829 1188.23L811.924 1197.41C811.924 1197.41 761.995 1247.18 728.111 1252.56" fill="#F0CC69"/>
<path d="M580.427 1400.56C580.427 1400.56 564.689 1357.7 563.459 1297.67C563.459 1297.67 572.225 1316.54 583.246 1347.3C598.676 1390.36 600.367 1356.52 600.367 1356.52" fill="#F0CC69"/>
<path d="M775.426 805.255C775.426 805.255 806.337 768.449 811.412 755.224C816.487 741.998 828.021 735.744 828.021 735.744L825.099 751.328L806.337 794.234" fill="#F0CC69"/>
<path d="M515.478 1123.79C515.478 1123.79 528.089 1037.32 530.703 1026.19C533.368 1015.07 554.591 986.67 554.591 986.67C554.591 986.67 601.905 953.555 605.186 957.041C608.416 960.527 570.431 984.978 558.641 1000.25C546.85 1015.53 544.902 1039.01 544.902 1039.01L547.619 1058.18L515.478 1123.79Z" fill="#F0CC69"/>
<path d="M805.158 1193.77C805.158 1193.77 845.654 1218.12 865.031 1202.69C884.408 1187.21 905.733 1162.45 905.733 1162.45C905.733 1162.45 833.352 1150.96 805.158 1193.77Z" fill="#F0CC69"/>
<path d="M922.752 794.387C922.752 794.387 948.383 833.961 972.629 828.528C996.876 823.094 1026.92 810.125 1026.92 810.125C1026.92 810.125 966.939 768.244 922.752 794.387Z" fill="#F0CC69"/>
<path d="M882.511 761.067C882.511 761.067 926.699 744.305 926.442 719.545C926.135 694.786 919.625 662.799 919.625 662.799C919.625 662.799 866.005 712.574 882.511 761.067Z" fill="#F0CC69"/>
<path d="M798.033 1048.18C798.033 1048.18 845.142 1044.19 851.703 1020.35C858.265 996.461 860.879 963.961 860.879 963.961C860.879 963.961 795.623 997.025 798.033 1048.18Z" fill="#F0CC69"/>
<path d="M951.868 1312.44C951.868 1312.44 959.558 1358.93 983.958 1363.55C1008.36 1368.16 1041.11 1368.21 1041.11 1368.21C1041.11 1368.21 1002.87 1306.03 951.868 1312.44Z" fill="#F0CC69"/>
<path d="M919.42 1492.31C919.42 1492.31 958.071 1519.43 978.525 1505.34C998.978 1491.24 1021.94 1468.02 1021.94 1468.02C1021.94 1468.02 950.587 1451.56 919.42 1492.31Z" fill="#F0CC69"/>
<path d="M998.978 1167.26C998.978 1167.26 1043.73 1152.04 1044.29 1127.28C1044.86 1102.52 1039.47 1070.33 1039.47 1070.33C1039.47 1070.33 984.215 1118.26 998.978 1167.26Z" fill="#F0CC69"/>
<path d="M564.946 973.957C564.946 973.957 606.365 951.197 602.623 926.745C598.881 902.293 587.962 871.536 587.962 871.536C587.962 871.536 541.878 928.18 564.946 973.957Z" fill="#F0CC69"/>
<path d="M855.343 1026.96C855.343 1026.96 902.042 1034.45 914.191 1012.86C926.34 991.283 936.798 960.373 936.798 960.373C936.798 960.373 865.39 976.725 855.343 1026.96Z" fill="#F0CC69"/>
<path d="M690.075 1221.86C690.075 1221.86 736.775 1229.34 748.924 1207.76C761.073 1186.18 771.53 1155.27 771.53 1155.27C771.53 1155.27 700.123 1171.67 690.075 1221.86Z" fill="#F0CC69"/>
<path d="M867.031 1406.76C867.031 1406.76 894.046 1445.41 918.088 1439.16C942.129 1432.9 971.707 1418.86 971.707 1418.86C971.707 1418.86 910.296 1379.08 867.031 1406.76Z" fill="#F0CC69"/>
<path d="M757.792 1652.35C757.792 1652.35 742.516 1607.76 717.654 1607.19C692.792 1606.63 660.497 1611.96 660.497 1611.96C660.497 1611.96 708.53 1667.07 757.792 1652.35Z" fill="#F0CC69"/>
<path d="M833.915 1071.66C833.915 1071.66 858.675 1045.57 894.045 1049.16C929.416 1052.75 930.646 1068.79 955.2 1071.71C961.659 1072.48 888.201 1120.82 844.065 1095.04C822.894 1082.68 879.743 1069.97 902.914 1071.97C889.944 1061.56 833.915 1071.66 833.915 1071.66Z" fill="#F0CC69"/>
<path d="M816.23 735.231C816.23 735.231 802.338 702.116 820.023 671.359C837.709 640.602 852.933 646.036 865.595 624.916C868.927 619.38 883.383 705.807 841.758 735.539C821.818 749.79 833.3 692.889 844.526 672.641C829.712 680.176 816.23 735.231 816.23 735.231Z" fill="#F0CC69"/>
<path d="M955.816 701.963C955.816 701.963 966.735 670.539 996.825 663.875C1026.92 657.211 1033.58 671.872 1054.55 667.617C1060.08 666.49 1017.38 732.566 972.322 720.981C950.69 715.444 992.519 687.456 1012.05 682.74C997.85 676.588 955.816 701.963 955.816 701.963Z" fill="#F0CC69"/>
<path d="M633.944 1326.59C633.944 1326.59 643.735 1294.8 673.569 1287.06C703.403 1279.32 710.58 1293.73 731.392 1288.81C736.877 1287.52 696.534 1354.98 651.065 1344.99C629.279 1340.17 670.083 1310.75 689.46 1305.41C675.056 1299.78 633.944 1326.59 633.944 1326.59Z" fill="#F0CC69"/>
<path d="M823.817 909.111C823.817 909.111 806.644 880.558 820.844 853.338C835.043 826.067 850.576 830.424 860.828 811.714C863.545 806.793 886.869 881.788 848.987 908.752C830.84 921.67 836.171 871.792 845.142 853.851C831.301 860.72 823.817 909.111 823.817 909.111Z" fill="#F0CC69"/>
<path d="M949.972 835.397C949.972 835.397 985.958 837.498 1005.95 866.82C1025.94 896.142 1014.36 907.368 1027.89 927.975C1031.43 933.409 947.05 908.444 938.489 858.157C934.388 834.064 980.678 869.281 994.006 888.196C993.749 871.639 949.972 835.397 949.972 835.397Z" fill="#F0CC69"/>
<path d="M844.732 922.747C844.732 922.747 880.358 953.76 902.145 941.867C923.931 929.975 949.254 909.265 949.254 909.265C949.254 909.265 879.948 885.479 844.732 922.747Z" fill="#F0CC69"/>
<path d="M961.967 1270.92C961.967 1270.92 988.469 1246.62 1023.53 1252.62C1058.6 1258.66 1058.7 1274.76 1082.94 1279.37C1089.3 1280.6 1012.66 1323.72 970.425 1294.96C950.177 1281.17 1007.79 1272.45 1030.71 1276.04C1018.56 1264.71 961.967 1270.92 961.967 1270.92Z" fill="#F0CC69"/>
<path d="M947.921 1205.56C947.921 1205.56 975.141 1167.06 960.993 1146.71C946.845 1126.36 923.521 1103.5 923.521 1103.5C923.521 1103.5 907.015 1174.54 947.921 1205.56Z" fill="#F0CC69"/>
<path d="M553.924 1305.36C553.924 1305.36 532.036 1280.25 541.263 1250.92C550.49 1221.65 566.535 1223.24 573.404 1202.99C575.198 1197.66 611.286 1267.48 578.684 1300.6C563.049 1316.49 559.614 1266.4 565.304 1247.18C552.899 1256.46 553.924 1305.36 553.924 1305.36Z" fill="#F0CC69"/>
<path d="M942.385 779.983C942.385 779.983 949.1 743.638 975.961 733.642C1002.77 723.646 1014.97 729.234 1043.01 728.978C1043.01 728.978 1034.14 761.888 1009.43 768.552C981.805 775.985 968.836 759.991 942.385 779.983Z" fill="#F0CC69"/>
<path d="M960.532 1215.66C960.532 1215.66 974.731 1181.52 1003.03 1177.31C1031.32 1173.11 1042.09 1181.05 1069.57 1186.64C1069.57 1186.64 1054.03 1216.99 1028.5 1218.37C999.901 1219.96 990.571 1201.61 960.532 1215.66Z" fill="#F0CC69"/>
<path d="M836.735 1531.38C836.735 1531.38 800.237 1538.09 790.19 1564.8C780.142 1591.51 785.781 1603.65 785.525 1631.54C785.525 1631.54 818.589 1622.67 825.253 1598.12C832.737 1570.64 816.641 1557.78 836.735 1531.38Z" fill="#F0CC69"/>
<path d="M763.892 1534.25C763.892 1534.25 742.875 1503.8 754.716 1477.86C766.558 1451.92 779.168 1447.26 798.801 1427.37C798.801 1427.37 815.872 1456.89 803.159 1478.99C788.959 1503.64 768.403 1501.44 763.892 1534.25Z" fill="#F0CC69"/>
<path d="M821.1 1155.53C821.1 1155.53 820.588 1114.88 799.417 1108.57C778.246 1102.26 749.026 1099.14 749.026 1099.14C749.026 1099.14 774.709 1156.24 821.1 1155.53Z" fill="#F0CC69"/>
<path d="M680.284 1050.44C680.284 1050.44 720.935 1046.39 725.395 1024.81C729.854 1003.28 730.418 974.008 730.418 974.008C730.418 974.008 675.568 1004.46 680.284 1050.44Z" fill="#F0CC69"/>
<path d="M725.087 950.838C725.087 950.838 701.61 926.232 708.632 900.96C715.655 875.688 726.42 869.691 741.337 848.827C741.337 848.827 761.124 873.176 752.717 895.014C743.388 919.517 724.472 920.44 725.087 950.838Z" fill="#F0CC69"/>
<path d="M730.367 952.632C730.367 952.632 769.531 969.292 784.858 953.093C800.185 936.895 816.076 912.135 816.076 912.135C816.076 912.135 750.103 911.008 730.367 952.632Z" fill="#F0CC69"/>
<path d="M733.238 1545.22C733.238 1545.22 710.939 1529.94 688.486 1540.24C666.034 1550.5 668.956 1563.36 653.475 1570.8C649.425 1572.74 708.837 1595.2 731.905 1565.67C742.977 1551.52 702.686 1553.52 687.922 1559.98C694.074 1549.06 733.238 1545.22 733.238 1545.22Z" fill="#F0CC69"/>
<path d="M839.657 1428.75C839.657 1428.75 882.204 1449.31 879.744 1473.91C877.283 1498.52 868.005 1529.84 868.005 1529.84C868.005 1529.84 818.998 1475.65 839.657 1428.75Z" fill="#F0CC69"/>
<path d="M799.16 741.639C799.16 741.639 774.196 721.852 746.976 732.104C719.705 742.357 722.063 757.684 703.25 765.168C698.329 767.167 766.302 798.437 795.931 765.578C810.13 749.841 762.559 748.918 744.669 755.275C752.768 742.972 799.16 741.639 799.16 741.639Z" fill="#F0CC69"/>
<path d="M535.932 996.563C535.932 996.563 510.608 987.131 506.149 962.936C501.689 938.74 513.94 933.717 511.224 916.851C510.506 912.392 563.049 948.019 552.028 983.799C546.748 1000.97 525.269 966.934 522.142 951.197C516.657 962.372 535.932 996.563 535.932 996.563Z" fill="#F0CC69"/>
<path d="M749.026 1355.5C749.026 1355.5 762.611 1321.1 790.856 1316.38C819.101 1311.67 830.02 1319.46 857.547 1324.54C857.547 1324.54 842.528 1355.14 817.051 1356.98C788.498 1359.09 778.861 1340.89 749.026 1355.5Z" fill="#F0CC69"/>
<path d="M846.885 1373.03C846.885 1373.03 855.804 1344.22 882.819 1337.2C909.834 1330.17 916.344 1343.25 935.26 1338.79C940.232 1337.61 903.683 1398.76 862.468 1389.69C842.733 1385.33 879.692 1358.68 897.275 1353.81C884.101 1348.73 846.885 1373.03 846.885 1373.03Z" fill="#F0CC69"/>
<path d="M709.607 1047.98L754.461 1052.18L747.233 1088.89L692.024 1089.86L709.607 1047.98Z" fill="#2F333F"/>
<path d="M618.156 1119.64C618.156 1119.64 647.939 1100.27 668.444 1089.55C688.999 1078.89 736.621 1081.91 736.621 1081.91L789.165 1078.12L849.038 1069.61L845.809 1063.92C845.809 1063.92 834.788 1064.74 807.516 1065.15C780.245 1065.56 731.598 1059.36 731.598 1059.36C731.598 1059.36 698.432 1052.95 683.771 1057.82C669.11 1062.69 632.971 1077.86 632.971 1077.86" fill="#F0CC69"/>
<path d="M883.948 1290.24C883.948 1290.24 902.71 1287.17 922.343 1281.83C941.976 1276.5 985.497 1277.07 969.196 1278.81C939.772 1282.04 917.678 1297.88 917.678 1297.88L904.863 1306.54" fill="#F0CC69"/>
<path d="M613.798 1294.39L675.415 1261.07C675.415 1261.07 773.068 1277.99 791.215 1287.27C809.362 1296.55 893.482 1299.72 893.482 1299.72L946.897 1340.02C946.897 1340.02 925.623 1298.7 882.461 1286.91C839.35 1275.12 766.353 1257.54 766.353 1257.54C766.353 1257.54 668.853 1213.4 634.559 1247.03" fill="#F0CC69"/>
<path d="M638.404 1010.56L687.769 991.437L702.993 942.329L652.091 957.348L638.404 1010.56Z" fill="#2F333F"/>
<path d="M1661.09 1149.32C1644.64 1124.72 1637.26 1091.81 1614.7 1094.99C1584.36 1094.99 1586.61 1127.54 1532.63 1124.77C1508.8 1156.76 1474.19 1149.37 1474.19 1182.44C1524.48 1166.91 1540.73 1169.88 1545.55 1161.52C1545.55 1156.14 1469.38 1169.83 1562.36 1149.32C1614.7 1128.61 1571.59 1149.32 1562.36 1182.44C1570.67 1204.74 1593.43 1223.14 1621.16 1235.7C1622.44 1234.42 1625.98 1233.65 1619.11 1226.32C1568.57 1194.64 1610.96 1175.98 1597.12 1173.36C1583.07 1167.98 1602.86 1141.53 1610.45 1139.17C1649.46 1126.97 1630.8 1162.34 1648.74 1169.88C1725.68 1165.83 1703.85 1226.63 1762.64 1209.09C1700.1 1209.04 1735.42 1139.69 1661.09 1149.32Z" fill="#F0CC69"/>
<path d="M1161.7 1210.89C1142.58 1224.88 1117.88 1205.35 1100.86 1239.18C1100.86 1256 1177.95 1243.8 1206.05 1210.89C1326.25 1122.31 1246.54 1215.14 1237.47 1219.6C1202.51 1256.05 1168.11 1296.14 1250.44 1247.34C1301.44 1209.71 1237.47 1284.29 1225.83 1305.57C1271.3 1300.03 1267.46 1300.75 1337.89 1315.72C1346.3 1287.68 1237.47 1289.63 1307.39 1247.28C1307.39 1210.84 1344.55 1205.3 1286.88 1210.84C1284.78 1187.97 1293.75 1165.11 1316.1 1159.83C1330.71 1156.4 1316.1 1199.2 1365.67 1199.2C1365.67 1128.77 1244.75 1117.64 1330.71 1104.52C1408.02 1120.62 1358.09 1136.87 1407.66 1136.87C1450 1210.48 1477.17 1164.29 1466.1 1210.84C1482.55 1231.75 1492.34 1261.69 1511.41 1261.69C1514.13 1249.28 1505.52 1255.95 1505.52 1229.7C1530.84 1255.95 1515.87 1255.95 1606.09 1255.95C1606.09 1229.7 1530.84 1261.69 1492.39 1169.98C1459.69 1159.83 1446 1145.22 1434.16 1108.78C1427.5 1088.27 1365.73 1095.45 1337.99 1056.44C1278.07 1056.44 1239.06 1167.21 1202.66 1169.98C1190 1171.67 1179.9 1197.56 1161.7 1210.89Z" fill="#F0CC69"/>
<path d="M564.843 1039.83C564.843 1039.83 549.977 1046.18 574.942 1016.81C599.906 987.439 597.958 986.977 613.08 978.314C628.203 969.702 689.46 957.194 689.46 957.194C689.46 957.194 716.219 949.146 734.929 934.639C765.071 911.264 770.044 885.992 770.044 885.992L782.449 837.293L782.91 873.228C782.91 873.228 772.299 910.597 762.201 928.693C747.54 954.99 715.706 969.702 715.706 969.702C715.706 969.702 692.433 979.493 673.672 986.567C661.318 991.232 636.866 997.127 609.543 1024.35C585.143 1048.64 533.317 1134.92 533.317 1134.92L564.843 1039.83Z" fill="#F0CC69"/>
<path d="M721.448 1527.99C721.448 1527.99 698.636 1513.54 699.354 1488.93C700.071 1464.33 713.092 1461.97 713.912 1444.9C714.117 1440.39 758.1 1486.11 739.85 1518.82C731.085 1534.5 717.193 1496.77 717.398 1480.73C709.709 1490.57 721.448 1527.99 721.448 1527.99Z" fill="#F0CC69"/>
<path d="M566.996 1171.21C566.996 1171.21 579.043 1169.11 604.828 1135.23C630.612 1101.34 660.293 1052.54 662.497 1015.84C632.458 1105.55 566.996 1171.21 566.996 1171.21Z" fill="#2F333F"/>
<path d="M677.773 927.36C677.773 927.36 682.13 840.625 774.965 817.199C669.366 836.165 677.773 927.36 677.773 927.36Z" fill="#2F333F"/>
<path d="M661.266 1214.27L729.291 1100.57C729.342 1100.57 690.127 1198.69 661.266 1214.27Z" fill="#2F333F"/>
<path d="M541.16 1133.69C541.16 1133.69 586.578 1009.48 630.715 991.796C674.851 974.059 577.351 976.007 541.16 1133.69Z" fill="#2F333F"/>
<path d="M740.415 1283.58C744.516 1279.84 822.536 1247.34 822.536 1247.34L866.724 1280.09L793.625 1303.83L740.415 1283.58Z" fill="#2F333F"/>
<path d="M981.652 1132.25C981.652 1132.25 973.758 1186.74 954.381 1203.51C935.004 1220.27 846.322 1250.26 846.322 1250.26L779.887 1271.58C779.887 1271.58 750.975 1277.43 723.448 1314.08C695.92 1350.73 605.341 1445.67 573.558 1541.94C555.976 1595.15 597.241 1695.67 597.241 1695.67C597.241 1695.67 644.658 1510.36 674.903 1454.89C692.793 1422.09 750.309 1326.84 750.309 1326.84C750.309 1326.84 781.886 1293.32 797.931 1292.19C813.976 1291.06 891.432 1258.05 915.064 1246.1C938.644 1234.16 970.17 1206.94 970.17 1206.94C970.17 1206.94 993.699 1144.86 981.652 1132.25Z" fill="#F0CC69"/>
<path d="M815.206 1276.45C815.206 1276.45 911.475 1238.01 926.495 1229.7C941.514 1221.4 881.077 1263.64 815.206 1276.45Z" fill="#2F333F"/>
<path d="M1545.27 1829C1515.95 1829 1470.38 1834.54 1470.38 1834.54C1470.38 1834.54 1515.95 1840.07 1545.27 1840.07C1574.39 1840.07 1619.71 1834.54 1619.71 1834.54C1619.71 1834.54 1574.44 1829 1545.27 1829Z" fill="#F0CC69"/>
<path d="M1467.92 1770.05C1390 1770.05 1268.97 1775.59 1268.97 1775.59C1268.97 1775.59 1390.05 1781.12 1467.92 1781.12C1545.33 1781.12 1665.64 1775.59 1665.64 1775.59C1665.64 1775.59 1545.38 1770.05 1467.92 1770.05Z" fill="#F0CC69"/>
<path d="M1307.37 1725.81C1232.73 1725.81 1116.73 1731.35 1116.73 1731.35C1116.73 1731.35 1232.68 1736.88 1307.37 1736.88C1381.54 1736.88 1496.78 1731.35 1496.78 1731.35C1496.78 1731.35 1381.54 1725.86 1307.37 1725.81Z" fill="#F0CC69"/>
<path d="M1615.25 1696.34C1589.1 1696.34 1548.5 1701.87 1548.5 1701.87C1548.5 1701.87 1589.1 1707.41 1615.25 1707.41C1641.24 1707.41 1681.58 1701.87 1681.58 1701.87C1681.58 1701.87 1641.18 1696.39 1615.25 1696.34Z" fill="#F0CC69"/>
<path d="M1222.79 1674.24C1144.87 1674.24 1023.84 1679.78 1023.84 1679.78C1023.84 1679.78 1144.92 1685.31 1222.79 1685.31C1300.19 1685.31 1420.5 1679.78 1420.5 1679.78C1420.5 1679.78 1300.19 1674.24 1222.79 1674.24Z" fill="#F0CC69"/>
<path d="M1493.86 1622.67C1430.14 1622.67 1331.15 1628.21 1331.15 1628.21C1331.15 1628.21 1430.14 1633.75 1493.86 1633.75C1557.17 1633.75 1655.54 1628.21 1655.54 1628.21C1655.54 1628.21 1557.17 1622.67 1493.86 1622.67Z" fill="#F0CC69"/>
<path d="M1183.21 1622.67C1148.97 1622.67 1095.81 1628.21 1095.81 1628.21C1095.81 1628.21 1149.02 1633.75 1183.21 1633.75C1217.2 1633.75 1270.05 1628.21 1270.05 1628.21C1270.05 1628.21 1217.2 1622.67 1183.21 1622.67Z" fill="#F0CC69"/>
<path d="M1558.29 1571.1C1509.7 1571.1 1434.24 1576.64 1434.24 1576.64C1434.24 1576.64 1509.75 1582.18 1558.29 1582.18C1606.58 1582.18 1681.58 1576.64 1681.58 1576.64C1681.58 1576.64 1606.53 1571.1 1558.29 1571.1Z" fill="#F0CC69"/>
<path d="M1291.53 1571.1C1255.08 1571.1 1198.49 1576.64 1198.49 1576.64C1198.49 1576.64 1255.08 1582.18 1291.53 1582.18C1327.72 1582.18 1383.95 1576.64 1383.95 1576.64C1383.95 1576.64 1327.72 1571.1 1291.53 1571.1Z" fill="#F0CC69"/>
<path d="M1498.93 1519.53C1437.21 1519.53 1341.3 1525.07 1341.3 1525.07C1341.3 1525.07 1437.21 1530.61 1498.93 1530.61C1560.24 1530.61 1655.54 1525.07 1655.54 1525.07C1655.54 1525.07 1560.24 1519.53 1498.93 1519.53Z" fill="#F0CC69"/>
<path d="M1617.6 1477.5C1587.41 1477.5 1540.51 1480.99 1540.51 1480.99C1540.51 1480.99 1587.41 1484.47 1617.6 1484.47C1647.59 1484.47 1694.19 1480.99 1694.19 1480.99C1694.19 1480.99 1647.59 1477.5 1617.6 1477.5Z" fill="#F0CC69"/>
<path d="M828.79 1760.21C828.79 1839.1 862.52 1965.72 1028.92 2036.66C1108.52 2067.01 1194.95 2083.62 1285.22 2083.62C1514.98 2083.62 1719.61 1975.97 1851.41 1808.39C1851.41 1808.39 1848.79 1780.1 1841.57 1771.13C1828.6 1755.13 1806.14 1756.41 1811.63 1761.08C1831.21 1777.74 1823.37 1795.01 1817.93 1803.68C1811.89 1813.37 1805.94 1819.83 1795.12 1828.13C1620.63 1962.44 962.122 1901.79 962.122 1681.73C962.122 1552.34 1156.15 1456.38 1350.43 1456.38C1447.36 1456.38 1614.37 1442.08 1670.2 1421.78C1774.26 1383.85 1727.05 1326.33 1666.51 1307.82C1638.11 1299.11 1608.22 1297.93 1571.62 1297.93C1510.06 1297.93 1490.99 1294.14 1480.79 1292.14C1479.2 1291.83 1477.81 1291.57 1476.53 1291.37C1439.06 1285.27 1476.53 1304.03 1536.1 1304.03H1538.46C1777.39 1304.03 1757.8 1446.28 1350.48 1446.28C943.155 1446.23 828.79 1647.48 828.79 1760.21Z" fill="#F0CC69"/>
<path d="M1253.65 1999.7C857.291 1973.71 860.265 1733.4 860.265 1733.4C860.265 1733.4 814.642 2011.65 1253.03 2037.33C1516.41 2052.76 1699.57 1927.12 1700.96 1923.78C1706.9 1920.3 1536.61 2018.26 1253.65 1999.7Z" fill="#2F333F"/>
<path d="M936.542 1689.83C936.542 1495.24 1274.61 1455.3 1274.61 1455.3C1274.61 1455.3 900.761 1489.19 900.761 1697C900.761 1836.64 1105.86 1879.85 1105.86 1879.85C1105.86 1879.85 936.542 1831.46 936.542 1689.83Z" fill="#2F333F"/>
<path d="M1689.58 1326.02C1689.58 1326.02 1722.18 1342.94 1722.18 1363.55C1722.18 1396.25 1664.61 1413.06 1664.61 1413.06C1664.61 1413.06 1711.57 1394.76 1711.57 1362.06C1711.62 1340.48 1689.58 1326.02 1689.58 1326.02Z" fill="#2F333F"/>
<path d="M1134.16 770.243C1134.72 804.435 1135.23 804.947 1169.68 805.511C1135.23 806.075 1134.72 806.588 1134.16 840.779C1133.54 806.588 1133.08 806.075 1098.63 805.511C1133.08 804.947 1133.54 804.486 1134.16 770.243Z" fill="#F0CC69"/>
<path d="M1108.27 927.77C1108.83 961.962 1109.35 962.474 1143.79 963.038C1109.35 963.602 1108.83 964.115 1108.27 998.306C1107.65 964.115 1107.19 963.602 1072.74 963.038C1107.19 962.423 1107.65 961.962 1108.27 927.77Z" fill="#F0CC69"/>
<path d="M1264.51 865.692C1265.08 899.884 1265.59 900.396 1300.04 900.96C1265.59 901.524 1265.08 902.037 1264.51 936.228C1263.9 902.037 1263.44 901.524 1228.99 900.96C1263.44 900.396 1263.9 899.935 1264.51 865.692Z" fill="#F0CC69"/>
<path d="M2157.33 2347.09L1885.87 2039.69" stroke="#F0CC69" stroke-width="17"/>
<path d="M1841.47 2076.71C1884.33 2044.2 1927.97 2000.33 1927.97 2000.33" stroke="#F0CC69" stroke-width="17"/>
<path d="M2113.17 2384.38C2155.57 2350.9 2199.68 2308.01 2199.68 2308.01" stroke="#F0CC69" stroke-width="17"/>
<path d="M2438.32 2064.28L2136.98 1801.92" stroke="#F0CC69" stroke-width="17"/>
<path d="M2098.04 1844.52C2137.19 1807.62 2175.91 1759.35 2175.91 1759.35" stroke="#F0CC69" stroke-width="17"/>
<path d="M2399.38 2106.96C2438.53 2070.07 2477.25 2021.8 2477.25 2021.8" stroke="#F0CC69" stroke-width="17"/>
<path d="M2026.17 2203.96C2191.98 2072.02 2283.02 1937.83 2283.02 1937.83" stroke="#F0CC69" stroke-width="17"/>
<path d="M1725.23 2601.65C1774.94 2584.64 1832.76 2558.14 1832.76 2558.14" stroke="#F0CC69" stroke-width="17"/>
<path d="M1624.39 2200.97L1777.7 2581.82" stroke="#F0CC69" stroke-width="17"/>
<path d="M1460.07 2326.99L1446.65 2252.63C1645.74 2218.66 1789.44 2114.21 1789.44 2114.21L1831.43 2177.11" stroke="#F0CC69" stroke-width="17"/>
<path d="M1074.19 2242.1C1074.19 2242.1 1096 2247.6 1132.14 2253.91M1132.14 2253.91L1081.09 2552.9M1132.14 2253.91C1203.67 2267.87 1295.22 2266.92 1295.22 2266.92C1415.29 2274.83 1402.62 2443.86 1255.37 2484.35M1081.09 2552.9L1063.03 2658.06M1081.09 2552.9C1081.09 2552.9 1158.77 2504.46 1255.37 2484.35M1063.03 2658.06C1063.03 2658.06 1028.61 2652.18 1006.22 2647.05M1063.03 2658.06C1063.03 2658.06 1108.78 2665.7 1136.74 2668.45M1255.37 2484.35C1300.78 2526.6 1318.11 2614.42 1352.44 2675.15C1352.44 2675.15 1379.21 2673.73 1409.39 2671.06" stroke="#F0CC69" stroke-width="17"/>
<path d="M923.224 2509.46C902.143 2580.99 762.226 2565.12 688.624 2535.21C587.274 2494.02 609.107 2347.92 769.909 2349.73C852.939 2350.67 948.271 2379.43 976.623 2340.23M923.224 2509.46L976.623 2340.23M923.224 2509.46C893.959 2608.75 890.713 2616.16 920.188 2625.37M976.623 2340.23L1008.51 2239.19C1018.85 2213.75 845.201 2131.58 784.234 2146.88L763.275 2179.87" stroke="#F0CC69" stroke-width="17"/>
<path d="M200.876 2106.75L538.552 1874.22" stroke="#F0CC69" stroke-width="17"/>
<path d="M175.147 2055.09C278.028 2275.2 481.486 2402.65 481.486 2402.65L525.733 2351.88" stroke="#F0CC69" stroke-width="17"/>
<path d="M347.341 2005.88C423.576 2119.01 525.733 2208.2 525.733 2208.2" stroke="#F0CC69" stroke-width="17"/>
<path d="M506.98 1825.2C601.71 1986.5 739.114 2083.68 739.114 2083.68L699.923 2135.68" stroke="#F0CC69" stroke-width="17"/>
<path d="M2153.29 906.187C2153.29 906.187 2167.47 933.254 2175.33 951.011M2175.33 951.011L2306.92 890.492M2175.33 951.011C2186.67 974.838 2199.96 1009.45 2199.96 1009.45M2426.62 763.287C2426.62 763.287 2442.8 794.073 2455.59 822.191M2455.59 822.191C2501.82 918.883 2532.36 1038.08 2532.36 1038.08L2484.99 1050.3M2455.59 822.191L2306.92 890.492M2306.92 890.492C2306.92 890.492 2343.79 971.15 2361.9 1035.74" stroke="#F0CC69" stroke-width="17"/>
<circle cx="2181.25" cy="665.543" r="154.267" transform="rotate(-45 2181.25 665.543)" stroke="#F0CC69" stroke-width="17"/>
<path d="M1564.43 413.804L1551.18 459.761C1606.82 529.489 1748.44 600.788 1791.01 501.303C1833.58 401.818 1569.29 352.644 1609.69 258.232C1657.49 146.509 1859.76 260.607 1882.43 346.409L1856.92 390.107" stroke="#F0CC69" stroke-width="17"/>
<path d="M1064.84 479.909C1082.72 475.249 1100.15 471.543 1114.84 468.746M1114.84 468.746C1138.36 464.269 1154.84 462.121 1154.84 462.121M1114.84 468.746V156.47M1391.89 458.846C1391.89 458.846 1409.55 460.902 1431.89 464.423M1431.89 464.423C1447.75 466.922 1465.96 470.159 1481.89 473.922M1431.89 464.423V153.348M1064.84 164.52C1084.25 160.855 1103.07 158.081 1114.84 156.47M1114.84 156.47C1122.42 155.433 1127.07 154.878 1127.07 154.878C1127.07 154.878 1238.17 302.907 1273.48 377.932C1308.79 302.907 1420.15 152.031 1420.15 152.031C1420.15 152.031 1424.79 152.52 1431.89 153.348M1481.89 160.299C1465.72 157.461 1444.76 154.848 1431.89 153.348" stroke="#F0CC69" stroke-width="17"/>
<path d="M753.207 625.449C753.207 625.449 775.604 608.851 793.251 597.947M793.251 597.947C903.975 525.905 1004.39 497.49 1004.39 497.49L982.376 430.059M793.251 597.947L717.399 480.638M572.162 375.997C572.162 375.997 599.861 355.978 625.832 339.141M625.832 339.141C764.17 247.833 908.655 204.205 908.655 204.205L924.33 252.256M625.832 339.141L717.399 480.638M717.399 480.638C808.69 421.321 893.725 389.031 893.725 389.031" stroke="#F0CC69" stroke-width="17"/>
<circle cx="510.828" cy="630.218" r="154.267" transform="rotate(-45 510.828 630.218)" stroke="#F0CC69" stroke-width="17"/>
<path d="M117.302 1024.6C126.731 990.789 137.718 960.039 137.718 960.039M137.718 960.039C137.718 960.039 172.351 843.952 222.695 790.359C281.807 727.432 407.048 796.045 378.793 871.516C363.684 944.264 312.913 1021.04 312.913 1021.04M137.718 960.039L312.913 1021.04M312.913 1021.04L428.882 1061.44M428.882 1061.44C421.3 1082.74 413.596 1109.47 413.596 1109.47M428.882 1061.44C437.91 1034.28 452.266 1001.24 452.266 1001.24" stroke="#F0CC69" stroke-width="17"/>
</g>
<defs>
<clipPath id="clip0_219_152">
<rect width="2675" height="2819" fill="white"/>
</clipPath>
</defs>
</svg>
