<svg width="2667" height="2811" viewBox="0 0 2667 2811" fill="none" xmlns="http://www.w3.org/2000/svg">
<g clip-path="url(#clip0_219_152)">
<path d="M1279.94 2124.16C1703.53 2124.16 2046.92 1780.78 2046.92 1357.19C2046.92 933.598 1703.53 590.211 1279.94 590.211C856.352 590.211 512.965 933.598 512.965 1357.19C512.965 1780.78 856.352 2124.16 1279.94 2124.16Z" fill="#F0CC69"/>
<path d="M1279.94 2106.22C1693.62 2106.22 2028.98 1770.87 2028.98 1357.19C2028.98 943.507 1693.62 608.152 1279.94 608.152C866.261 608.152 530.906 943.507 530.906 1357.19C530.906 1770.87 866.261 2106.22 1279.94 2106.22Z" fill="#2F333F"/>
<path d="M1573.36 636.244C1573.36 636.244 1642.41 682.277 1648.15 716.827C1653.89 751.377 1651.02 745.585 1651.02 745.585C1651.02 745.585 2216.7 1113.85 1874.32 1798.65C1854.17 1844.69 1940.5 1804.39 1940.5 1804.39C1940.5 1804.39 2456.65 898.088 1573.36 636.244Z" fill="#2F333F"/>
<path d="M1085.51 653.724C1079.05 655.364 1095.45 634.501 1065.51 642.498C1049.32 646.855 1040.09 642.908 1027.89 640.498C1020.66 639.063 1014.05 639.319 1011.13 639.319C987.135 639.319 986.007 636.654 956.173 641.37C901.528 649.982 398.344 944.121 522.038 1476.37C565.2 1525.27 565.2 1444.74 565.2 1444.74C565.2 1444.74 1666.51 507.936 1085.51 653.724Z" fill="#2F333F"/>
<path d="M1570.49 859.334C1562.34 807.868 1514 772.702 1462.48 780.904C1411.02 789.055 1375.9 837.394 1384.05 888.912C1392.2 940.379 1440.54 975.545 1492.06 967.343C1543.53 959.141 1578.69 910.801 1570.49 859.334Z" fill="#F0CC69"/>
<path d="M1546.25 839.906C1538.92 793.566 1495.39 761.937 1449.05 769.319C1402.71 776.649 1371.08 820.171 1378.47 866.511C1385.8 912.852 1429.32 944.48 1475.66 937.098C1521.95 929.717 1553.58 886.196 1546.25 839.906Z" fill="#2F333F"/>
<path d="M1819.68 1237.59C1819.68 1237.59 1818.34 1289.47 1868.58 1346.94C1900.51 1383.43 1977.36 1410.4 1988.84 1477.86C1990.89 1489.96 2016.06 1382.31 1983.66 1336.89C1947.73 1286.5 1864.58 1288.14 1819.68 1237.59Z" fill="#F0CC69"/>
<path d="M2008.42 1330.79C2008.42 1330.79 2011.75 1228.37 1959.21 1191.51C1905.13 1153.58 1806.45 1168.49 1782.25 1141.17C1775.49 1133.53 1816.91 1220.01 1858.48 1240.41C1910.05 1265.79 1978.54 1262.92 2008.42 1330.79Z" fill="#F0CC69"/>
<path d="M2008.16 1228.93C2008.16 1228.93 2004.52 1121.08 1954.95 1093.7C1905.33 1066.33 1841.31 1082.53 1788.1 1055.21C1757.65 1039.57 1751.6 1025.94 1751.6 1025.94C1751.6 1025.94 1766.88 1101.44 1818.29 1127.13C1841.31 1138.61 1916.66 1135.69 1954.95 1152.65C1987.71 1167.21 1998.07 1191.56 2008.16 1228.93Z" fill="#F0CC69"/>
<path d="M1668.35 1964.38C1668.35 1964.38 1914.25 1810.49 1857.1 1733.91C1754.11 1601.86 1744.32 1476.37 1744.32 1476.37C1744.32 1476.37 1698.9 1640.51 1735.71 1693.87C1772.46 1747.29 1818.96 1751.59 1821.16 1777.02C1825.67 1829.15 1746.47 1900.2 1668.35 1964.38Z" fill="#F0CC69"/>
<path d="M1742.01 926.846C1742.01 926.846 1750.52 1017.78 1795.22 1029.01C1836.23 1039.31 1928.71 1033.88 1961.52 1066.69C1965.57 1070.74 1968.44 1080.78 1969.87 1080.78C1978.28 1080.78 1936.19 977.185 1858.53 962.832C1769.9 946.377 1760.72 954.169 1742.01 926.846Z" fill="#F0CC69"/>
<path d="M1701.72 831.91C1701.72 831.91 1741.3 902.856 1772.82 917.875C1820.65 940.687 1888.06 915.261 1929.02 978.62C1944.86 1003.07 1918.97 925.411 1862.84 877.943C1813.93 836.575 1753.6 863.231 1701.72 831.91Z" fill="#F0CC69"/>
<path d="M1645.59 679.406C1645.59 679.406 1679.06 713.239 1691.62 738.408C1704.54 764.295 1707.21 790.541 1720.38 800.281C1773.08 839.189 1845.56 807.458 1874.32 870.766C1879.29 881.684 1872.89 808.893 1819.68 749.942C1778.46 704.165 1691.62 713.546 1645.59 679.406Z" fill="#F0CC69"/>
<path d="M1826.49 1874.93C1861.71 1836.79 1884.32 1793.58 1905.13 1780.56C1944.91 1755.7 2018.16 1762.51 2069.99 1684.6C2069.99 1684.6 2037.02 1796.65 1947.68 1824.49C1931.48 1829.51 1891.24 1825.26 1873.24 1847.35C1867.09 1854.89 1853.35 1864.68 1846.18 1872.11C1835.46 1883.23 1819.16 1882.88 1826.49 1874.93Z" fill="#F0CC69"/>
<path d="M1977.61 1624.82C1977.61 1624.82 1998.01 1540.4 2034.31 1517.59C2099.87 1476.42 2119.2 1441 2127.5 1408.76C2133.14 1386.77 2124.22 1491.03 2113.35 1519.17C2087.88 1585.56 1977.61 1624.82 1977.61 1624.82Z" fill="#F0CC69"/>
<path d="M2036.92 1351.24C2036.92 1351.24 2123.25 1305.21 2104.54 1164.24C2094.49 1211.71 2074.34 1233.29 2074.34 1233.29C2074.34 1233.29 2023.95 1272.09 2036.92 1351.24Z" fill="#F0CC69"/>
<path d="M1984.79 1047.67C1984.79 1047.67 2051.33 975.75 1958.44 837.087C1965.1 875.226 1954.95 911.365 1954.95 911.365C1954.95 911.365 1932.4 946.736 1984.79 1047.67Z" fill="#F0CC69"/>
<path d="M1861.4 777.213C1861.4 777.213 1930.81 772.907 1941.99 840.522C1951.78 899.78 1928.4 912.698 1932.71 930.229C1937.06 947.761 1888.06 881.018 1887.29 856.361C1886.52 831.705 1882.98 791.618 1861.4 777.213Z" fill="#F0CC69"/>
<path d="M2013.91 1136.15C2013.91 1136.15 1984.22 1071.71 2005.29 1047.67C2025.44 1024.65 2032.62 970.009 2024 942.635C2014.83 913.775 2098.79 1059.2 2013.91 1136.15Z" fill="#F0CC69"/>
<path d="M2031.18 1259.18C2031.18 1259.18 2017.19 1175.41 2024.67 1159.42C2032.15 1143.43 2077.21 1108.11 2064.24 1028.29C2060.6 1005.89 2127.91 1112.16 2083.67 1177.21C2058.09 1214.73 2037.49 1225.45 2031.18 1259.18Z" fill="#F0CC69"/>
<path d="M1916.05 1752.77C1916.05 1752.77 1934.3 1685.67 1963.52 1666.3C1980.48 1655.07 2071.68 1630.31 2113.92 1550.09C2131.6 1516.46 2086.39 1676.24 2015.34 1710.74C1968.54 1733.45 1944.5 1724.84 1916.05 1752.77Z" fill="#F0CC69"/>
<path d="M2043.28 1380.82C2065.48 1356.21 2107 1343.09 2119.66 1259.18C2135.6 1345.35 2110.33 1390.1 2110.33 1390.1C2110.33 1390.1 2063.22 1477.86 2029.49 1480.98C2016.78 1482.16 2026.72 1399.17 2043.28 1380.82Z" fill="#F0CC69"/>
<path d="M1879.55 1747.55C1879.55 1747.55 1926.15 1677.78 1911.79 1594.32C1900.98 1531.63 1775.13 1482.11 1793.84 1385.74C1807.47 1315.36 1724.07 1519.53 1847.05 1657.63C1882.42 1693.62 1879.55 1747.55 1879.55 1747.55Z" fill="#F0CC69"/>
<path d="M1933.37 1647.58C1933.37 1647.58 1993.91 1535.01 1975.77 1493.65C1953.31 1442.44 1821.42 1379.69 1826.03 1326.17C1829.36 1287.37 1805.32 1399.27 1838.39 1450.48C1869.76 1499.03 1954.9 1510.92 1933.37 1647.58Z" fill="#F0CC69"/>
<path d="M547.72 1702.95C397.318 1454.48 436.585 1194.12 567.917 1014.14C574.53 1005.12 597.085 978.774 602.057 979.799C610.926 981.645 618.615 993.332 615.744 998.356C610.464 1007.53 605.236 1016.91 600.161 1026.5C552.897 1115.9 486.36 1234.16 511.991 1352.68C522.089 1399.38 528.087 1443.56 537.16 1446.18C537.16 1446.18 554.999 1411.68 561.253 1390.71C587.038 1304.29 592.42 1242.98 654.293 1168.54C769.529 1029.93 767.838 1047.11 682.743 1197.1C648.398 1257.69 620.358 1330.33 609.439 1414.86C607.184 1432.29 593.497 1469.19 592.779 1487.6C591.549 1519.33 627.124 1536.24 627.124 1568.39C627.124 1578.43 628.56 1650.4 664.545 1729.5C685.306 1775.23 707.503 1822.44 736.722 1865.55C740.31 1870.83 763.275 1917.68 751.536 1909.48C718.37 1886.57 606.568 1794.5 547.72 1702.95Z" fill="#F0CC69"/>
<path d="M634.404 1752.11C601.852 1696.95 583.501 1554.34 678.489 1388.51C696.84 1356.47 689.1 1343.86 667.211 1371.08C552.334 1513.84 559.049 1654.56 559.049 1654.56" fill="#F0CC69"/>
<path d="M777.321 1908.15C761.481 1893.74 743.488 1866.37 739.9 1850.58C738.055 1842.43 736.671 1827.1 737.286 1818.44C739.9 1781.53 754.715 1765.03 768.658 1728.32C789.163 1674.55 799.312 1686.75 804.233 1666.65C821.867 1594.53 702.479 1708.23 702.479 1708.23C702.479 1708.23 671.312 1738.83 652.858 1783.48C652.858 1783.48 667.621 1816.9 696.738 1844.89C761.276 1906.92 861.031 1984.22 777.321 1908.15Z" fill="#F0CC69"/>
<path d="M759.38 1749.39C759.38 1749.39 813.256 1658.2 880.614 1579.77C902.554 1554.24 894.198 1537.68 896.402 1525.99C898.606 1514.3 899.58 1496.82 911.165 1485.03C922.751 1473.29 940.487 1462.99 940.487 1462.99L958.839 1453.61C952.329 1446.64 913.37 1465.5 913.37 1465.5C913.37 1465.5 884.151 1484.06 879.64 1500.46C875.129 1516.82 872.412 1534.91 870.72 1542.5C869.028 1550.08 841.04 1592.43 824.687 1607.81C808.283 1623.13 771.324 1653.07 771.324 1653.07L757.791 1708.94L759.38 1749.39Z" fill="#F0CC69"/>
<path d="M758.713 1679.73C758.713 1679.73 760.712 1612.47 749.281 1587.4C737.798 1562.34 701.146 1558.75 701.146 1558.75C701.146 1558.75 728.11 1543.63 743.642 1556.44C759.123 1569.31 742.463 1508.2 771.939 1494.16C771.939 1494.16 755.279 1552.85 761.43 1566.95C767.633 1581.05 779.577 1658.61 779.577 1658.61" fill="#F0CC69"/>
<path d="M652.96 1464.17C652.96 1464.17 717.14 1391.58 740.156 1388.66C763.173 1385.79 828.173 1401.84 828.173 1401.84C828.173 1401.84 901.99 1423.06 923.776 1404.19C945.562 1385.33 896.812 1414.75 860.57 1395.12C824.277 1375.49 766.505 1370.16 766.505 1370.16C766.505 1370.16 738.106 1352.21 696.892 1387.84" fill="#F0CC69"/>
<path d="M703.197 1147.01C713.398 1141.38 738.926 1097.85 738.875 1075.2C738.875 1075.45 746.103 1012.71 772.144 984.669C807.155 946.94 861.851 902.702 884.612 911.826C907.372 920.951 863.953 874.559 754.151 983.9C711.04 1026.86 703.094 1101.7 703.094 1101.7L642.913 1182.95" fill="#F0CC69"/>
<path d="M493.28 1302.29C493.28 1302.29 514.041 1242.98 533.88 1218.01C553.718 1193.05 580.271 1170.13 597.957 1151.94C615.642 1133.69 644.297 1090.78 647.578 1082.94C650.859 1075.09 670.543 1019.12 670.543 1019.12C670.543 1019.12 681.154 941.25 692.022 898.806C702.889 856.361 753.279 826.681 753.279 826.681L791.572 813.968C791.572 813.968 880.357 784.851 887.072 791.31C893.788 797.769 941.871 839.65 941.871 839.65L900.349 782.083L946.895 720.364L948.791 705.344C948.791 705.344 915.779 757.272 886.919 769.165C858.058 781.058 811.359 784.595 811.359 784.595L758.047 794.95C758.047 794.95 724.778 806.996 696.02 832.166C667.262 857.335 656.395 899.78 656.395 899.78L652.345 957.552L626.099 1029.22L586.577 1105.7C586.577 1105.7 542.799 1159.98 529.471 1169.21C516.194 1178.44 493.28 1302.29 493.28 1302.29Z" fill="#F0CC69"/>
<path d="M703.299 1239.95C703.299 1239.95 774.348 1203.76 785.42 1188.95C796.442 1174.08 830.121 1122.51 830.121 1122.51L824.072 1147.83L805.976 1180.49L839.399 1176.85L875.538 1173.93L854.829 1184.23L807.924 1193.41C807.924 1193.41 757.995 1243.18 724.111 1248.56" fill="#F0CC69"/>
<path d="M576.427 1396.56C576.427 1396.56 560.689 1353.7 559.459 1293.67C559.459 1293.67 568.225 1312.54 579.246 1343.3C594.676 1386.36 596.367 1352.52 596.367 1352.52" fill="#F0CC69"/>
<path d="M771.426 801.255C771.426 801.255 802.337 764.449 807.412 751.224C812.487 737.998 824.021 731.744 824.021 731.744L821.099 747.328L802.337 790.234" fill="#F0CC69"/>
<path d="M511.478 1119.79C511.478 1119.79 524.089 1033.32 526.703 1022.19C529.368 1011.07 550.591 982.67 550.591 982.67C550.591 982.67 597.905 949.555 601.186 953.041C604.416 956.527 566.431 980.978 554.641 996.254C542.85 1011.53 540.902 1035.01 540.902 1035.01L543.619 1054.18L511.478 1119.79Z" fill="#F0CC69"/>
<path d="M801.158 1189.77C801.158 1189.77 841.654 1214.12 861.031 1198.69C880.408 1183.21 901.733 1158.45 901.733 1158.45C901.733 1158.45 829.352 1146.96 801.158 1189.77Z" fill="#F0CC69"/>
<path d="M918.752 790.387C918.752 790.387 944.383 829.961 968.629 824.528C992.876 819.094 1022.92 806.125 1022.92 806.125C1022.92 806.125 962.939 764.244 918.752 790.387Z" fill="#F0CC69"/>
<path d="M878.511 757.067C878.511 757.067 922.699 740.305 922.442 715.545C922.135 690.786 915.625 658.799 915.625 658.799C915.625 658.799 862.005 708.574 878.511 757.067Z" fill="#F0CC69"/>
<path d="M794.033 1044.18C794.033 1044.18 841.142 1040.19 847.703 1016.35C854.265 992.461 856.879 959.961 856.879 959.961C856.879 959.961 791.623 993.025 794.033 1044.18Z" fill="#F0CC69"/>
<path d="M947.868 1308.44C947.868 1308.44 955.558 1354.93 979.958 1359.55C1004.36 1364.16 1037.11 1364.21 1037.11 1364.21C1037.11 1364.21 998.874 1302.03 947.868 1308.44Z" fill="#F0CC69"/>
<path d="M915.42 1488.31C915.42 1488.31 954.071 1515.43 974.525 1501.34C994.978 1487.24 1017.94 1464.02 1017.94 1464.02C1017.94 1464.02 946.587 1447.56 915.42 1488.31Z" fill="#F0CC69"/>
<path d="M994.978 1163.26C994.978 1163.26 1039.73 1148.04 1040.29 1123.28C1040.86 1098.52 1035.47 1066.33 1035.47 1066.33C1035.47 1066.33 980.215 1114.26 994.978 1163.26Z" fill="#F0CC69"/>
<path d="M560.946 969.957C560.946 969.957 602.365 947.197 598.623 922.745C594.881 898.293 583.962 867.536 583.962 867.536C583.962 867.536 537.878 924.18 560.946 969.957Z" fill="#F0CC69"/>
<path d="M851.343 1022.96C851.343 1022.96 898.042 1030.45 910.191 1008.86C922.34 987.283 932.798 956.373 932.798 956.373C932.798 956.373 861.39 972.725 851.343 1022.96Z" fill="#F0CC69"/>
<path d="M686.075 1217.86C686.075 1217.86 732.775 1225.34 744.924 1203.76C757.073 1182.18 767.53 1151.27 767.53 1151.27C767.53 1151.27 696.123 1167.67 686.075 1217.86Z" fill="#F0CC69"/>
<path d="M863.031 1402.76C863.031 1402.76 890.046 1441.41 914.088 1435.16C938.129 1428.9 967.707 1414.86 967.707 1414.86C967.707 1414.86 906.296 1375.08 863.031 1402.76Z" fill="#F0CC69"/>
<path d="M753.792 1648.35C753.792 1648.35 738.516 1603.76 713.654 1603.19C688.792 1602.63 656.497 1607.96 656.497 1607.96C656.497 1607.96 704.53 1663.07 753.792 1648.35Z" fill="#F0CC69"/>
<path d="M829.915 1067.66C829.915 1067.66 854.675 1041.57 890.045 1045.16C925.416 1048.75 926.646 1064.79 951.2 1067.71C957.659 1068.48 884.201 1116.82 840.065 1091.04C818.894 1078.68 875.743 1065.97 898.914 1067.97C885.944 1057.56 829.915 1067.66 829.915 1067.66Z" fill="#F0CC69"/>
<path d="M812.23 731.231C812.23 731.231 798.338 698.116 816.023 667.359C833.709 636.602 848.933 642.036 861.595 620.916C864.927 615.38 879.383 701.807 837.758 731.539C817.818 745.79 829.3 688.889 840.526 668.641C825.712 676.176 812.23 731.231 812.23 731.231Z" fill="#F0CC69"/>
<path d="M951.816 697.963C951.816 697.963 962.735 666.539 992.825 659.875C1022.92 653.211 1029.58 667.872 1050.55 663.617C1056.08 662.49 1013.38 728.566 968.322 716.981C946.69 711.444 988.519 683.456 1008.05 678.74C993.85 672.588 951.816 697.963 951.816 697.963Z" fill="#F0CC69"/>
<path d="M629.944 1322.59C629.944 1322.59 639.735 1290.8 669.569 1283.06C699.403 1275.32 706.58 1289.73 727.392 1284.81C732.877 1283.52 692.534 1350.98 647.065 1340.99C625.279 1336.17 666.083 1306.75 685.46 1301.41C671.056 1295.78 629.944 1322.59 629.944 1322.59Z" fill="#F0CC69"/>
<path d="M819.817 905.111C819.817 905.111 802.644 876.558 816.844 849.338C831.043 822.067 846.576 826.424 856.828 807.714C859.545 802.793 882.869 877.788 844.987 904.752C826.84 917.67 832.171 867.792 841.142 849.851C827.301 856.72 819.817 905.111 819.817 905.111Z" fill="#F0CC69"/>
<path d="M945.972 831.397C945.972 831.397 981.958 833.498 1001.95 862.82C1021.94 892.142 1010.36 903.368 1023.89 923.975C1027.43 929.409 943.05 904.444 934.489 854.157C930.388 830.064 976.678 865.281 990.006 884.196C989.749 867.639 945.972 831.397 945.972 831.397Z" fill="#F0CC69"/>
<path d="M840.732 918.747C840.732 918.747 876.358 949.76 898.145 937.867C919.931 925.975 945.254 905.265 945.254 905.265C945.254 905.265 875.948 881.479 840.732 918.747Z" fill="#F0CC69"/>
<path d="M957.967 1266.92C957.967 1266.92 984.469 1242.62 1019.53 1248.62C1054.6 1254.66 1054.7 1270.76 1078.94 1275.37C1085.3 1276.6 1008.66 1319.72 966.425 1290.96C946.177 1277.17 1003.79 1268.45 1026.71 1272.04C1014.56 1260.71 957.967 1266.92 957.967 1266.92Z" fill="#F0CC69"/>
<path d="M943.921 1201.56C943.921 1201.56 971.141 1163.06 956.993 1142.71C942.845 1122.36 919.521 1099.5 919.521 1099.5C919.521 1099.5 903.015 1170.54 943.921 1201.56Z" fill="#F0CC69"/>
<path d="M549.924 1301.36C549.924 1301.36 528.036 1276.25 537.263 1246.92C546.49 1217.65 562.535 1219.24 569.404 1198.99C571.198 1193.66 607.286 1263.48 574.684 1296.6C559.049 1312.49 555.614 1262.4 561.304 1243.18C548.899 1252.46 549.924 1301.36 549.924 1301.36Z" fill="#F0CC69"/>
<path d="M938.385 775.983C938.385 775.983 945.1 739.638 971.961 729.642C998.771 719.646 1010.97 725.234 1039.01 724.978C1039.01 724.978 1030.14 757.888 1005.43 764.552C977.805 771.985 964.836 755.991 938.385 775.983Z" fill="#F0CC69"/>
<path d="M956.532 1211.66C956.532 1211.66 970.731 1177.52 999.027 1173.31C1027.32 1169.11 1038.09 1177.05 1065.57 1182.64C1065.57 1182.64 1050.03 1212.99 1024.5 1214.37C995.901 1215.96 986.571 1197.61 956.532 1211.66Z" fill="#F0CC69"/>
<path d="M832.735 1527.38C832.735 1527.38 796.237 1534.09 786.19 1560.8C776.142 1587.51 781.781 1599.65 781.525 1627.54C781.525 1627.54 814.589 1618.67 821.253 1594.12C828.737 1566.64 812.641 1553.78 832.735 1527.38Z" fill="#F0CC69"/>
<path d="M759.892 1530.25C759.892 1530.25 738.875 1499.8 750.716 1473.86C762.558 1447.92 775.168 1443.26 794.801 1423.37C794.801 1423.37 811.872 1452.89 799.159 1474.99C784.959 1499.64 764.403 1497.44 759.892 1530.25Z" fill="#F0CC69"/>
<path d="M817.1 1151.53C817.1 1151.53 816.588 1110.88 795.417 1104.57C774.246 1098.26 745.026 1095.14 745.026 1095.14C745.026 1095.14 770.709 1152.24 817.1 1151.53Z" fill="#F0CC69"/>
<path d="M676.284 1046.44C676.284 1046.44 716.935 1042.39 721.395 1020.81C725.854 999.278 726.418 970.008 726.418 970.008C726.418 970.008 671.568 1000.46 676.284 1046.44Z" fill="#F0CC69"/>
<path d="M721.087 946.838C721.087 946.838 697.61 922.232 704.632 896.96C711.655 871.688 722.42 865.691 737.337 844.827C737.337 844.827 757.124 869.176 748.717 891.014C739.388 915.517 720.472 916.44 721.087 946.838Z" fill="#F0CC69"/>
<path d="M726.367 948.632C726.367 948.632 765.531 965.292 780.858 949.093C796.185 932.895 812.076 908.135 812.076 908.135C812.076 908.135 746.103 907.008 726.367 948.632Z" fill="#F0CC69"/>
<path d="M729.238 1541.22C729.238 1541.22 706.939 1525.94 684.486 1536.24C662.034 1546.5 664.956 1559.36 649.475 1566.8C645.425 1568.74 704.837 1591.2 727.905 1561.67C738.977 1547.52 698.686 1549.52 683.922 1555.98C690.074 1545.06 729.238 1541.22 729.238 1541.22Z" fill="#F0CC69"/>
<path d="M835.657 1424.75C835.657 1424.75 878.204 1445.31 875.744 1469.91C873.283 1494.52 864.005 1525.84 864.005 1525.84C864.005 1525.84 814.998 1471.65 835.657 1424.75Z" fill="#F0CC69"/>
<path d="M795.16 737.639C795.16 737.639 770.196 717.852 742.976 728.104C715.705 738.357 718.063 753.684 699.25 761.168C694.329 763.167 762.302 794.437 791.931 761.578C806.13 745.841 758.559 744.918 740.669 751.275C748.768 738.972 795.16 737.639 795.16 737.639Z" fill="#F0CC69"/>
<path d="M531.932 992.563C531.932 992.563 506.608 983.131 502.149 958.936C497.689 934.74 509.94 929.717 507.224 912.851C506.506 908.392 559.049 944.019 548.028 979.799C542.748 996.972 521.269 962.934 518.142 947.197C512.657 958.372 531.932 992.563 531.932 992.563Z" fill="#F0CC69"/>
<path d="M745.026 1351.5C745.026 1351.5 758.611 1317.1 786.856 1312.38C815.101 1307.67 826.02 1315.46 853.547 1320.54C853.547 1320.54 838.528 1351.14 813.051 1352.98C784.498 1355.09 774.861 1336.89 745.026 1351.5Z" fill="#F0CC69"/>
<path d="M842.885 1369.03C842.885 1369.03 851.804 1340.22 878.819 1333.2C905.834 1326.17 912.344 1339.25 931.26 1334.79C936.232 1333.61 899.683 1394.76 858.468 1385.69C838.733 1381.33 875.692 1354.68 893.275 1349.81C880.101 1344.73 842.885 1369.03 842.885 1369.03Z" fill="#F0CC69"/>
<path d="M705.607 1043.98L750.461 1048.18L743.233 1084.89L688.024 1085.86L705.607 1043.98Z" fill="#2F333F"/>
<path d="M614.156 1115.64C614.156 1115.64 643.939 1096.27 664.444 1085.55C684.999 1074.89 732.621 1077.91 732.621 1077.91L785.165 1074.12L845.038 1065.61L841.809 1059.92C841.809 1059.92 830.788 1060.74 803.516 1061.15C776.245 1061.56 727.598 1055.36 727.598 1055.36C727.598 1055.36 694.432 1048.95 679.771 1053.82C665.11 1058.69 628.971 1073.86 628.971 1073.86" fill="#F0CC69"/>
<path d="M879.948 1286.24C879.948 1286.24 898.71 1283.17 918.343 1277.83C937.976 1272.5 981.497 1273.07 965.196 1274.81C935.772 1278.04 913.678 1293.88 913.678 1293.88L900.863 1302.54" fill="#F0CC69"/>
<path d="M609.798 1290.39L671.415 1257.07C671.415 1257.07 769.068 1273.99 787.215 1283.27C805.362 1292.55 889.482 1295.72 889.482 1295.72L942.897 1336.02C942.897 1336.02 921.623 1294.7 878.461 1282.91C835.35 1271.12 762.353 1253.54 762.353 1253.54C762.353 1253.54 664.853 1209.4 630.559 1243.03" fill="#F0CC69"/>
<path d="M634.404 1006.56L683.769 987.437L698.993 938.329L648.091 953.348L634.404 1006.56Z" fill="#2F333F"/>
<path d="M1657.09 1145.32C1640.64 1120.72 1633.26 1087.81 1610.7 1090.99C1580.36 1090.99 1582.61 1123.54 1528.63 1120.77C1504.8 1152.76 1470.19 1145.37 1470.19 1178.44C1520.48 1162.91 1536.73 1165.88 1541.55 1157.52C1541.55 1152.14 1465.38 1165.83 1558.36 1145.32C1610.7 1124.61 1567.59 1145.32 1558.36 1178.44C1566.67 1200.74 1589.43 1219.14 1617.16 1231.7C1618.44 1230.42 1621.98 1229.65 1615.11 1222.32C1564.57 1190.64 1606.96 1171.98 1593.12 1169.36C1579.07 1163.98 1598.86 1137.53 1606.45 1135.17C1645.46 1122.97 1626.8 1158.34 1644.74 1165.88C1721.68 1161.83 1699.85 1222.63 1758.64 1205.09C1696.1 1205.04 1731.42 1135.69 1657.09 1145.32Z" fill="#F0CC69"/>
<path d="M1157.7 1206.89C1138.58 1220.88 1113.88 1201.35 1096.86 1235.18C1096.86 1252 1173.95 1239.8 1202.05 1206.89C1322.25 1118.31 1242.54 1211.14 1233.47 1215.6C1198.51 1252.05 1164.11 1292.14 1246.44 1243.34C1297.44 1205.71 1233.47 1280.29 1221.83 1301.57C1267.3 1296.03 1263.46 1296.75 1333.89 1311.72C1342.3 1283.68 1233.47 1285.63 1303.39 1243.28C1303.39 1206.84 1340.55 1201.3 1282.88 1206.84C1280.78 1183.97 1289.75 1161.11 1312.1 1155.83C1326.71 1152.4 1312.1 1195.2 1361.67 1195.2C1361.67 1124.77 1240.75 1113.64 1326.71 1100.52C1404.02 1116.62 1354.09 1132.87 1403.66 1132.87C1446 1206.48 1473.17 1160.29 1462.1 1206.84C1478.55 1227.75 1488.34 1257.69 1507.41 1257.69C1510.13 1245.28 1501.52 1251.95 1501.52 1225.7C1526.84 1251.95 1511.87 1251.95 1602.09 1251.95C1602.09 1225.7 1526.84 1257.69 1488.39 1165.98C1455.69 1155.83 1442 1141.22 1430.16 1104.78C1423.5 1084.27 1361.73 1091.45 1333.99 1052.44C1274.07 1052.44 1235.06 1163.21 1198.66 1165.98C1186 1167.67 1175.9 1193.56 1157.7 1206.89Z" fill="#F0CC69"/>
<path d="M560.843 1035.83C560.843 1035.83 545.977 1042.18 570.942 1012.81C595.906 983.439 593.958 982.977 609.08 974.314C624.203 965.702 685.46 953.194 685.46 953.194C685.46 953.194 712.219 945.146 730.929 930.639C761.071 907.264 766.044 881.992 766.044 881.992L778.449 833.293L778.91 869.228C778.91 869.228 768.299 906.597 758.201 924.693C743.54 950.99 711.706 965.702 711.706 965.702C711.706 965.702 688.433 975.493 669.672 982.567C657.318 987.232 632.866 993.127 605.543 1020.35C581.143 1044.64 529.317 1130.92 529.317 1130.92L560.843 1035.83Z" fill="#F0CC69"/>
<path d="M717.448 1523.99C717.448 1523.99 694.636 1509.54 695.354 1484.93C696.071 1460.33 709.092 1457.97 709.912 1440.9C710.117 1436.39 754.1 1482.11 735.85 1514.82C727.085 1530.5 713.193 1492.77 713.398 1476.73C705.709 1486.57 717.448 1523.99 717.448 1523.99Z" fill="#F0CC69"/>
<path d="M562.996 1167.21C562.996 1167.21 575.043 1165.11 600.828 1131.23C626.612 1097.34 656.293 1048.54 658.497 1011.84C628.458 1101.55 562.996 1167.21 562.996 1167.21Z" fill="#2F333F"/>
<path d="M673.773 923.36C673.773 923.36 678.13 836.625 770.965 813.199C665.366 832.165 673.773 923.36 673.773 923.36Z" fill="#2F333F"/>
<path d="M657.266 1210.27L725.291 1096.57C725.342 1096.57 686.127 1194.69 657.266 1210.27Z" fill="#2F333F"/>
<path d="M537.16 1129.69C537.16 1129.69 582.578 1005.48 626.715 987.796C670.851 970.059 573.351 972.007 537.16 1129.69Z" fill="#2F333F"/>
<path d="M736.415 1279.58C740.516 1275.84 818.536 1243.34 818.536 1243.34L862.724 1276.09L789.625 1299.83L736.415 1279.58Z" fill="#2F333F"/>
<path d="M977.652 1128.25C977.652 1128.25 969.758 1182.74 950.381 1199.51C931.004 1216.27 842.322 1246.26 842.322 1246.26L775.887 1267.58C775.887 1267.58 746.975 1273.43 719.448 1310.08C691.92 1346.73 601.341 1441.67 569.558 1537.94C551.976 1591.15 593.241 1691.67 593.241 1691.67C593.241 1691.67 640.658 1506.36 670.903 1450.89C688.793 1418.09 746.309 1322.84 746.309 1322.84C746.309 1322.84 777.886 1289.32 793.931 1288.19C809.976 1287.06 887.432 1254.05 911.064 1242.1C934.644 1230.16 966.17 1202.94 966.17 1202.94C966.17 1202.94 989.699 1140.86 977.652 1128.25Z" fill="#F0CC69"/>
<path d="M811.206 1272.45C811.206 1272.45 907.475 1234.01 922.495 1225.7C937.514 1217.4 877.077 1259.64 811.206 1272.45Z" fill="#2F333F"/>
<path d="M1541.27 1825C1511.95 1825 1466.38 1830.54 1466.38 1830.54C1466.38 1830.54 1511.95 1836.07 1541.27 1836.07C1570.39 1836.07 1615.71 1830.54 1615.71 1830.54C1615.71 1830.54 1570.44 1825 1541.27 1825Z" fill="#F0CC69"/>
<path d="M1463.92 1766.05C1386 1766.05 1264.97 1771.59 1264.97 1771.59C1264.97 1771.59 1386.05 1777.12 1463.92 1777.12C1541.33 1777.12 1661.64 1771.59 1661.64 1771.59C1661.64 1771.59 1541.38 1766.05 1463.92 1766.05Z" fill="#F0CC69"/>
<path d="M1303.37 1721.81C1228.73 1721.81 1112.73 1727.35 1112.73 1727.35C1112.73 1727.35 1228.68 1732.88 1303.37 1732.88C1377.54 1732.88 1492.78 1727.35 1492.78 1727.35C1492.78 1727.35 1377.54 1721.86 1303.37 1721.81Z" fill="#F0CC69"/>
<path d="M1611.25 1692.34C1585.1 1692.34 1544.5 1697.87 1544.5 1697.87C1544.5 1697.87 1585.1 1703.41 1611.25 1703.41C1637.24 1703.41 1677.58 1697.87 1677.58 1697.87C1677.58 1697.87 1637.18 1692.39 1611.25 1692.34Z" fill="#F0CC69"/>
<path d="M1218.79 1670.24C1140.87 1670.24 1019.84 1675.78 1019.84 1675.78C1019.84 1675.78 1140.92 1681.31 1218.79 1681.31C1296.19 1681.31 1416.5 1675.78 1416.5 1675.78C1416.5 1675.78 1296.19 1670.24 1218.79 1670.24Z" fill="#F0CC69"/>
<path d="M1489.86 1618.67C1426.14 1618.67 1327.15 1624.21 1327.15 1624.21C1327.15 1624.21 1426.14 1629.75 1489.86 1629.75C1553.17 1629.75 1651.54 1624.21 1651.54 1624.21C1651.54 1624.21 1553.17 1618.67 1489.86 1618.67Z" fill="#F0CC69"/>
<path d="M1179.21 1618.67C1144.97 1618.67 1091.81 1624.21 1091.81 1624.21C1091.81 1624.21 1145.02 1629.75 1179.21 1629.75C1213.2 1629.75 1266.05 1624.21 1266.05 1624.21C1266.05 1624.21 1213.2 1618.67 1179.21 1618.67Z" fill="#F0CC69"/>
<path d="M1554.29 1567.1C1505.7 1567.1 1430.24 1572.64 1430.24 1572.64C1430.24 1572.64 1505.75 1578.18 1554.29 1578.18C1602.58 1578.18 1677.58 1572.64 1677.58 1572.64C1677.58 1572.64 1602.53 1567.1 1554.29 1567.1Z" fill="#F0CC69"/>
<path d="M1287.53 1567.1C1251.08 1567.1 1194.49 1572.64 1194.49 1572.64C1194.49 1572.64 1251.08 1578.18 1287.53 1578.18C1323.72 1578.18 1379.95 1572.64 1379.95 1572.64C1379.95 1572.64 1323.72 1567.1 1287.53 1567.1Z" fill="#F0CC69"/>
<path d="M1494.93 1515.53C1433.21 1515.53 1337.3 1521.07 1337.3 1521.07C1337.3 1521.07 1433.21 1526.61 1494.93 1526.61C1556.24 1526.61 1651.54 1521.07 1651.54 1521.07C1651.54 1521.07 1556.24 1515.53 1494.93 1515.53Z" fill="#F0CC69"/>
<path d="M1613.6 1473.5C1583.41 1473.5 1536.51 1476.99 1536.51 1476.99C1536.51 1476.99 1583.41 1480.47 1613.6 1480.47C1643.59 1480.47 1690.19 1476.99 1690.19 1476.99C1690.19 1476.99 1643.59 1473.5 1613.6 1473.5Z" fill="#F0CC69"/>
<path d="M824.79 1756.21C824.79 1835.1 858.52 1961.72 1024.92 2032.66C1104.52 2063.01 1190.95 2079.62 1281.22 2079.62C1510.98 2079.62 1715.61 1971.97 1847.41 1804.39C1847.41 1804.39 1844.79 1776.1 1837.57 1767.13C1824.6 1751.13 1802.14 1752.41 1807.63 1757.08C1827.21 1773.74 1819.37 1791.01 1813.93 1799.68C1807.89 1809.37 1801.94 1815.83 1791.12 1824.13C1616.63 1958.44 958.122 1897.79 958.122 1677.73C958.122 1548.34 1152.15 1452.38 1346.43 1452.38C1443.36 1452.38 1610.37 1438.08 1666.2 1417.78C1770.26 1379.85 1723.05 1322.33 1662.51 1303.82C1634.11 1295.11 1604.22 1293.93 1567.62 1293.93C1506.06 1293.93 1486.99 1290.14 1476.79 1288.14C1475.2 1287.83 1473.81 1287.57 1472.53 1287.37C1435.06 1281.27 1472.53 1300.03 1532.1 1300.03H1534.46C1773.39 1300.03 1753.8 1442.28 1346.48 1442.28C939.155 1442.23 824.79 1643.48 824.79 1756.21Z" fill="#F0CC69"/>
<path d="M1249.65 1995.7C853.291 1969.71 856.265 1729.4 856.265 1729.4C856.265 1729.4 810.642 2007.65 1249.03 2033.33C1512.41 2048.76 1695.57 1923.12 1696.96 1919.78C1702.9 1916.3 1532.61 2014.26 1249.65 1995.7Z" fill="#2F333F"/>
<path d="M932.542 1685.83C932.542 1491.24 1270.61 1451.3 1270.61 1451.3C1270.61 1451.3 896.761 1485.19 896.761 1693C896.761 1832.64 1101.86 1875.85 1101.86 1875.85C1101.86 1875.85 932.542 1827.46 932.542 1685.83Z" fill="#2F333F"/>
<path d="M1685.58 1322.02C1685.58 1322.02 1718.18 1338.94 1718.18 1359.55C1718.18 1392.25 1660.61 1409.06 1660.61 1409.06C1660.61 1409.06 1707.57 1390.76 1707.57 1358.06C1707.62 1336.48 1685.58 1322.02 1685.58 1322.02Z" fill="#2F333F"/>
<path d="M1130.16 766.243C1130.72 800.435 1131.23 800.947 1165.68 801.511C1131.23 802.075 1130.72 802.588 1130.16 836.779C1129.54 802.588 1129.08 802.075 1094.63 801.511C1129.08 800.947 1129.54 800.486 1130.16 766.243Z" fill="#F0CC69"/>
<path d="M1104.27 923.77C1104.83 957.962 1105.35 958.474 1139.79 959.038C1105.35 959.602 1104.83 960.115 1104.27 994.306C1103.65 960.115 1103.19 959.602 1068.74 959.038C1103.19 958.423 1103.65 957.962 1104.27 923.77Z" fill="#F0CC69"/>
<path d="M1260.51 861.692C1261.08 895.884 1261.59 896.396 1296.04 896.96C1261.59 897.524 1261.08 898.037 1260.51 932.228C1259.9 898.037 1259.44 897.524 1224.99 896.96C1259.44 896.396 1259.9 895.935 1260.51 861.692Z" fill="#F0CC69"/>
<path d="M2153.53 2343.15L1881.65 2036.12" stroke="#F0CC69" stroke-width="17"/>
<path d="M2109.42 2380.5C2151.78 2346.97 2195.82 2304.01 2195.82 2304.01" stroke="#F0CC69" stroke-width="17"/>
<path d="M1837.3 2073.2C1880.12 2040.64 1923.7 1996.71 1923.7 1996.71" stroke="#F0CC69" stroke-width="17"/>
<path d="M2443.17 2052.62L2128.86 1789.2" stroke="#F0CC69" stroke-width="17"/>
<path d="M2479.31 2007.52C2446.94 2050.77 2405.2 2095.97 2405.2 2095.97" stroke="#F0CC69" stroke-width="17"/>
<path d="M2159.66 1750.8C2127.08 1794.2 2092.04 1830.78 2092.04 1830.78" stroke="#F0CC69" stroke-width="17"/>
<path d="M2019.85 2198.62C2185.48 2066.45 2286.98 1922.57 2286.98 1922.57" stroke="#F0CC69" stroke-width="17"/>
<path d="M1721.23 2597.65C1770.94 2580.64 1828.76 2554.14 1828.76 2554.14" stroke="#F0CC69" stroke-width="17"/>
<path d="M1620.39 2196.97L1773.7 2577.83" stroke="#F0CC69" stroke-width="17"/>
<path d="M1456.07 2322.99L1442.65 2248.63C1641.74 2214.66 1785.44 2110.21 1785.44 2110.21L1827.43 2173.12" stroke="#F0CC69" stroke-width="17"/>
<path d="M1070.19 2238.11C1070.19 2238.11 1092 2243.6 1128.13 2249.91M1128.13 2249.91L1077.09 2548.9M1128.13 2249.91C1199.67 2263.88 1291.22 2262.92 1291.22 2262.92C1411.29 2270.83 1398.62 2439.86 1251.37 2480.35M1077.09 2548.9L1059.03 2654.06M1077.09 2548.9C1077.09 2548.9 1154.77 2500.47 1251.37 2480.35M1059.03 2654.06C1059.03 2654.06 1024.61 2648.18 1002.22 2643.06M1059.03 2654.06C1059.03 2654.06 1104.78 2661.7 1132.74 2664.45M1251.37 2480.35C1296.78 2522.6 1314.11 2610.42 1348.44 2671.15C1348.44 2671.15 1375.21 2669.73 1405.39 2667.06" stroke="#F0CC69" stroke-width="17"/>
<path d="M919.289 2505.48C898.208 2577 758.226 2561.13 684.624 2531.21C583.274 2490.02 605.107 2343.93 765.909 2345.73C848.939 2346.67 948.835 2360.95 977.187 2321.75M919.289 2505.48L977.187 2321.75M919.289 2505.48C890.024 2604.77 886.713 2612.16 916.188 2621.38M977.187 2321.75L1004.51 2235.19C1014.85 2209.75 841.201 2127.58 780.233 2142.89L757.897 2177.93" stroke="#F0CC69" stroke-width="17"/>
<path d="M182.705 2125.79L490.237 1858.16M518.151 2351.08L474.06 2399.78C474.06 2399.78 284.709 2285.7 140.821 2073.28M328.724 1998.72C406.967 2105.88 518.151 2192.16 518.151 2192.16M695.923 2131.68L735.113 2079.69C735.113 2079.69 543.349 1955.58 457.828 1804.27" stroke="#F0CC69" stroke-width="17"/>
<path d="M2149.29 902.189C2149.29 902.189 2163.47 929.256 2171.33 947.013M2171.33 947.013L2302.92 886.494M2171.33 947.013C2182.67 970.84 2195.96 1005.45 2195.96 1005.45M2422.62 759.289C2422.62 759.289 2438.8 790.075 2451.59 818.193M2451.59 818.193C2497.82 914.885 2528.36 1034.08 2528.36 1034.08L2480.99 1046.3M2451.59 818.193L2302.92 886.494M2302.92 886.494C2302.92 886.494 2339.79 967.152 2357.9 1031.74" stroke="#F0CC69" stroke-width="17"/>
<circle cx="2177.25" cy="661.545" r="154.267" transform="rotate(-45 2177.25 661.545)" stroke="#F0CC69" stroke-width="17"/>
<path d="M1560.43 409.806L1547.18 455.763C1602.82 525.491 1744.44 596.79 1787.01 497.305C1829.58 397.82 1565.29 348.646 1605.69 254.234C1653.49 142.511 1855.76 256.609 1878.43 342.41L1852.92 386.109" stroke="#F0CC69" stroke-width="17"/>
<path d="M1060.84 475.911C1078.72 471.251 1096.15 467.545 1110.84 464.748M1110.84 464.748C1134.36 460.271 1150.84 458.123 1150.84 458.123M1110.84 464.748V152.472M1387.89 454.848C1387.89 454.848 1405.55 456.904 1427.89 460.425M1427.89 460.425C1443.75 462.924 1461.96 466.161 1477.89 469.924M1427.89 460.425V149.35M1060.84 160.522C1080.25 156.857 1099.07 154.083 1110.84 152.472M1110.84 152.472C1118.42 151.435 1123.07 150.88 1123.07 150.88C1123.07 150.88 1234.17 298.909 1269.48 373.934C1304.79 298.909 1416.15 148.033 1416.15 148.033C1416.15 148.033 1420.79 148.522 1427.89 149.35M1477.89 156.301C1461.72 153.463 1440.76 150.85 1427.89 149.35" stroke="#F0CC69" stroke-width="17"/>
<path d="M749.207 621.451C749.207 621.451 771.604 604.853 789.251 593.949M789.251 593.949C899.975 521.907 1000.39 493.492 1000.39 493.492L978.376 426.061M789.251 593.949L713.399 476.64M568.162 371.999C568.162 371.999 595.861 351.98 621.832 335.143M621.832 335.143C760.17 243.835 904.655 200.207 904.655 200.207L920.33 248.258M621.832 335.143L713.399 476.64M713.399 476.64C804.69 417.323 889.725 385.033 889.725 385.033" stroke="#F0CC69" stroke-width="17"/>
<circle cx="506.828" cy="626.22" r="154.267" transform="rotate(-45 506.828 626.22)" stroke="#F0CC69" stroke-width="17"/>
<path d="M113.302 1020.6C122.731 986.791 133.718 956.041 133.718 956.041M133.718 956.041C133.718 956.041 168.351 839.954 218.695 786.361C277.807 723.434 403.048 792.047 374.793 867.518C359.684 940.266 308.913 1017.05 308.913 1017.05M133.718 956.041L308.913 1017.05M308.913 1017.05L424.882 1057.44M424.882 1057.44C417.3 1078.74 409.596 1105.47 409.596 1105.47M424.882 1057.44C433.91 1030.28 448.266 997.237 448.266 997.237" stroke="#F0CC69" stroke-width="17"/>
</g>
<defs>
<clipPath id="clip0_219_152">
<rect width="2667" height="2811" fill="white"/>
</clipPath>
</defs>
</svg>
