<svg width="2699" height="2852" viewBox="0 0 2699 2852" fill="none" xmlns="http://www.w3.org/2000/svg">
<g clip-path="url(#clip0_219_152)">
<path d="M1305.94 2131.16C1729.53 2131.16 2072.92 1787.78 2072.92 1364.19C2072.92 940.598 1729.53 597.211 1305.94 597.211C882.352 597.211 538.965 940.598 538.965 1364.19C538.965 1787.78 882.352 2131.16 1305.94 2131.16Z" fill="#F0CC69"/>
<path d="M1305.94 2113.22C1719.62 2113.22 2054.98 1777.87 2054.98 1364.19C2054.98 950.507 1719.62 615.152 1305.94 615.152C892.261 615.152 556.906 950.507 556.906 1364.19C556.906 1777.87 892.261 2113.22 1305.94 2113.22Z" fill="#2F333F"/>
<path d="M1599.36 643.244C1599.36 643.244 1668.41 689.277 1674.15 723.827C1679.89 758.377 1677.02 752.585 1677.02 752.585C1677.02 752.585 2242.7 1120.85 1900.32 1805.65C1880.17 1851.69 1966.5 1811.39 1966.5 1811.39C1966.5 1811.39 2482.65 905.088 1599.36 643.244Z" fill="#2F333F"/>
<path d="M1111.51 660.724C1105.05 662.364 1121.45 641.501 1091.51 649.498C1075.32 653.855 1066.09 649.908 1053.89 647.498C1046.66 646.063 1040.05 646.319 1037.13 646.319C1013.13 646.319 1012.01 643.654 982.173 648.37C927.528 656.982 424.344 951.121 548.038 1483.37C591.2 1532.27 591.2 1451.74 591.2 1451.74C591.2 1451.74 1692.51 514.936 1111.51 660.724Z" fill="#2F333F"/>
<path d="M1596.49 866.334C1588.34 814.868 1540 779.702 1488.48 787.904C1437.02 796.055 1401.9 844.394 1410.05 895.912C1418.2 947.379 1466.54 982.545 1518.06 974.343C1569.53 966.141 1604.69 917.801 1596.49 866.334Z" fill="#F0CC69"/>
<path d="M1572.25 846.906C1564.92 800.566 1521.39 768.937 1475.05 776.319C1428.71 783.649 1397.08 827.171 1404.47 873.511C1411.8 919.852 1455.32 951.48 1501.66 944.098C1547.95 936.717 1579.58 893.196 1572.25 846.906Z" fill="#2F333F"/>
<path d="M1845.68 1244.59C1845.68 1244.59 1844.34 1296.47 1894.58 1353.94C1926.51 1390.43 2003.36 1417.4 2014.84 1484.86C2016.89 1496.96 2042.06 1389.31 2009.66 1343.89C1973.73 1293.5 1890.58 1295.14 1845.68 1244.59Z" fill="#F0CC69"/>
<path d="M2034.42 1337.79C2034.42 1337.79 2037.75 1235.37 1985.21 1198.51C1931.13 1160.58 1832.45 1175.49 1808.25 1148.17C1801.49 1140.53 1842.91 1227.01 1884.48 1247.41C1936.05 1272.79 2004.54 1269.92 2034.42 1337.79Z" fill="#F0CC69"/>
<path d="M2034.16 1235.93C2034.16 1235.93 2030.52 1128.08 1980.95 1100.7C1931.33 1073.33 1867.31 1089.53 1814.1 1062.21C1783.65 1046.57 1777.6 1032.94 1777.6 1032.94C1777.6 1032.94 1792.88 1108.44 1844.29 1134.13C1867.31 1145.61 1942.66 1142.69 1980.95 1159.65C2013.71 1174.21 2024.07 1198.56 2034.16 1235.93Z" fill="#F0CC69"/>
<path d="M1694.35 1971.38C1694.35 1971.38 1940.25 1817.49 1883.1 1740.91C1780.11 1608.86 1770.32 1483.37 1770.32 1483.37C1770.32 1483.37 1724.9 1647.51 1761.71 1700.87C1798.46 1754.29 1844.96 1758.59 1847.16 1784.02C1851.67 1836.15 1772.47 1907.2 1694.35 1971.38Z" fill="#F0CC69"/>
<path d="M1768.01 933.846C1768.01 933.846 1776.52 1024.78 1821.22 1036.01C1862.23 1046.31 1954.71 1040.88 1987.52 1073.69C1991.57 1077.74 1994.44 1087.78 1995.87 1087.78C2004.28 1087.78 1962.19 984.185 1884.53 969.832C1795.9 953.377 1786.72 961.169 1768.01 933.846Z" fill="#F0CC69"/>
<path d="M1727.72 838.91C1727.72 838.91 1767.3 909.856 1798.82 924.875C1846.65 947.687 1914.06 922.261 1955.02 985.62C1970.86 1010.07 1944.97 932.411 1888.84 884.943C1839.93 843.575 1779.6 870.231 1727.72 838.91Z" fill="#F0CC69"/>
<path d="M1671.59 686.406C1671.59 686.406 1705.06 720.239 1717.62 745.408C1730.54 771.295 1733.21 797.541 1746.38 807.281C1799.08 846.189 1871.56 814.458 1900.32 877.766C1905.29 888.684 1898.89 815.893 1845.68 756.942C1804.46 711.165 1717.62 720.546 1671.59 686.406Z" fill="#F0CC69"/>
<path d="M1852.49 1881.93C1887.71 1843.79 1910.32 1800.58 1931.13 1787.56C1970.91 1762.7 2044.16 1769.51 2095.99 1691.6C2095.99 1691.6 2063.02 1803.65 1973.68 1831.49C1957.48 1836.51 1917.24 1832.26 1899.24 1854.35C1893.09 1861.89 1879.35 1871.68 1872.18 1879.11C1861.46 1890.23 1845.16 1889.88 1852.49 1881.93Z" fill="#F0CC69"/>
<path d="M2003.61 1631.82C2003.61 1631.82 2024.01 1547.4 2060.31 1524.59C2125.87 1483.42 2145.2 1448 2153.5 1415.76C2159.14 1393.77 2150.22 1498.03 2139.35 1526.17C2113.88 1592.56 2003.61 1631.82 2003.61 1631.82Z" fill="#F0CC69"/>
<path d="M2062.92 1358.24C2062.92 1358.24 2149.25 1312.21 2130.54 1171.24C2120.49 1218.71 2100.34 1240.29 2100.34 1240.29C2100.34 1240.29 2049.95 1279.09 2062.92 1358.24Z" fill="#F0CC69"/>
<path d="M2010.79 1054.67C2010.79 1054.67 2077.33 982.75 1984.44 844.087C1991.1 882.226 1980.95 918.365 1980.95 918.365C1980.95 918.365 1958.4 953.736 2010.79 1054.67Z" fill="#F0CC69"/>
<path d="M1887.4 784.213C1887.4 784.213 1956.81 779.907 1967.99 847.522C1977.78 906.78 1954.4 919.698 1958.71 937.229C1963.06 954.761 1914.06 888.018 1913.29 863.361C1912.52 838.705 1908.98 798.618 1887.4 784.213Z" fill="#F0CC69"/>
<path d="M2039.91 1143.15C2039.91 1143.15 2010.22 1078.71 2031.29 1054.67C2051.44 1031.65 2058.62 977.009 2050 949.635C2040.83 920.775 2124.79 1066.2 2039.91 1143.15Z" fill="#F0CC69"/>
<path d="M2057.18 1266.18C2057.18 1266.18 2043.19 1182.41 2050.67 1166.42C2058.15 1150.43 2103.21 1115.11 2090.24 1035.29C2086.6 1012.89 2153.91 1119.16 2109.67 1184.21C2084.09 1221.73 2063.49 1232.45 2057.18 1266.18Z" fill="#F0CC69"/>
<path d="M1942.05 1759.77C1942.05 1759.77 1960.3 1692.67 1989.52 1673.3C2006.48 1662.07 2097.68 1637.31 2139.92 1557.09C2157.6 1523.46 2112.39 1683.24 2041.34 1717.74C1994.54 1740.45 1970.5 1731.84 1942.05 1759.77Z" fill="#F0CC69"/>
<path d="M2069.28 1387.82C2091.48 1363.21 2133 1350.09 2145.66 1266.18C2161.6 1352.35 2136.33 1397.1 2136.33 1397.1C2136.33 1397.1 2089.22 1484.86 2055.49 1487.98C2042.78 1489.16 2052.72 1406.17 2069.28 1387.82Z" fill="#F0CC69"/>
<path d="M1905.55 1754.55C1905.55 1754.55 1952.15 1684.78 1937.79 1601.32C1926.98 1538.63 1801.13 1489.11 1819.84 1392.74C1833.47 1322.36 1750.07 1526.53 1873.05 1664.63C1908.42 1700.62 1905.55 1754.55 1905.55 1754.55Z" fill="#F0CC69"/>
<path d="M1959.37 1654.58C1959.37 1654.58 2019.91 1542.01 2001.77 1500.65C1979.31 1449.44 1847.42 1386.69 1852.03 1333.17C1855.36 1294.37 1831.32 1406.27 1864.39 1457.48C1895.76 1506.03 1980.9 1517.92 1959.37 1654.58Z" fill="#F0CC69"/>
<path d="M573.72 1709.95C423.318 1461.48 462.585 1201.12 593.917 1021.14C600.53 1012.12 623.085 985.774 628.057 986.799C636.926 988.645 644.615 1000.33 641.744 1005.36C636.464 1014.53 631.236 1023.91 626.161 1033.5C578.897 1122.9 512.36 1241.16 537.991 1359.68C548.089 1406.38 554.087 1450.56 563.16 1453.18C563.16 1453.18 580.999 1418.68 587.253 1397.71C613.038 1311.29 618.42 1249.98 680.293 1175.54C795.529 1036.93 793.838 1054.11 708.743 1204.1C674.398 1264.69 646.358 1337.33 635.439 1421.86C633.184 1439.29 619.497 1476.19 618.779 1494.6C617.549 1526.33 653.124 1543.24 653.124 1575.39C653.124 1585.43 654.56 1657.4 690.545 1736.5C711.306 1782.23 733.503 1829.44 762.722 1872.55C766.31 1877.83 789.275 1924.68 777.536 1916.48C744.37 1893.57 632.568 1801.5 573.72 1709.95Z" fill="#F0CC69"/>
<path d="M660.404 1759.11C627.852 1703.95 609.501 1561.34 704.489 1395.51C722.84 1363.47 715.1 1350.86 693.211 1378.08C578.334 1520.84 585.049 1661.56 585.049 1661.56" fill="#F0CC69"/>
<path d="M803.321 1915.15C787.481 1900.74 769.488 1873.37 765.9 1857.58C764.055 1849.43 762.671 1834.1 763.286 1825.44C765.9 1788.53 780.715 1772.03 794.658 1735.32C815.163 1681.55 825.312 1693.75 830.233 1673.65C847.867 1601.53 728.479 1715.23 728.479 1715.23C728.479 1715.23 697.312 1745.83 678.858 1790.48C678.858 1790.48 693.621 1823.9 722.738 1851.89C787.276 1913.92 887.031 1991.22 803.321 1915.15Z" fill="#F0CC69"/>
<path d="M785.38 1756.39C785.38 1756.39 839.256 1665.2 906.614 1586.77C928.554 1561.24 920.198 1544.68 922.402 1532.99C924.606 1521.3 925.58 1503.82 937.165 1492.03C948.751 1480.29 966.487 1469.99 966.487 1469.99L984.839 1460.61C978.329 1453.64 939.37 1472.5 939.37 1472.5C939.37 1472.5 910.151 1491.06 905.64 1507.46C901.129 1523.82 898.412 1541.91 896.72 1549.5C895.028 1557.08 867.04 1599.43 850.687 1614.81C834.283 1630.13 797.324 1660.07 797.324 1660.07L783.791 1715.94L785.38 1756.39Z" fill="#F0CC69"/>
<path d="M784.713 1686.73C784.713 1686.73 786.712 1619.47 775.281 1594.4C763.798 1569.34 727.146 1565.75 727.146 1565.75C727.146 1565.75 754.11 1550.63 769.642 1563.44C785.123 1576.31 768.463 1515.2 797.939 1501.16C797.939 1501.16 781.279 1559.85 787.43 1573.95C793.633 1588.05 805.577 1665.61 805.577 1665.61" fill="#F0CC69"/>
<path d="M678.96 1471.17C678.96 1471.17 743.14 1398.58 766.156 1395.66C789.173 1392.79 854.173 1408.84 854.173 1408.84C854.173 1408.84 927.99 1430.06 949.776 1411.19C971.562 1392.33 922.812 1421.75 886.57 1402.12C850.277 1382.49 792.505 1377.16 792.505 1377.16C792.505 1377.16 764.106 1359.21 722.892 1394.84" fill="#F0CC69"/>
<path d="M729.197 1154.01C739.398 1148.38 764.926 1104.85 764.875 1082.2C764.875 1082.45 772.103 1019.71 798.144 991.669C833.155 953.94 887.851 909.702 910.612 918.826C933.372 927.951 889.953 881.559 780.151 990.9C737.04 1033.86 729.094 1108.7 729.094 1108.7L668.913 1189.95" fill="#F0CC69"/>
<path d="M519.28 1309.29C519.28 1309.29 540.041 1249.98 559.88 1225.01C579.718 1200.05 606.271 1177.13 623.957 1158.94C641.642 1140.69 670.297 1097.78 673.578 1089.94C676.859 1082.09 696.543 1026.12 696.543 1026.12C696.543 1026.12 707.154 948.25 718.022 905.806C728.889 863.361 779.279 833.681 779.279 833.681L817.572 820.968C817.572 820.968 906.357 791.851 913.072 798.31C919.788 804.769 967.871 846.65 967.871 846.65L926.349 789.083L972.895 727.364L974.791 712.344C974.791 712.344 941.779 764.272 912.919 776.165C884.058 788.058 837.359 791.595 837.359 791.595L784.047 801.95C784.047 801.95 750.778 813.996 722.02 839.166C693.262 864.335 682.395 906.78 682.395 906.78L678.345 964.552L652.099 1036.22L612.577 1112.7C612.577 1112.7 568.799 1166.98 555.471 1176.21C542.194 1185.44 519.28 1309.29 519.28 1309.29Z" fill="#F0CC69"/>
<path d="M729.299 1246.95C729.299 1246.95 800.348 1210.76 811.42 1195.95C822.442 1181.08 856.121 1129.51 856.121 1129.51L850.072 1154.83L831.976 1187.49L865.399 1183.85L901.538 1180.93L880.829 1191.23L833.924 1200.41C833.924 1200.41 783.995 1250.18 750.111 1255.56" fill="#F0CC69"/>
<path d="M602.427 1403.56C602.427 1403.56 586.689 1360.7 585.459 1300.67C585.459 1300.67 594.225 1319.54 605.246 1350.3C620.676 1393.36 622.367 1359.52 622.367 1359.52" fill="#F0CC69"/>
<path d="M797.426 808.255C797.426 808.255 828.337 771.449 833.412 758.224C838.487 744.998 850.021 738.744 850.021 738.744L847.099 754.328L828.337 797.234" fill="#F0CC69"/>
<path d="M537.478 1126.79C537.478 1126.79 550.089 1040.32 552.703 1029.19C555.368 1018.07 576.591 989.67 576.591 989.67C576.591 989.67 623.905 956.555 627.186 960.041C630.416 963.527 592.431 987.978 580.641 1003.25C568.85 1018.53 566.902 1042.01 566.902 1042.01L569.619 1061.18L537.478 1126.79Z" fill="#F0CC69"/>
<path d="M827.158 1196.77C827.158 1196.77 867.654 1221.12 887.031 1205.69C906.408 1190.21 927.733 1165.45 927.733 1165.45C927.733 1165.45 855.352 1153.96 827.158 1196.77Z" fill="#F0CC69"/>
<path d="M944.752 797.387C944.752 797.387 970.383 836.961 994.629 831.528C1018.88 826.094 1048.92 813.125 1048.92 813.125C1048.92 813.125 988.939 771.244 944.752 797.387Z" fill="#F0CC69"/>
<path d="M904.511 764.067C904.511 764.067 948.699 747.305 948.442 722.545C948.135 697.786 941.625 665.799 941.625 665.799C941.625 665.799 888.005 715.574 904.511 764.067Z" fill="#F0CC69"/>
<path d="M820.033 1051.18C820.033 1051.18 867.142 1047.19 873.703 1023.35C880.265 999.461 882.879 966.961 882.879 966.961C882.879 966.961 817.623 1000.02 820.033 1051.18Z" fill="#F0CC69"/>
<path d="M973.868 1315.44C973.868 1315.44 981.558 1361.93 1005.96 1366.55C1030.36 1371.16 1063.11 1371.21 1063.11 1371.21C1063.11 1371.21 1024.87 1309.03 973.868 1315.44Z" fill="#F0CC69"/>
<path d="M941.42 1495.31C941.42 1495.31 980.071 1522.43 1000.52 1508.34C1020.98 1494.24 1043.94 1471.02 1043.94 1471.02C1043.94 1471.02 972.587 1454.56 941.42 1495.31Z" fill="#F0CC69"/>
<path d="M1020.98 1170.26C1020.98 1170.26 1065.73 1155.04 1066.29 1130.28C1066.86 1105.52 1061.47 1073.33 1061.47 1073.33C1061.47 1073.33 1006.21 1121.26 1020.98 1170.26Z" fill="#F0CC69"/>
<path d="M586.946 976.957C586.946 976.957 628.365 954.197 624.623 929.745C620.881 905.293 609.962 874.536 609.962 874.536C609.962 874.536 563.878 931.18 586.946 976.957Z" fill="#F0CC69"/>
<path d="M877.343 1029.96C877.343 1029.96 924.042 1037.45 936.191 1015.86C948.34 994.283 958.798 963.373 958.798 963.373C958.798 963.373 887.39 979.725 877.343 1029.96Z" fill="#F0CC69"/>
<path d="M712.075 1224.86C712.075 1224.86 758.775 1232.34 770.924 1210.76C783.073 1189.18 793.53 1158.27 793.53 1158.27C793.53 1158.27 722.123 1174.67 712.075 1224.86Z" fill="#F0CC69"/>
<path d="M889.031 1409.76C889.031 1409.76 916.046 1448.41 940.088 1442.16C964.129 1435.9 993.707 1421.86 993.707 1421.86C993.707 1421.86 932.296 1382.08 889.031 1409.76Z" fill="#F0CC69"/>
<path d="M779.792 1655.35C779.792 1655.35 764.516 1610.76 739.654 1610.19C714.792 1609.63 682.497 1614.96 682.497 1614.96C682.497 1614.96 730.53 1670.07 779.792 1655.35Z" fill="#F0CC69"/>
<path d="M855.915 1074.66C855.915 1074.66 880.675 1048.57 916.045 1052.16C951.416 1055.75 952.646 1071.79 977.2 1074.71C983.659 1075.48 910.201 1123.82 866.065 1098.04C844.894 1085.68 901.743 1072.97 924.914 1074.97C911.944 1064.56 855.915 1074.66 855.915 1074.66Z" fill="#F0CC69"/>
<path d="M838.23 738.231C838.23 738.231 824.338 705.116 842.023 674.359C859.709 643.602 874.933 649.036 887.595 627.916C890.927 622.38 905.383 708.807 863.758 738.539C843.818 752.79 855.3 695.889 866.526 675.641C851.712 683.176 838.23 738.231 838.23 738.231Z" fill="#F0CC69"/>
<path d="M977.816 704.963C977.816 704.963 988.735 673.539 1018.83 666.875C1048.92 660.211 1055.58 674.872 1076.55 670.617C1082.08 669.49 1039.38 735.566 994.322 723.981C972.69 718.444 1014.52 690.456 1034.05 685.74C1019.85 679.588 977.816 704.963 977.816 704.963Z" fill="#F0CC69"/>
<path d="M655.944 1329.59C655.944 1329.59 665.735 1297.8 695.569 1290.06C725.403 1282.32 732.58 1296.73 753.392 1291.81C758.877 1290.52 718.534 1357.98 673.065 1347.99C651.279 1343.17 692.083 1313.75 711.46 1308.41C697.056 1302.78 655.944 1329.59 655.944 1329.59Z" fill="#F0CC69"/>
<path d="M845.817 912.111C845.817 912.111 828.644 883.558 842.844 856.338C857.043 829.067 872.576 833.424 882.828 814.714C885.545 809.793 908.869 884.788 870.987 911.752C852.84 924.67 858.171 874.792 867.142 856.851C853.301 863.72 845.817 912.111 845.817 912.111Z" fill="#F0CC69"/>
<path d="M971.972 838.397C971.972 838.397 1007.96 840.498 1027.95 869.82C1047.94 899.142 1036.36 910.368 1049.89 930.975C1053.43 936.409 969.05 911.444 960.489 861.157C956.388 837.064 1002.68 872.281 1016.01 891.196C1015.75 874.639 971.972 838.397 971.972 838.397Z" fill="#F0CC69"/>
<path d="M866.732 925.747C866.732 925.747 902.358 956.76 924.145 944.867C945.931 932.975 971.254 912.265 971.254 912.265C971.254 912.265 901.948 888.479 866.732 925.747Z" fill="#F0CC69"/>
<path d="M983.967 1273.92C983.967 1273.92 1010.47 1249.62 1045.53 1255.62C1080.6 1261.66 1080.7 1277.76 1104.94 1282.37C1111.3 1283.6 1034.66 1326.72 992.425 1297.96C972.177 1284.17 1029.79 1275.45 1052.71 1279.04C1040.56 1267.71 983.967 1273.92 983.967 1273.92Z" fill="#F0CC69"/>
<path d="M969.921 1208.56C969.921 1208.56 997.141 1170.06 982.993 1149.71C968.845 1129.36 945.521 1106.5 945.521 1106.5C945.521 1106.5 929.015 1177.54 969.921 1208.56Z" fill="#F0CC69"/>
<path d="M575.924 1308.36C575.924 1308.36 554.036 1283.25 563.263 1253.92C572.49 1224.65 588.535 1226.24 595.404 1205.99C597.198 1200.66 633.286 1270.48 600.684 1303.6C585.049 1319.49 581.614 1269.4 587.304 1250.18C574.899 1259.46 575.924 1308.36 575.924 1308.36Z" fill="#F0CC69"/>
<path d="M964.385 782.983C964.385 782.983 971.1 746.638 997.961 736.642C1024.77 726.646 1036.97 732.234 1065.01 731.978C1065.01 731.978 1056.14 764.888 1031.43 771.552C1003.8 778.985 990.836 762.991 964.385 782.983Z" fill="#F0CC69"/>
<path d="M982.532 1218.66C982.532 1218.66 996.731 1184.52 1025.03 1180.31C1053.32 1176.11 1064.09 1184.05 1091.57 1189.64C1091.57 1189.64 1076.03 1219.99 1050.5 1221.37C1021.9 1222.96 1012.57 1204.61 982.532 1218.66Z" fill="#F0CC69"/>
<path d="M858.735 1534.38C858.735 1534.38 822.237 1541.09 812.19 1567.8C802.142 1594.51 807.781 1606.65 807.525 1634.54C807.525 1634.54 840.589 1625.67 847.253 1601.12C854.737 1573.64 838.641 1560.78 858.735 1534.38Z" fill="#F0CC69"/>
<path d="M785.892 1537.25C785.892 1537.25 764.875 1506.8 776.716 1480.86C788.558 1454.92 801.168 1450.26 820.801 1430.37C820.801 1430.37 837.872 1459.89 825.159 1481.99C810.959 1506.64 790.403 1504.44 785.892 1537.25Z" fill="#F0CC69"/>
<path d="M843.1 1158.53C843.1 1158.53 842.588 1117.88 821.417 1111.57C800.246 1105.26 771.026 1102.14 771.026 1102.14C771.026 1102.14 796.709 1159.24 843.1 1158.53Z" fill="#F0CC69"/>
<path d="M702.284 1053.44C702.284 1053.44 742.935 1049.39 747.395 1027.81C751.854 1006.28 752.418 977.008 752.418 977.008C752.418 977.008 697.568 1007.46 702.284 1053.44Z" fill="#F0CC69"/>
<path d="M747.087 953.838C747.087 953.838 723.61 929.232 730.632 903.96C737.655 878.688 748.42 872.691 763.337 851.827C763.337 851.827 783.124 876.176 774.717 898.014C765.388 922.517 746.472 923.44 747.087 953.838Z" fill="#F0CC69"/>
<path d="M752.367 955.632C752.367 955.632 791.531 972.292 806.858 956.093C822.185 939.895 838.076 915.135 838.076 915.135C838.076 915.135 772.103 914.008 752.367 955.632Z" fill="#F0CC69"/>
<path d="M755.238 1548.22C755.238 1548.22 732.939 1532.94 710.486 1543.24C688.034 1553.5 690.956 1566.36 675.475 1573.8C671.425 1575.74 730.837 1598.2 753.905 1568.67C764.977 1554.52 724.686 1556.52 709.922 1562.98C716.074 1552.06 755.238 1548.22 755.238 1548.22Z" fill="#F0CC69"/>
<path d="M861.657 1431.75C861.657 1431.75 904.204 1452.31 901.744 1476.91C899.283 1501.52 890.005 1532.84 890.005 1532.84C890.005 1532.84 840.998 1478.65 861.657 1431.75Z" fill="#F0CC69"/>
<path d="M821.16 744.639C821.16 744.639 796.196 724.852 768.976 735.104C741.705 745.357 744.063 760.684 725.25 768.168C720.329 770.167 788.302 801.437 817.931 768.578C832.13 752.841 784.559 751.918 766.669 758.275C774.768 745.972 821.16 744.639 821.16 744.639Z" fill="#F0CC69"/>
<path d="M557.932 999.563C557.932 999.563 532.608 990.131 528.149 965.936C523.689 941.74 535.94 936.717 533.224 919.851C532.506 915.392 585.049 951.019 574.028 986.799C568.748 1003.97 547.269 969.934 544.142 954.197C538.657 965.372 557.932 999.563 557.932 999.563Z" fill="#F0CC69"/>
<path d="M771.026 1358.5C771.026 1358.5 784.611 1324.1 812.856 1319.38C841.101 1314.67 852.02 1322.46 879.547 1327.54C879.547 1327.54 864.528 1358.14 839.051 1359.98C810.498 1362.09 800.861 1343.89 771.026 1358.5Z" fill="#F0CC69"/>
<path d="M868.885 1376.03C868.885 1376.03 877.804 1347.22 904.819 1340.2C931.834 1333.17 938.344 1346.25 957.26 1341.79C962.232 1340.61 925.683 1401.76 884.468 1392.69C864.733 1388.33 901.692 1361.68 919.275 1356.81C906.101 1351.73 868.885 1376.03 868.885 1376.03Z" fill="#F0CC69"/>
<path d="M731.607 1050.98L776.461 1055.18L769.233 1091.89L714.024 1092.86L731.607 1050.98Z" fill="#2F333F"/>
<path d="M640.156 1122.64C640.156 1122.64 669.939 1103.27 690.444 1092.55C710.999 1081.89 758.621 1084.91 758.621 1084.91L811.165 1081.12L871.038 1072.61L867.809 1066.92C867.809 1066.92 856.788 1067.74 829.516 1068.15C802.245 1068.56 753.598 1062.36 753.598 1062.36C753.598 1062.36 720.432 1055.95 705.771 1060.82C691.11 1065.69 654.971 1080.86 654.971 1080.86" fill="#F0CC69"/>
<path d="M905.948 1293.24C905.948 1293.24 924.71 1290.17 944.343 1284.83C963.976 1279.5 1007.5 1280.07 991.196 1281.81C961.772 1285.04 939.678 1300.88 939.678 1300.88L926.863 1309.54" fill="#F0CC69"/>
<path d="M635.798 1297.39L697.415 1264.07C697.415 1264.07 795.068 1280.99 813.215 1290.27C831.362 1299.55 915.482 1302.72 915.482 1302.72L968.897 1343.02C968.897 1343.02 947.623 1301.7 904.461 1289.91C861.35 1278.12 788.353 1260.54 788.353 1260.54C788.353 1260.54 690.853 1216.4 656.559 1250.03" fill="#F0CC69"/>
<path d="M660.404 1013.56L709.769 994.437L724.993 945.329L674.091 960.348L660.404 1013.56Z" fill="#2F333F"/>
<path d="M1683.09 1152.32C1666.64 1127.72 1659.26 1094.81 1636.7 1097.99C1606.36 1097.99 1608.61 1130.54 1554.63 1127.77C1530.8 1159.76 1496.19 1152.37 1496.19 1185.44C1546.48 1169.91 1562.73 1172.88 1567.55 1164.52C1567.55 1159.14 1491.38 1172.83 1584.36 1152.32C1636.7 1131.61 1593.59 1152.32 1584.36 1185.44C1592.67 1207.74 1615.43 1226.14 1643.16 1238.7C1644.44 1237.42 1647.98 1236.65 1641.11 1229.32C1590.57 1197.64 1632.96 1178.98 1619.12 1176.36C1605.07 1170.98 1624.86 1144.53 1632.45 1142.17C1671.46 1129.97 1652.8 1165.34 1670.74 1172.88C1747.68 1168.83 1725.85 1229.63 1784.64 1212.09C1722.1 1212.04 1757.42 1142.69 1683.09 1152.32Z" fill="#F0CC69"/>
<path d="M1183.7 1213.89C1164.58 1227.88 1139.88 1208.35 1122.86 1242.18C1122.86 1259 1199.95 1246.8 1228.05 1213.89C1348.25 1125.31 1268.54 1218.14 1259.47 1222.6C1224.51 1259.05 1190.11 1299.14 1272.44 1250.34C1323.44 1212.71 1259.47 1287.29 1247.83 1308.57C1293.3 1303.03 1289.46 1303.75 1359.89 1318.72C1368.3 1290.68 1259.47 1292.63 1329.39 1250.28C1329.39 1213.84 1366.55 1208.3 1308.88 1213.84C1306.78 1190.97 1315.75 1168.11 1338.1 1162.83C1352.71 1159.4 1338.1 1202.2 1387.67 1202.2C1387.67 1131.77 1266.75 1120.64 1352.71 1107.52C1430.02 1123.62 1380.09 1139.87 1429.66 1139.87C1472 1213.48 1499.17 1167.29 1488.1 1213.84C1504.55 1234.75 1514.34 1264.69 1533.41 1264.69C1536.13 1252.28 1527.52 1258.95 1527.52 1232.7C1552.84 1258.95 1537.87 1258.95 1628.09 1258.95C1628.09 1232.7 1552.84 1264.69 1514.39 1172.98C1481.69 1162.83 1468 1148.22 1456.16 1111.78C1449.5 1091.27 1387.73 1098.45 1359.99 1059.44C1300.07 1059.44 1261.06 1170.21 1224.66 1172.98C1212 1174.67 1201.9 1200.56 1183.7 1213.89Z" fill="#F0CC69"/>
<path d="M586.843 1042.83C586.843 1042.83 571.977 1049.18 596.942 1019.81C621.906 990.439 619.958 989.977 635.08 981.314C650.203 972.702 711.46 960.194 711.46 960.194C711.46 960.194 738.219 952.146 756.929 937.639C787.071 914.264 792.044 888.992 792.044 888.992L804.449 840.293L804.91 876.228C804.91 876.228 794.299 913.597 784.201 931.693C769.54 957.99 737.706 972.702 737.706 972.702C737.706 972.702 714.433 982.493 695.672 989.567C683.318 994.232 658.866 1000.13 631.543 1027.35C607.143 1051.64 555.317 1137.92 555.317 1137.92L586.843 1042.83Z" fill="#F0CC69"/>
<path d="M743.448 1530.99C743.448 1530.99 720.636 1516.54 721.354 1491.93C722.071 1467.33 735.092 1464.97 735.912 1447.9C736.117 1443.39 780.1 1489.11 761.85 1521.82C753.085 1537.5 739.193 1499.77 739.398 1483.73C731.709 1493.57 743.448 1530.99 743.448 1530.99Z" fill="#F0CC69"/>
<path d="M588.996 1174.21C588.996 1174.21 601.043 1172.11 626.828 1138.23C652.612 1104.34 682.293 1055.54 684.497 1018.84C654.458 1108.55 588.996 1174.21 588.996 1174.21Z" fill="#2F333F"/>
<path d="M699.773 930.36C699.773 930.36 704.13 843.625 796.965 820.199C691.366 839.165 699.773 930.36 699.773 930.36Z" fill="#2F333F"/>
<path d="M683.266 1217.27L751.291 1103.57C751.342 1103.57 712.127 1201.69 683.266 1217.27Z" fill="#2F333F"/>
<path d="M563.16 1136.69C563.16 1136.69 608.578 1012.48 652.715 994.796C696.851 977.059 599.351 979.007 563.16 1136.69Z" fill="#2F333F"/>
<path d="M762.415 1286.58C766.516 1282.84 844.536 1250.34 844.536 1250.34L888.724 1283.09L815.625 1306.83L762.415 1286.58Z" fill="#2F333F"/>
<path d="M1003.65 1135.25C1003.65 1135.25 995.758 1189.74 976.381 1206.51C957.004 1223.27 868.322 1253.26 868.322 1253.26L801.887 1274.58C801.887 1274.58 772.975 1280.43 745.448 1317.08C717.92 1353.73 627.341 1448.67 595.558 1544.94C577.976 1598.15 619.241 1698.67 619.241 1698.67C619.241 1698.67 666.658 1513.36 696.903 1457.89C714.793 1425.09 772.309 1329.84 772.309 1329.84C772.309 1329.84 803.886 1296.32 819.931 1295.19C835.976 1294.06 913.432 1261.05 937.064 1249.1C960.644 1237.16 992.17 1209.94 992.17 1209.94C992.17 1209.94 1015.7 1147.86 1003.65 1135.25Z" fill="#F0CC69"/>
<path d="M837.206 1279.45C837.206 1279.45 933.475 1241.01 948.495 1232.7C963.514 1224.4 903.077 1266.64 837.206 1279.45Z" fill="#2F333F"/>
<path d="M1567.27 1832C1537.95 1832 1492.38 1837.54 1492.38 1837.54C1492.38 1837.54 1537.95 1843.07 1567.27 1843.07C1596.39 1843.07 1641.71 1837.54 1641.71 1837.54C1641.71 1837.54 1596.44 1832 1567.27 1832Z" fill="#F0CC69"/>
<path d="M1489.92 1773.05C1412 1773.05 1290.97 1778.59 1290.97 1778.59C1290.97 1778.59 1412.05 1784.12 1489.92 1784.12C1567.33 1784.12 1687.64 1778.59 1687.64 1778.59C1687.64 1778.59 1567.38 1773.05 1489.92 1773.05Z" fill="#F0CC69"/>
<path d="M1329.37 1728.81C1254.73 1728.81 1138.73 1734.35 1138.73 1734.35C1138.73 1734.35 1254.68 1739.88 1329.37 1739.88C1403.54 1739.88 1518.78 1734.35 1518.78 1734.35C1518.78 1734.35 1403.54 1728.86 1329.37 1728.81Z" fill="#F0CC69"/>
<path d="M1637.25 1699.34C1611.1 1699.34 1570.5 1704.87 1570.5 1704.87C1570.5 1704.87 1611.1 1710.41 1637.25 1710.41C1663.24 1710.41 1703.58 1704.87 1703.58 1704.87C1703.58 1704.87 1663.18 1699.39 1637.25 1699.34Z" fill="#F0CC69"/>
<path d="M1244.79 1677.24C1166.87 1677.24 1045.84 1682.78 1045.84 1682.78C1045.84 1682.78 1166.92 1688.31 1244.79 1688.31C1322.19 1688.31 1442.5 1682.78 1442.5 1682.78C1442.5 1682.78 1322.19 1677.24 1244.79 1677.24Z" fill="#F0CC69"/>
<path d="M1515.86 1625.67C1452.14 1625.67 1353.15 1631.21 1353.15 1631.21C1353.15 1631.21 1452.14 1636.75 1515.86 1636.75C1579.17 1636.75 1677.54 1631.21 1677.54 1631.21C1677.54 1631.21 1579.17 1625.67 1515.86 1625.67Z" fill="#F0CC69"/>
<path d="M1205.21 1625.67C1170.97 1625.67 1117.81 1631.21 1117.81 1631.21C1117.81 1631.21 1171.02 1636.75 1205.21 1636.75C1239.2 1636.75 1292.05 1631.21 1292.05 1631.21C1292.05 1631.21 1239.2 1625.67 1205.21 1625.67Z" fill="#F0CC69"/>
<path d="M1580.29 1574.1C1531.7 1574.1 1456.24 1579.64 1456.24 1579.64C1456.24 1579.64 1531.75 1585.18 1580.29 1585.18C1628.58 1585.18 1703.58 1579.64 1703.58 1579.64C1703.58 1579.64 1628.53 1574.1 1580.29 1574.1Z" fill="#F0CC69"/>
<path d="M1313.53 1574.1C1277.08 1574.1 1220.49 1579.64 1220.49 1579.64C1220.49 1579.64 1277.08 1585.18 1313.53 1585.18C1349.72 1585.18 1405.95 1579.64 1405.95 1579.64C1405.95 1579.64 1349.72 1574.1 1313.53 1574.1Z" fill="#F0CC69"/>
<path d="M1520.93 1522.53C1459.21 1522.53 1363.3 1528.07 1363.3 1528.07C1363.3 1528.07 1459.21 1533.61 1520.93 1533.61C1582.24 1533.61 1677.54 1528.07 1677.54 1528.07C1677.54 1528.07 1582.24 1522.53 1520.93 1522.53Z" fill="#F0CC69"/>
<path d="M1639.6 1480.5C1609.41 1480.5 1562.51 1483.99 1562.51 1483.99C1562.51 1483.99 1609.41 1487.47 1639.6 1487.47C1669.59 1487.47 1716.19 1483.99 1716.19 1483.99C1716.19 1483.99 1669.59 1480.5 1639.6 1480.5Z" fill="#F0CC69"/>
<path d="M850.79 1763.21C850.79 1842.1 884.52 1968.72 1050.92 2039.66C1130.52 2070.01 1216.95 2086.62 1307.22 2086.62C1536.98 2086.62 1741.61 1978.97 1873.41 1811.39C1873.41 1811.39 1870.79 1783.1 1863.57 1774.13C1850.6 1758.13 1828.14 1759.41 1833.63 1764.08C1853.21 1780.74 1845.37 1798.01 1839.93 1806.68C1833.89 1816.37 1827.94 1822.83 1817.12 1831.13C1642.63 1965.44 984.122 1904.79 984.122 1684.73C984.122 1555.34 1178.15 1459.38 1372.43 1459.38C1469.36 1459.38 1636.37 1445.08 1692.2 1424.78C1796.26 1386.85 1749.05 1329.33 1688.51 1310.82C1660.11 1302.11 1630.22 1300.93 1593.62 1300.93C1532.06 1300.93 1512.99 1297.14 1502.79 1295.14C1501.2 1294.83 1499.81 1294.57 1498.53 1294.37C1461.06 1288.27 1498.53 1307.03 1558.1 1307.03H1560.46C1799.39 1307.03 1779.8 1449.28 1372.48 1449.28C965.155 1449.23 850.79 1650.48 850.79 1763.21Z" fill="#F0CC69"/>
<path d="M1275.65 2002.7C879.291 1976.71 882.265 1736.4 882.265 1736.4C882.265 1736.4 836.642 2014.65 1275.03 2040.33C1538.41 2055.76 1721.57 1930.12 1722.96 1926.78C1728.9 1923.3 1558.61 2021.26 1275.65 2002.7Z" fill="#2F333F"/>
<path d="M958.542 1692.83C958.542 1498.24 1296.61 1458.3 1296.61 1458.3C1296.61 1458.3 922.761 1492.19 922.761 1700C922.761 1839.64 1127.86 1882.85 1127.86 1882.85C1127.86 1882.85 958.542 1834.46 958.542 1692.83Z" fill="#2F333F"/>
<path d="M1711.58 1329.02C1711.58 1329.02 1744.18 1345.94 1744.18 1366.55C1744.18 1399.25 1686.61 1416.06 1686.61 1416.06C1686.61 1416.06 1733.57 1397.76 1733.57 1365.06C1733.62 1343.48 1711.58 1329.02 1711.58 1329.02Z" fill="#2F333F"/>
<path d="M1156.16 773.243C1156.72 807.435 1157.23 807.947 1191.68 808.511C1157.23 809.075 1156.72 809.588 1156.16 843.779C1155.54 809.588 1155.08 809.075 1120.63 808.511C1155.08 807.947 1155.54 807.486 1156.16 773.243Z" fill="#F0CC69"/>
<path d="M1130.27 930.77C1130.83 964.962 1131.35 965.474 1165.79 966.038C1131.35 966.602 1130.83 967.115 1130.27 1001.31C1129.65 967.115 1129.19 966.602 1094.74 966.038C1129.19 965.423 1129.65 964.962 1130.27 930.77Z" fill="#F0CC69"/>
<path d="M1286.51 868.692C1287.08 902.884 1287.59 903.396 1322.04 903.96C1287.59 904.524 1287.08 905.037 1286.51 939.228C1285.9 905.037 1285.44 904.524 1250.99 903.96C1285.44 903.396 1285.9 902.935 1286.51 868.692Z" fill="#F0CC69"/>
<path d="M2114.36 2404L2159.38 2367.41M2159.38 2367.41L2044.91 2232.42M2159.38 2367.41L2202.53 2329.07M2044.91 2232.42L1894.22 2054.75M2044.91 2232.42C2186.13 2115.54 2295.96 1969.87 2295.96 1969.87M1894.22 2054.75L1848.85 2090.88M1894.22 2054.75L1936.97 2016.12" stroke="#F0CC69" stroke-width="17"/>
<path d="M2415.19 2144.3L2453.57 2100.79M2453.57 2100.79L2318.43 1986.51L2140.54 1836.07M2453.57 2100.79L2489.81 2055.87M2140.54 1836.07L2101.73 1879.18M2140.54 1836.07L2176.34 1790.93" stroke="#F0CC69" stroke-width="17"/>
<path d="M1720.62 2613.76C1768.79 2598.6 1829.04 2572.54 1829.04 2572.54" stroke="#F0CC69" stroke-width="17"/>
<path d="M1629.75 2211.03C1685.48 2361.59 1775.29 2594.4 1775.29 2594.4" stroke="#F0CC69" stroke-width="17"/>
<path d="M1462.16 2333.12L1450.91 2258.45C1649.95 2229.13 1796.2 2127.25 1796.2 2127.25L1836.87 2190.86" stroke="#F0CC69" stroke-width="17"/>
<path d="M1096.19 2245.11C1096.19 2245.11 1118 2250.6 1154.13 2256.91M1154.13 2256.91L1103.09 2555.9M1154.13 2256.91C1225.66 2270.88 1317.22 2269.92 1317.22 2269.92C1437.29 2277.83 1424.62 2446.86 1277.37 2487.35M1103.09 2555.9L1085.03 2661.06M1103.09 2555.9C1103.09 2555.9 1180.77 2507.46 1277.37 2487.35M1085.03 2661.06C1085.03 2661.06 1050.61 2655.18 1028.22 2650.05M1085.03 2661.06C1085.03 2661.06 1130.77 2668.7 1158.73 2671.45M1277.37 2487.35C1322.77 2529.6 1340.11 2617.42 1374.43 2678.15C1374.43 2678.15 1401.21 2676.73 1431.39 2674.06" stroke="#F0CC69" stroke-width="17"/>
<path d="M945.223 2512.46C924.141 2583.99 784.224 2568.12 710.622 2538.21C609.272 2497.02 631.106 2350.92 791.907 2352.73C874.937 2353.67 970.269 2382.43 998.621 2343.23M945.223 2512.46L998.621 2343.23M945.223 2512.46C915.958 2611.75 912.712 2619.16 942.186 2628.38M998.621 2343.23L1030.51 2242.19C1040.85 2216.75 867.199 2134.58 806.232 2149.89L785.273 2182.87" stroke="#F0CC69" stroke-width="17"/>
<path d="M222.875 2109.75L560.551 1877.22" stroke="#F0CC69" stroke-width="17"/>
<path d="M197.145 2058.09C300.026 2278.2 503.485 2405.65 503.485 2405.65L547.732 2354.88" stroke="#F0CC69" stroke-width="17"/>
<path d="M369.34 2008.88C445.574 2122.01 547.732 2211.21 547.732 2211.21" stroke="#F0CC69" stroke-width="17"/>
<path d="M528.979 1828.2C623.709 1989.5 761.112 2086.68 761.112 2086.68L721.922 2138.68" stroke="#F0CC69" stroke-width="17"/>
<path d="M2175.29 909.186C2175.29 909.186 2189.47 936.253 2197.32 954.01M2197.32 954.01L2328.92 893.491M2197.32 954.01C2208.67 977.837 2221.95 1012.45 2221.95 1012.45M2448.62 766.286C2448.62 766.286 2464.79 797.072 2477.59 825.19M2477.59 825.19C2523.82 921.882 2554.36 1041.08 2554.36 1041.08L2506.99 1053.3M2477.59 825.19L2328.92 893.491M2328.92 893.491C2328.92 893.491 2365.79 974.149 2383.9 1038.74" stroke="#F0CC69" stroke-width="17"/>
<circle cx="2203.24" cy="668.542" r="154.267" transform="rotate(-45 2203.24 668.542)" stroke="#F0CC69" stroke-width="17"/>
<path d="M1586.43 416.803L1573.18 462.76C1628.81 532.488 1770.43 603.787 1813.01 504.302C1855.58 404.817 1591.28 355.643 1631.68 261.231C1679.49 149.508 1881.76 263.606 1904.43 349.408L1878.92 393.106" stroke="#F0CC69" stroke-width="17"/>
<path d="M1086.84 482.908C1104.72 478.248 1122.15 474.542 1136.84 471.746M1136.84 471.746C1160.36 467.268 1176.84 465.12 1176.84 465.12M1136.84 471.746V159.469M1413.89 461.845C1413.89 461.845 1431.55 463.901 1453.89 467.422M1453.89 467.422C1469.74 469.921 1487.96 473.158 1503.89 476.921M1453.89 467.422V156.347M1086.84 167.519C1106.25 163.854 1125.07 161.08 1136.84 159.469M1136.84 159.469C1144.42 158.432 1149.07 157.878 1149.07 157.878C1149.07 157.878 1260.17 305.906 1295.48 380.931C1330.79 305.906 1442.15 155.03 1442.15 155.03C1442.15 155.03 1446.78 155.519 1453.89 156.347M1503.89 163.298C1487.72 160.46 1466.75 157.847 1453.89 156.347" stroke="#F0CC69" stroke-width="17"/>
<path d="M775.204 628.448C775.204 628.448 797.601 611.85 815.248 600.946M815.248 600.946C925.972 528.904 1026.39 500.489 1026.39 500.489L1004.37 433.058M815.248 600.946L739.396 483.637M594.159 378.996C594.159 378.996 621.858 358.977 647.829 342.14M647.829 342.14C786.167 250.832 930.652 207.204 930.652 207.204L946.327 255.255M647.829 342.14L739.396 483.637M739.396 483.637C830.687 424.32 915.722 392.03 915.722 392.03" stroke="#F0CC69" stroke-width="17"/>
<circle cx="532.825" cy="633.217" r="154.267" transform="rotate(-45 532.825 633.217)" stroke="#F0CC69" stroke-width="17"/>
<path d="M139.299 1027.6C148.728 993.788 159.715 963.038 159.715 963.038M159.715 963.038C159.715 963.038 194.348 846.951 244.692 793.358C303.804 730.431 429.045 799.044 400.79 874.515C385.681 947.263 334.91 1024.04 334.91 1024.04M159.715 963.038L334.91 1024.04M334.91 1024.04L450.879 1064.44M450.879 1064.44C443.297 1085.74 435.593 1112.47 435.593 1112.47M450.879 1064.44C459.907 1037.28 474.263 1004.23 474.263 1004.23" stroke="#F0CC69" stroke-width="17"/>
</g>
<defs>
<clipPath id="clip0_219_152">
<rect width="2699" height="2852" fill="white"/>
</clipPath>
</defs>
</svg>
