<svg width="2653" height="2795" viewBox="0 0 2653 2795" fill="none" xmlns="http://www.w3.org/2000/svg">
<g clip-path="url(#clip0_219_152)">
<path d="M1272.94 2116.16C1696.53 2116.16 2039.92 1772.78 2039.92 1349.19C2039.92 925.598 1696.53 582.211 1272.94 582.211C849.352 582.211 505.965 925.598 505.965 1349.19C505.965 1772.78 849.352 2116.16 1272.94 2116.16Z" fill="#F0CC69"/>
<path d="M1272.94 2098.22C1686.62 2098.22 2021.98 1762.87 2021.98 1349.19C2021.98 935.507 1686.62 600.152 1272.94 600.152C859.261 600.152 523.906 935.507 523.906 1349.19C523.906 1762.87 859.261 2098.22 1272.94 2098.22Z" fill="#2F333F"/>
<path d="M1566.36 628.244C1566.36 628.244 1635.41 674.277 1641.15 708.827C1646.89 743.377 1644.02 737.585 1644.02 737.585C1644.02 737.585 2209.7 1105.85 1867.32 1790.65C1847.17 1836.69 1933.5 1796.39 1933.5 1796.39C1933.5 1796.39 2449.65 890.088 1566.36 628.244Z" fill="#2F333F"/>
<path d="M1078.51 645.724C1072.05 647.364 1088.45 626.501 1058.51 634.498C1042.32 638.855 1033.09 634.908 1020.89 632.498C1013.66 631.063 1007.05 631.319 1004.13 631.319C980.135 631.319 979.007 628.654 949.173 633.37C894.528 641.982 391.344 936.121 515.038 1468.37C558.2 1517.27 558.2 1436.74 558.2 1436.74C558.2 1436.74 1659.51 499.936 1078.51 645.724Z" fill="#2F333F"/>
<path d="M1563.49 851.334C1555.34 799.868 1507 764.702 1455.48 772.904C1404.02 781.055 1368.9 829.394 1377.05 880.912C1385.2 932.379 1433.54 967.545 1485.06 959.343C1536.53 951.141 1571.69 902.801 1563.49 851.334Z" fill="#F0CC69"/>
<path d="M1539.25 831.906C1531.92 785.566 1488.39 753.937 1442.05 761.319C1395.71 768.649 1364.08 812.171 1371.47 858.511C1378.8 904.852 1422.32 936.48 1468.66 929.098C1514.95 921.717 1546.58 878.196 1539.25 831.906Z" fill="#2F333F"/>
<path d="M1812.68 1229.59C1812.68 1229.59 1811.34 1281.47 1861.58 1338.94C1893.51 1375.43 1970.36 1402.4 1981.84 1469.86C1983.89 1481.96 2009.06 1374.31 1976.66 1328.89C1940.73 1278.5 1857.58 1280.14 1812.68 1229.59Z" fill="#F0CC69"/>
<path d="M2001.42 1322.79C2001.42 1322.79 2004.75 1220.37 1952.21 1183.51C1898.13 1145.58 1799.45 1160.49 1775.25 1133.17C1768.49 1125.53 1809.91 1212.01 1851.48 1232.41C1903.05 1257.79 1971.54 1254.92 2001.42 1322.79Z" fill="#F0CC69"/>
<path d="M2001.16 1220.93C2001.16 1220.93 1997.52 1113.08 1947.95 1085.7C1898.33 1058.33 1834.31 1074.53 1781.1 1047.21C1750.65 1031.57 1744.6 1017.94 1744.6 1017.94C1744.6 1017.94 1759.88 1093.44 1811.29 1119.13C1834.31 1130.61 1909.66 1127.69 1947.95 1144.65C1980.71 1159.21 1991.07 1183.56 2001.16 1220.93Z" fill="#F0CC69"/>
<path d="M1661.35 1956.38C1661.35 1956.38 1907.25 1802.49 1850.1 1725.91C1747.11 1593.86 1737.32 1468.37 1737.32 1468.37C1737.32 1468.37 1691.9 1632.51 1728.71 1685.87C1765.46 1739.29 1811.96 1743.59 1814.16 1769.02C1818.67 1821.15 1739.47 1892.2 1661.35 1956.38Z" fill="#F0CC69"/>
<path d="M1735.01 918.846C1735.01 918.846 1743.52 1009.78 1788.22 1021.01C1829.23 1031.31 1921.71 1025.88 1954.52 1058.69C1958.57 1062.74 1961.44 1072.78 1962.87 1072.78C1971.28 1072.78 1929.19 969.185 1851.53 954.832C1762.9 938.377 1753.72 946.169 1735.01 918.846Z" fill="#F0CC69"/>
<path d="M1694.72 823.91C1694.72 823.91 1734.3 894.856 1765.82 909.875C1813.65 932.687 1881.06 907.261 1922.02 970.62C1937.86 995.072 1911.97 917.411 1855.84 869.943C1806.93 828.575 1746.6 855.231 1694.72 823.91Z" fill="#F0CC69"/>
<path d="M1638.59 671.406C1638.59 671.406 1672.06 705.239 1684.62 730.408C1697.54 756.295 1700.21 782.541 1713.38 792.281C1766.08 831.189 1838.56 799.458 1867.32 862.766C1872.29 873.684 1865.89 800.893 1812.68 741.942C1771.46 696.165 1684.62 705.546 1638.59 671.406Z" fill="#F0CC69"/>
<path d="M1819.49 1866.93C1854.71 1828.79 1877.32 1785.58 1898.13 1772.56C1937.91 1747.7 2011.16 1754.51 2062.99 1676.6C2062.99 1676.6 2030.02 1788.65 1940.68 1816.49C1924.48 1821.51 1884.24 1817.26 1866.24 1839.35C1860.09 1846.89 1846.35 1856.68 1839.18 1864.11C1828.46 1875.23 1812.16 1874.88 1819.49 1866.93Z" fill="#F0CC69"/>
<path d="M1970.61 1616.82C1970.61 1616.82 1991.01 1532.4 2027.31 1509.59C2092.87 1468.42 2112.2 1433 2120.5 1400.76C2126.14 1378.77 2117.22 1483.03 2106.35 1511.17C2080.88 1577.56 1970.61 1616.82 1970.61 1616.82Z" fill="#F0CC69"/>
<path d="M2029.92 1343.24C2029.92 1343.24 2116.25 1297.21 2097.54 1156.24C2087.49 1203.71 2067.34 1225.29 2067.34 1225.29C2067.34 1225.29 2016.95 1264.09 2029.92 1343.24Z" fill="#F0CC69"/>
<path d="M1977.79 1039.67C1977.79 1039.67 2044.33 967.75 1951.44 829.087C1958.1 867.226 1947.95 903.365 1947.95 903.365C1947.95 903.365 1925.4 938.736 1977.79 1039.67Z" fill="#F0CC69"/>
<path d="M1854.4 769.213C1854.4 769.213 1923.81 764.907 1934.99 832.522C1944.78 891.78 1921.4 904.698 1925.71 922.229C1930.06 939.761 1881.06 873.018 1880.29 848.361C1879.52 823.705 1875.98 783.618 1854.4 769.213Z" fill="#F0CC69"/>
<path d="M2006.91 1128.15C2006.91 1128.15 1977.22 1063.71 1998.29 1039.67C2018.44 1016.65 2025.62 962.009 2017 934.635C2007.83 905.775 2091.79 1051.2 2006.91 1128.15Z" fill="#F0CC69"/>
<path d="M2024.18 1251.18C2024.18 1251.18 2010.19 1167.41 2017.67 1151.42C2025.15 1135.43 2070.21 1100.11 2057.24 1020.29C2053.6 997.892 2120.91 1104.16 2076.67 1169.21C2051.09 1206.73 2030.49 1217.45 2024.18 1251.18Z" fill="#F0CC69"/>
<path d="M1909.05 1744.77C1909.05 1744.77 1927.3 1677.67 1956.52 1658.3C1973.48 1647.07 2064.68 1622.31 2106.92 1542.09C2124.6 1508.46 2079.39 1668.24 2008.34 1702.74C1961.54 1725.45 1937.5 1716.84 1909.05 1744.77Z" fill="#F0CC69"/>
<path d="M2036.28 1372.82C2058.48 1348.21 2100 1335.09 2112.66 1251.18C2128.6 1337.35 2103.33 1382.1 2103.33 1382.1C2103.33 1382.1 2056.22 1469.86 2022.49 1472.98C2009.78 1474.16 2019.72 1391.17 2036.28 1372.82Z" fill="#F0CC69"/>
<path d="M1872.55 1739.55C1872.55 1739.55 1919.15 1669.78 1904.79 1586.32C1893.98 1523.63 1768.13 1474.11 1786.84 1377.74C1800.47 1307.36 1717.07 1511.53 1840.05 1649.63C1875.42 1685.62 1872.55 1739.55 1872.55 1739.55Z" fill="#F0CC69"/>
<path d="M1926.37 1639.58C1926.37 1639.58 1986.91 1527.01 1968.77 1485.65C1946.31 1434.44 1814.42 1371.69 1819.03 1318.17C1822.36 1279.37 1798.32 1391.27 1831.39 1442.48C1862.76 1491.03 1947.9 1502.92 1926.37 1639.58Z" fill="#F0CC69"/>
<path d="M540.72 1694.95C390.318 1446.48 429.585 1186.12 560.917 1006.14C567.53 997.122 590.085 970.774 595.057 971.799C603.926 973.645 611.615 985.332 608.744 990.356C603.464 999.532 598.236 1008.91 593.161 1018.5C545.897 1107.9 479.36 1226.16 504.991 1344.68C515.089 1391.38 521.087 1435.56 530.16 1438.18C530.16 1438.18 547.999 1403.68 554.253 1382.71C580.038 1296.29 585.42 1234.98 647.293 1160.54C762.529 1021.93 760.838 1039.11 675.743 1189.1C641.398 1249.69 613.358 1322.33 602.439 1406.86C600.184 1424.29 586.497 1461.19 585.779 1479.6C584.549 1511.33 620.124 1528.24 620.124 1560.39C620.124 1570.43 621.56 1642.4 657.545 1721.5C678.306 1767.23 700.503 1814.44 729.722 1857.55C733.31 1862.83 756.275 1909.68 744.536 1901.48C711.37 1878.57 599.568 1786.5 540.72 1694.95Z" fill="#F0CC69"/>
<path d="M627.404 1744.11C594.852 1688.95 576.501 1546.34 671.489 1380.51C689.84 1348.47 682.1 1335.86 660.211 1363.08C545.334 1505.84 552.049 1646.56 552.049 1646.56" fill="#F0CC69"/>
<path d="M770.321 1900.15C754.481 1885.74 736.488 1858.37 732.9 1842.58C731.055 1834.43 729.671 1819.1 730.286 1810.44C732.9 1773.53 747.715 1757.03 761.658 1720.32C782.163 1666.55 792.312 1678.75 797.233 1658.65C814.867 1586.53 695.479 1700.23 695.479 1700.23C695.479 1700.23 664.312 1730.83 645.858 1775.48C645.858 1775.48 660.621 1808.9 689.738 1836.89C754.276 1898.92 854.031 1976.22 770.321 1900.15Z" fill="#F0CC69"/>
<path d="M752.38 1741.39C752.38 1741.39 806.256 1650.2 873.614 1571.77C895.554 1546.24 887.198 1529.68 889.402 1517.99C891.606 1506.3 892.58 1488.82 904.165 1477.03C915.751 1465.29 933.487 1454.99 933.487 1454.99L951.839 1445.61C945.329 1438.64 906.37 1457.5 906.37 1457.5C906.37 1457.5 877.151 1476.06 872.64 1492.46C868.129 1508.82 865.412 1526.91 863.72 1534.5C862.028 1542.08 834.04 1584.43 817.687 1599.81C801.283 1615.13 764.324 1645.07 764.324 1645.07L750.791 1700.94L752.38 1741.39Z" fill="#F0CC69"/>
<path d="M751.713 1671.73C751.713 1671.73 753.712 1604.47 742.281 1579.4C730.798 1554.34 694.146 1550.75 694.146 1550.75C694.146 1550.75 721.11 1535.63 736.642 1548.44C752.123 1561.31 735.463 1500.2 764.939 1486.16C764.939 1486.16 748.279 1544.85 754.43 1558.95C760.633 1573.05 772.577 1650.61 772.577 1650.61" fill="#F0CC69"/>
<path d="M645.96 1456.17C645.96 1456.17 710.14 1383.58 733.156 1380.66C756.173 1377.79 821.173 1393.84 821.173 1393.84C821.173 1393.84 894.99 1415.06 916.776 1396.19C938.562 1377.33 889.812 1406.75 853.57 1387.12C817.277 1367.49 759.505 1362.16 759.505 1362.16C759.505 1362.16 731.106 1344.21 689.892 1379.84" fill="#F0CC69"/>
<path d="M696.197 1139.01C706.398 1133.38 731.926 1089.85 731.875 1067.2C731.875 1067.45 739.103 1004.71 765.144 976.669C800.155 938.94 854.851 894.702 877.612 903.826C900.372 912.951 856.953 866.559 747.151 975.9C704.04 1018.86 696.094 1093.7 696.094 1093.7L635.913 1174.95" fill="#F0CC69"/>
<path d="M486.28 1294.29C486.28 1294.29 507.041 1234.98 526.88 1210.01C546.718 1185.05 573.271 1162.13 590.957 1143.94C608.642 1125.69 637.297 1082.78 640.578 1074.94C643.859 1067.09 663.543 1011.12 663.543 1011.12C663.543 1011.12 674.154 933.25 685.022 890.806C695.889 848.361 746.279 818.681 746.279 818.681L784.572 805.968C784.572 805.968 873.357 776.851 880.072 783.31C886.788 789.769 934.871 831.65 934.871 831.65L893.349 774.083L939.895 712.364L941.791 697.344C941.791 697.344 908.779 749.272 879.919 761.165C851.058 773.058 804.359 776.595 804.359 776.595L751.047 786.95C751.047 786.95 717.778 798.996 689.02 824.166C660.262 849.335 649.395 891.78 649.395 891.78L645.345 949.552L619.099 1021.22L579.577 1097.7C579.577 1097.7 535.799 1151.98 522.471 1161.21C509.194 1170.44 486.28 1294.29 486.28 1294.29Z" fill="#F0CC69"/>
<path d="M696.299 1231.95C696.299 1231.95 767.348 1195.76 778.42 1180.95C789.442 1166.08 823.121 1114.51 823.121 1114.51L817.072 1139.83L798.976 1172.49L832.399 1168.85L868.538 1165.93L847.829 1176.23L800.924 1185.41C800.924 1185.41 750.995 1235.18 717.111 1240.56" fill="#F0CC69"/>
<path d="M569.427 1388.56C569.427 1388.56 553.689 1345.7 552.459 1285.67C552.459 1285.67 561.225 1304.54 572.246 1335.3C587.676 1378.36 589.367 1344.52 589.367 1344.52" fill="#F0CC69"/>
<path d="M764.426 793.255C764.426 793.255 795.337 756.449 800.412 743.224C805.487 729.998 817.021 723.744 817.021 723.744L814.099 739.328L795.337 782.234" fill="#F0CC69"/>
<path d="M504.478 1111.79C504.478 1111.79 517.089 1025.32 519.703 1014.19C522.368 1003.07 543.591 974.67 543.591 974.67C543.591 974.67 590.905 941.555 594.186 945.041C597.416 948.527 559.431 972.978 547.641 988.254C535.85 1003.53 533.902 1027.01 533.902 1027.01L536.619 1046.18L504.478 1111.79Z" fill="#F0CC69"/>
<path d="M794.158 1181.77C794.158 1181.77 834.654 1206.12 854.031 1190.69C873.408 1175.21 894.733 1150.45 894.733 1150.45C894.733 1150.45 822.352 1138.96 794.158 1181.77Z" fill="#F0CC69"/>
<path d="M911.752 782.387C911.752 782.387 937.383 821.961 961.629 816.528C985.876 811.094 1015.92 798.125 1015.92 798.125C1015.92 798.125 955.939 756.244 911.752 782.387Z" fill="#F0CC69"/>
<path d="M871.511 749.067C871.511 749.067 915.699 732.305 915.442 707.545C915.135 682.786 908.625 650.799 908.625 650.799C908.625 650.799 855.005 700.574 871.511 749.067Z" fill="#F0CC69"/>
<path d="M787.033 1036.18C787.033 1036.18 834.142 1032.19 840.703 1008.35C847.265 984.461 849.879 951.961 849.879 951.961C849.879 951.961 784.623 985.025 787.033 1036.18Z" fill="#F0CC69"/>
<path d="M940.868 1300.44C940.868 1300.44 948.558 1346.93 972.958 1351.55C997.359 1356.16 1030.11 1356.21 1030.11 1356.21C1030.11 1356.21 991.874 1294.03 940.868 1300.44Z" fill="#F0CC69"/>
<path d="M908.42 1480.31C908.42 1480.31 947.071 1507.43 967.525 1493.34C987.978 1479.24 1010.94 1456.02 1010.94 1456.02C1010.94 1456.02 939.587 1439.56 908.42 1480.31Z" fill="#F0CC69"/>
<path d="M987.978 1155.26C987.978 1155.26 1032.73 1140.04 1033.29 1115.28C1033.86 1090.52 1028.47 1058.33 1028.47 1058.33C1028.47 1058.33 973.215 1106.26 987.978 1155.26Z" fill="#F0CC69"/>
<path d="M553.946 961.957C553.946 961.957 595.365 939.197 591.623 914.745C587.881 890.293 576.962 859.536 576.962 859.536C576.962 859.536 530.878 916.18 553.946 961.957Z" fill="#F0CC69"/>
<path d="M844.343 1014.96C844.343 1014.96 891.042 1022.45 903.191 1000.86C915.34 979.283 925.798 948.373 925.798 948.373C925.798 948.373 854.39 964.725 844.343 1014.96Z" fill="#F0CC69"/>
<path d="M679.075 1209.86C679.075 1209.86 725.775 1217.34 737.924 1195.76C750.073 1174.18 760.53 1143.27 760.53 1143.27C760.53 1143.27 689.123 1159.67 679.075 1209.86Z" fill="#F0CC69"/>
<path d="M856.031 1394.76C856.031 1394.76 883.046 1433.41 907.088 1427.16C931.129 1420.9 960.707 1406.86 960.707 1406.86C960.707 1406.86 899.296 1367.08 856.031 1394.76Z" fill="#F0CC69"/>
<path d="M746.792 1640.35C746.792 1640.35 731.516 1595.76 706.654 1595.19C681.792 1594.63 649.497 1599.96 649.497 1599.96C649.497 1599.96 697.53 1655.07 746.792 1640.35Z" fill="#F0CC69"/>
<path d="M822.915 1059.66C822.915 1059.66 847.675 1033.57 883.045 1037.16C918.416 1040.75 919.646 1056.79 944.2 1059.71C950.659 1060.48 877.201 1108.82 833.065 1083.04C811.894 1070.68 868.743 1057.97 891.914 1059.97C878.944 1049.56 822.915 1059.66 822.915 1059.66Z" fill="#F0CC69"/>
<path d="M805.23 723.231C805.23 723.231 791.338 690.116 809.023 659.359C826.709 628.602 841.933 634.036 854.595 612.916C857.927 607.38 872.383 693.807 830.758 723.539C810.818 737.79 822.3 680.889 833.526 660.641C818.712 668.176 805.23 723.231 805.23 723.231Z" fill="#F0CC69"/>
<path d="M944.816 689.963C944.816 689.963 955.735 658.539 985.825 651.875C1015.92 645.211 1022.58 659.872 1043.55 655.617C1049.08 654.49 1006.38 720.566 961.322 708.981C939.69 703.444 981.519 675.456 1001.05 670.74C986.85 664.588 944.816 689.963 944.816 689.963Z" fill="#F0CC69"/>
<path d="M622.944 1314.59C622.944 1314.59 632.735 1282.8 662.569 1275.06C692.403 1267.32 699.58 1281.73 720.392 1276.81C725.877 1275.52 685.534 1342.98 640.065 1332.99C618.279 1328.17 659.083 1298.75 678.46 1293.41C664.056 1287.78 622.944 1314.59 622.944 1314.59Z" fill="#F0CC69"/>
<path d="M812.817 897.111C812.817 897.111 795.644 868.558 809.844 841.338C824.043 814.067 839.576 818.424 849.828 799.714C852.545 794.793 875.869 869.788 837.987 896.752C819.84 909.67 825.171 859.792 834.142 841.851C820.301 848.72 812.817 897.111 812.817 897.111Z" fill="#F0CC69"/>
<path d="M938.972 823.397C938.972 823.397 974.958 825.498 994.95 854.82C1014.94 884.142 1003.36 895.368 1016.89 915.975C1020.43 921.409 936.05 896.444 927.489 846.157C923.388 822.064 969.678 857.281 983.006 876.196C982.749 859.639 938.972 823.397 938.972 823.397Z" fill="#F0CC69"/>
<path d="M833.732 910.747C833.732 910.747 869.358 941.76 891.145 929.867C912.931 917.975 938.254 897.265 938.254 897.265C938.254 897.265 868.948 873.479 833.732 910.747Z" fill="#F0CC69"/>
<path d="M950.967 1258.92C950.967 1258.92 977.469 1234.62 1012.53 1240.62C1047.6 1246.66 1047.7 1262.76 1071.94 1267.37C1078.3 1268.6 1001.66 1311.72 959.425 1282.96C939.177 1269.17 996.795 1260.45 1019.71 1264.04C1007.56 1252.71 950.967 1258.92 950.967 1258.92Z" fill="#F0CC69"/>
<path d="M936.921 1193.56C936.921 1193.56 964.141 1155.06 949.993 1134.71C935.845 1114.36 912.521 1091.5 912.521 1091.5C912.521 1091.5 896.015 1162.54 936.921 1193.56Z" fill="#F0CC69"/>
<path d="M542.924 1293.36C542.924 1293.36 521.036 1268.25 530.263 1238.92C539.49 1209.65 555.535 1211.24 562.404 1190.99C564.198 1185.66 600.286 1255.48 567.684 1288.6C552.049 1304.49 548.614 1254.4 554.304 1235.18C541.899 1244.46 542.924 1293.36 542.924 1293.36Z" fill="#F0CC69"/>
<path d="M931.385 767.983C931.385 767.983 938.1 731.638 964.961 721.642C991.771 711.646 1003.97 717.234 1032.01 716.978C1032.01 716.978 1023.14 749.888 998.435 756.552C970.805 763.985 957.836 747.991 931.385 767.983Z" fill="#F0CC69"/>
<path d="M949.532 1203.66C949.532 1203.66 963.731 1169.52 992.027 1165.31C1020.32 1161.11 1031.09 1169.05 1058.57 1174.64C1058.57 1174.64 1043.03 1204.99 1017.5 1206.37C988.901 1207.96 979.571 1189.61 949.532 1203.66Z" fill="#F0CC69"/>
<path d="M825.735 1519.38C825.735 1519.38 789.237 1526.09 779.19 1552.8C769.142 1579.51 774.781 1591.65 774.525 1619.54C774.525 1619.54 807.589 1610.67 814.253 1586.12C821.737 1558.64 805.641 1545.78 825.735 1519.38Z" fill="#F0CC69"/>
<path d="M752.892 1522.25C752.892 1522.25 731.875 1491.8 743.716 1465.86C755.558 1439.92 768.168 1435.26 787.801 1415.37C787.801 1415.37 804.872 1444.89 792.159 1466.99C777.959 1491.64 757.403 1489.44 752.892 1522.25Z" fill="#F0CC69"/>
<path d="M810.1 1143.53C810.1 1143.53 809.588 1102.88 788.417 1096.57C767.246 1090.26 738.026 1087.14 738.026 1087.14C738.026 1087.14 763.709 1144.24 810.1 1143.53Z" fill="#F0CC69"/>
<path d="M669.284 1038.44C669.284 1038.44 709.935 1034.39 714.395 1012.81C718.854 991.278 719.418 962.008 719.418 962.008C719.418 962.008 664.568 992.457 669.284 1038.44Z" fill="#F0CC69"/>
<path d="M714.087 938.838C714.087 938.838 690.61 914.232 697.632 888.96C704.655 863.688 715.42 857.691 730.337 836.827C730.337 836.827 750.124 861.176 741.717 883.014C732.388 907.517 713.472 908.44 714.087 938.838Z" fill="#F0CC69"/>
<path d="M719.367 940.632C719.367 940.632 758.531 957.292 773.858 941.093C789.185 924.895 805.076 900.135 805.076 900.135C805.076 900.135 739.103 899.008 719.367 940.632Z" fill="#F0CC69"/>
<path d="M722.238 1533.22C722.238 1533.22 699.939 1517.94 677.486 1528.24C655.034 1538.5 657.956 1551.36 642.475 1558.8C638.425 1560.74 697.837 1583.2 720.905 1553.67C731.977 1539.52 691.686 1541.52 676.922 1547.98C683.074 1537.06 722.238 1533.22 722.238 1533.22Z" fill="#F0CC69"/>
<path d="M828.657 1416.75C828.657 1416.75 871.204 1437.31 868.744 1461.91C866.283 1486.52 857.005 1517.84 857.005 1517.84C857.005 1517.84 807.998 1463.65 828.657 1416.75Z" fill="#F0CC69"/>
<path d="M788.16 729.639C788.16 729.639 763.196 709.852 735.976 720.104C708.705 730.357 711.063 745.684 692.25 753.168C687.329 755.167 755.302 786.437 784.931 753.578C799.13 737.841 751.559 736.918 733.669 743.275C741.768 730.972 788.16 729.639 788.16 729.639Z" fill="#F0CC69"/>
<path d="M524.932 984.563C524.932 984.563 499.608 975.131 495.149 950.936C490.689 926.74 502.94 921.717 500.224 904.851C499.506 900.392 552.049 936.019 541.028 971.799C535.748 988.972 514.269 954.934 511.142 939.197C505.657 950.372 524.932 984.563 524.932 984.563Z" fill="#F0CC69"/>
<path d="M738.026 1343.5C738.026 1343.5 751.611 1309.1 779.856 1304.38C808.101 1299.67 819.02 1307.46 846.547 1312.54C846.547 1312.54 831.528 1343.14 806.051 1344.98C777.498 1347.09 767.861 1328.89 738.026 1343.5Z" fill="#F0CC69"/>
<path d="M835.885 1361.03C835.885 1361.03 844.804 1332.22 871.819 1325.2C898.834 1318.17 905.344 1331.25 924.26 1326.79C929.232 1325.61 892.683 1386.76 851.468 1377.69C831.733 1373.33 868.692 1346.68 886.275 1341.81C873.101 1336.73 835.885 1361.03 835.885 1361.03Z" fill="#F0CC69"/>
<path d="M698.607 1035.98L743.461 1040.18L736.233 1076.89L681.024 1077.86L698.607 1035.98Z" fill="#2F333F"/>
<path d="M607.156 1107.64C607.156 1107.64 636.939 1088.27 657.444 1077.55C677.999 1066.89 725.621 1069.91 725.621 1069.91L778.165 1066.12L838.038 1057.61L834.809 1051.92C834.809 1051.92 823.788 1052.74 796.516 1053.15C769.245 1053.56 720.598 1047.36 720.598 1047.36C720.598 1047.36 687.432 1040.95 672.771 1045.82C658.11 1050.69 621.971 1065.86 621.971 1065.86" fill="#F0CC69"/>
<path d="M872.948 1278.24C872.948 1278.24 891.71 1275.17 911.343 1269.83C930.976 1264.5 974.497 1265.07 958.196 1266.81C928.772 1270.04 906.678 1285.88 906.678 1285.88L893.863 1294.54" fill="#F0CC69"/>
<path d="M602.798 1282.39L664.415 1249.07C664.415 1249.07 762.068 1265.99 780.215 1275.27C798.362 1284.55 882.482 1287.72 882.482 1287.72L935.897 1328.02C935.897 1328.02 914.623 1286.7 871.461 1274.91C828.35 1263.12 755.353 1245.54 755.353 1245.54C755.353 1245.54 657.853 1201.4 623.559 1235.03" fill="#F0CC69"/>
<path d="M627.404 998.558L676.769 979.437L691.993 930.329L641.091 945.348L627.404 998.558Z" fill="#2F333F"/>
<path d="M1650.09 1137.32C1633.64 1112.72 1626.26 1079.81 1603.7 1082.99C1573.36 1082.99 1575.61 1115.54 1521.63 1112.77C1497.8 1144.76 1463.19 1137.37 1463.19 1170.44C1513.48 1154.91 1529.73 1157.88 1534.55 1149.52C1534.55 1144.14 1458.38 1157.83 1551.36 1137.32C1603.7 1116.61 1560.59 1137.32 1551.36 1170.44C1559.67 1192.74 1582.43 1211.14 1610.16 1223.7C1611.44 1222.42 1614.98 1221.65 1608.11 1214.32C1557.57 1182.64 1599.96 1163.98 1586.12 1161.36C1572.07 1155.98 1591.86 1129.53 1599.45 1127.17C1638.46 1114.97 1619.8 1150.34 1637.74 1157.88C1714.68 1153.83 1692.85 1214.63 1751.64 1197.09C1689.1 1197.04 1724.42 1127.69 1650.09 1137.32Z" fill="#F0CC69"/>
<path d="M1150.7 1198.89C1131.58 1212.88 1106.88 1193.35 1089.86 1227.18C1089.86 1244 1166.95 1231.8 1195.05 1198.89C1315.25 1110.31 1235.54 1203.14 1226.47 1207.6C1191.51 1244.05 1157.11 1284.14 1239.44 1235.34C1290.44 1197.71 1226.47 1272.29 1214.83 1293.57C1260.3 1288.03 1256.46 1288.75 1326.89 1303.72C1335.3 1275.68 1226.47 1277.63 1296.39 1235.28C1296.39 1198.84 1333.55 1193.3 1275.88 1198.84C1273.78 1175.97 1282.75 1153.11 1305.1 1147.83C1319.71 1144.4 1305.1 1187.2 1354.67 1187.2C1354.67 1116.77 1233.75 1105.64 1319.71 1092.52C1397.02 1108.62 1347.09 1124.87 1396.66 1124.87C1439 1198.48 1466.17 1152.29 1455.1 1198.84C1471.55 1219.75 1481.34 1249.69 1500.41 1249.69C1503.13 1237.28 1494.52 1243.95 1494.52 1217.7C1519.84 1243.95 1504.87 1243.95 1595.09 1243.95C1595.09 1217.7 1519.84 1249.69 1481.39 1157.98C1448.69 1147.83 1435 1133.22 1423.16 1096.78C1416.5 1076.27 1354.73 1083.45 1326.99 1044.44C1267.07 1044.44 1228.06 1155.21 1191.66 1157.98C1179 1159.67 1168.9 1185.56 1150.7 1198.89Z" fill="#F0CC69"/>
<path d="M553.843 1027.83C553.843 1027.83 538.977 1034.18 563.942 1004.81C588.906 975.439 586.958 974.977 602.08 966.314C617.203 957.702 678.46 945.194 678.46 945.194C678.46 945.194 705.219 937.146 723.929 922.639C754.071 899.264 759.044 873.992 759.044 873.992L771.449 825.293L771.91 861.228C771.91 861.228 761.299 898.597 751.201 916.693C736.54 942.99 704.706 957.702 704.706 957.702C704.706 957.702 681.433 967.493 662.672 974.567C650.318 979.232 625.866 985.127 598.543 1012.35C574.143 1036.64 522.317 1122.92 522.317 1122.92L553.843 1027.83Z" fill="#F0CC69"/>
<path d="M710.448 1515.99C710.448 1515.99 687.636 1501.54 688.354 1476.93C689.071 1452.33 702.092 1449.97 702.912 1432.9C703.117 1428.39 747.1 1474.11 728.85 1506.82C720.085 1522.5 706.193 1484.77 706.398 1468.73C698.709 1478.57 710.448 1515.99 710.448 1515.99Z" fill="#F0CC69"/>
<path d="M555.996 1159.21C555.996 1159.21 568.043 1157.11 593.828 1123.23C619.612 1089.34 649.293 1040.54 651.497 1003.84C621.458 1093.55 555.996 1159.21 555.996 1159.21Z" fill="#2F333F"/>
<path d="M666.773 915.36C666.773 915.36 671.13 828.625 763.965 805.199C658.366 824.165 666.773 915.36 666.773 915.36Z" fill="#2F333F"/>
<path d="M650.266 1202.27L718.291 1088.57C718.342 1088.57 679.127 1186.69 650.266 1202.27Z" fill="#2F333F"/>
<path d="M530.16 1121.69C530.16 1121.69 575.578 997.481 619.715 979.796C663.851 962.059 566.351 964.007 530.16 1121.69Z" fill="#2F333F"/>
<path d="M729.415 1271.58C733.516 1267.84 811.536 1235.34 811.536 1235.34L855.724 1268.09L782.625 1291.83L729.415 1271.58Z" fill="#2F333F"/>
<path d="M970.652 1120.25C970.652 1120.25 962.758 1174.74 943.381 1191.51C924.004 1208.27 835.322 1238.26 835.322 1238.26L768.887 1259.58C768.887 1259.58 739.975 1265.43 712.448 1302.08C684.92 1338.73 594.341 1433.67 562.558 1529.94C544.976 1583.15 586.241 1683.67 586.241 1683.67C586.241 1683.67 633.658 1498.36 663.903 1442.89C681.793 1410.09 739.309 1314.84 739.309 1314.84C739.309 1314.84 770.886 1281.32 786.931 1280.19C802.976 1279.06 880.432 1246.05 904.064 1234.1C927.644 1222.16 959.17 1194.94 959.17 1194.94C959.17 1194.94 982.699 1132.86 970.652 1120.25Z" fill="#F0CC69"/>
<path d="M804.206 1264.45C804.206 1264.45 900.475 1226.01 915.495 1217.7C930.514 1209.4 870.077 1251.64 804.206 1264.45Z" fill="#2F333F"/>
<path d="M1534.27 1817C1504.95 1817 1459.38 1822.54 1459.38 1822.54C1459.38 1822.54 1504.95 1828.07 1534.27 1828.07C1563.39 1828.07 1608.71 1822.54 1608.71 1822.54C1608.71 1822.54 1563.44 1817 1534.27 1817Z" fill="#F0CC69"/>
<path d="M1456.92 1758.05C1379 1758.05 1257.97 1763.59 1257.97 1763.59C1257.97 1763.59 1379.05 1769.12 1456.92 1769.12C1534.33 1769.12 1654.64 1763.59 1654.64 1763.59C1654.64 1763.59 1534.38 1758.05 1456.92 1758.05Z" fill="#F0CC69"/>
<path d="M1296.37 1713.81C1221.73 1713.81 1105.73 1719.35 1105.73 1719.35C1105.73 1719.35 1221.68 1724.88 1296.37 1724.88C1370.54 1724.88 1485.78 1719.35 1485.78 1719.35C1485.78 1719.35 1370.54 1713.86 1296.37 1713.81Z" fill="#F0CC69"/>
<path d="M1604.25 1684.34C1578.1 1684.34 1537.5 1689.87 1537.5 1689.87C1537.5 1689.87 1578.1 1695.41 1604.25 1695.41C1630.24 1695.41 1670.58 1689.87 1670.58 1689.87C1670.58 1689.87 1630.18 1684.39 1604.25 1684.34Z" fill="#F0CC69"/>
<path d="M1211.79 1662.24C1133.87 1662.24 1012.84 1667.78 1012.84 1667.78C1012.84 1667.78 1133.92 1673.31 1211.79 1673.31C1289.19 1673.31 1409.5 1667.78 1409.5 1667.78C1409.5 1667.78 1289.19 1662.24 1211.79 1662.24Z" fill="#F0CC69"/>
<path d="M1482.86 1610.67C1419.14 1610.67 1320.15 1616.21 1320.15 1616.21C1320.15 1616.21 1419.14 1621.75 1482.86 1621.75C1546.17 1621.75 1644.54 1616.21 1644.54 1616.21C1644.54 1616.21 1546.17 1610.67 1482.86 1610.67Z" fill="#F0CC69"/>
<path d="M1172.21 1610.67C1137.97 1610.67 1084.81 1616.21 1084.81 1616.21C1084.81 1616.21 1138.02 1621.75 1172.21 1621.75C1206.2 1621.75 1259.05 1616.21 1259.05 1616.21C1259.05 1616.21 1206.2 1610.67 1172.21 1610.67Z" fill="#F0CC69"/>
<path d="M1547.29 1559.1C1498.7 1559.1 1423.24 1564.64 1423.24 1564.64C1423.24 1564.64 1498.75 1570.18 1547.29 1570.18C1595.58 1570.18 1670.58 1564.64 1670.58 1564.64C1670.58 1564.64 1595.53 1559.1 1547.29 1559.1Z" fill="#F0CC69"/>
<path d="M1280.53 1559.1C1244.08 1559.1 1187.49 1564.64 1187.49 1564.64C1187.49 1564.64 1244.08 1570.18 1280.53 1570.18C1316.72 1570.18 1372.95 1564.64 1372.95 1564.64C1372.95 1564.64 1316.72 1559.1 1280.53 1559.1Z" fill="#F0CC69"/>
<path d="M1487.93 1507.53C1426.21 1507.53 1330.3 1513.07 1330.3 1513.07C1330.3 1513.07 1426.21 1518.61 1487.93 1518.61C1549.24 1518.61 1644.54 1513.07 1644.54 1513.07C1644.54 1513.07 1549.24 1507.53 1487.93 1507.53Z" fill="#F0CC69"/>
<path d="M1606.6 1465.5C1576.41 1465.5 1529.51 1468.99 1529.51 1468.99C1529.51 1468.99 1576.41 1472.47 1606.6 1472.47C1636.59 1472.47 1683.19 1468.99 1683.19 1468.99C1683.19 1468.99 1636.59 1465.5 1606.6 1465.5Z" fill="#F0CC69"/>
<path d="M817.79 1748.21C817.79 1827.1 851.52 1953.72 1017.92 2024.66C1097.52 2055.01 1183.95 2071.62 1274.22 2071.62C1503.98 2071.62 1708.61 1963.97 1840.41 1796.39C1840.41 1796.39 1837.79 1768.1 1830.57 1759.13C1817.6 1743.13 1795.14 1744.41 1800.63 1749.08C1820.21 1765.74 1812.37 1783.01 1806.93 1791.68C1800.89 1801.37 1794.94 1807.83 1784.12 1816.13C1609.63 1950.44 951.122 1889.79 951.122 1669.73C951.122 1540.34 1145.15 1444.38 1339.43 1444.38C1436.36 1444.38 1603.37 1430.08 1659.2 1409.78C1763.26 1371.85 1716.05 1314.33 1655.51 1295.82C1627.11 1287.11 1597.22 1285.93 1560.62 1285.93C1499.06 1285.93 1479.99 1282.14 1469.79 1280.14C1468.2 1279.83 1466.81 1279.57 1465.53 1279.37C1428.06 1273.27 1465.53 1292.03 1525.1 1292.03H1527.46C1766.39 1292.03 1746.8 1434.28 1339.48 1434.28C932.155 1434.23 817.79 1635.48 817.79 1748.21Z" fill="#F0CC69"/>
<path d="M1242.65 1987.7C846.291 1961.71 849.265 1721.4 849.265 1721.4C849.265 1721.4 803.642 1999.65 1242.03 2025.33C1505.41 2040.76 1688.57 1915.12 1689.96 1911.78C1695.9 1908.3 1525.61 2006.26 1242.65 1987.7Z" fill="#2F333F"/>
<path d="M925.542 1677.83C925.542 1483.24 1263.61 1443.3 1263.61 1443.3C1263.61 1443.3 889.761 1477.19 889.761 1685C889.761 1824.64 1094.86 1867.85 1094.86 1867.85C1094.86 1867.85 925.542 1819.46 925.542 1677.83Z" fill="#2F333F"/>
<path d="M1678.58 1314.02C1678.58 1314.02 1711.18 1330.94 1711.18 1351.55C1711.18 1384.25 1653.61 1401.06 1653.61 1401.06C1653.61 1401.06 1700.57 1382.76 1700.57 1350.06C1700.62 1328.48 1678.58 1314.02 1678.58 1314.02Z" fill="#2F333F"/>
<path d="M1123.16 758.243C1123.72 792.435 1124.23 792.947 1158.68 793.511C1124.23 794.075 1123.72 794.588 1123.16 828.779C1122.54 794.588 1122.08 794.075 1087.63 793.511C1122.08 792.947 1122.54 792.486 1123.16 758.243Z" fill="#F0CC69"/>
<path d="M1097.27 915.77C1097.83 949.962 1098.35 950.474 1132.79 951.038C1098.35 951.602 1097.83 952.115 1097.27 986.306C1096.65 952.115 1096.19 951.602 1061.74 951.038C1096.19 950.423 1096.65 949.962 1097.27 915.77Z" fill="#F0CC69"/>
<path d="M1253.51 853.692C1254.08 887.884 1254.59 888.396 1289.04 888.96C1254.59 889.524 1254.08 890.037 1253.51 924.228C1252.9 890.037 1252.44 889.524 1217.99 888.96C1252.44 888.396 1252.9 887.935 1253.51 853.692Z" fill="#F0CC69"/>
<path d="M2146.53 2335.15L1874.65 2028.12" stroke="#F0CC69" stroke-width="17"/>
<path d="M2102.42 2372.5C2144.78 2338.97 2188.82 2296.01 2188.82 2296.01" stroke="#F0CC69" stroke-width="17"/>
<path d="M1830.3 2065.2C1873.12 2032.64 1916.7 1988.71 1916.7 1988.71" stroke="#F0CC69" stroke-width="17"/>
<path d="M2436.17 2044.62L2121.86 1781.2" stroke="#F0CC69" stroke-width="17"/>
<path d="M2472.32 1999.52C2439.94 2042.77 2398.2 2087.97 2398.2 2087.97" stroke="#F0CC69" stroke-width="17"/>
<path d="M2083.79 1825.2C2121.11 1786.46 2156.89 1737.22 2156.89 1737.22" stroke="#F0CC69" stroke-width="17"/>
<path d="M2012.85 2190.62C2178.47 2058.45 2279.98 1914.57 2279.98 1914.57" stroke="#F0CC69" stroke-width="17"/>
<path d="M1714.23 2589.65C1763.94 2572.64 1821.76 2546.14 1821.76 2546.14" stroke="#F0CC69" stroke-width="17"/>
<path d="M1613.39 2188.97L1766.7 2569.83" stroke="#F0CC69" stroke-width="17"/>
<path d="M1449.07 2314.99L1435.65 2240.63C1634.74 2206.66 1778.44 2102.21 1778.44 2102.21L1820.43 2165.12" stroke="#F0CC69" stroke-width="17"/>
<path d="M1063.19 2230.11C1063.19 2230.11 1085 2235.6 1121.13 2241.91M1121.13 2241.91L1070.09 2540.9M1121.13 2241.91C1192.67 2255.88 1284.22 2254.92 1284.22 2254.92C1404.29 2262.83 1391.62 2431.86 1244.37 2472.35M1070.09 2540.9L1052.03 2646.06M1070.09 2540.9C1070.09 2540.9 1147.77 2492.47 1244.37 2472.35M1052.03 2646.06C1052.03 2646.06 1017.61 2640.18 995.224 2635.06M1052.03 2646.06C1052.03 2646.06 1097.78 2653.7 1125.74 2656.45M1244.37 2472.35C1289.78 2514.6 1307.11 2602.42 1341.44 2663.15C1341.44 2663.15 1368.21 2661.73 1398.39 2659.06" stroke="#F0CC69" stroke-width="17"/>
<path d="M912.289 2497.48C891.208 2569 751.226 2553.13 677.624 2523.21C576.274 2482.02 598.107 2335.93 758.909 2337.73C841.939 2338.67 941.835 2352.95 970.187 2313.75M912.289 2497.48L970.187 2313.75M912.289 2497.48C883.024 2596.77 879.713 2604.16 909.188 2613.38M970.187 2313.75L997.509 2227.19C1007.85 2201.75 834.201 2119.58 773.233 2134.89L750.897 2169.93" stroke="#F0CC69" stroke-width="17"/>
<path d="M175.705 2117.79L483.237 1850.16M511.151 2343.08L467.06 2391.78C467.06 2391.78 277.709 2277.7 133.821 2065.28M321.724 1990.72C399.967 2097.88 511.151 2184.16 511.151 2184.16M688.923 2123.68L728.113 2071.69C728.113 2071.69 536.349 1947.58 450.828 1796.27" stroke="#F0CC69" stroke-width="17"/>
<path d="M2142.29 894.189C2142.29 894.189 2156.47 921.256 2164.33 939.013M2164.33 939.013L2295.92 878.494M2164.33 939.013C2175.67 962.84 2188.96 997.455 2188.96 997.455M2415.62 751.289C2415.62 751.289 2431.8 782.075 2444.59 810.193M2444.59 810.193C2490.82 906.885 2521.36 1026.08 2521.36 1026.08L2473.99 1038.3M2444.59 810.193L2295.92 878.494M2295.92 878.494C2295.92 878.494 2332.79 959.152 2350.9 1023.74" stroke="#F0CC69" stroke-width="17"/>
<circle cx="2170.25" cy="653.545" r="154.267" transform="rotate(-45 2170.25 653.545)" stroke="#F0CC69" stroke-width="17"/>
<path d="M1553.43 401.806L1540.18 447.763C1595.82 517.491 1737.44 588.79 1780.01 489.305C1822.58 389.82 1558.29 340.646 1598.69 246.234C1646.49 134.511 1848.76 248.609 1871.43 334.41L1845.92 378.109" stroke="#F0CC69" stroke-width="17"/>
<path d="M1053.84 467.911C1071.72 463.251 1089.15 459.545 1103.84 456.748M1103.84 456.748C1127.36 452.271 1143.84 450.123 1143.84 450.123M1103.84 456.748V144.472M1380.89 446.848C1380.89 446.848 1398.55 448.904 1420.89 452.425M1420.89 452.425C1436.75 454.924 1454.96 458.161 1470.89 461.924M1420.89 452.425V141.35M1053.84 152.522C1073.25 148.857 1092.07 146.083 1103.84 144.472M1103.84 144.472C1111.42 143.435 1116.07 142.88 1116.07 142.88C1116.07 142.88 1227.17 290.909 1262.48 365.934C1297.79 290.909 1409.15 140.033 1409.15 140.033C1409.15 140.033 1413.79 140.522 1420.89 141.35M1470.89 148.301C1454.72 145.463 1433.76 142.85 1420.89 141.35" stroke="#F0CC69" stroke-width="17"/>
<path d="M742.207 613.451C742.207 613.451 764.604 596.853 782.251 585.949M782.251 585.949C892.975 513.907 993.392 485.492 993.392 485.492L971.376 418.061M782.251 585.949L706.399 468.64M561.162 363.999C561.162 363.999 588.861 343.98 614.832 327.143M614.832 327.143C753.17 235.835 897.655 192.207 897.655 192.207L913.33 240.258M614.832 327.143L706.399 468.64M706.399 468.64C797.69 409.323 882.725 377.033 882.725 377.033" stroke="#F0CC69" stroke-width="17"/>
<circle cx="499.828" cy="618.22" r="154.267" transform="rotate(-45 499.828 618.22)" stroke="#F0CC69" stroke-width="17"/>
<path d="M106.302 1012.6C115.731 978.791 126.718 948.041 126.718 948.041M126.718 948.041C126.718 948.041 161.351 831.954 211.695 778.361C270.807 715.434 396.048 784.047 367.793 859.518C352.684 932.266 301.913 1009.05 301.913 1009.05M126.718 948.041L301.913 1009.05M301.913 1009.05L417.882 1049.44M417.882 1049.44C410.3 1070.74 402.596 1097.47 402.596 1097.47M417.882 1049.44C426.91 1022.28 441.266 989.237 441.266 989.237" stroke="#F0CC69" stroke-width="17"/>
</g>
<defs>
<clipPath id="clip0_219_152">
<rect width="2653" height="2795" fill="white" transform="matrix(-1 0 0 1 2653 0)"/>
</clipPath>
</defs>
</svg>
