<svg width="2436" height="2639" viewBox="0 0 2436 2639" fill="none" xmlns="http://www.w3.org/2000/svg">
<rect width="2436" height="2639" fill="#2F333F"/>
<path d="M1199.94 2086.16C1623.53 2086.16 1966.92 1742.78 1966.92 1319.19C1966.92 895.598 1623.53 552.211 1199.94 552.211C776.353 552.211 432.965 895.598 432.965 1319.19C432.965 1742.78 776.353 2086.16 1199.94 2086.16Z" fill="#F0CC69"/>
<path d="M1199.94 2068.22C1613.62 2068.22 1948.98 1732.87 1948.98 1319.19C1948.98 905.507 1613.62 570.153 1199.94 570.153C786.261 570.153 450.907 905.507 450.907 1319.19C450.907 1732.87 786.261 2068.22 1199.94 2068.22Z" fill="#2F333F"/>
<path d="M1493.36 598.244C1493.36 598.244 1562.41 644.277 1568.15 678.827C1573.9 713.378 1571.02 707.585 1571.02 707.585C1571.02 707.585 2136.7 1075.85 1794.32 1760.65C1774.17 1806.69 1860.5 1766.39 1860.5 1766.39C1860.5 1766.39 2376.65 860.088 1493.36 598.244Z" fill="#2F333F"/>
<path d="M1005.51 615.724C999.047 617.365 1015.45 596.501 985.514 604.498C969.316 608.855 960.089 604.908 947.888 602.499C940.661 601.063 934.048 601.32 931.126 601.32C907.135 601.32 906.008 598.654 876.173 603.37C821.528 611.982 318.344 906.121 442.038 1438.37C485.201 1487.27 485.201 1406.74 485.201 1406.74C485.201 1406.74 1586.51 469.936 1005.51 615.724Z" fill="#2F333F"/>
<path d="M1490.49 821.335C1482.34 769.868 1434 734.702 1382.48 742.904C1331.02 751.055 1295.9 799.395 1304.05 850.913C1312.2 902.379 1360.54 937.545 1412.06 929.343C1463.53 921.141 1498.69 872.801 1490.49 821.335Z" fill="#F0CC69"/>
<path d="M1466.25 801.906C1458.92 755.566 1415.39 723.938 1369.05 731.319C1322.71 738.65 1291.08 782.171 1298.47 828.511C1305.8 874.852 1349.32 906.48 1395.66 899.099C1441.95 891.717 1473.58 848.196 1466.25 801.906Z" fill="#2F333F"/>
<path d="M1739.68 1199.59C1739.68 1199.59 1738.34 1251.47 1788.58 1308.94C1820.52 1345.43 1897.36 1372.4 1908.84 1439.86C1910.89 1451.96 1936.06 1344.31 1903.66 1298.89C1867.73 1248.5 1784.58 1250.14 1739.68 1199.59Z" fill="#F0CC69"/>
<path d="M1928.42 1292.79C1928.42 1292.79 1931.75 1190.37 1879.21 1153.51C1825.13 1115.58 1726.45 1130.49 1702.25 1103.17C1695.49 1095.53 1736.91 1182.01 1778.48 1202.41C1830.05 1227.79 1898.54 1224.92 1928.42 1292.79Z" fill="#F0CC69"/>
<path d="M1928.16 1190.93C1928.16 1190.93 1924.52 1083.08 1874.95 1055.7C1825.33 1028.33 1761.31 1044.53 1708.1 1017.21C1677.65 1001.57 1671.6 987.935 1671.6 987.935C1671.6 987.935 1686.88 1063.44 1738.29 1089.13C1761.31 1100.61 1836.66 1097.69 1874.95 1114.65C1907.71 1129.21 1918.07 1153.56 1928.16 1190.93Z" fill="#F0CC69"/>
<path d="M1588.35 1926.38C1588.35 1926.38 1834.25 1772.49 1777.1 1695.91C1674.11 1563.86 1664.32 1438.37 1664.32 1438.37C1664.32 1438.37 1618.9 1602.51 1655.71 1655.87C1692.46 1709.29 1738.96 1713.59 1741.16 1739.02C1745.67 1791.15 1666.47 1862.2 1588.35 1926.38Z" fill="#F0CC69"/>
<path d="M1662.01 888.846C1662.01 888.846 1670.52 979.785 1715.22 991.011C1756.23 1001.31 1848.71 995.881 1881.52 1028.69C1885.57 1032.74 1888.44 1042.79 1889.87 1042.79C1898.28 1042.79 1856.19 939.185 1778.53 924.832C1689.9 908.377 1680.72 916.169 1662.01 888.846Z" fill="#F0CC69"/>
<path d="M1621.72 793.91C1621.72 793.91 1661.3 864.856 1692.82 879.876C1740.65 902.687 1808.06 877.261 1849.02 940.621C1864.86 965.073 1838.97 887.411 1782.84 839.943C1733.93 798.575 1673.6 825.231 1621.72 793.91Z" fill="#F0CC69"/>
<path d="M1565.59 641.406C1565.59 641.406 1599.07 675.239 1611.62 700.408C1624.54 726.296 1627.21 752.542 1640.38 762.281C1693.08 801.189 1765.56 769.458 1794.32 832.766C1799.29 843.685 1792.89 770.893 1739.68 711.942C1698.46 666.166 1611.62 675.547 1565.59 641.406Z" fill="#F0CC69"/>
<path d="M1746.49 1836.93C1781.71 1798.79 1804.32 1755.58 1825.13 1742.56C1864.91 1717.7 1938.16 1724.51 1989.99 1646.6C1989.99 1646.6 1957.02 1758.65 1867.68 1786.49C1851.48 1791.51 1811.24 1787.26 1793.24 1809.35C1787.09 1816.89 1773.35 1826.68 1766.18 1834.11C1755.46 1845.24 1739.16 1844.88 1746.49 1836.93Z" fill="#F0CC69"/>
<path d="M1897.61 1586.82C1897.61 1586.82 1918.01 1502.4 1954.31 1479.59C2019.87 1438.42 2039.2 1403 2047.5 1370.76C2053.14 1348.77 2044.22 1453.03 2033.35 1481.17C2007.88 1547.56 1897.61 1586.82 1897.61 1586.82Z" fill="#F0CC69"/>
<path d="M1956.92 1313.24C1956.92 1313.24 2043.25 1267.21 2024.54 1126.24C2014.49 1173.71 1994.34 1195.29 1994.34 1195.29C1994.34 1195.29 1943.95 1234.09 1956.92 1313.24Z" fill="#F0CC69"/>
<path d="M1904.79 1009.67C1904.79 1009.67 1971.33 937.75 1878.44 799.087C1885.1 837.226 1874.95 873.365 1874.95 873.365C1874.95 873.365 1852.4 908.736 1904.79 1009.67Z" fill="#F0CC69"/>
<path d="M1781.4 739.214C1781.4 739.214 1850.81 734.908 1861.99 802.522C1871.78 861.78 1848.4 874.698 1852.71 892.23C1857.06 909.761 1808.06 843.018 1807.29 818.362C1806.52 793.705 1802.98 753.618 1781.4 739.214Z" fill="#F0CC69"/>
<path d="M1933.91 1098.15C1933.91 1098.15 1904.23 1033.71 1925.29 1009.67C1945.44 986.654 1952.62 932.009 1944 904.635C1934.83 875.775 2018.8 1021.2 1933.91 1098.15Z" fill="#F0CC69"/>
<path d="M1951.18 1221.18C1951.18 1221.18 1937.19 1137.41 1944.67 1121.42C1952.15 1105.43 1997.21 1070.11 1984.24 990.293C1980.6 967.892 2047.91 1074.16 2003.67 1139.21C1978.09 1176.73 1957.49 1187.45 1951.18 1221.18Z" fill="#F0CC69"/>
<path d="M1836.05 1714.77C1836.05 1714.77 1854.3 1647.67 1883.52 1628.3C1900.48 1617.07 1991.68 1592.31 2033.92 1512.09C2051.6 1478.46 2006.39 1638.24 1935.34 1672.74C1888.54 1695.45 1864.5 1686.84 1836.05 1714.77Z" fill="#F0CC69"/>
<path d="M1963.28 1342.82C1985.48 1318.21 2027 1305.09 2039.66 1221.18C2055.6 1307.35 2030.33 1352.1 2030.33 1352.1C2030.33 1352.1 1983.22 1439.86 1949.49 1442.98C1936.78 1444.16 1946.72 1361.17 1963.28 1342.82Z" fill="#F0CC69"/>
<path d="M1799.55 1709.55C1799.55 1709.55 1846.15 1639.78 1831.79 1556.32C1820.98 1493.63 1695.13 1444.11 1713.84 1347.74C1727.47 1277.36 1644.07 1481.53 1767.05 1619.63C1802.42 1655.62 1799.55 1709.55 1799.55 1709.55Z" fill="#F0CC69"/>
<path d="M1853.37 1609.58C1853.37 1609.58 1913.91 1497.01 1895.77 1455.65C1873.31 1404.44 1741.42 1341.69 1746.03 1288.17C1749.36 1249.37 1725.32 1361.27 1758.39 1412.48C1789.76 1461.03 1874.9 1472.92 1853.37 1609.58Z" fill="#F0CC69"/>
<path d="M467.72 1664.95C317.319 1416.48 356.585 1156.12 487.918 976.145C494.53 967.123 517.085 940.774 522.058 941.799C530.926 943.645 538.615 955.332 535.745 960.356C530.465 969.532 525.236 978.913 520.161 988.499C472.898 1077.9 406.36 1196.16 431.991 1314.68C442.09 1361.38 448.087 1405.56 457.161 1408.18C457.161 1408.18 475 1373.68 481.254 1352.71C507.038 1266.29 512.421 1204.98 574.293 1130.54C689.53 991.933 687.838 1009.11 602.744 1159.1C568.398 1219.69 540.358 1292.33 529.439 1376.86C527.184 1394.29 513.497 1431.19 512.779 1449.6C511.549 1481.33 547.125 1498.24 547.125 1530.39C547.125 1540.43 548.56 1612.4 584.546 1691.5C605.307 1737.23 627.503 1784.44 656.722 1827.55C660.31 1832.83 683.276 1879.68 671.537 1871.48C638.37 1848.57 526.569 1756.5 467.72 1664.95Z" fill="#F0CC69"/>
<path d="M554.404 1714.11C521.853 1658.95 503.501 1516.34 598.489 1350.51C616.841 1318.47 609.1 1305.86 587.211 1333.08C472.334 1475.84 479.049 1616.56 479.049 1616.56" fill="#F0CC69"/>
<path d="M697.321 1870.15C681.482 1855.74 663.489 1828.37 659.9 1812.58C658.055 1804.43 656.671 1789.1 657.286 1780.44C659.9 1743.53 674.715 1727.03 688.658 1690.32C709.163 1636.55 719.313 1648.75 724.234 1628.65C741.868 1556.53 622.479 1670.23 622.479 1670.23C622.479 1670.23 591.312 1700.83 572.858 1745.48C572.858 1745.48 587.621 1778.9 616.738 1806.89C681.277 1868.92 781.032 1946.22 697.321 1870.15Z" fill="#F0CC69"/>
<path d="M679.38 1711.39C679.38 1711.39 733.256 1620.2 800.614 1541.77C822.554 1516.24 814.198 1499.68 816.403 1487.99C818.607 1476.3 819.581 1458.82 831.166 1447.03C842.751 1435.3 860.488 1424.99 860.488 1424.99L878.839 1415.61C872.329 1408.64 833.37 1427.5 833.37 1427.5C833.37 1427.5 804.151 1446.06 799.64 1462.46C795.129 1478.82 792.412 1496.91 790.72 1504.5C789.029 1512.09 761.04 1554.43 744.687 1569.81C728.284 1585.13 691.324 1615.07 691.324 1615.07L677.791 1670.94L679.38 1711.39Z" fill="#F0CC69"/>
<path d="M678.714 1641.73C678.714 1641.73 680.713 1574.47 669.281 1549.4C657.799 1524.34 621.147 1520.75 621.147 1520.75C621.147 1520.75 648.11 1505.63 663.643 1518.44C679.124 1531.31 662.464 1470.2 691.939 1456.16C691.939 1456.16 675.279 1514.85 681.43 1528.95C687.633 1543.05 699.577 1620.61 699.577 1620.61" fill="#F0CC69"/>
<path d="M572.961 1426.17C572.961 1426.17 637.14 1353.58 660.157 1350.66C683.173 1347.79 748.173 1363.84 748.173 1363.84C748.173 1363.84 821.99 1385.06 843.776 1366.19C865.562 1347.33 816.812 1376.75 780.57 1357.12C744.277 1337.49 686.505 1332.16 686.505 1332.16C686.505 1332.16 658.106 1314.22 616.892 1349.84" fill="#F0CC69"/>
<path d="M623.197 1109.01C633.398 1103.38 658.926 1059.85 658.875 1037.2C658.875 1037.45 666.103 974.709 692.144 946.669C727.156 908.941 781.852 864.702 804.612 873.826C827.372 882.951 783.954 836.559 674.151 945.9C631.04 988.857 623.095 1063.7 623.095 1063.7L562.913 1144.95" fill="#F0CC69"/>
<path d="M413.281 1264.29C413.281 1264.29 434.042 1204.98 453.88 1180.01C473.718 1155.05 500.272 1132.13 517.957 1113.94C535.642 1095.69 564.298 1052.78 567.578 1044.94C570.859 1037.09 590.544 981.117 590.544 981.117C590.544 981.117 601.155 903.251 612.022 860.806C622.89 818.361 673.28 788.681 673.28 788.681L711.572 775.968C711.572 775.968 800.357 746.851 807.073 753.31C813.788 759.769 861.871 801.65 861.871 801.65L820.349 744.083L866.895 682.364L868.792 667.344C868.792 667.344 835.779 719.273 806.919 731.165C778.059 743.058 731.359 746.595 731.359 746.595L678.047 756.95C678.047 756.95 644.778 768.996 616.021 794.166C587.263 819.335 576.395 861.78 576.395 861.78L572.346 919.552L546.1 991.216L506.577 1067.7C506.577 1067.7 462.8 1121.98 449.472 1131.21C436.195 1140.44 413.281 1264.29 413.281 1264.29Z" fill="#F0CC69"/>
<path d="M623.3 1201.95C623.3 1201.95 694.348 1165.76 705.421 1150.95C716.442 1136.08 750.121 1084.51 750.121 1084.51L744.072 1109.83L725.977 1142.49L759.399 1138.85L795.539 1135.93L774.829 1146.23L727.925 1155.41C727.925 1155.41 677.996 1205.18 644.112 1210.56" fill="#F0CC69"/>
<path d="M496.427 1358.56C496.427 1358.56 480.69 1315.7 479.459 1255.67C479.459 1255.67 488.225 1274.54 499.246 1305.3C514.676 1348.36 516.368 1314.52 516.368 1314.52" fill="#F0CC69"/>
<path d="M691.427 763.255C691.427 763.255 722.338 726.449 727.412 713.224C732.487 699.998 744.021 693.744 744.021 693.744L741.099 709.328L722.338 752.234" fill="#F0CC69"/>
<path d="M431.479 1081.8C431.479 1081.8 444.089 995.317 446.703 984.193C449.369 973.069 470.591 944.67 470.591 944.67C470.591 944.67 517.906 911.555 521.186 915.041C524.416 918.527 486.431 942.979 474.641 958.255C462.851 973.531 460.903 997.008 460.903 997.008L463.62 1016.18L431.479 1081.8Z" fill="#F0CC69"/>
<path d="M721.158 1151.77C721.158 1151.77 761.655 1176.12 781.032 1160.69C800.409 1145.21 821.733 1120.45 821.733 1120.45C821.733 1120.45 749.352 1108.96 721.158 1151.77Z" fill="#F0CC69"/>
<path d="M838.752 752.388C838.752 752.388 864.383 791.962 888.63 786.528C912.877 781.094 942.916 768.125 942.916 768.125C942.916 768.125 882.94 726.244 838.752 752.388Z" fill="#F0CC69"/>
<path d="M798.511 719.068C798.511 719.068 842.699 702.305 842.443 677.546C842.135 652.786 835.625 620.799 835.625 620.799C835.625 620.799 782.005 670.574 798.511 719.068Z" fill="#F0CC69"/>
<path d="M714.033 1006.18C714.033 1006.18 761.142 1002.19 767.704 978.349C774.265 954.461 776.88 921.961 776.88 921.961C776.88 921.961 711.624 955.025 714.033 1006.18Z" fill="#F0CC69"/>
<path d="M867.869 1270.44C867.869 1270.44 875.558 1316.93 899.959 1321.55C924.359 1326.16 957.115 1326.21 957.115 1326.21C957.115 1326.21 918.874 1264.03 867.869 1270.44Z" fill="#F0CC69"/>
<path d="M835.42 1450.31C835.42 1450.31 874.072 1477.43 894.525 1463.34C914.978 1449.24 937.944 1426.02 937.944 1426.02C937.944 1426.02 866.587 1409.56 835.42 1450.31Z" fill="#F0CC69"/>
<path d="M914.978 1125.26C914.978 1125.26 959.73 1110.04 960.294 1085.28C960.857 1060.52 955.475 1028.33 955.475 1028.33C955.475 1028.33 900.215 1076.26 914.978 1125.26Z" fill="#F0CC69"/>
<path d="M480.946 931.957C480.946 931.957 522.366 909.197 518.623 884.745C514.881 860.293 503.963 829.536 503.963 829.536C503.963 829.536 457.879 886.181 480.946 931.957Z" fill="#F0CC69"/>
<path d="M771.343 984.962C771.343 984.962 818.042 992.446 830.191 970.865C842.34 949.284 852.798 918.373 852.798 918.373C852.798 918.373 781.39 934.725 771.343 984.962Z" fill="#F0CC69"/>
<path d="M606.076 1179.86C606.076 1179.86 652.775 1187.34 664.924 1165.76C677.073 1144.18 687.53 1113.27 687.53 1113.27C687.53 1113.27 616.123 1129.67 606.076 1179.86Z" fill="#F0CC69"/>
<path d="M783.031 1364.76C783.031 1364.76 810.046 1403.41 834.088 1397.16C858.13 1390.9 887.708 1376.86 887.708 1376.86C887.708 1376.86 826.296 1337.08 783.031 1364.76Z" fill="#F0CC69"/>
<path d="M673.792 1610.35C673.792 1610.35 658.516 1565.76 633.655 1565.19C608.793 1564.63 576.498 1569.96 576.498 1569.96C576.498 1569.96 624.53 1625.07 673.792 1610.35Z" fill="#F0CC69"/>
<path d="M749.916 1029.66C749.916 1029.66 774.675 1003.57 810.046 1007.16C845.416 1010.75 846.646 1026.79 871.201 1029.71C877.66 1030.48 804.202 1078.82 760.066 1053.04C738.894 1040.68 795.744 1027.97 818.914 1029.97C805.945 1019.56 749.916 1029.66 749.916 1029.66Z" fill="#F0CC69"/>
<path d="M732.23 693.232C732.23 693.232 718.338 660.117 736.024 629.36C753.709 598.603 768.934 604.036 781.595 582.917C784.927 577.38 799.383 663.807 757.759 693.539C737.818 707.79 749.301 650.889 760.527 630.641C745.712 638.177 732.23 693.232 732.23 693.232Z" fill="#F0CC69"/>
<path d="M871.816 659.963C871.816 659.963 882.735 628.54 912.826 621.876C942.916 615.211 949.58 629.872 970.546 625.618C976.082 624.49 933.382 690.566 888.323 678.981C866.69 673.445 908.52 645.456 928.05 640.74C913.851 634.588 871.816 659.963 871.816 659.963Z" fill="#F0CC69"/>
<path d="M549.944 1284.59C549.944 1284.59 559.735 1252.8 589.57 1245.06C619.404 1237.32 626.58 1251.73 647.393 1246.81C652.878 1245.52 612.535 1312.98 567.066 1302.99C545.28 1298.17 586.084 1268.75 605.461 1263.41C591.056 1257.78 549.944 1284.59 549.944 1284.59Z" fill="#F0CC69"/>
<path d="M739.818 867.111C739.818 867.111 722.645 838.558 736.844 811.338C751.044 784.067 766.576 788.424 776.828 769.714C779.545 764.793 802.869 839.789 764.987 866.752C746.84 879.67 752.172 829.793 761.142 811.851C747.302 818.72 739.818 867.111 739.818 867.111Z" fill="#F0CC69"/>
<path d="M865.972 793.397C865.972 793.397 901.958 795.499 921.95 824.82C941.942 854.142 930.357 865.368 943.89 885.975C947.427 891.409 863.05 866.445 854.49 816.157C850.389 792.064 896.678 827.281 910.006 846.196C909.75 829.639 865.972 793.397 865.972 793.397Z" fill="#F0CC69"/>
<path d="M760.732 880.747C760.732 880.747 796.359 911.76 818.145 899.868C839.931 887.975 865.254 867.265 865.254 867.265C865.254 867.265 795.949 843.48 760.732 880.747Z" fill="#F0CC69"/>
<path d="M877.967 1228.92C877.967 1228.92 904.47 1204.62 939.533 1210.62C974.596 1216.66 974.698 1232.76 998.945 1237.37C1005.3 1238.6 928.665 1281.72 886.425 1252.96C866.177 1239.17 923.795 1230.45 946.709 1234.04C934.56 1222.71 877.967 1228.92 877.967 1228.92Z" fill="#F0CC69"/>
<path d="M863.922 1163.56C863.922 1163.56 891.142 1125.06 876.993 1104.71C862.845 1084.36 839.521 1061.5 839.521 1061.5C839.521 1061.5 823.015 1132.54 863.922 1163.56Z" fill="#F0CC69"/>
<path d="M469.925 1263.36C469.925 1263.36 448.036 1238.25 457.263 1208.92C466.49 1179.65 482.535 1181.24 489.404 1160.99C491.198 1155.66 527.286 1225.48 494.684 1258.6C479.049 1274.49 475.615 1224.4 481.305 1205.18C468.899 1214.46 469.925 1263.36 469.925 1263.36Z" fill="#F0CC69"/>
<path d="M858.385 737.983C858.385 737.983 865.1 701.639 891.961 691.643C918.771 681.647 930.972 687.234 959.012 686.978C959.012 686.978 950.143 719.888 925.435 726.552C897.805 733.985 884.836 717.991 858.385 737.983Z" fill="#F0CC69"/>
<path d="M876.532 1173.66C876.532 1173.66 890.731 1139.52 919.028 1135.31C947.324 1131.11 958.089 1139.05 985.565 1144.64C985.565 1144.64 970.033 1174.99 944.505 1176.37C915.901 1177.96 906.571 1159.61 876.532 1173.66Z" fill="#F0CC69"/>
<path d="M752.736 1489.38C752.736 1489.38 716.237 1496.09 706.19 1522.8C696.143 1549.51 701.782 1561.66 701.525 1589.54C701.525 1589.54 734.589 1580.67 741.253 1556.12C748.737 1528.64 732.641 1515.78 752.736 1489.38Z" fill="#F0CC69"/>
<path d="M679.893 1492.25C679.893 1492.25 658.875 1461.8 670.717 1435.86C682.558 1409.92 695.169 1405.26 714.802 1385.37C714.802 1385.37 731.872 1414.89 719.159 1436.99C704.96 1461.64 684.404 1459.44 679.893 1492.25Z" fill="#F0CC69"/>
<path d="M737.101 1113.53C737.101 1113.53 736.588 1072.88 715.417 1066.57C694.246 1060.26 665.027 1057.14 665.027 1057.14C665.027 1057.14 690.709 1114.24 737.101 1113.53Z" fill="#F0CC69"/>
<path d="M596.285 1008.44C596.285 1008.44 636.935 1004.39 641.395 982.809C645.855 961.279 646.419 932.008 646.419 932.008C646.419 932.008 591.569 962.458 596.285 1008.44Z" fill="#F0CC69"/>
<path d="M641.088 908.838C641.088 908.838 617.61 884.233 624.633 858.961C631.656 833.689 642.421 827.691 657.338 806.827C657.338 806.827 677.125 831.177 668.718 853.014C659.388 877.517 640.473 878.44 641.088 908.838Z" fill="#F0CC69"/>
<path d="M646.367 910.632C646.367 910.632 685.531 927.292 700.858 911.094C716.186 894.895 732.077 870.136 732.077 870.136C732.077 870.136 666.103 869.008 646.367 910.632Z" fill="#F0CC69"/>
<path d="M649.238 1503.22C649.238 1503.22 626.939 1487.94 604.487 1498.24C582.034 1508.5 584.956 1521.36 569.475 1528.8C565.425 1530.74 624.837 1553.2 647.905 1523.67C658.978 1509.52 618.686 1511.52 603.923 1517.98C610.074 1507.06 649.238 1503.22 649.238 1503.22Z" fill="#F0CC69"/>
<path d="M755.657 1386.75C755.657 1386.75 798.205 1407.31 795.744 1431.91C793.283 1456.52 784.005 1487.84 784.005 1487.84C784.005 1487.84 734.999 1433.65 755.657 1386.75Z" fill="#F0CC69"/>
<path d="M715.161 699.639C715.161 699.639 690.196 679.852 662.976 690.105C635.705 700.357 638.063 715.684 619.25 723.168C614.329 725.168 682.302 756.437 711.931 723.578C726.131 707.841 678.56 706.918 660.67 713.275C668.769 700.972 715.161 699.639 715.161 699.639Z" fill="#F0CC69"/>
<path d="M451.932 954.564C451.932 954.564 426.609 945.131 422.149 920.936C417.689 896.74 429.941 891.717 427.224 874.852C426.506 870.392 479.049 906.019 468.028 941.799C462.748 958.972 441.27 924.934 438.143 909.197C432.658 920.372 451.932 954.564 451.932 954.564Z" fill="#F0CC69"/>
<path d="M665.027 1313.5C665.027 1313.5 678.611 1279.1 706.856 1274.39C735.101 1269.67 746.02 1277.46 773.548 1282.54C773.548 1282.54 758.528 1313.14 733.051 1314.98C704.498 1317.09 694.861 1298.89 665.027 1313.5Z" fill="#F0CC69"/>
<path d="M762.885 1331.03C762.885 1331.03 771.805 1302.22 798.82 1295.2C825.835 1288.17 832.345 1301.25 851.26 1296.79C856.233 1295.61 819.683 1356.76 778.469 1347.69C758.733 1343.33 795.693 1316.68 813.275 1311.81C800.101 1306.73 762.885 1331.03 762.885 1331.03Z" fill="#F0CC69"/>
<path d="M625.607 1005.98L670.461 1010.18L663.233 1046.89L608.024 1047.86L625.607 1005.98Z" fill="#2F333F"/>
<path d="M534.156 1077.64C534.156 1077.64 563.939 1058.27 584.444 1047.55C605 1036.89 652.622 1039.91 652.622 1039.91L705.165 1036.12L765.039 1027.61L761.809 1021.92C761.809 1021.92 750.788 1022.74 723.517 1023.15C696.246 1023.56 647.598 1017.36 647.598 1017.36C647.598 1017.36 614.432 1010.95 599.771 1015.82C585.11 1020.69 548.971 1035.86 548.971 1035.86" fill="#F0CC69"/>
<path d="M799.948 1248.24C799.948 1248.24 818.71 1245.17 838.343 1239.83C857.976 1234.5 901.498 1235.07 885.196 1236.81C855.772 1240.04 833.678 1255.88 833.678 1255.88L820.863 1264.54" fill="#F0CC69"/>
<path d="M529.799 1252.39L591.415 1219.07C591.415 1219.07 689.069 1235.99 707.215 1245.27C725.362 1254.55 809.482 1257.73 809.482 1257.73L862.897 1298.02C862.897 1298.02 841.623 1256.7 798.461 1244.91C755.35 1233.12 682.353 1215.54 682.353 1215.54C682.353 1215.54 584.854 1171.4 550.56 1205.03" fill="#F0CC69"/>
<path d="M554.404 968.558L603.769 949.437L618.994 900.329L568.091 915.348L554.404 968.558Z" fill="#2F333F"/>
<path d="M1577.09 1107.32C1560.64 1082.72 1553.26 1049.81 1530.7 1052.99C1500.36 1052.99 1502.61 1085.54 1448.63 1082.77C1424.8 1114.76 1390.19 1107.37 1390.19 1140.44C1440.48 1124.91 1456.73 1127.88 1461.55 1119.52C1461.55 1114.14 1385.38 1127.83 1478.36 1107.32C1530.7 1086.61 1487.59 1107.32 1478.36 1140.44C1486.67 1162.74 1509.43 1181.14 1537.16 1193.7C1538.44 1192.42 1541.98 1191.65 1535.11 1184.32C1484.57 1152.64 1526.96 1133.98 1513.12 1131.36C1499.07 1125.98 1518.86 1099.53 1526.45 1097.17C1565.46 1084.97 1546.8 1120.34 1564.74 1127.88C1641.68 1123.83 1619.85 1184.63 1678.64 1167.09C1616.1 1167.04 1651.42 1097.69 1577.09 1107.32Z" fill="#F0CC69"/>
<path d="M1077.7 1168.89C1058.58 1182.88 1033.88 1163.35 1016.86 1197.18C1016.86 1214 1093.95 1201.8 1122.05 1168.89C1242.25 1080.31 1162.54 1173.14 1153.47 1177.6C1118.51 1214.05 1084.11 1254.14 1166.44 1205.34C1217.44 1167.71 1153.47 1242.3 1141.83 1263.57C1187.3 1258.03 1183.46 1258.75 1253.89 1273.72C1262.3 1245.68 1153.47 1247.63 1223.39 1205.28C1223.39 1168.84 1260.55 1163.3 1202.89 1168.84C1200.78 1145.97 1209.75 1123.11 1232.1 1117.83C1246.71 1114.4 1232.1 1157.2 1281.67 1157.2C1281.67 1086.77 1160.75 1075.64 1246.71 1062.52C1324.02 1078.62 1274.09 1094.87 1323.66 1094.87C1366 1168.48 1393.17 1122.29 1382.1 1168.84C1398.55 1189.75 1408.34 1219.69 1427.41 1219.69C1430.13 1207.28 1421.52 1213.95 1421.52 1187.7C1446.84 1213.95 1431.87 1213.95 1522.09 1213.95C1522.09 1187.7 1446.84 1219.69 1408.39 1127.98C1375.69 1117.83 1362 1103.22 1350.16 1066.78C1343.5 1046.27 1281.73 1053.45 1253.99 1014.44C1194.07 1014.44 1155.06 1125.21 1118.66 1127.98C1106 1129.67 1095.9 1155.56 1077.7 1168.89Z" fill="#F0CC69"/>
<path d="M480.844 997.828C480.844 997.828 465.978 1004.18 490.942 974.812C515.907 945.439 513.959 944.977 529.081 936.314C544.203 927.702 605.461 915.194 605.461 915.194C605.461 915.194 632.219 907.146 650.93 892.639C681.072 869.264 686.044 843.992 686.044 843.992L698.449 795.293L698.911 831.228C698.911 831.228 688.3 868.598 678.201 886.693C663.54 912.99 631.707 927.702 631.707 927.702C631.707 927.702 608.434 937.493 589.672 944.567C577.318 949.232 552.866 955.127 525.544 982.347C501.143 1006.65 449.318 1092.92 449.318 1092.92L480.844 997.828Z" fill="#F0CC69"/>
<path d="M637.448 1485.99C637.448 1485.99 614.637 1471.54 615.354 1446.93C616.072 1422.33 629.092 1419.97 629.912 1402.9C630.118 1398.39 674.1 1444.11 655.851 1476.82C647.085 1492.5 633.193 1454.77 633.398 1438.73C625.709 1448.57 637.448 1485.99 637.448 1485.99Z" fill="#F0CC69"/>
<path d="M482.997 1129.21C482.997 1129.21 495.043 1127.11 520.828 1093.23C546.612 1059.34 576.293 1010.54 578.497 973.838C548.458 1063.55 482.997 1129.21 482.997 1129.21Z" fill="#2F333F"/>
<path d="M593.773 885.36C593.773 885.36 598.13 798.625 690.965 775.199C585.366 794.166 593.773 885.36 593.773 885.36Z" fill="#2F333F"/>
<path d="M577.267 1172.27L645.291 1058.57C645.342 1058.57 606.127 1156.69 577.267 1172.27Z" fill="#2F333F"/>
<path d="M457.161 1091.69C457.161 1091.69 502.579 967.481 546.715 949.796C590.851 932.059 493.352 934.007 457.161 1091.69Z" fill="#2F333F"/>
<path d="M656.415 1241.58C660.516 1237.84 738.536 1205.34 738.536 1205.34L782.724 1238.09L709.625 1261.83L656.415 1241.58Z" fill="#2F333F"/>
<path d="M897.653 1090.25C897.653 1090.25 889.758 1144.74 870.382 1161.51C851.005 1178.27 762.322 1208.26 762.322 1208.26L695.887 1229.58C695.887 1229.58 666.975 1235.43 639.448 1272.08C611.92 1308.73 521.341 1403.67 489.559 1499.94C471.976 1553.15 513.242 1653.67 513.242 1653.67C513.242 1653.67 560.659 1468.36 590.903 1412.89C608.793 1380.09 666.309 1284.84 666.309 1284.84C666.309 1284.84 697.886 1251.32 713.931 1250.19C729.976 1249.06 807.432 1216.05 831.064 1204.1C854.644 1192.16 886.17 1164.94 886.17 1164.94C886.17 1164.94 909.699 1102.86 897.653 1090.25Z" fill="#F0CC69"/>
<path d="M731.206 1234.45C731.206 1234.45 827.475 1196.01 842.495 1187.7C857.515 1179.4 797.077 1221.64 731.206 1234.45Z" fill="#2F333F"/>
<path d="M1461.27 1787C1431.95 1787 1386.38 1792.54 1386.38 1792.54C1386.38 1792.54 1431.95 1798.07 1461.27 1798.07C1490.39 1798.07 1535.71 1792.54 1535.71 1792.54C1535.71 1792.54 1490.44 1787 1461.27 1787Z" fill="#F0CC69"/>
<path d="M1383.92 1728.05C1306 1728.05 1184.97 1733.59 1184.97 1733.59C1184.97 1733.59 1306.05 1739.12 1383.92 1739.12C1461.33 1739.12 1581.64 1733.59 1581.64 1733.59C1581.64 1733.59 1461.38 1728.05 1383.92 1728.05Z" fill="#F0CC69"/>
<path d="M1223.37 1683.81C1148.73 1683.81 1032.73 1689.35 1032.73 1689.35C1032.73 1689.35 1148.68 1694.88 1223.37 1694.88C1297.55 1694.88 1412.78 1689.35 1412.78 1689.35C1412.78 1689.35 1297.55 1683.86 1223.37 1683.81Z" fill="#F0CC69"/>
<path d="M1531.25 1654.34C1505.1 1654.34 1464.5 1659.87 1464.5 1659.87C1464.5 1659.87 1505.1 1665.41 1531.25 1665.41C1557.24 1665.41 1597.58 1659.87 1597.58 1659.87C1597.58 1659.87 1557.19 1654.39 1531.25 1654.34Z" fill="#F0CC69"/>
<path d="M1138.79 1632.24C1060.87 1632.24 939.841 1637.78 939.841 1637.78C939.841 1637.78 1060.92 1643.31 1138.79 1643.31C1216.19 1643.31 1336.5 1637.78 1336.5 1637.78C1336.5 1637.78 1216.19 1632.24 1138.79 1632.24Z" fill="#F0CC69"/>
<path d="M1409.86 1580.67C1346.14 1580.67 1247.15 1586.21 1247.15 1586.21C1247.15 1586.21 1346.14 1591.75 1409.86 1591.75C1473.17 1591.75 1571.54 1586.21 1571.54 1586.21C1571.54 1586.21 1473.17 1580.67 1409.86 1580.67Z" fill="#F0CC69"/>
<path d="M1099.21 1580.67C1064.97 1580.67 1011.81 1586.21 1011.81 1586.21C1011.81 1586.21 1065.02 1591.75 1099.21 1591.75C1133.2 1591.75 1186.05 1586.21 1186.05 1586.21C1186.05 1586.21 1133.2 1580.67 1099.21 1580.67Z" fill="#F0CC69"/>
<path d="M1474.3 1529.1C1425.7 1529.1 1350.24 1534.64 1350.24 1534.64C1350.24 1534.64 1425.75 1540.18 1474.3 1540.18C1522.58 1540.18 1597.58 1534.64 1597.58 1534.64C1597.58 1534.64 1522.53 1529.1 1474.3 1529.1Z" fill="#F0CC69"/>
<path d="M1207.53 1529.1C1171.08 1529.1 1114.49 1534.64 1114.49 1534.64C1114.49 1534.64 1171.08 1540.18 1207.53 1540.18C1243.72 1540.18 1299.95 1534.64 1299.95 1534.64C1299.95 1534.64 1243.72 1529.1 1207.53 1529.1Z" fill="#F0CC69"/>
<path d="M1414.93 1477.54C1353.21 1477.54 1257.3 1483.07 1257.3 1483.07C1257.3 1483.07 1353.21 1488.61 1414.93 1488.61C1476.24 1488.61 1571.54 1483.07 1571.54 1483.07C1571.54 1483.07 1476.24 1477.54 1414.93 1477.54Z" fill="#F0CC69"/>
<path d="M1533.6 1435.5C1503.41 1435.5 1456.51 1438.99 1456.51 1438.99C1456.51 1438.99 1503.41 1442.47 1533.6 1442.47C1563.59 1442.47 1610.19 1438.99 1610.19 1438.99C1610.19 1438.99 1563.59 1435.5 1533.6 1435.5Z" fill="#F0CC69"/>
<path d="M744.79 1718.21C744.79 1797.1 778.521 1923.72 944.916 1994.66C1024.53 2025.01 1110.95 2041.62 1201.22 2041.62C1430.98 2041.62 1635.62 1933.97 1767.41 1766.39C1767.41 1766.39 1764.79 1738.1 1757.57 1729.13C1744.6 1713.13 1722.14 1714.41 1727.63 1719.08C1747.21 1735.74 1739.37 1753.01 1733.94 1761.68C1727.89 1771.37 1721.94 1777.83 1711.12 1786.13C1536.63 1920.44 878.122 1859.79 878.122 1639.73C878.122 1510.34 1072.15 1414.38 1266.43 1414.38C1363.36 1414.38 1530.38 1400.08 1586.2 1379.78C1690.26 1341.85 1643.05 1284.33 1582.51 1265.82C1554.11 1257.11 1524.22 1255.93 1487.62 1255.93C1426.06 1255.93 1406.99 1252.14 1396.79 1250.14C1395.2 1249.83 1393.81 1249.57 1392.53 1249.37C1355.06 1243.27 1392.53 1262.03 1452.1 1262.03H1454.46C1693.39 1262.03 1673.81 1404.28 1266.48 1404.28C859.155 1404.23 744.79 1605.48 744.79 1718.21Z" fill="#F0CC69"/>
<path d="M1169.65 1957.7C773.292 1931.71 776.265 1691.4 776.265 1691.4C776.265 1691.4 730.642 1969.65 1169.03 1995.33C1432.41 2010.76 1615.57 1885.12 1616.96 1881.78C1622.9 1878.3 1452.61 1976.26 1169.65 1957.7Z" fill="#2F333F"/>
<path d="M852.542 1647.83C852.542 1453.24 1190.61 1413.3 1190.61 1413.3C1190.61 1413.3 816.762 1447.19 816.762 1655C816.762 1794.64 1021.86 1837.85 1021.86 1837.85C1021.86 1837.85 852.542 1789.46 852.542 1647.83Z" fill="#2F333F"/>
<path d="M1605.58 1284.02C1605.58 1284.02 1638.18 1300.94 1638.18 1321.55C1638.18 1354.25 1580.61 1371.06 1580.61 1371.06C1580.61 1371.06 1627.57 1352.76 1627.57 1320.06C1627.62 1298.48 1605.58 1284.02 1605.58 1284.02Z" fill="#2F333F"/>
<path d="M1050.16 728.243C1050.72 762.435 1051.23 762.947 1085.68 763.511C1051.23 764.075 1050.72 764.588 1050.16 798.779C1049.54 764.588 1049.08 764.075 1014.63 763.511C1049.08 762.947 1049.54 762.486 1050.16 728.243Z" fill="#F0CC69"/>
<path d="M1024.27 885.771C1024.83 919.962 1025.35 920.475 1059.79 921.038C1025.35 921.602 1024.83 922.115 1024.27 956.306C1023.65 922.115 1023.19 921.602 988.745 921.038C1023.19 920.423 1023.65 919.962 1024.27 885.771Z" fill="#F0CC69"/>
<path d="M1180.51 823.693C1181.08 857.884 1181.59 858.397 1216.04 858.961C1181.59 859.524 1181.08 860.037 1180.51 894.229C1179.9 860.037 1179.44 859.524 1144.99 858.961C1179.44 858.397 1179.9 857.935 1180.51 823.693Z" fill="#F0CC69"/>
<path d="M1884.37 2380.35L1926.06 2345.37M1926.06 2345.37L1821.12 2220.31M1926.06 2345.37L1967.74 2310.39M1821.12 2220.31L1716.18 2095.25M1821.12 2220.31L2029.55 2045.41M1716.18 2095.25L1674.49 2130.23M1716.18 2095.25L1757.86 2060.27M2029.55 2045.41L1924.61 1920.35M2029.55 2045.41L2134.49 2170.47M1924.61 1920.35L1882.93 1955.33M1924.61 1920.35L1966.3 1885.37M2134.49 2170.47L2092.81 2205.45M2134.49 2170.47L2176.18 2135.49" stroke="#F0CC69" stroke-width="13"/>
<path d="M1498.81 2510.48L1551.17 2495.65M1603.53 2480.82L1551.17 2495.65M1309.46 2281.32L1294.63 2228.96L1462.18 2181.5M1644.56 2186.39L1629.72 2134.03L1462.18 2181.5M1462.18 2181.5L1551.17 2495.65" stroke="#F0CC69" stroke-width="13"/>
<path d="M990.257 2201.01L1044.56 2204.59M1044.56 2204.59L1028.42 2449.62M1044.56 2204.59L1173.28 2213.07C1285.96 2220.49 1280.35 2365.8 1142.61 2397.08M1028.42 2449.62L1023.09 2530.39M1028.42 2449.62C1028.42 2449.62 1077.31 2411.91 1142.61 2397.08M1023.09 2530.39L968.792 2526.82M1023.09 2530.39L1093.69 2535.05M1142.61 2397.08C1185.57 2431.48 1202.14 2495.17 1234.87 2544.35L1289.17 2547.92" stroke="#F0CC69" stroke-width="13"/>
<path d="M864.105 2419.57C841.463 2475.29 758.835 2467.37 691.834 2440.14C630.86 2415.36 627.081 2300.67 743.606 2285.62C814.245 2276.5 895.459 2312.29 914.999 2294.35M864.105 2419.57C883.981 2370.67 895.124 2343.25 914.999 2294.35M864.105 2419.57C832.513 2497.31 831.264 2496.8 874.826 2514.51M914.999 2294.35L948.189 2212.68C956.491 2192.25 798.167 2119.52 742.846 2129.23L726.352 2169.81" stroke="#F0CC69" stroke-width="13"/>
<path d="M243.801 2138.38L285.041 2173.88M285.041 2173.88L491.239 2351.42L526.745 2310.18M285.041 2173.88L375.273 2069.08M456.843 1890.94L498.083 1926.45M498.083 1926.45L704.28 2103.98L668.773 2145.22M498.083 1926.45L375.273 2069.08M375.273 2069.08L540.728 2211.54" stroke="#F0CC69" stroke-width="13"/>
<path d="M1972.23 839.5L1994.05 884.489M1994.05 884.489L2118.73 824.028M1994.05 884.489L2022.41 942.976M2242.17 708.602L2263.99 753.591M2263.99 753.591L2350.52 932.041L2305.53 953.857M2263.99 753.591L2118.73 824.028M2118.73 824.028L2183.45 957.488" stroke="#F0CC69" stroke-width="13"/>
<circle cx="2011.79" cy="629.91" r="150.5" stroke="#F0CC69" stroke-width="13"/>
<path d="M1482.01 372.558L1464.3 413.955C1552.08 493.68 1666.61 557.257 1706.38 464.325C1746.15 371.393 1504.77 319.381 1542.51 231.188C1580.25 142.994 1702.67 212.194 1785.52 279.385C1785.52 279.385 1776.16 301.254 1767.2 322.204" stroke="#F0CC69" stroke-width="13"/>
<path d="M1039.51 424.898C1039.51 307.823 1039.51 124.898 1039.51 124.898M1039.51 424.898H1079.51M1039.51 424.898H989.51M1039.51 124.898H989.51M1039.51 124.898H1051.74C1051.74 124.898 1162.73 268.477 1198.03 343.502C1233.34 268.477 1344.82 124.898 1344.82 124.898H1356.56M1356.56 424.898C1356.56 303.364 1356.56 124.898 1356.56 124.898M1356.56 424.898H1406.56M1356.56 424.898H1316.56M1356.56 124.898H1406.56" stroke="#F0CC69" stroke-width="13"/>
<path d="M671.222 570.153L716.563 549.078M716.563 549.078L943.27 443.703L922.195 398.362M716.563 549.078L658.157 423.421M544.772 298.104L590.113 277.029M590.113 277.029L816.821 171.654L837.896 216.996M590.113 277.029L658.157 423.421M658.157 423.421L839.523 339.121" stroke="#F0CC69" stroke-width="13"/>
<circle cx="464.599" cy="557.161" r="150.5" transform="rotate(-45 464.599 557.161)" stroke="#F0CC69" stroke-width="13"/>
<path d="M75.9276 866.368L97.4094 821.218M97.4094 821.218L157.8 694.289C192.857 620.607 366.424 703.188 331.367 776.869L270.977 903.798M97.4094 821.218L270.977 903.798M270.977 903.798L368.31 950.108M368.31 950.108L346.828 995.258M368.31 950.108L396.236 891.413" stroke="#F0CC69" stroke-width="13"/>
</svg>
