<svg width="2786" height="2878" viewBox="0 0 2786 2878" fill="none" xmlns="http://www.w3.org/2000/svg">
<path d="M1366.94 2157.16C1790.53 2157.16 2133.92 1813.78 2133.92 1390.19C2133.92 966.598 1790.53 623.211 1366.94 623.211C943.352 623.211 599.965 966.598 599.965 1390.19C599.965 1813.78 943.352 2157.16 1366.94 2157.16Z" fill="#F0CC69"/>
<path d="M1366.94 2139.22C1780.62 2139.22 2115.98 1803.87 2115.98 1390.19C2115.98 976.507 1780.62 641.152 1366.94 641.152C953.261 641.152 617.906 976.507 617.906 1390.19C617.906 1803.87 953.261 2139.22 1366.94 2139.22Z" fill="#2F333F"/>
<path d="M1660.36 669.244C1660.36 669.244 1729.41 715.277 1735.15 749.827C1740.89 784.377 1738.02 778.585 1738.02 778.585C1738.02 778.585 2303.7 1146.85 1961.32 1831.65C1941.17 1877.69 2027.5 1837.39 2027.5 1837.39C2027.5 1837.39 2543.65 931.088 1660.36 669.244Z" fill="#2F333F"/>
<path d="M1172.51 686.724C1166.05 688.364 1182.45 667.501 1152.51 675.498C1136.32 679.855 1127.09 675.908 1114.89 673.498C1107.66 672.063 1101.05 672.319 1098.13 672.319C1074.13 672.319 1073.01 669.654 1043.17 674.37C988.528 682.982 485.344 977.121 609.038 1509.37C652.2 1558.27 652.2 1477.74 652.2 1477.74C652.2 1477.74 1753.51 540.936 1172.51 686.724Z" fill="#2F333F"/>
<path d="M1657.49 892.334C1649.34 840.868 1601 805.702 1549.48 813.904C1498.02 822.055 1462.9 870.394 1471.05 921.912C1479.2 973.379 1527.54 1008.54 1579.06 1000.34C1630.53 992.141 1665.69 943.801 1657.49 892.334Z" fill="#F0CC69"/>
<path d="M1633.25 872.906C1625.92 826.566 1582.39 794.937 1536.05 802.319C1489.71 809.649 1458.08 853.171 1465.47 899.511C1472.8 945.852 1516.32 977.48 1562.66 970.098C1608.95 962.717 1640.58 919.196 1633.25 872.906Z" fill="#2F333F"/>
<path d="M1906.68 1270.59C1906.68 1270.59 1905.34 1322.47 1955.58 1379.94C1987.51 1416.43 2064.36 1443.4 2075.84 1510.86C2077.89 1522.96 2103.06 1415.31 2070.66 1369.89C2034.73 1319.5 1951.58 1321.14 1906.68 1270.59Z" fill="#F0CC69"/>
<path d="M2095.42 1363.79C2095.42 1363.79 2098.75 1261.37 2046.21 1224.51C1992.13 1186.58 1893.45 1201.49 1869.25 1174.17C1862.49 1166.53 1903.91 1253.01 1945.48 1273.41C1997.05 1298.79 2065.54 1295.92 2095.42 1363.79Z" fill="#F0CC69"/>
<path d="M2095.16 1261.93C2095.16 1261.93 2091.52 1154.08 2041.95 1126.7C1992.33 1099.33 1928.31 1115.53 1875.1 1088.21C1844.65 1072.57 1838.6 1058.94 1838.6 1058.94C1838.6 1058.94 1853.88 1134.44 1905.29 1160.13C1928.31 1171.61 2003.66 1168.69 2041.95 1185.65C2074.71 1200.21 2085.07 1224.56 2095.16 1261.93Z" fill="#F0CC69"/>
<path d="M1755.35 1997.38C1755.35 1997.38 2001.25 1843.49 1944.1 1766.91C1841.11 1634.86 1831.32 1509.37 1831.32 1509.37C1831.32 1509.37 1785.9 1673.51 1822.71 1726.87C1859.46 1780.29 1905.96 1784.59 1908.16 1810.02C1912.67 1862.15 1833.47 1933.2 1755.35 1997.38Z" fill="#F0CC69"/>
<path d="M1829.01 959.846C1829.01 959.846 1837.52 1050.78 1882.22 1062.01C1923.23 1072.31 2015.71 1066.88 2048.52 1099.69C2052.57 1103.74 2055.44 1113.78 2056.87 1113.78C2065.28 1113.78 2023.19 1010.19 1945.53 995.832C1856.9 979.377 1847.72 987.169 1829.01 959.846Z" fill="#F0CC69"/>
<path d="M1788.72 864.91C1788.72 864.91 1828.3 935.856 1859.82 950.875C1907.65 973.687 1975.06 948.261 2016.02 1011.62C2031.86 1036.07 2005.97 958.411 1949.84 910.943C1900.93 869.575 1840.6 896.231 1788.72 864.91Z" fill="#F0CC69"/>
<path d="M1732.59 712.406C1732.59 712.406 1766.06 746.239 1778.62 771.408C1791.54 797.295 1794.21 823.541 1807.38 833.281C1860.08 872.189 1932.56 840.458 1961.32 903.766C1966.29 914.684 1959.89 841.893 1906.68 782.942C1865.46 737.165 1778.62 746.546 1732.59 712.406Z" fill="#F0CC69"/>
<path d="M1913.49 1907.93C1948.71 1869.79 1971.32 1826.58 1992.13 1813.56C2031.91 1788.7 2105.16 1795.51 2156.99 1717.6C2156.99 1717.6 2124.02 1829.65 2034.68 1857.49C2018.48 1862.51 1978.24 1858.26 1960.24 1880.35C1954.09 1887.89 1940.35 1897.68 1933.18 1905.11C1922.46 1916.23 1906.16 1915.88 1913.49 1907.93Z" fill="#F0CC69"/>
<path d="M2064.61 1657.82C2064.61 1657.82 2085.01 1573.4 2121.31 1550.59C2186.87 1509.42 2206.2 1474 2214.5 1441.76C2220.14 1419.77 2211.22 1524.03 2200.35 1552.17C2174.88 1618.56 2064.61 1657.82 2064.61 1657.82Z" fill="#F0CC69"/>
<path d="M2123.92 1384.24C2123.92 1384.24 2210.25 1338.21 2191.54 1197.24C2181.49 1244.71 2161.34 1266.29 2161.34 1266.29C2161.34 1266.29 2110.95 1305.09 2123.92 1384.24Z" fill="#F0CC69"/>
<path d="M2071.79 1080.67C2071.79 1080.67 2138.33 1008.75 2045.44 870.087C2052.1 908.226 2041.95 944.365 2041.95 944.365C2041.95 944.365 2019.4 979.736 2071.79 1080.67Z" fill="#F0CC69"/>
<path d="M1948.4 810.213C1948.4 810.213 2017.81 805.907 2028.99 873.522C2038.78 932.78 2015.4 945.698 2019.71 963.229C2024.06 980.761 1975.06 914.018 1974.29 889.361C1973.52 864.705 1969.98 824.618 1948.4 810.213Z" fill="#F0CC69"/>
<path d="M2100.91 1169.15C2100.91 1169.15 2071.22 1104.71 2092.29 1080.67C2112.44 1057.65 2119.62 1003.01 2111 975.635C2101.83 946.775 2185.79 1092.2 2100.91 1169.15Z" fill="#F0CC69"/>
<path d="M2118.18 1292.18C2118.18 1292.18 2104.19 1208.41 2111.67 1192.42C2119.15 1176.43 2164.21 1141.11 2151.24 1061.29C2147.6 1038.89 2214.91 1145.16 2170.67 1210.21C2145.09 1247.73 2124.49 1258.45 2118.18 1292.18Z" fill="#F0CC69"/>
<path d="M2003.05 1785.77C2003.05 1785.77 2021.3 1718.67 2050.52 1699.3C2067.48 1688.07 2158.68 1663.31 2200.92 1583.09C2218.6 1549.46 2173.39 1709.24 2102.34 1743.74C2055.54 1766.45 2031.5 1757.84 2003.05 1785.77Z" fill="#F0CC69"/>
<path d="M2130.28 1413.82C2152.48 1389.21 2194 1376.09 2206.66 1292.18C2222.6 1378.35 2197.33 1423.1 2197.33 1423.1C2197.33 1423.1 2150.22 1510.86 2116.49 1513.98C2103.78 1515.16 2113.72 1432.17 2130.28 1413.82Z" fill="#F0CC69"/>
<path d="M1966.55 1780.55C1966.55 1780.55 2013.15 1710.78 1998.79 1627.32C1987.98 1564.63 1862.13 1515.11 1880.84 1418.74C1894.47 1348.36 1811.07 1552.53 1934.05 1690.63C1969.42 1726.62 1966.55 1780.55 1966.55 1780.55Z" fill="#F0CC69"/>
<path d="M2020.37 1680.58C2020.37 1680.58 2080.91 1568.01 2062.77 1526.65C2040.31 1475.44 1908.42 1412.69 1913.03 1359.17C1916.36 1320.37 1892.32 1432.27 1925.39 1483.48C1956.76 1532.03 2041.9 1543.92 2020.37 1680.58Z" fill="#F0CC69"/>
<path d="M634.72 1735.95C484.318 1487.48 523.585 1227.12 654.917 1047.14C661.53 1038.12 684.085 1011.77 689.057 1012.8C697.926 1014.64 705.615 1026.33 702.744 1031.36C697.464 1040.53 692.236 1049.91 687.161 1059.5C639.897 1148.9 573.36 1267.16 598.991 1385.68C609.089 1432.38 615.087 1476.56 624.16 1479.18C624.16 1479.18 641.999 1444.68 648.253 1423.71C674.038 1337.29 679.42 1275.98 741.293 1201.54C856.529 1062.93 854.838 1080.11 769.743 1230.1C735.398 1290.69 707.358 1363.33 696.439 1447.86C694.184 1465.29 680.497 1502.19 679.779 1520.6C678.549 1552.33 714.124 1569.24 714.124 1601.39C714.124 1611.43 715.56 1683.4 751.545 1762.5C772.306 1808.23 794.503 1855.44 823.722 1898.55C827.31 1903.83 850.275 1950.68 838.536 1942.48C805.37 1919.57 693.568 1827.5 634.72 1735.95Z" fill="#F0CC69"/>
<path d="M721.404 1785.11C688.852 1729.95 670.501 1587.34 765.489 1421.51C783.84 1389.47 776.1 1376.86 754.211 1404.08C639.334 1546.84 646.049 1687.56 646.049 1687.56" fill="#F0CC69"/>
<path d="M864.321 1941.15C848.481 1926.74 830.488 1899.37 826.9 1883.58C825.055 1875.43 823.671 1860.1 824.286 1851.44C826.9 1814.53 841.715 1798.03 855.658 1761.32C876.163 1707.55 886.312 1719.75 891.233 1699.65C908.867 1627.53 789.479 1741.23 789.479 1741.23C789.479 1741.23 758.312 1771.83 739.858 1816.48C739.858 1816.48 754.621 1849.9 783.738 1877.89C848.276 1939.92 948.031 2017.22 864.321 1941.15Z" fill="#F0CC69"/>
<path d="M846.38 1782.39C846.38 1782.39 900.256 1691.2 967.614 1612.77C989.554 1587.24 981.198 1570.68 983.402 1558.99C985.606 1547.3 986.58 1529.82 998.165 1518.03C1009.75 1506.29 1027.49 1495.99 1027.49 1495.99L1045.84 1486.61C1039.33 1479.64 1000.37 1498.5 1000.37 1498.5C1000.37 1498.5 971.151 1517.06 966.64 1533.46C962.129 1549.82 959.412 1567.91 957.72 1575.5C956.028 1583.08 928.04 1625.43 911.687 1640.81C895.283 1656.13 858.324 1686.07 858.324 1686.07L844.791 1741.94L846.38 1782.39Z" fill="#F0CC69"/>
<path d="M845.713 1712.73C845.713 1712.73 847.712 1645.47 836.281 1620.4C824.798 1595.34 788.146 1591.75 788.146 1591.75C788.146 1591.75 815.11 1576.63 830.642 1589.44C846.123 1602.31 829.463 1541.2 858.939 1527.16C858.939 1527.16 842.279 1585.85 848.43 1599.95C854.633 1614.05 866.577 1691.61 866.577 1691.61" fill="#F0CC69"/>
<path d="M739.96 1497.17C739.96 1497.17 804.14 1424.58 827.156 1421.66C850.173 1418.79 915.173 1434.84 915.173 1434.84C915.173 1434.84 988.99 1456.06 1010.78 1437.19C1032.56 1418.33 983.812 1447.75 947.57 1428.12C911.277 1408.49 853.505 1403.16 853.505 1403.16C853.505 1403.16 825.106 1385.21 783.892 1420.84" fill="#F0CC69"/>
<path d="M790.197 1180.01C800.398 1174.38 825.926 1130.85 825.875 1108.2C825.875 1108.45 833.103 1045.71 859.144 1017.67C894.155 979.94 948.851 935.702 971.612 944.826C994.372 953.951 950.953 907.559 841.151 1016.9C798.04 1059.86 790.094 1134.7 790.094 1134.7L729.913 1215.95" fill="#F0CC69"/>
<path d="M580.28 1335.29C580.28 1335.29 601.041 1275.98 620.88 1251.01C640.718 1226.05 667.271 1203.13 684.957 1184.94C702.642 1166.69 731.297 1123.78 734.578 1115.94C737.859 1108.09 757.543 1052.12 757.543 1052.12C757.543 1052.12 768.154 974.25 779.022 931.806C789.889 889.361 840.28 859.681 840.28 859.681L878.572 846.968C878.572 846.968 967.357 817.851 974.072 824.31C980.788 830.769 1028.87 872.65 1028.87 872.65L987.349 815.083L1033.89 753.364L1035.79 738.344C1035.79 738.344 1002.78 790.272 973.919 802.165C945.058 814.058 898.359 817.595 898.359 817.595L845.047 827.95C845.047 827.95 811.778 839.996 783.02 865.166C754.262 890.335 743.395 932.78 743.395 932.78L739.345 990.552L713.099 1062.22L673.577 1138.7C673.577 1138.7 629.799 1192.98 616.471 1202.21C603.194 1211.44 580.28 1335.29 580.28 1335.29Z" fill="#F0CC69"/>
<path d="M790.299 1272.95C790.299 1272.95 861.348 1236.76 872.42 1221.95C883.442 1207.08 917.121 1155.51 917.121 1155.51L911.072 1180.83L892.976 1213.49L926.399 1209.85L962.538 1206.93L941.829 1217.23L894.924 1226.41C894.924 1226.41 844.995 1276.18 811.111 1281.56" fill="#F0CC69"/>
<path d="M663.427 1429.56C663.427 1429.56 647.689 1386.7 646.459 1326.67C646.459 1326.67 655.225 1345.54 666.246 1376.3C681.676 1419.36 683.367 1385.52 683.367 1385.52" fill="#F0CC69"/>
<path d="M858.426 834.255C858.426 834.255 889.337 797.449 894.412 784.224C899.487 770.998 911.021 764.744 911.021 764.744L908.099 780.328L889.337 823.234" fill="#F0CC69"/>
<path d="M598.478 1152.79C598.478 1152.79 611.089 1066.32 613.703 1055.19C616.368 1044.07 637.591 1015.67 637.591 1015.67C637.591 1015.67 684.905 982.555 688.186 986.041C691.416 989.527 653.431 1013.98 641.641 1029.25C629.85 1044.53 627.902 1068.01 627.902 1068.01L630.619 1087.18L598.478 1152.79Z" fill="#F0CC69"/>
<path d="M888.158 1222.77C888.158 1222.77 928.654 1247.12 948.031 1231.69C967.408 1216.21 988.733 1191.45 988.733 1191.45C988.733 1191.45 916.352 1179.96 888.158 1222.77Z" fill="#F0CC69"/>
<path d="M1005.75 823.387C1005.75 823.387 1031.38 862.961 1055.63 857.528C1079.88 852.094 1109.92 839.125 1109.92 839.125C1109.92 839.125 1049.94 797.244 1005.75 823.387Z" fill="#F0CC69"/>
<path d="M965.511 790.067C965.511 790.067 1009.7 773.305 1009.44 748.545C1009.13 723.786 1002.62 691.799 1002.62 691.799C1002.62 691.799 949.005 741.574 965.511 790.067Z" fill="#F0CC69"/>
<path d="M881.033 1077.18C881.033 1077.18 928.142 1073.19 934.703 1049.35C941.265 1025.46 943.879 992.961 943.879 992.961C943.879 992.961 878.623 1026.02 881.033 1077.18Z" fill="#F0CC69"/>
<path d="M1034.87 1341.44C1034.87 1341.44 1042.56 1387.93 1066.96 1392.55C1091.36 1397.16 1124.11 1397.21 1124.11 1397.21C1124.11 1397.21 1085.87 1335.03 1034.87 1341.44Z" fill="#F0CC69"/>
<path d="M1002.42 1521.31C1002.42 1521.31 1041.07 1548.43 1061.52 1534.34C1081.98 1520.24 1104.94 1497.02 1104.94 1497.02C1104.94 1497.02 1033.59 1480.56 1002.42 1521.31Z" fill="#F0CC69"/>
<path d="M1081.98 1196.26C1081.98 1196.26 1126.73 1181.04 1127.29 1156.28C1127.86 1131.52 1122.47 1099.33 1122.47 1099.33C1122.47 1099.33 1067.21 1147.26 1081.98 1196.26Z" fill="#F0CC69"/>
<path d="M647.946 1002.96C647.946 1002.96 689.365 980.197 685.623 955.745C681.881 931.293 670.962 900.536 670.962 900.536C670.962 900.536 624.878 957.18 647.946 1002.96Z" fill="#F0CC69"/>
<path d="M938.343 1055.96C938.343 1055.96 985.042 1063.45 997.191 1041.86C1009.34 1020.28 1019.8 989.373 1019.8 989.373C1019.8 989.373 948.39 1005.72 938.343 1055.96Z" fill="#F0CC69"/>
<path d="M773.075 1250.86C773.075 1250.86 819.775 1258.34 831.924 1236.76C844.073 1215.18 854.53 1184.27 854.53 1184.27C854.53 1184.27 783.123 1200.67 773.075 1250.86Z" fill="#F0CC69"/>
<path d="M950.031 1435.76C950.031 1435.76 977.046 1474.41 1001.09 1468.16C1025.13 1461.9 1054.71 1447.86 1054.71 1447.86C1054.71 1447.86 993.296 1408.08 950.031 1435.76Z" fill="#F0CC69"/>
<path d="M840.792 1681.35C840.792 1681.35 825.516 1636.76 800.654 1636.19C775.792 1635.63 743.497 1640.96 743.497 1640.96C743.497 1640.96 791.53 1696.07 840.792 1681.35Z" fill="#F0CC69"/>
<path d="M916.915 1100.66C916.915 1100.66 941.675 1074.57 977.045 1078.16C1012.42 1081.75 1013.65 1097.79 1038.2 1100.71C1044.66 1101.48 971.201 1149.82 927.065 1124.04C905.894 1111.68 962.743 1098.97 985.914 1100.97C972.944 1090.56 916.915 1100.66 916.915 1100.66Z" fill="#F0CC69"/>
<path d="M899.23 764.231C899.23 764.231 885.338 731.116 903.023 700.359C920.709 669.602 935.933 675.036 948.595 653.916C951.927 648.38 966.383 734.807 924.758 764.539C904.818 778.79 916.3 721.889 927.526 701.641C912.712 709.176 899.23 764.231 899.23 764.231Z" fill="#F0CC69"/>
<path d="M1038.82 730.963C1038.82 730.963 1049.73 699.539 1079.83 692.875C1109.92 686.211 1116.58 700.872 1137.55 696.617C1143.08 695.49 1100.38 761.566 1055.32 749.981C1033.69 744.444 1075.52 716.456 1095.05 711.74C1080.85 705.588 1038.82 730.963 1038.82 730.963Z" fill="#F0CC69"/>
<path d="M716.944 1355.59C716.944 1355.59 726.735 1323.8 756.569 1316.06C786.403 1308.32 793.58 1322.73 814.392 1317.81C819.877 1316.52 779.534 1383.98 734.065 1373.99C712.279 1369.17 753.083 1339.75 772.46 1334.41C758.056 1328.78 716.944 1355.59 716.944 1355.59Z" fill="#F0CC69"/>
<path d="M906.817 938.111C906.817 938.111 889.644 909.558 903.844 882.338C918.043 855.067 933.576 859.424 943.828 840.714C946.545 835.793 969.869 910.788 931.987 937.752C913.84 950.67 919.171 900.792 928.142 882.851C914.301 889.72 906.817 938.111 906.817 938.111Z" fill="#F0CC69"/>
<path d="M1032.97 864.397C1032.97 864.397 1068.96 866.498 1088.95 895.82C1108.94 925.142 1097.36 936.368 1110.89 956.975C1114.43 962.409 1030.05 937.444 1021.49 887.157C1017.39 863.064 1063.68 898.281 1077.01 917.196C1076.75 900.639 1032.97 864.397 1032.97 864.397Z" fill="#F0CC69"/>
<path d="M927.732 951.747C927.732 951.747 963.358 982.76 985.145 970.867C1006.93 958.975 1032.25 938.265 1032.25 938.265C1032.25 938.265 962.948 914.479 927.732 951.747Z" fill="#F0CC69"/>
<path d="M1044.97 1299.92C1044.97 1299.92 1071.47 1275.62 1106.53 1281.62C1141.6 1287.66 1141.7 1303.76 1165.94 1308.37C1172.3 1309.6 1095.66 1352.72 1053.43 1323.96C1033.18 1310.17 1090.79 1301.45 1113.71 1305.04C1101.56 1293.71 1044.97 1299.92 1044.97 1299.92Z" fill="#F0CC69"/>
<path d="M1030.92 1234.56C1030.92 1234.56 1058.14 1196.06 1043.99 1175.71C1029.84 1155.36 1006.52 1132.5 1006.52 1132.5C1006.52 1132.5 990.015 1203.54 1030.92 1234.56Z" fill="#F0CC69"/>
<path d="M636.924 1334.36C636.924 1334.36 615.036 1309.25 624.263 1279.92C633.49 1250.65 649.535 1252.24 656.404 1231.99C658.198 1226.66 694.286 1296.48 661.684 1329.6C646.049 1345.49 642.614 1295.4 648.304 1276.18C635.899 1285.46 636.924 1334.36 636.924 1334.36Z" fill="#F0CC69"/>
<path d="M1025.38 808.983C1025.38 808.983 1032.1 772.638 1058.96 762.642C1085.77 752.646 1097.97 758.234 1126.01 757.978C1126.01 757.978 1117.14 790.888 1092.43 797.552C1064.8 804.985 1051.84 788.991 1025.38 808.983Z" fill="#F0CC69"/>
<path d="M1043.53 1244.66C1043.53 1244.66 1057.73 1210.52 1086.03 1206.31C1114.32 1202.11 1125.09 1210.05 1152.57 1215.64C1152.57 1215.64 1137.03 1245.99 1111.5 1247.37C1082.9 1248.96 1073.57 1230.61 1043.53 1244.66Z" fill="#F0CC69"/>
<path d="M919.735 1560.38C919.735 1560.38 883.237 1567.09 873.19 1593.8C863.142 1620.51 868.781 1632.65 868.525 1660.54C868.525 1660.54 901.589 1651.67 908.253 1627.12C915.737 1599.64 899.641 1586.78 919.735 1560.38Z" fill="#F0CC69"/>
<path d="M846.892 1563.25C846.892 1563.25 825.875 1532.8 837.716 1506.86C849.558 1480.92 862.168 1476.26 881.801 1456.37C881.801 1456.37 898.872 1485.89 886.159 1507.99C871.959 1532.64 851.403 1530.44 846.892 1563.25Z" fill="#F0CC69"/>
<path d="M904.1 1184.53C904.1 1184.53 903.588 1143.88 882.417 1137.57C861.246 1131.26 832.026 1128.14 832.026 1128.14C832.026 1128.14 857.709 1185.24 904.1 1184.53Z" fill="#F0CC69"/>
<path d="M763.284 1079.44C763.284 1079.44 803.935 1075.39 808.395 1053.81C812.854 1032.28 813.418 1003.01 813.418 1003.01C813.418 1003.01 758.568 1033.46 763.284 1079.44Z" fill="#F0CC69"/>
<path d="M808.087 979.838C808.087 979.838 784.61 955.232 791.632 929.96C798.655 904.688 809.42 898.691 824.337 877.827C824.337 877.827 844.124 902.176 835.717 924.014C826.388 948.517 807.472 949.44 808.087 979.838Z" fill="#F0CC69"/>
<path d="M813.367 981.632C813.367 981.632 852.531 998.292 867.858 982.093C883.185 965.895 899.076 941.135 899.076 941.135C899.076 941.135 833.103 940.008 813.367 981.632Z" fill="#F0CC69"/>
<path d="M816.238 1574.22C816.238 1574.22 793.939 1558.94 771.486 1569.24C749.034 1579.5 751.956 1592.36 736.475 1599.8C732.425 1601.74 791.837 1624.2 814.905 1594.67C825.977 1580.52 785.686 1582.52 770.922 1588.98C777.074 1578.06 816.238 1574.22 816.238 1574.22Z" fill="#F0CC69"/>
<path d="M922.657 1457.75C922.657 1457.75 965.204 1478.31 962.744 1502.91C960.283 1527.52 951.005 1558.84 951.005 1558.84C951.005 1558.84 901.998 1504.65 922.657 1457.75Z" fill="#F0CC69"/>
<path d="M882.16 770.639C882.16 770.639 857.196 750.852 829.976 761.104C802.705 771.357 805.063 786.684 786.25 794.168C781.329 796.167 849.302 827.437 878.931 794.578C893.13 778.841 845.559 777.918 827.669 784.275C835.768 771.972 882.16 770.639 882.16 770.639Z" fill="#F0CC69"/>
<path d="M618.932 1025.56C618.932 1025.56 593.608 1016.13 589.149 991.936C584.689 967.74 596.94 962.717 594.224 945.851C593.506 941.392 646.049 977.019 635.028 1012.8C629.748 1029.97 608.269 995.934 605.142 980.197C599.657 991.372 618.932 1025.56 618.932 1025.56Z" fill="#F0CC69"/>
<path d="M832.026 1384.5C832.026 1384.5 845.611 1350.1 873.856 1345.38C902.101 1340.67 913.02 1348.46 940.547 1353.54C940.547 1353.54 925.528 1384.14 900.051 1385.98C871.498 1388.09 861.861 1369.89 832.026 1384.5Z" fill="#F0CC69"/>
<path d="M929.885 1402.03C929.885 1402.03 938.804 1373.22 965.819 1366.2C992.834 1359.17 999.344 1372.25 1018.26 1367.79C1023.23 1366.61 986.683 1427.76 945.468 1418.69C925.733 1414.33 962.692 1387.68 980.275 1382.81C967.101 1377.73 929.885 1402.03 929.885 1402.03Z" fill="#F0CC69"/>
<path d="M792.607 1076.98L837.461 1081.18L830.233 1117.89L775.024 1118.86L792.607 1076.98Z" fill="#2F333F"/>
<path d="M701.156 1148.64C701.156 1148.64 730.939 1129.27 751.444 1118.55C771.999 1107.89 819.621 1110.91 819.621 1110.91L872.165 1107.12L932.038 1098.61L928.809 1092.92C928.809 1092.92 917.788 1093.74 890.516 1094.15C863.245 1094.56 814.598 1088.36 814.598 1088.36C814.598 1088.36 781.432 1081.95 766.771 1086.82C752.11 1091.69 715.971 1106.86 715.971 1106.86" fill="#F0CC69"/>
<path d="M966.948 1319.24C966.948 1319.24 985.71 1316.17 1005.34 1310.83C1024.98 1305.5 1068.5 1306.07 1052.2 1307.81C1022.77 1311.04 1000.68 1326.88 1000.68 1326.88L987.863 1335.54" fill="#F0CC69"/>
<path d="M696.798 1323.39L758.415 1290.07C758.415 1290.07 856.068 1306.99 874.215 1316.27C892.362 1325.55 976.482 1328.72 976.482 1328.72L1029.9 1369.02C1029.9 1369.02 1008.62 1327.7 965.461 1315.91C922.35 1304.12 849.353 1286.54 849.353 1286.54C849.353 1286.54 751.853 1242.4 717.559 1276.03" fill="#F0CC69"/>
<path d="M721.404 1039.56L770.769 1020.44L785.993 971.329L735.091 986.348L721.404 1039.56Z" fill="#2F333F"/>
<path d="M1744.09 1178.32C1727.64 1153.72 1720.26 1120.81 1697.7 1123.99C1667.36 1123.99 1669.61 1156.54 1615.63 1153.77C1591.8 1185.76 1557.19 1178.37 1557.19 1211.44C1607.48 1195.91 1623.73 1198.88 1628.55 1190.52C1628.55 1185.14 1552.38 1198.83 1645.36 1178.32C1697.7 1157.61 1654.59 1178.32 1645.36 1211.44C1653.67 1233.74 1676.43 1252.14 1704.16 1264.7C1705.44 1263.42 1708.98 1262.65 1702.11 1255.32C1651.57 1223.64 1693.96 1204.98 1680.12 1202.36C1666.07 1196.98 1685.86 1170.53 1693.45 1168.17C1732.46 1155.97 1713.8 1191.34 1731.74 1198.88C1808.68 1194.83 1786.85 1255.63 1845.64 1238.09C1783.1 1238.04 1818.42 1168.69 1744.09 1178.32Z" fill="#F0CC69"/>
<path d="M1244.7 1239.89C1225.58 1253.88 1200.88 1234.35 1183.86 1268.18C1183.86 1285 1260.95 1272.8 1289.05 1239.89C1409.25 1151.31 1329.54 1244.14 1320.47 1248.6C1285.51 1285.05 1251.11 1325.14 1333.44 1276.34C1384.44 1238.71 1320.47 1313.29 1308.83 1334.57C1354.3 1329.03 1350.46 1329.75 1420.89 1344.72C1429.3 1316.68 1320.47 1318.63 1390.39 1276.28C1390.39 1239.84 1427.55 1234.3 1369.88 1239.84C1367.78 1216.97 1376.75 1194.11 1399.1 1188.83C1413.71 1185.4 1399.1 1228.2 1448.67 1228.2C1448.67 1157.77 1327.75 1146.64 1413.71 1133.52C1491.02 1149.62 1441.09 1165.87 1490.66 1165.87C1533 1239.48 1560.17 1193.29 1549.1 1239.84C1565.55 1260.75 1575.34 1290.69 1594.41 1290.69C1597.13 1278.28 1588.52 1284.95 1588.52 1258.7C1613.84 1284.95 1598.87 1284.95 1689.09 1284.95C1689.09 1258.7 1613.84 1290.69 1575.39 1198.98C1542.69 1188.83 1529 1174.22 1517.16 1137.78C1510.5 1117.27 1448.73 1124.45 1420.99 1085.44C1361.07 1085.44 1322.06 1196.21 1285.66 1198.98C1273 1200.67 1262.9 1226.56 1244.7 1239.89Z" fill="#F0CC69"/>
<path d="M647.843 1068.83C647.843 1068.83 632.977 1075.18 657.942 1045.81C682.906 1016.44 680.958 1015.98 696.08 1007.31C711.203 998.702 772.46 986.194 772.46 986.194C772.46 986.194 799.219 978.146 817.929 963.639C848.071 940.264 853.044 914.992 853.044 914.992L865.449 866.293L865.91 902.228C865.91 902.228 855.299 939.597 845.201 957.693C830.54 983.99 798.706 998.702 798.706 998.702C798.706 998.702 775.433 1008.49 756.672 1015.57C744.318 1020.23 719.866 1026.13 692.543 1053.35C668.143 1077.64 616.317 1163.92 616.317 1163.92L647.843 1068.83Z" fill="#F0CC69"/>
<path d="M804.448 1556.99C804.448 1556.99 781.636 1542.54 782.354 1517.93C783.071 1493.33 796.092 1490.97 796.912 1473.9C797.117 1469.39 841.1 1515.11 822.85 1547.82C814.085 1563.5 800.193 1525.77 800.398 1509.73C792.709 1519.57 804.448 1556.99 804.448 1556.99Z" fill="#F0CC69"/>
<path d="M649.996 1200.21C649.996 1200.21 662.043 1198.11 687.828 1164.23C713.612 1130.34 743.293 1081.54 745.497 1044.84C715.458 1134.55 649.996 1200.21 649.996 1200.21Z" fill="#2F333F"/>
<path d="M760.773 956.36C760.773 956.36 765.13 869.625 857.965 846.199C752.366 865.165 760.773 956.36 760.773 956.36Z" fill="#2F333F"/>
<path d="M744.266 1243.27L812.291 1129.57C812.342 1129.57 773.127 1227.69 744.266 1243.27Z" fill="#2F333F"/>
<path d="M624.16 1162.69C624.16 1162.69 669.578 1038.48 713.715 1020.8C757.851 1003.06 660.351 1005.01 624.16 1162.69Z" fill="#2F333F"/>
<path d="M823.415 1312.58C827.516 1308.84 905.536 1276.34 905.536 1276.34L949.724 1309.09L876.625 1332.83L823.415 1312.58Z" fill="#2F333F"/>
<path d="M1064.65 1161.25C1064.65 1161.25 1056.76 1215.74 1037.38 1232.51C1018 1249.27 929.322 1279.26 929.322 1279.26L862.887 1300.58C862.887 1300.58 833.975 1306.43 806.448 1343.08C778.92 1379.73 688.341 1474.67 656.558 1570.94C638.976 1624.15 680.241 1724.67 680.241 1724.67C680.241 1724.67 727.658 1539.36 757.903 1483.89C775.793 1451.09 833.309 1355.84 833.309 1355.84C833.309 1355.84 864.886 1322.32 880.931 1321.19C896.976 1320.06 974.432 1287.05 998.064 1275.1C1021.64 1263.16 1053.17 1235.94 1053.17 1235.94C1053.17 1235.94 1076.7 1173.86 1064.65 1161.25Z" fill="#F0CC69"/>
<path d="M898.206 1305.45C898.206 1305.45 994.475 1267.01 1009.49 1258.7C1024.51 1250.4 964.077 1292.64 898.206 1305.45Z" fill="#2F333F"/>
<path d="M1628.27 1858C1598.95 1858 1553.38 1863.54 1553.38 1863.54C1553.38 1863.54 1598.95 1869.07 1628.27 1869.07C1657.39 1869.07 1702.71 1863.54 1702.71 1863.54C1702.71 1863.54 1657.44 1858 1628.27 1858Z" fill="#F0CC69"/>
<path d="M1550.92 1799.05C1473 1799.05 1351.97 1804.59 1351.97 1804.59C1351.97 1804.59 1473.05 1810.12 1550.92 1810.12C1628.33 1810.12 1748.64 1804.59 1748.64 1804.59C1748.64 1804.59 1628.38 1799.05 1550.92 1799.05Z" fill="#F0CC69"/>
<path d="M1390.37 1754.81C1315.73 1754.81 1199.73 1760.35 1199.73 1760.35C1199.73 1760.35 1315.68 1765.88 1390.37 1765.88C1464.54 1765.88 1579.78 1760.35 1579.78 1760.35C1579.78 1760.35 1464.54 1754.86 1390.37 1754.81Z" fill="#F0CC69"/>
<path d="M1698.25 1725.34C1672.1 1725.34 1631.5 1730.87 1631.5 1730.87C1631.5 1730.87 1672.1 1736.41 1698.25 1736.41C1724.24 1736.41 1764.58 1730.87 1764.58 1730.87C1764.58 1730.87 1724.18 1725.39 1698.25 1725.34Z" fill="#F0CC69"/>
<path d="M1305.79 1703.24C1227.87 1703.24 1106.84 1708.78 1106.84 1708.78C1106.84 1708.78 1227.92 1714.31 1305.79 1714.31C1383.19 1714.31 1503.5 1708.78 1503.5 1708.78C1503.5 1708.78 1383.19 1703.24 1305.79 1703.24Z" fill="#F0CC69"/>
<path d="M1576.86 1651.67C1513.14 1651.67 1414.15 1657.21 1414.15 1657.21C1414.15 1657.21 1513.14 1662.75 1576.86 1662.75C1640.17 1662.75 1738.54 1657.21 1738.54 1657.21C1738.54 1657.21 1640.17 1651.67 1576.86 1651.67Z" fill="#F0CC69"/>
<path d="M1266.21 1651.67C1231.97 1651.67 1178.81 1657.21 1178.81 1657.21C1178.81 1657.21 1232.02 1662.75 1266.21 1662.75C1300.2 1662.75 1353.05 1657.21 1353.05 1657.21C1353.05 1657.21 1300.2 1651.67 1266.21 1651.67Z" fill="#F0CC69"/>
<path d="M1641.29 1600.1C1592.7 1600.1 1517.24 1605.64 1517.24 1605.64C1517.24 1605.64 1592.75 1611.18 1641.29 1611.18C1689.58 1611.18 1764.58 1605.64 1764.58 1605.64C1764.58 1605.64 1689.53 1600.1 1641.29 1600.1Z" fill="#F0CC69"/>
<path d="M1374.53 1600.1C1338.08 1600.1 1281.49 1605.64 1281.49 1605.64C1281.49 1605.64 1338.08 1611.18 1374.53 1611.18C1410.72 1611.18 1466.95 1605.64 1466.95 1605.64C1466.95 1605.64 1410.72 1600.1 1374.53 1600.1Z" fill="#F0CC69"/>
<path d="M1581.93 1548.53C1520.21 1548.53 1424.3 1554.07 1424.3 1554.07C1424.3 1554.07 1520.21 1559.61 1581.93 1559.61C1643.24 1559.61 1738.54 1554.07 1738.54 1554.07C1738.54 1554.07 1643.24 1548.53 1581.93 1548.53Z" fill="#F0CC69"/>
<path d="M1700.6 1506.5C1670.41 1506.5 1623.51 1509.99 1623.51 1509.99C1623.51 1509.99 1670.41 1513.47 1700.6 1513.47C1730.59 1513.47 1777.19 1509.99 1777.19 1509.99C1777.19 1509.99 1730.59 1506.5 1700.6 1506.5Z" fill="#F0CC69"/>
<path d="M911.79 1789.21C911.79 1868.1 945.52 1994.72 1111.92 2065.66C1191.52 2096.01 1277.95 2112.62 1368.22 2112.62C1597.98 2112.62 1802.61 2004.97 1934.41 1837.39C1934.41 1837.39 1931.79 1809.1 1924.57 1800.13C1911.6 1784.13 1889.14 1785.41 1894.63 1790.08C1914.21 1806.74 1906.37 1824.01 1900.93 1832.68C1894.89 1842.37 1888.94 1848.83 1878.12 1857.13C1703.63 1991.44 1045.12 1930.79 1045.12 1710.73C1045.12 1581.34 1239.15 1485.38 1433.43 1485.38C1530.36 1485.38 1697.37 1471.08 1753.2 1450.78C1857.26 1412.85 1810.05 1355.33 1749.51 1336.82C1721.11 1328.11 1691.22 1326.93 1654.62 1326.93C1593.06 1326.93 1573.99 1323.14 1563.79 1321.14C1562.2 1320.83 1560.81 1320.57 1559.53 1320.37C1522.06 1314.27 1559.53 1333.03 1619.1 1333.03H1621.46C1860.39 1333.03 1840.8 1475.28 1433.48 1475.28C1026.15 1475.23 911.79 1676.48 911.79 1789.21Z" fill="#F0CC69"/>
<path d="M1336.65 2028.7C940.291 2002.71 943.265 1762.4 943.265 1762.4C943.265 1762.4 897.642 2040.65 1336.03 2066.33C1599.41 2081.76 1782.57 1956.12 1783.96 1952.78C1789.9 1949.3 1619.61 2047.26 1336.65 2028.7Z" fill="#2F333F"/>
<path d="M1019.54 1718.83C1019.54 1524.24 1357.61 1484.3 1357.61 1484.3C1357.61 1484.3 983.761 1518.19 983.761 1726C983.761 1865.64 1188.86 1908.85 1188.86 1908.85C1188.86 1908.85 1019.54 1860.46 1019.54 1718.83Z" fill="#2F333F"/>
<path d="M1772.58 1355.02C1772.58 1355.02 1805.18 1371.94 1805.18 1392.55C1805.18 1425.25 1747.61 1442.06 1747.61 1442.06C1747.61 1442.06 1794.57 1423.76 1794.57 1391.06C1794.62 1369.48 1772.58 1355.02 1772.58 1355.02Z" fill="#2F333F"/>
<path d="M1217.16 799.243C1217.72 833.435 1218.23 833.947 1252.68 834.511C1218.23 835.075 1217.72 835.588 1217.16 869.779C1216.54 835.588 1216.08 835.075 1181.63 834.511C1216.08 833.947 1216.54 833.486 1217.16 799.243Z" fill="#F0CC69"/>
<path d="M1191.27 956.77C1191.83 990.962 1192.35 991.474 1226.79 992.038C1192.35 992.602 1191.83 993.115 1191.27 1027.31C1190.65 993.115 1190.19 992.602 1155.74 992.038C1190.19 991.423 1190.65 990.962 1191.27 956.77Z" fill="#F0CC69"/>
<path d="M1347.51 894.692C1348.08 928.884 1348.59 929.396 1383.04 929.96C1348.59 930.524 1348.08 931.037 1347.51 965.228C1346.9 931.037 1346.44 930.524 1311.99 929.96C1346.44 929.396 1346.9 928.935 1347.51 894.692Z" fill="#F0CC69"/>
<path d="M2175.36 2430L2220.38 2393.41M2220.38 2393.41L2105.91 2258.42M2220.38 2393.41L2263.53 2355.07M2105.91 2258.42L1955.22 2080.75M2105.91 2258.42C2247.13 2141.54 2341.03 1982.79 2341.03 1982.79M1955.22 2080.75L1909.85 2116.88M1955.22 2080.75L1997.97 2042.12M2341.03 1982.79L2171.22 1878.54M2341.03 1982.79L2493.42 2074.84M2171.22 1878.54L2139.98 1927.52M2171.22 1878.54L2197.49 1833.08M2493.42 2074.84L2463.19 2120.71M2493.42 2074.84L2519.58 2030.67" stroke="#F0CC69" stroke-width="17"/>
<path d="M1781.62 2639.76L1836.29 2620.4M1890.04 2598.54L1836.29 2620.4M1523.16 2359.12L1511.91 2284.45C1511.91 2284.45 1605.12 2268.92 1690.75 2237.03M1897.87 2216.86L1857.2 2153.25C1857.2 2153.25 1776.66 2206.08 1690.75 2237.03M1690.75 2237.03C1746.48 2387.59 1836.29 2620.4 1836.29 2620.4" stroke="#F0CC69" stroke-width="17"/>
<path d="M1155.37 2283.33L1214.16 2289.92M1214.16 2289.92L1164.09 2581.9M1214.16 2289.92L1378.33 2294.12C1498.4 2302.03 1485.62 2472.86 1338.37 2513.35M1164.09 2581.9L1146.03 2687M1164.09 2581.9C1164.09 2581.9 1241.77 2533.46 1338.37 2513.35M1146.03 2687L1089.17 2676.36M1146.03 2687L1219.84 2696.78M1338.37 2513.35C1383.78 2555.6 1401.11 2643.42 1435.43 2704.15L1492.39 2700.06" stroke="#F0CC69" stroke-width="17"/>
<path d="M1001.51 2553.39C980.427 2624.91 843.02 2593.23 771.623 2564.21C670.273 2523.02 692.106 2376.92 852.908 2378.73C935.938 2379.67 1031.27 2408.43 1059.62 2369.23M1001.51 2553.39L1059.62 2369.23M1001.51 2553.39C972.243 2652.68 973.712 2645.16 1003.19 2654.37M1059.62 2369.23L1089.75 2273.5C1100.09 2248.06 924.609 2166.2 863.641 2181.51L841.633 2216.13" stroke="#F0CC69" stroke-width="17"/>
<path d="M270.209 2091.84C270.209 2091.84 280.089 2115.31 297.179 2142.17M297.179 2142.17C434.485 2357.9 566.798 2429.15 566.798 2429.15L609.885 2376.37M297.179 2142.17L433.814 2039.79M590.652 1853.68C590.652 1853.68 607.462 1882.14 620.858 1903.58M620.858 1903.58C692.07 2017.56 819.921 2114.68 819.921 2114.68L777.097 2163.95M620.858 1903.58L433.814 2039.79M433.814 2039.79C510.048 2152.92 608.732 2237.2 608.732 2237.2" stroke="#F0CC69" stroke-width="17"/>
<path d="M2236.29 935.186C2236.29 935.186 2250.47 962.253 2258.32 980.01M2258.32 980.01L2389.92 919.491M2258.32 980.01C2269.67 1003.84 2282.95 1038.45 2282.95 1038.45M2509.62 792.286C2509.62 792.286 2525.79 823.072 2538.59 851.19M2538.59 851.19C2584.82 947.882 2615.36 1067.08 2615.36 1067.08L2567.99 1079.3M2538.59 851.19L2389.92 919.491M2389.92 919.491C2389.92 919.491 2426.79 1000.15 2444.9 1064.74" stroke="#F0CC69" stroke-width="17"/>
<circle cx="2264.24" cy="694.542" r="154.267" transform="rotate(-45 2264.24 694.542)" stroke="#F0CC69" stroke-width="17"/>
<path d="M1647.43 442.803L1634.18 488.76C1689.81 558.488 1831.43 629.787 1874.01 530.302C1916.58 430.817 1652.28 381.643 1692.68 287.231C1740.49 175.508 1942.76 289.606 1965.43 375.408L1939.92 419.106" stroke="#F0CC69" stroke-width="17"/>
<path d="M1147.84 508.908C1165.72 504.248 1183.15 500.542 1197.84 497.746M1197.84 497.746C1221.36 493.268 1237.84 491.12 1237.84 491.12M1197.84 497.746V185.469M1474.89 487.845C1474.89 487.845 1492.55 489.901 1514.89 493.422M1514.89 493.422C1530.74 495.921 1548.96 499.158 1564.89 502.921M1514.89 493.422V182.347M1147.84 193.519C1167.25 189.854 1186.07 187.08 1197.84 185.469M1197.84 185.469C1205.42 184.432 1210.07 183.878 1210.07 183.878C1210.07 183.878 1321.17 331.906 1356.48 406.931C1391.79 331.906 1503.15 181.03 1503.15 181.03C1503.15 181.03 1507.78 181.519 1514.89 182.347M1564.89 189.298C1548.72 186.46 1527.75 183.847 1514.89 182.347" stroke="#F0CC69" stroke-width="17"/>
<path d="M836.204 654.448C836.204 654.448 858.601 637.85 876.248 626.946M876.248 626.946C986.972 554.904 1087.39 526.489 1087.39 526.489L1065.37 459.058M876.248 626.946L800.396 509.637M655.159 404.996C655.159 404.996 682.858 384.977 708.829 368.14M708.829 368.14C847.167 276.832 991.652 233.204 991.652 233.204L1007.33 281.255M708.829 368.14L800.396 509.637M800.396 509.637C891.687 450.32 976.722 418.03 976.722 418.03" stroke="#F0CC69" stroke-width="17"/>
<circle cx="593.825" cy="659.217" r="154.267" transform="rotate(-45 593.825 659.217)" stroke="#F0CC69" stroke-width="17"/>
<path d="M200.299 1053.6C209.728 1019.79 220.715 989.038 220.715 989.038M220.715 989.038C220.715 989.038 255.348 872.951 305.692 819.358C364.804 756.431 490.045 825.044 461.79 900.515C446.681 973.263 395.91 1050.04 395.91 1050.04M220.715 989.038L395.91 1050.04M395.91 1050.04L511.879 1090.44M511.879 1090.44C504.297 1111.74 496.593 1138.47 496.593 1138.47M511.879 1090.44C520.907 1063.28 535.263 1030.23 535.263 1030.23" stroke="#F0CC69" stroke-width="17"/>
</svg>
